M48
; DRILL file {KiCad 7.0.7} date Mon 01 Jan 2024 11:26:08 PM PST
; FORMAT={-:-/ absolute / inch / decimal}
; #@! TF.CreationDate,2024-01-01T23:26:08-08:00
; #@! TF.GenerationSoftware,Kicad,Pcbnew,7.0.7
; #@! TF.FileFunction,Plated,1,4,PTH
FMAT,2
INCH
; #@! TA.AperFunction,Plated,PTH,ViaDrill
T1C0.0098
; #@! TA.AperFunction,Plated,PTH,ViaDrill
T2C0.0157
; #@! TA.AperFunction,Plated,PTH,ComponentDrill
T3C0.0276
; #@! TA.AperFunction,Plated,PTH,ComponentDrill
T4C0.0335
; #@! TA.AperFunction,Plated,PTH,ComponentDrill
T5C0.0394
%
G90
G05
T1
X2.8031Y-2.2362
X2.8031Y-2.2736
X2.8425Y-2.2362
X2.8425Y-2.2736
X2.8425Y-2.5059
X2.8543Y-2.1378
X2.8819Y-2.1122
X2.8976Y-2.3031
X2.8976Y-2.3248
X2.9033Y-2.1122
X2.9311Y-2.1634
X2.9685Y-2.5827
X2.9862Y-2.3051
X3.0118Y-2.3169
X3.0374Y-2.3051
X3.063Y-2.3169
X3.1083Y-2.3898
X3.1398Y-2.3543
X3.1476Y-2.3898
X3.1516Y-2.4862
X3.1791Y-2.315
X3.1791Y-2.3543
X3.2028Y-2.4862
X3.2047Y-2.2343
X3.2815Y-2.1929
X3.2815Y-2.2303
X3.313Y-2.5197
X3.313Y-2.5581
X3.3524Y-2.5197
X3.3524Y-2.5581
X3.3661Y-2.2398
X3.372Y-2.439
X3.3799Y-2.1664
X3.3871Y-2.2653
X3.3873Y-2.3546
X3.388Y-2.3763
X3.3994Y-2.1469
X3.4037Y-2.4395
X3.4221Y-2.1647
X3.4276Y-2.0443
X3.436Y-2.4395
X3.4428Y-2.1465
X3.4431Y-2.2387
X3.4606Y-2.0935
X3.4665Y-2.4397
X3.4744Y-2.1358
X3.478Y-2.3368
X3.4843Y-2.1634
X3.502Y-2.0354
X3.5049Y-2.5421
X3.5059Y-2.5805
X3.5079Y-2.0728
X3.5089Y-2.1112
X3.5275Y-2.2383
X3.5404Y-2.0374
X3.5473Y-2.2621
X3.5512Y-2.2894
X3.5649Y-2.3371
X3.5669Y-2.2387
X3.5725Y-2.3784
X3.6319Y-2.1457
X3.6437Y-2.3883
X3.6437Y-2.4473
X3.6516Y-2.2667
X3.6722Y-2.1467
X3.6929Y-2.2303
X3.7076Y-2.12
X3.7087Y-2.1496
X3.7205Y-2.1752
X3.7323Y-2.251
X3.7333Y-2.2136
X3.7406Y-2.0472
X3.7835Y-2.1476
X3.8051Y-2.315
X3.8209Y-2.3307
X3.8268Y-2.2933
X3.8327Y-2.0728
X3.8327Y-2.1339
X3.8425Y-2.3091
X3.8583Y-2.1949
X3.8839Y-2.1457
X3.8858Y-2.0709
X3.9114Y-2.0709
X3.9114Y-2.1457
X3.9134Y-2.3012
X3.9252Y-2.3878
X3.9291Y-2.3169
X3.935Y-2.2795
X3.9508Y-2.2953
X3.9764Y-2.1083
X4.0Y-2.1083
X4.0394Y-2.1988
X4.0394Y-2.25
X4.0453Y-2.1083
X4.0453Y-2.1476
X4.0551Y-2.1735
X4.0551Y-2.2244
X4.0571Y-2.3031
X4.0571Y-2.3406
X4.0906Y-2.5295
X4.0974Y-2.0404
X4.1575Y-2.2782
X4.1614Y-2.4199
X4.1732Y-2.2152
X4.1732Y-2.292
X4.187Y-2.0807
X4.1929Y-2.2979
X4.1988Y-2.4199
X4.2077Y-2.2329
X4.2077Y-2.2642
X4.2126Y-2.2979
X4.2146Y-2.0965
X4.2234Y-2.2487
X4.2283Y-2.6083
X4.2316Y-2.4172
X4.2352Y-2.0492
X4.2352Y-2.2959
X4.2441Y-2.2152
X4.25Y-2.6083
X4.251Y-2.0951
X4.252Y-2.2811
X4.2559Y-2.4042
X4.2884Y-2.5679
X4.2884Y-2.5876
X4.3652Y-2.29
X4.3996Y-2.2963
X4.3996Y-2.3337
T2
X4.1161Y-2.0807
X4.1949Y-2.5197
X4.3543Y-2.4508
T3
X2.7726Y-2.7402
X2.8415Y-2.7402
X2.9104Y-2.7402
X2.9793Y-2.7402
X3.0482Y-2.7402
X3.1171Y-2.7402
X3.186Y-2.7402
X3.2549Y-2.7402
X3.3238Y-2.7402
X3.3927Y-2.7402
X3.4616Y-2.7402
X3.5305Y-2.7402
X3.5994Y-2.7402
X3.6683Y-2.7402
X3.7372Y-2.7402
X3.8061Y-2.7402
X3.875Y-2.7402
X3.9439Y-2.7402
X4.0128Y-2.7402
X4.3671Y-2.7402
X4.436Y-2.7402
T4
X4.0915Y-2.7402
X4.19Y-2.7402
X4.2884Y-2.7402
T5
X3.1Y-2.1
X3.2Y-2.1
X3.3Y-2.1
T0
M30
