%TF.GenerationSoftware,KiCad,Pcbnew,7.0.7*%
%TF.CreationDate,2024-01-01T23:26:11-08:00*%
%TF.ProjectId,Curly_Mini_v0,4375726c-795f-44d6-996e-695f76302e6b,rev?*%
%TF.SameCoordinates,Original*%
%TF.FileFunction,Legend,Bot*%
%TF.FilePolarity,Positive*%
%FSLAX46Y46*%
G04 Gerber Fmt 4.6, Leading zero omitted, Abs format (unit mm)*
G04 Created by KiCad (PCBNEW 7.0.7) date 2024-01-01 23:26:11*
%MOMM*%
%LPD*%
G01*
G04 APERTURE LIST*
%ADD10C,0.300000*%
%ADD11C,0.400000*%
G04 APERTURE END LIST*
D10*
G36*
X102253064Y-64945535D02*
G01*
X102290069Y-64982539D01*
X102343248Y-65088898D01*
X102406204Y-65340720D01*
X102406204Y-65660936D01*
X102343248Y-65912757D01*
X102290068Y-66019117D01*
X102253065Y-66056121D01*
X102163652Y-66100828D01*
X102091614Y-66100828D01*
X102002201Y-66056122D01*
X101965197Y-66019118D01*
X101912017Y-65912758D01*
X101849061Y-65660934D01*
X101849061Y-65340721D01*
X101912017Y-65088897D01*
X101965197Y-64982538D01*
X102002201Y-64945534D01*
X102091614Y-64900828D01*
X102163651Y-64900828D01*
X102253064Y-64945535D01*
G37*
G36*
X108110207Y-64945535D02*
G01*
X108147211Y-64982539D01*
X108200390Y-65088898D01*
X108263346Y-65340720D01*
X108263346Y-65660936D01*
X108200390Y-65912757D01*
X108147210Y-66019117D01*
X108110207Y-66056121D01*
X108020794Y-66100828D01*
X107948756Y-66100828D01*
X107859343Y-66056122D01*
X107822339Y-66019118D01*
X107769159Y-65912758D01*
X107706203Y-65660934D01*
X107706203Y-65340721D01*
X107769159Y-65088897D01*
X107822339Y-64982538D01*
X107859343Y-64945534D01*
X107948756Y-64900828D01*
X108020793Y-64900828D01*
X108110207Y-64945535D01*
G37*
G36*
X112538778Y-64945535D02*
G01*
X112575782Y-64982539D01*
X112628961Y-65088898D01*
X112691917Y-65340720D01*
X112691917Y-65660936D01*
X112628961Y-65912757D01*
X112575781Y-66019117D01*
X112538778Y-66056121D01*
X112449365Y-66100828D01*
X112377327Y-66100828D01*
X112287914Y-66056122D01*
X112250910Y-66019118D01*
X112197730Y-65912758D01*
X112134774Y-65660934D01*
X112134774Y-65340721D01*
X112197730Y-65088897D01*
X112250910Y-64982538D01*
X112287914Y-64945534D01*
X112377327Y-64900828D01*
X112449364Y-64900828D01*
X112538778Y-64945535D01*
G37*
G36*
X107620489Y-62999961D02*
G01*
X107620489Y-63671694D01*
X107592222Y-63685828D01*
X107377327Y-63685828D01*
X107287914Y-63641122D01*
X107250910Y-63604118D01*
X107206203Y-63514703D01*
X107206203Y-63156952D01*
X107250910Y-63067538D01*
X107287914Y-63030534D01*
X107377327Y-62985828D01*
X107592222Y-62985828D01*
X107620489Y-62999961D01*
G37*
G36*
X93395922Y-63030535D02*
G01*
X93432926Y-63067539D01*
X93477632Y-63156951D01*
X93477632Y-63514704D01*
X93432925Y-63604117D01*
X93395920Y-63641122D01*
X93306508Y-63685828D01*
X93163042Y-63685828D01*
X93073629Y-63641122D01*
X93036625Y-63604118D01*
X92991918Y-63514703D01*
X92991918Y-63156952D01*
X93036625Y-63067538D01*
X93073629Y-63030534D01*
X93163042Y-62985828D01*
X93306508Y-62985828D01*
X93395922Y-63030535D01*
G37*
G36*
X99158685Y-63019060D02*
G01*
X99191917Y-63085523D01*
X99191917Y-63152857D01*
X98784687Y-63071411D01*
X98810863Y-63019060D01*
X98877327Y-62985828D01*
X99092222Y-62985828D01*
X99158685Y-63019060D01*
G37*
G36*
X100620489Y-63685828D02*
G01*
X100437689Y-63685828D01*
X100280086Y-63633294D01*
X100179481Y-63532688D01*
X100126300Y-63426328D01*
X100063346Y-63174507D01*
X100063346Y-62997148D01*
X100126300Y-62745327D01*
X100179481Y-62638967D01*
X100280087Y-62538361D01*
X100437689Y-62485828D01*
X100620489Y-62485828D01*
X100620489Y-63685828D01*
G37*
G36*
X108944399Y-63019060D02*
G01*
X108977631Y-63085523D01*
X108977631Y-63152857D01*
X108570401Y-63071411D01*
X108596577Y-63019060D01*
X108663041Y-62985828D01*
X108877936Y-62985828D01*
X108944399Y-63019060D01*
G37*
G36*
X111467350Y-63030535D02*
G01*
X111504354Y-63067539D01*
X111549060Y-63156951D01*
X111549060Y-63514704D01*
X111504353Y-63604117D01*
X111467348Y-63641122D01*
X111377936Y-63685828D01*
X111234470Y-63685828D01*
X111145057Y-63641122D01*
X111108053Y-63604118D01*
X111063346Y-63514703D01*
X111063346Y-63156952D01*
X111108053Y-63067538D01*
X111145057Y-63030534D01*
X111234470Y-62985828D01*
X111377936Y-62985828D01*
X111467350Y-63030535D01*
G37*
G36*
X103776661Y-63257257D02*
G01*
X103478602Y-63257257D01*
X103627631Y-62810169D01*
X103776661Y-63257257D01*
G37*
G36*
X113277632Y-66971946D02*
G01*
X92477632Y-66971946D01*
X92477632Y-65750828D01*
X98620491Y-65750828D01*
X98640587Y-65825828D01*
X98695491Y-65880732D01*
X98770491Y-65900828D01*
X98834777Y-65900828D01*
X98834777Y-66250828D01*
X98854873Y-66325828D01*
X98909777Y-66380732D01*
X98984777Y-66400828D01*
X99059777Y-66380732D01*
X99114681Y-66325828D01*
X99134777Y-66250828D01*
X100120490Y-66250828D01*
X100140586Y-66325828D01*
X100195490Y-66380732D01*
X100270490Y-66400828D01*
X101199062Y-66400828D01*
X101218137Y-66395717D01*
X101237885Y-66395717D01*
X101254987Y-66385843D01*
X101274062Y-66380732D01*
X101288026Y-66366767D01*
X101305128Y-66356894D01*
X101315001Y-66339792D01*
X101328966Y-66325828D01*
X101334077Y-66306753D01*
X101343951Y-66289651D01*
X101343951Y-66269902D01*
X101349062Y-66250828D01*
X101343951Y-66231753D01*
X101343951Y-66212005D01*
X101334077Y-66194902D01*
X101328966Y-66175828D01*
X101315001Y-66161863D01*
X101305128Y-66144762D01*
X100839766Y-65679400D01*
X101549061Y-65679400D01*
X101553851Y-65697276D01*
X101553540Y-65715781D01*
X101624969Y-66001494D01*
X101633005Y-66015971D01*
X101636326Y-66032196D01*
X101707755Y-66175053D01*
X101723777Y-66193121D01*
X101735852Y-66214036D01*
X101807280Y-66285465D01*
X101828195Y-66297540D01*
X101846265Y-66313564D01*
X101989123Y-66384992D01*
X102022898Y-66391903D01*
X102056204Y-66400828D01*
X102199061Y-66400828D01*
X102232366Y-66391903D01*
X102266142Y-66384992D01*
X102409001Y-66313564D01*
X102427070Y-66297540D01*
X102447986Y-66285465D01*
X102482623Y-66250828D01*
X102977632Y-66250828D01*
X102997728Y-66325828D01*
X103052632Y-66380732D01*
X103127632Y-66400828D01*
X104056204Y-66400828D01*
X104075279Y-66395717D01*
X104095027Y-66395717D01*
X104112129Y-66385843D01*
X104131204Y-66380732D01*
X104145168Y-66366767D01*
X104162270Y-66356894D01*
X104172143Y-66339792D01*
X104186108Y-66325828D01*
X104191219Y-66306753D01*
X104201093Y-66289651D01*
X104201093Y-66269902D01*
X104206204Y-66250828D01*
X104201093Y-66231753D01*
X104201093Y-66212005D01*
X104191219Y-66194902D01*
X104186108Y-66175828D01*
X104172143Y-66161863D01*
X104162270Y-66144762D01*
X103330165Y-65312657D01*
X103277632Y-65155058D01*
X103277632Y-65071952D01*
X103322339Y-64982538D01*
X103359343Y-64945535D01*
X103448757Y-64900828D01*
X103735080Y-64900828D01*
X103824493Y-64945535D01*
X103878709Y-64999751D01*
X103945952Y-65038574D01*
X104023598Y-65038574D01*
X104090841Y-64999751D01*
X104129664Y-64932508D01*
X104129664Y-64854862D01*
X104090841Y-64787619D01*
X104019413Y-64716191D01*
X103998497Y-64704115D01*
X103981513Y-64689054D01*
X104263658Y-64689054D01*
X104288539Y-64762605D01*
X105574254Y-66691176D01*
X105632577Y-66742433D01*
X105708715Y-66757660D01*
X105782266Y-66732779D01*
X105833523Y-66674455D01*
X105848750Y-66598317D01*
X105823869Y-66524766D01*
X105641244Y-66250828D01*
X105977632Y-66250828D01*
X105997728Y-66325828D01*
X106052632Y-66380732D01*
X106127632Y-66400828D01*
X106556204Y-66400828D01*
X106984775Y-66400828D01*
X107059775Y-66380732D01*
X107114679Y-66325828D01*
X107134775Y-66250828D01*
X107114679Y-66175828D01*
X107059775Y-66120924D01*
X106984775Y-66100828D01*
X106706204Y-66100828D01*
X106706204Y-65679400D01*
X107406203Y-65679400D01*
X107410993Y-65697276D01*
X107410682Y-65715781D01*
X107482111Y-66001494D01*
X107490147Y-66015971D01*
X107493468Y-66032196D01*
X107564897Y-66175053D01*
X107580919Y-66193121D01*
X107592994Y-66214036D01*
X107664422Y-66285465D01*
X107685337Y-66297540D01*
X107703407Y-66313564D01*
X107846265Y-66384992D01*
X107880040Y-66391903D01*
X107913346Y-66400828D01*
X108056203Y-66400828D01*
X108089508Y-66391903D01*
X108123284Y-66384992D01*
X108266143Y-66313564D01*
X108284212Y-66297540D01*
X108305128Y-66285465D01*
X108376556Y-66214036D01*
X108388630Y-66193121D01*
X108404653Y-66175053D01*
X108476082Y-66032197D01*
X108479402Y-66015970D01*
X108487439Y-66001494D01*
X108558867Y-65715780D01*
X108558555Y-65697277D01*
X108563346Y-65679400D01*
X108563346Y-65322257D01*
X108558555Y-65304379D01*
X108558867Y-65285877D01*
X108487439Y-65000162D01*
X108479402Y-64985685D01*
X108476082Y-64969459D01*
X108404653Y-64826603D01*
X108388630Y-64808534D01*
X108376555Y-64787619D01*
X108305127Y-64716191D01*
X108284212Y-64704116D01*
X108267227Y-64689054D01*
X108692229Y-64689054D01*
X108717110Y-64762605D01*
X110002825Y-66691176D01*
X110061148Y-66742433D01*
X110137286Y-66757660D01*
X110210837Y-66732779D01*
X110262094Y-66674455D01*
X110277321Y-66598317D01*
X110252440Y-66524766D01*
X110069815Y-66250828D01*
X110406203Y-66250828D01*
X110426299Y-66325828D01*
X110481203Y-66380732D01*
X110556203Y-66400828D01*
X110984775Y-66400828D01*
X111413346Y-66400828D01*
X111488346Y-66380732D01*
X111543250Y-66325828D01*
X111563346Y-66250828D01*
X111543250Y-66175828D01*
X111488346Y-66120924D01*
X111413346Y-66100828D01*
X111134775Y-66100828D01*
X111134775Y-65679400D01*
X111834774Y-65679400D01*
X111839564Y-65697276D01*
X111839253Y-65715781D01*
X111910682Y-66001494D01*
X111918718Y-66015971D01*
X111922039Y-66032196D01*
X111993468Y-66175053D01*
X112009490Y-66193121D01*
X112021565Y-66214036D01*
X112092993Y-66285465D01*
X112113908Y-66297540D01*
X112131978Y-66313564D01*
X112274836Y-66384992D01*
X112308611Y-66391903D01*
X112341917Y-66400828D01*
X112484774Y-66400828D01*
X112518079Y-66391903D01*
X112551855Y-66384992D01*
X112694714Y-66313564D01*
X112712783Y-66297540D01*
X112733699Y-66285465D01*
X112805127Y-66214036D01*
X112817201Y-66193121D01*
X112833224Y-66175053D01*
X112904653Y-66032197D01*
X112907973Y-66015970D01*
X112916010Y-66001494D01*
X112987438Y-65715780D01*
X112987126Y-65697277D01*
X112991917Y-65679400D01*
X112991917Y-65322257D01*
X112987126Y-65304379D01*
X112987438Y-65285877D01*
X112916010Y-65000162D01*
X112907973Y-64985685D01*
X112904653Y-64969459D01*
X112833224Y-64826603D01*
X112817201Y-64808534D01*
X112805126Y-64787619D01*
X112733698Y-64716191D01*
X112712783Y-64704116D01*
X112694714Y-64688093D01*
X112551856Y-64616664D01*
X112518075Y-64609751D01*
X112484774Y-64600828D01*
X112341917Y-64600828D01*
X112308616Y-64609750D01*
X112274834Y-64616664D01*
X112131978Y-64688093D01*
X112113909Y-64704115D01*
X112092994Y-64716191D01*
X112021566Y-64787619D01*
X112009490Y-64808534D01*
X111993468Y-64826603D01*
X111922039Y-64969460D01*
X111918718Y-64985684D01*
X111910682Y-65000162D01*
X111839253Y-65285877D01*
X111839564Y-65304380D01*
X111834774Y-65322257D01*
X111834774Y-65679400D01*
X111134775Y-65679400D01*
X111134774Y-65184388D01*
X111164423Y-65214037D01*
X111185338Y-65226112D01*
X111203407Y-65242135D01*
X111346263Y-65313564D01*
X111422333Y-65329131D01*
X111495994Y-65304577D01*
X111547510Y-65246482D01*
X111563077Y-65170413D01*
X111538523Y-65096752D01*
X111480428Y-65045236D01*
X111359343Y-64984693D01*
X111244202Y-64869552D01*
X111109583Y-64667623D01*
X111083928Y-64645077D01*
X111059775Y-64620924D01*
X111054983Y-64619640D01*
X111051259Y-64616367D01*
X111017771Y-64609669D01*
X110984775Y-64600828D01*
X110979984Y-64602111D01*
X110975121Y-64601139D01*
X110942765Y-64612084D01*
X110909775Y-64620924D01*
X110906268Y-64624430D01*
X110901570Y-64626020D01*
X110879024Y-64651674D01*
X110854871Y-64675828D01*
X110853587Y-64680619D01*
X110850314Y-64684344D01*
X110843616Y-64717831D01*
X110834775Y-64750828D01*
X110834775Y-66100828D01*
X110556203Y-66100828D01*
X110481203Y-66120924D01*
X110426299Y-66175828D01*
X110406203Y-66250828D01*
X110069815Y-66250828D01*
X108966726Y-64596195D01*
X108908402Y-64544938D01*
X108832264Y-64529711D01*
X108758713Y-64554592D01*
X108707456Y-64612916D01*
X108692229Y-64689054D01*
X108267227Y-64689054D01*
X108266143Y-64688093D01*
X108123285Y-64616664D01*
X108089504Y-64609751D01*
X108056203Y-64600828D01*
X107913346Y-64600828D01*
X107880045Y-64609750D01*
X107846263Y-64616664D01*
X107703407Y-64688093D01*
X107685338Y-64704115D01*
X107664423Y-64716191D01*
X107592995Y-64787619D01*
X107580919Y-64808534D01*
X107564897Y-64826603D01*
X107493468Y-64969460D01*
X107490147Y-64985684D01*
X107482111Y-65000162D01*
X107410682Y-65285877D01*
X107410993Y-65304380D01*
X107406203Y-65322257D01*
X107406203Y-65679400D01*
X106706204Y-65679400D01*
X106706204Y-65184388D01*
X106735852Y-65214037D01*
X106756767Y-65226112D01*
X106774836Y-65242135D01*
X106917692Y-65313564D01*
X106993762Y-65329131D01*
X107067423Y-65304577D01*
X107118939Y-65246482D01*
X107134506Y-65170413D01*
X107109952Y-65096752D01*
X107051857Y-65045236D01*
X106930772Y-64984693D01*
X106815631Y-64869552D01*
X106681012Y-64667623D01*
X106655357Y-64645077D01*
X106631204Y-64620924D01*
X106626412Y-64619640D01*
X106622688Y-64616367D01*
X106589200Y-64609669D01*
X106556204Y-64600828D01*
X106551413Y-64602111D01*
X106546550Y-64601139D01*
X106514194Y-64612084D01*
X106481204Y-64620924D01*
X106477697Y-64624430D01*
X106472999Y-64626020D01*
X106450453Y-64651674D01*
X106426300Y-64675828D01*
X106425016Y-64680619D01*
X106421743Y-64684344D01*
X106415045Y-64717831D01*
X106406204Y-64750828D01*
X106406204Y-66100828D01*
X106127632Y-66100828D01*
X106052632Y-66120924D01*
X105997728Y-66175828D01*
X105977632Y-66250828D01*
X105641244Y-66250828D01*
X104538155Y-64596195D01*
X104479831Y-64544938D01*
X104403693Y-64529711D01*
X104330142Y-64554592D01*
X104278885Y-64612916D01*
X104263658Y-64689054D01*
X103981513Y-64689054D01*
X103980429Y-64688093D01*
X103837572Y-64616664D01*
X103803791Y-64609751D01*
X103770490Y-64600828D01*
X103413347Y-64600828D01*
X103380046Y-64609750D01*
X103346264Y-64616664D01*
X103203408Y-64688093D01*
X103185339Y-64704115D01*
X103164425Y-64716190D01*
X103092996Y-64787618D01*
X103080919Y-64808534D01*
X103064897Y-64826603D01*
X102993468Y-64969460D01*
X102986555Y-65003240D01*
X102977632Y-65036542D01*
X102977632Y-65179400D01*
X102983882Y-65202728D01*
X102985330Y-65226835D01*
X103056759Y-65441119D01*
X103075750Y-65469882D01*
X103092995Y-65499751D01*
X103694072Y-66100828D01*
X103127632Y-66100828D01*
X103052632Y-66120924D01*
X102997728Y-66175828D01*
X102977632Y-66250828D01*
X102482623Y-66250828D01*
X102519414Y-66214036D01*
X102531488Y-66193121D01*
X102547511Y-66175053D01*
X102618940Y-66032197D01*
X102622260Y-66015970D01*
X102630297Y-66001494D01*
X102701725Y-65715780D01*
X102701413Y-65697277D01*
X102706204Y-65679400D01*
X102706204Y-65322257D01*
X102701413Y-65304379D01*
X102701725Y-65285877D01*
X102630297Y-65000162D01*
X102622260Y-64985685D01*
X102618940Y-64969459D01*
X102547511Y-64826603D01*
X102531488Y-64808534D01*
X102519413Y-64787619D01*
X102447985Y-64716191D01*
X102427070Y-64704116D01*
X102409001Y-64688093D01*
X102266143Y-64616664D01*
X102232362Y-64609751D01*
X102199061Y-64600828D01*
X102056204Y-64600828D01*
X102022903Y-64609750D01*
X101989121Y-64616664D01*
X101846265Y-64688093D01*
X101828196Y-64704115D01*
X101807281Y-64716191D01*
X101735853Y-64787619D01*
X101723777Y-64808534D01*
X101707755Y-64826603D01*
X101636326Y-64969460D01*
X101633005Y-64985684D01*
X101624969Y-65000162D01*
X101553540Y-65285877D01*
X101553851Y-65304380D01*
X101549061Y-65322257D01*
X101549061Y-65679400D01*
X100839766Y-65679400D01*
X100473023Y-65312657D01*
X100420490Y-65155058D01*
X100420490Y-65071952D01*
X100465197Y-64982538D01*
X100502201Y-64945535D01*
X100591615Y-64900828D01*
X100877938Y-64900828D01*
X100967351Y-64945535D01*
X101021567Y-64999751D01*
X101088810Y-65038574D01*
X101166456Y-65038574D01*
X101233699Y-64999751D01*
X101272522Y-64932508D01*
X101272522Y-64854862D01*
X101233699Y-64787619D01*
X101162271Y-64716191D01*
X101141355Y-64704115D01*
X101123287Y-64688093D01*
X100980430Y-64616664D01*
X100946649Y-64609751D01*
X100913348Y-64600828D01*
X100556205Y-64600828D01*
X100522904Y-64609750D01*
X100489122Y-64616664D01*
X100346266Y-64688093D01*
X100328197Y-64704115D01*
X100307283Y-64716190D01*
X100235854Y-64787618D01*
X100223777Y-64808534D01*
X100207755Y-64826603D01*
X100136326Y-64969460D01*
X100129413Y-65003240D01*
X100120490Y-65036542D01*
X100120490Y-65179400D01*
X100126740Y-65202728D01*
X100128188Y-65226835D01*
X100199617Y-65441119D01*
X100218608Y-65469882D01*
X100235853Y-65499751D01*
X100836930Y-66100828D01*
X100270490Y-66100828D01*
X100195490Y-66120924D01*
X100140586Y-66175828D01*
X100120490Y-66250828D01*
X99134777Y-66250828D01*
X99134777Y-65900828D01*
X99699062Y-65900828D01*
X99722392Y-65894576D01*
X99746496Y-65893130D01*
X99759271Y-65884695D01*
X99774062Y-65880732D01*
X99791141Y-65863652D01*
X99811292Y-65850348D01*
X99818138Y-65836655D01*
X99828966Y-65825828D01*
X99835216Y-65802500D01*
X99846017Y-65780900D01*
X99845099Y-65765616D01*
X99849062Y-65750828D01*
X99842811Y-65727499D01*
X99841364Y-65703393D01*
X99484221Y-64631966D01*
X99441440Y-64567169D01*
X99371991Y-64532445D01*
X99294485Y-64537098D01*
X99229688Y-64579879D01*
X99194964Y-64649328D01*
X99199617Y-64726834D01*
X99490948Y-65600828D01*
X99134777Y-65600828D01*
X99134777Y-65250828D01*
X99114681Y-65175828D01*
X99059777Y-65120924D01*
X98984777Y-65100828D01*
X98909777Y-65120924D01*
X98854873Y-65175828D01*
X98834777Y-65250828D01*
X98834777Y-65600828D01*
X98770491Y-65600828D01*
X98695491Y-65620924D01*
X98640587Y-65675828D01*
X98620491Y-65750828D01*
X92477632Y-65750828D01*
X92477632Y-63550114D01*
X92691918Y-63550114D01*
X92700841Y-63583415D01*
X92707754Y-63617196D01*
X92779183Y-63760053D01*
X92795205Y-63778121D01*
X92807280Y-63799036D01*
X92878708Y-63870465D01*
X92899623Y-63882540D01*
X92917693Y-63898564D01*
X93060551Y-63969992D01*
X93094326Y-63976903D01*
X93127632Y-63985828D01*
X93341918Y-63985828D01*
X93375221Y-63976904D01*
X93409000Y-63969992D01*
X93551857Y-63898564D01*
X93569926Y-63882540D01*
X93590841Y-63870466D01*
X93662270Y-63799037D01*
X93674344Y-63778122D01*
X93678542Y-63773388D01*
X94049330Y-63773388D01*
X94073884Y-63847049D01*
X94131979Y-63898564D01*
X94274837Y-63969992D01*
X94308612Y-63976903D01*
X94341918Y-63985828D01*
X94627632Y-63985828D01*
X94660935Y-63976904D01*
X94694714Y-63969992D01*
X94837571Y-63898564D01*
X94855640Y-63882540D01*
X94876555Y-63870466D01*
X94911193Y-63835828D01*
X95406204Y-63835828D01*
X95426300Y-63910828D01*
X95481204Y-63965732D01*
X95556204Y-63985828D01*
X95631204Y-63965732D01*
X95686108Y-63910828D01*
X95706204Y-63835828D01*
X95706204Y-62835828D01*
X95686108Y-62760828D01*
X95631204Y-62705924D01*
X95556204Y-62685828D01*
X95481204Y-62705924D01*
X95426300Y-62760828D01*
X95406204Y-62835828D01*
X95406204Y-63835828D01*
X94911193Y-63835828D01*
X94947984Y-63799037D01*
X94960058Y-63778122D01*
X94976082Y-63760053D01*
X95047510Y-63617195D01*
X95054421Y-63583419D01*
X95063346Y-63550114D01*
X95063346Y-63121542D01*
X95054421Y-63088236D01*
X95047510Y-63054461D01*
X94976082Y-62911603D01*
X94960058Y-62893533D01*
X94947983Y-62872618D01*
X94876554Y-62801190D01*
X94855639Y-62789115D01*
X94837571Y-62773093D01*
X94694714Y-62701664D01*
X94660933Y-62694751D01*
X94627632Y-62685828D01*
X94341918Y-62685828D01*
X94308617Y-62694750D01*
X94274835Y-62701664D01*
X94131979Y-62773093D01*
X94073884Y-62824609D01*
X94049330Y-62898270D01*
X94064897Y-62974339D01*
X94116413Y-63032434D01*
X94190074Y-63056988D01*
X94266143Y-63041421D01*
X94377328Y-62985828D01*
X94592222Y-62985828D01*
X94681636Y-63030535D01*
X94718640Y-63067539D01*
X94763346Y-63156951D01*
X94763346Y-63514704D01*
X94718639Y-63604117D01*
X94681634Y-63641122D01*
X94592222Y-63685828D01*
X94377328Y-63685828D01*
X94266143Y-63630236D01*
X94190073Y-63614669D01*
X94116412Y-63639223D01*
X94064897Y-63697318D01*
X94049330Y-63773388D01*
X93678542Y-63773388D01*
X93690368Y-63760053D01*
X93761796Y-63617195D01*
X93768707Y-63583419D01*
X93777632Y-63550114D01*
X93777632Y-63121542D01*
X93768707Y-63088236D01*
X93761796Y-63054461D01*
X93690368Y-62911603D01*
X93674344Y-62893533D01*
X93662269Y-62872618D01*
X93590840Y-62801190D01*
X93569925Y-62789115D01*
X93551857Y-62773093D01*
X93409000Y-62701664D01*
X93375219Y-62694751D01*
X93341918Y-62685828D01*
X93127632Y-62685828D01*
X93094331Y-62694750D01*
X93060549Y-62701664D01*
X92917693Y-62773093D01*
X92899624Y-62789115D01*
X92878709Y-62801191D01*
X92807281Y-62872619D01*
X92795205Y-62893534D01*
X92779183Y-62911603D01*
X92707754Y-63054460D01*
X92700841Y-63088240D01*
X92691918Y-63121542D01*
X92691918Y-63550114D01*
X92477632Y-63550114D01*
X92477632Y-62446081D01*
X95339886Y-62446081D01*
X95351232Y-62465732D01*
X95378708Y-62513322D01*
X95378710Y-62513324D01*
X95450139Y-62584752D01*
X95457388Y-62588937D01*
X95467239Y-62594624D01*
X95481204Y-62608589D01*
X95500278Y-62613700D01*
X95517381Y-62623574D01*
X95517382Y-62623574D01*
X95537129Y-62623574D01*
X95556204Y-62628685D01*
X95575279Y-62623574D01*
X95595028Y-62623574D01*
X95612130Y-62613699D01*
X95631204Y-62608589D01*
X95645168Y-62594624D01*
X95662270Y-62584751D01*
X95733698Y-62513323D01*
X95761175Y-62465732D01*
X95772521Y-62446081D01*
X95772521Y-62368435D01*
X95772521Y-62368434D01*
X95736334Y-62305756D01*
X95909248Y-62305756D01*
X95913901Y-62383262D01*
X96413901Y-63883262D01*
X96430499Y-63908402D01*
X96443973Y-63935349D01*
X96451626Y-63940402D01*
X96456682Y-63948059D01*
X96483633Y-63961534D01*
X96508769Y-63978130D01*
X96517924Y-63978679D01*
X96526131Y-63982783D01*
X96556206Y-63980977D01*
X96586275Y-63982783D01*
X96594479Y-63978680D01*
X96603637Y-63978131D01*
X96628781Y-63961529D01*
X96655724Y-63948058D01*
X96660777Y-63940404D01*
X96668434Y-63935349D01*
X96681909Y-63908397D01*
X96698505Y-63883262D01*
X96928602Y-63192971D01*
X98477632Y-63192971D01*
X98483966Y-63216613D01*
X98485542Y-63241038D01*
X98493850Y-63253501D01*
X98497728Y-63267971D01*
X98515034Y-63285277D01*
X98528612Y-63305644D01*
X98542040Y-63312283D01*
X98552632Y-63322875D01*
X98576274Y-63329209D01*
X98598215Y-63340058D01*
X99191917Y-63458798D01*
X99191917Y-63586132D01*
X99158685Y-63652596D01*
X99092222Y-63685828D01*
X98877327Y-63685828D01*
X98766142Y-63630236D01*
X98690072Y-63614669D01*
X98616411Y-63639223D01*
X98564896Y-63697318D01*
X98549329Y-63773388D01*
X98573883Y-63847049D01*
X98631978Y-63898564D01*
X98774836Y-63969992D01*
X98808611Y-63976903D01*
X98841917Y-63985828D01*
X99127632Y-63985828D01*
X99160935Y-63976904D01*
X99194714Y-63969992D01*
X99337571Y-63898564D01*
X99344435Y-63892476D01*
X99353138Y-63889576D01*
X99373121Y-63867040D01*
X99395666Y-63847049D01*
X99398567Y-63838343D01*
X99404653Y-63831481D01*
X99476082Y-63688623D01*
X99482995Y-63654838D01*
X99491917Y-63621542D01*
X99491917Y-63192971D01*
X99763346Y-63192971D01*
X99768136Y-63210848D01*
X99767825Y-63229351D01*
X99839253Y-63515065D01*
X99847289Y-63529542D01*
X99850610Y-63545767D01*
X99922039Y-63688624D01*
X99938061Y-63706693D01*
X99950137Y-63727608D01*
X100092994Y-63870466D01*
X100122853Y-63887705D01*
X100151626Y-63906703D01*
X100365912Y-63978131D01*
X100390020Y-63979578D01*
X100413346Y-63985828D01*
X100770489Y-63985828D01*
X100845489Y-63965732D01*
X100900393Y-63910828D01*
X100920489Y-63835828D01*
X100920489Y-63803224D01*
X102411314Y-63803224D01*
X102427629Y-63831481D01*
X102450136Y-63870465D01*
X102450138Y-63870467D01*
X102521567Y-63941895D01*
X102532242Y-63948058D01*
X102538667Y-63951767D01*
X102552632Y-63965732D01*
X102571706Y-63970843D01*
X102588809Y-63980717D01*
X102588810Y-63980717D01*
X102608557Y-63980717D01*
X102627632Y-63985828D01*
X102646707Y-63980717D01*
X102666456Y-63980717D01*
X102683558Y-63970842D01*
X102702632Y-63965732D01*
X102716596Y-63951767D01*
X102723020Y-63948059D01*
X102733698Y-63941894D01*
X102805126Y-63870466D01*
X102807762Y-63865900D01*
X102980676Y-63865900D01*
X103015401Y-63935349D01*
X103080197Y-63978130D01*
X103157703Y-63982783D01*
X103227152Y-63948058D01*
X103269933Y-63883262D01*
X103378602Y-63557257D01*
X103876661Y-63557257D01*
X103985329Y-63883262D01*
X104028110Y-63948059D01*
X104097559Y-63982783D01*
X104175065Y-63978131D01*
X104239862Y-63935349D01*
X104274586Y-63865900D01*
X104272781Y-63835828D01*
X105620489Y-63835828D01*
X105640585Y-63910828D01*
X105695489Y-63965732D01*
X105770489Y-63985828D01*
X105845489Y-63965732D01*
X105900393Y-63910828D01*
X105920489Y-63835828D01*
X105920489Y-63085523D01*
X105953720Y-63019060D01*
X106020184Y-62985828D01*
X106163650Y-62985828D01*
X106253064Y-63030535D01*
X106263345Y-63040817D01*
X106263346Y-63835828D01*
X106283442Y-63910828D01*
X106338346Y-63965732D01*
X106413346Y-63985828D01*
X106488346Y-63965732D01*
X106543250Y-63910828D01*
X106563346Y-63835828D01*
X106563346Y-63550114D01*
X106906203Y-63550114D01*
X106915126Y-63583415D01*
X106922039Y-63617196D01*
X106993468Y-63760053D01*
X107009490Y-63778121D01*
X107021565Y-63799036D01*
X107092993Y-63870465D01*
X107113908Y-63882540D01*
X107131978Y-63898564D01*
X107274836Y-63969992D01*
X107308611Y-63976903D01*
X107341917Y-63985828D01*
X107620489Y-63985828D01*
X107620489Y-64335828D01*
X107640585Y-64410828D01*
X107695489Y-64465732D01*
X107770489Y-64485828D01*
X107845489Y-64465732D01*
X107900393Y-64410828D01*
X107920489Y-64335828D01*
X107920489Y-63192971D01*
X108263346Y-63192971D01*
X108269680Y-63216613D01*
X108271256Y-63241038D01*
X108279564Y-63253501D01*
X108283442Y-63267971D01*
X108300748Y-63285277D01*
X108314326Y-63305644D01*
X108327754Y-63312283D01*
X108338346Y-63322875D01*
X108361988Y-63329209D01*
X108383929Y-63340058D01*
X108977631Y-63458798D01*
X108977631Y-63586132D01*
X108944399Y-63652596D01*
X108877936Y-63685828D01*
X108663041Y-63685828D01*
X108551856Y-63630236D01*
X108475786Y-63614669D01*
X108402125Y-63639223D01*
X108350610Y-63697318D01*
X108335043Y-63773388D01*
X108359597Y-63847049D01*
X108417692Y-63898564D01*
X108560550Y-63969992D01*
X108594325Y-63976903D01*
X108627631Y-63985828D01*
X108913346Y-63985828D01*
X108946649Y-63976904D01*
X108980428Y-63969992D01*
X109123285Y-63898564D01*
X109130149Y-63892476D01*
X109138852Y-63889576D01*
X109158835Y-63867040D01*
X109181380Y-63847049D01*
X109184281Y-63838343D01*
X109190367Y-63831481D01*
X109261796Y-63688623D01*
X109268709Y-63654838D01*
X109277631Y-63621542D01*
X109549060Y-63621542D01*
X109557983Y-63654843D01*
X109564896Y-63688624D01*
X109636325Y-63831482D01*
X109642410Y-63838344D01*
X109645312Y-63847049D01*
X109667852Y-63867036D01*
X109687840Y-63889577D01*
X109696544Y-63892478D01*
X109703407Y-63898564D01*
X109846265Y-63969992D01*
X109880040Y-63976903D01*
X109913346Y-63985828D01*
X110199060Y-63985828D01*
X110232363Y-63976904D01*
X110266142Y-63969992D01*
X110408999Y-63898564D01*
X110467094Y-63847049D01*
X110491648Y-63773388D01*
X110476081Y-63697318D01*
X110424566Y-63639223D01*
X110350905Y-63614669D01*
X110274836Y-63630236D01*
X110163650Y-63685828D01*
X109948756Y-63685828D01*
X109882292Y-63652596D01*
X109849060Y-63586132D01*
X109849060Y-63585524D01*
X109866765Y-63550114D01*
X110763346Y-63550114D01*
X110772269Y-63583415D01*
X110779182Y-63617196D01*
X110850611Y-63760053D01*
X110866633Y-63778121D01*
X110878708Y-63799036D01*
X110950136Y-63870465D01*
X110971051Y-63882540D01*
X110989121Y-63898564D01*
X111131979Y-63969992D01*
X111165754Y-63976903D01*
X111199060Y-63985828D01*
X111413346Y-63985828D01*
X111446649Y-63976904D01*
X111480428Y-63969992D01*
X111623285Y-63898564D01*
X111641354Y-63882540D01*
X111662269Y-63870466D01*
X111733698Y-63799037D01*
X111745772Y-63778122D01*
X111761796Y-63760053D01*
X111833224Y-63617195D01*
X111840135Y-63583419D01*
X111849060Y-63550114D01*
X111849060Y-63407257D01*
X112191917Y-63407257D01*
X112198167Y-63430585D01*
X112199615Y-63454692D01*
X112271044Y-63668976D01*
X112290037Y-63697742D01*
X112307280Y-63727608D01*
X112450137Y-63870466D01*
X112479996Y-63887705D01*
X112508769Y-63906703D01*
X112723055Y-63978131D01*
X112747163Y-63979578D01*
X112770489Y-63985828D01*
X112913346Y-63985828D01*
X112988346Y-63965732D01*
X113043250Y-63910828D01*
X113063346Y-63835828D01*
X113043250Y-63760828D01*
X112988346Y-63705924D01*
X112913346Y-63685828D01*
X112794832Y-63685828D01*
X112637229Y-63633294D01*
X112544450Y-63540514D01*
X112491917Y-63382915D01*
X112491917Y-62335828D01*
X112471821Y-62260828D01*
X112416917Y-62205924D01*
X112341917Y-62185828D01*
X112266917Y-62205924D01*
X112212013Y-62260828D01*
X112191917Y-62335828D01*
X112191917Y-63407257D01*
X111849060Y-63407257D01*
X111849060Y-63121542D01*
X111840135Y-63088236D01*
X111833224Y-63054461D01*
X111761796Y-62911603D01*
X111745772Y-62893533D01*
X111733697Y-62872618D01*
X111662268Y-62801190D01*
X111641353Y-62789115D01*
X111623285Y-62773093D01*
X111480428Y-62701664D01*
X111446647Y-62694751D01*
X111413346Y-62685828D01*
X111199060Y-62685828D01*
X111165759Y-62694750D01*
X111131977Y-62701664D01*
X110989121Y-62773093D01*
X110971052Y-62789115D01*
X110950137Y-62801191D01*
X110878709Y-62872619D01*
X110866633Y-62893534D01*
X110850611Y-62911603D01*
X110779182Y-63054460D01*
X110772269Y-63088240D01*
X110763346Y-63121542D01*
X110763346Y-63550114D01*
X109866765Y-63550114D01*
X109882292Y-63519059D01*
X109948756Y-63485828D01*
X110127632Y-63485828D01*
X110160935Y-63476904D01*
X110194714Y-63469992D01*
X110337571Y-63398564D01*
X110344435Y-63392476D01*
X110353138Y-63389576D01*
X110373121Y-63367040D01*
X110395666Y-63347049D01*
X110398567Y-63338343D01*
X110404653Y-63331481D01*
X110476082Y-63188623D01*
X110482995Y-63154838D01*
X110491917Y-63121542D01*
X110491917Y-63050114D01*
X110482992Y-63016808D01*
X110476081Y-62983033D01*
X110404653Y-62840175D01*
X110398566Y-62833311D01*
X110395666Y-62824609D01*
X110373128Y-62804623D01*
X110353138Y-62782080D01*
X110344433Y-62779178D01*
X110337571Y-62773093D01*
X110194714Y-62701664D01*
X110160933Y-62694751D01*
X110127632Y-62685828D01*
X109913346Y-62685828D01*
X109880045Y-62694750D01*
X109846263Y-62701664D01*
X109703407Y-62773093D01*
X109645312Y-62824609D01*
X109620758Y-62898270D01*
X109636325Y-62974339D01*
X109687841Y-63032434D01*
X109761502Y-63056988D01*
X109837571Y-63041421D01*
X109948756Y-62985828D01*
X110092222Y-62985828D01*
X110158685Y-63019060D01*
X110191917Y-63085523D01*
X110191917Y-63086132D01*
X110158685Y-63152596D01*
X110092222Y-63185828D01*
X109913346Y-63185828D01*
X109880045Y-63194750D01*
X109846263Y-63201664D01*
X109703407Y-63273093D01*
X109696543Y-63279179D01*
X109687841Y-63282080D01*
X109667852Y-63304620D01*
X109645312Y-63324609D01*
X109642411Y-63333311D01*
X109636325Y-63340175D01*
X109564896Y-63483032D01*
X109557983Y-63516812D01*
X109549060Y-63550114D01*
X109549060Y-63621542D01*
X109277631Y-63621542D01*
X109277631Y-63050114D01*
X109268706Y-63016808D01*
X109261795Y-62983033D01*
X109190367Y-62840175D01*
X109184280Y-62833311D01*
X109181380Y-62824609D01*
X109158842Y-62804623D01*
X109138852Y-62782080D01*
X109130147Y-62779178D01*
X109123285Y-62773093D01*
X108980428Y-62701664D01*
X108946647Y-62694751D01*
X108913346Y-62685828D01*
X108627631Y-62685828D01*
X108594330Y-62694750D01*
X108560548Y-62701664D01*
X108417692Y-62773093D01*
X108410829Y-62779178D01*
X108402125Y-62782080D01*
X108382134Y-62804623D01*
X108359597Y-62824609D01*
X108356696Y-62833311D01*
X108350610Y-62840175D01*
X108279182Y-62983032D01*
X108272269Y-63016810D01*
X108263346Y-63050114D01*
X108263346Y-63192971D01*
X107920489Y-63192971D01*
X107920489Y-62835828D01*
X107900393Y-62760828D01*
X107845489Y-62705924D01*
X107770489Y-62685828D01*
X107700531Y-62704572D01*
X107694714Y-62701664D01*
X107660933Y-62694751D01*
X107627632Y-62685828D01*
X107341917Y-62685828D01*
X107308616Y-62694750D01*
X107274834Y-62701664D01*
X107131978Y-62773093D01*
X107113909Y-62789115D01*
X107092994Y-62801191D01*
X107021566Y-62872619D01*
X107009490Y-62893534D01*
X106993468Y-62911603D01*
X106922039Y-63054460D01*
X106915126Y-63088240D01*
X106906203Y-63121542D01*
X106906203Y-63550114D01*
X106563346Y-63550114D01*
X106563346Y-62335828D01*
X106543250Y-62260828D01*
X106488346Y-62205924D01*
X106413346Y-62185828D01*
X106338346Y-62205924D01*
X106283442Y-62260828D01*
X106263346Y-62335828D01*
X106263345Y-62701091D01*
X106232361Y-62694751D01*
X106199060Y-62685828D01*
X105984774Y-62685828D01*
X105951473Y-62694750D01*
X105917691Y-62701664D01*
X105774835Y-62773093D01*
X105767972Y-62779178D01*
X105759268Y-62782080D01*
X105739277Y-62804623D01*
X105716740Y-62824609D01*
X105713839Y-62833311D01*
X105707753Y-62840175D01*
X105636325Y-62983032D01*
X105629412Y-63016810D01*
X105620489Y-63050114D01*
X105620489Y-63835828D01*
X104272781Y-63835828D01*
X104269934Y-63788394D01*
X103769933Y-62288394D01*
X103753337Y-62263258D01*
X103739862Y-62236307D01*
X103732205Y-62231251D01*
X103727152Y-62223598D01*
X103700209Y-62210126D01*
X103675065Y-62193525D01*
X103665907Y-62192975D01*
X103657703Y-62188873D01*
X103627634Y-62190678D01*
X103597559Y-62188873D01*
X103589352Y-62192976D01*
X103580197Y-62193526D01*
X103555061Y-62210121D01*
X103528110Y-62223597D01*
X103523054Y-62231253D01*
X103515401Y-62236307D01*
X103501927Y-62263253D01*
X103485329Y-62288394D01*
X102985329Y-63788394D01*
X102980676Y-63865900D01*
X102807762Y-63865900D01*
X102827634Y-63831481D01*
X102843949Y-63803224D01*
X102843949Y-63725578D01*
X102843949Y-63725577D01*
X102805126Y-63658334D01*
X102733699Y-63586906D01*
X102733698Y-63586905D01*
X102716596Y-63577031D01*
X102702632Y-63563067D01*
X102683558Y-63557956D01*
X102666456Y-63548082D01*
X102666455Y-63548082D01*
X102646707Y-63548082D01*
X102627632Y-63542971D01*
X102608557Y-63548082D01*
X102588809Y-63548082D01*
X102571706Y-63557955D01*
X102552632Y-63563067D01*
X102538668Y-63577030D01*
X102521567Y-63586904D01*
X102521566Y-63586904D01*
X102521566Y-63586905D01*
X102450137Y-63658334D01*
X102411314Y-63725577D01*
X102411314Y-63725578D01*
X102411314Y-63803224D01*
X100920489Y-63803224D01*
X100920489Y-62335828D01*
X100900393Y-62260828D01*
X100845489Y-62205924D01*
X100770489Y-62185828D01*
X100413346Y-62185828D01*
X100390017Y-62192078D01*
X100365911Y-62193526D01*
X100151626Y-62264955D01*
X100122853Y-62283951D01*
X100092994Y-62301191D01*
X99950137Y-62444048D01*
X99938061Y-62464963D01*
X99922039Y-62483032D01*
X99850610Y-62625889D01*
X99847289Y-62642113D01*
X99839253Y-62656591D01*
X99767825Y-62942305D01*
X99768136Y-62960807D01*
X99763346Y-62978685D01*
X99763346Y-63192971D01*
X99491917Y-63192971D01*
X99491917Y-63050114D01*
X99482992Y-63016808D01*
X99476081Y-62983033D01*
X99404653Y-62840175D01*
X99398566Y-62833311D01*
X99395666Y-62824609D01*
X99373128Y-62804623D01*
X99353138Y-62782080D01*
X99344433Y-62779178D01*
X99337571Y-62773093D01*
X99194714Y-62701664D01*
X99160933Y-62694751D01*
X99127632Y-62685828D01*
X98841917Y-62685828D01*
X98808616Y-62694750D01*
X98774834Y-62701664D01*
X98631978Y-62773093D01*
X98625115Y-62779178D01*
X98616411Y-62782080D01*
X98596420Y-62804623D01*
X98573883Y-62824609D01*
X98570982Y-62833311D01*
X98564896Y-62840175D01*
X98493468Y-62983032D01*
X98486555Y-63016810D01*
X98477632Y-63050114D01*
X98477632Y-63192971D01*
X96928602Y-63192971D01*
X97198506Y-62383262D01*
X97203158Y-62305756D01*
X97168434Y-62236307D01*
X97103637Y-62193525D01*
X97026131Y-62188873D01*
X96956682Y-62223597D01*
X96913901Y-62288394D01*
X96556203Y-63361486D01*
X96198505Y-62288394D01*
X96155724Y-62223598D01*
X96086275Y-62188873D01*
X96008769Y-62193526D01*
X95943973Y-62236307D01*
X95909248Y-62305756D01*
X95736334Y-62305756D01*
X95733698Y-62301191D01*
X95662271Y-62229763D01*
X95662270Y-62229762D01*
X95645168Y-62219888D01*
X95631204Y-62205924D01*
X95612130Y-62200813D01*
X95595028Y-62190939D01*
X95595027Y-62190939D01*
X95575279Y-62190939D01*
X95556204Y-62185828D01*
X95537129Y-62190939D01*
X95517381Y-62190939D01*
X95500278Y-62200812D01*
X95481204Y-62205924D01*
X95467240Y-62219887D01*
X95450139Y-62229761D01*
X95450138Y-62229761D01*
X95450138Y-62229762D01*
X95378709Y-62301191D01*
X95339886Y-62368434D01*
X95339886Y-62368435D01*
X95339886Y-62446081D01*
X92477632Y-62446081D01*
X92477632Y-61971542D01*
X113277632Y-61971542D01*
X113277632Y-66971946D01*
G37*
D11*
G36*
X106154700Y-53533485D02*
G01*
X105259056Y-53533485D01*
X105044599Y-53426256D01*
X104947641Y-53329299D01*
X104840414Y-53114844D01*
X104840414Y-52780697D01*
X104947641Y-52566242D01*
X105044599Y-52469285D01*
X105259056Y-52362057D01*
X106154700Y-52362057D01*
X106154700Y-53533485D01*
G37*
G36*
X113268985Y-55790628D02*
G01*
X87440416Y-55790628D01*
X87440416Y-55162057D01*
X87868987Y-55162057D01*
X87888793Y-55248834D01*
X87944289Y-55318423D01*
X88024483Y-55357043D01*
X88113491Y-55357043D01*
X88193685Y-55318423D01*
X88249181Y-55248834D01*
X88268987Y-55162057D01*
X89297558Y-55162057D01*
X89305934Y-55198759D01*
X89311711Y-55235953D01*
X89315769Y-55241849D01*
X89317364Y-55248834D01*
X89340838Y-55278269D01*
X89362178Y-55309272D01*
X89368395Y-55312824D01*
X89372860Y-55318423D01*
X89406773Y-55334755D01*
X89439458Y-55353432D01*
X89446600Y-55353935D01*
X89453054Y-55357043D01*
X89490708Y-55357043D01*
X89528247Y-55359688D01*
X89534899Y-55357043D01*
X89542062Y-55357043D01*
X89575975Y-55340710D01*
X89610957Y-55326802D01*
X89615805Y-55321529D01*
X89622256Y-55318423D01*
X89645722Y-55288997D01*
X89671207Y-55261285D01*
X91011844Y-52915169D01*
X91011844Y-55162057D01*
X91031650Y-55248834D01*
X91087146Y-55318423D01*
X91167340Y-55357043D01*
X91256348Y-55357043D01*
X91336542Y-55318423D01*
X91392038Y-55248834D01*
X91411844Y-55162057D01*
X92440415Y-55162057D01*
X92460221Y-55248834D01*
X92515717Y-55318423D01*
X92595911Y-55357043D01*
X92684919Y-55357043D01*
X92765113Y-55318423D01*
X92820609Y-55248834D01*
X92840415Y-55162057D01*
X93868986Y-55162057D01*
X93888792Y-55248834D01*
X93944288Y-55318423D01*
X94024482Y-55357043D01*
X94113490Y-55357043D01*
X94193684Y-55318423D01*
X94249180Y-55248834D01*
X94268986Y-55162057D01*
X94268986Y-53063570D01*
X94887749Y-54389491D01*
X94889278Y-54391457D01*
X94889862Y-54393877D01*
X94916526Y-54426491D01*
X94942394Y-54459751D01*
X94944622Y-54460857D01*
X94946200Y-54462787D01*
X94984405Y-54480616D01*
X95022112Y-54499343D01*
X95024600Y-54499373D01*
X95026858Y-54500427D01*
X95068986Y-54499913D01*
X95111114Y-54500427D01*
X95113371Y-54499373D01*
X95115860Y-54499343D01*
X95153574Y-54480612D01*
X95191771Y-54462787D01*
X95193347Y-54460858D01*
X95195578Y-54459751D01*
X95221454Y-54426479D01*
X95248110Y-54393877D01*
X95248693Y-54391457D01*
X95250223Y-54389491D01*
X95868986Y-53063569D01*
X95868986Y-55162057D01*
X95888792Y-55248834D01*
X95944288Y-55318423D01*
X96024482Y-55357043D01*
X96113490Y-55357043D01*
X96193684Y-55318423D01*
X96249180Y-55248834D01*
X96268986Y-55162057D01*
X96268986Y-52185588D01*
X99156089Y-52185588D01*
X99185968Y-52269432D01*
X100154700Y-53791724D01*
X100154700Y-55162057D01*
X100174506Y-55248834D01*
X100230002Y-55318423D01*
X100310196Y-55357043D01*
X100399204Y-55357043D01*
X100479398Y-55318423D01*
X100534894Y-55248834D01*
X100544542Y-55206561D01*
X101731142Y-55206561D01*
X101769762Y-55286755D01*
X101839351Y-55342251D01*
X101926128Y-55362057D01*
X103354700Y-55362057D01*
X103376668Y-55357043D01*
X103399204Y-55357043D01*
X103419507Y-55347265D01*
X103441477Y-55342251D01*
X103459096Y-55328199D01*
X103479398Y-55318423D01*
X103493448Y-55300805D01*
X103511066Y-55286755D01*
X103520842Y-55266453D01*
X103534894Y-55248834D01*
X103539908Y-55226864D01*
X103549686Y-55206561D01*
X103549686Y-55184025D01*
X103554700Y-55162057D01*
X103554700Y-53162057D01*
X104440414Y-53162057D01*
X104440752Y-53163539D01*
X104440436Y-53165026D01*
X104450633Y-53206832D01*
X104460220Y-53248834D01*
X104461168Y-53250023D01*
X104461529Y-53251500D01*
X104604386Y-53537214D01*
X104624772Y-53562013D01*
X104641850Y-53589192D01*
X104784706Y-53732049D01*
X104811886Y-53749128D01*
X104836686Y-53769514D01*
X105122401Y-53912371D01*
X105123877Y-53912731D01*
X105125066Y-53913679D01*
X105167044Y-53923260D01*
X105208874Y-53933463D01*
X105210360Y-53933146D01*
X105211843Y-53933485D01*
X105256284Y-53933485D01*
X104476568Y-55047365D01*
X104443030Y-55129813D01*
X104448587Y-55218647D01*
X104492138Y-55296274D01*
X104565056Y-55347317D01*
X104652901Y-55361667D01*
X104738271Y-55336482D01*
X104804260Y-55276749D01*
X105744545Y-53933485D01*
X106154700Y-53933485D01*
X106154700Y-55162057D01*
X106174506Y-55248834D01*
X106230002Y-55318423D01*
X106310196Y-55357043D01*
X106399204Y-55357043D01*
X106479398Y-55318423D01*
X106534894Y-55248834D01*
X106554700Y-55162057D01*
X106554700Y-54590628D01*
X107583271Y-54590628D01*
X107583609Y-54592110D01*
X107583293Y-54593597D01*
X107593490Y-54635403D01*
X107603077Y-54677405D01*
X107604025Y-54678594D01*
X107604386Y-54680071D01*
X107747243Y-54965785D01*
X107767627Y-54990582D01*
X107784706Y-55017763D01*
X107927563Y-55160621D01*
X107954743Y-55177700D01*
X107979543Y-55198086D01*
X108265258Y-55340943D01*
X108266734Y-55341303D01*
X108267923Y-55342251D01*
X108309901Y-55351832D01*
X108351731Y-55362035D01*
X108353217Y-55361718D01*
X108354700Y-55362057D01*
X108926128Y-55362057D01*
X108927610Y-55361718D01*
X108929097Y-55362035D01*
X108970926Y-55351832D01*
X109012905Y-55342251D01*
X109014093Y-55341303D01*
X109015570Y-55340943D01*
X109301286Y-55198085D01*
X109326083Y-55177700D01*
X109353265Y-55160621D01*
X109496122Y-55017763D01*
X109513200Y-54990582D01*
X109533585Y-54965785D01*
X109589503Y-54853949D01*
X110584529Y-54853949D01*
X110594494Y-54942397D01*
X110641849Y-55017763D01*
X110784706Y-55160621D01*
X110785993Y-55161430D01*
X110786822Y-55162706D01*
X110823613Y-55185068D01*
X110860072Y-55207977D01*
X110861583Y-55208147D01*
X110862883Y-55208937D01*
X111291454Y-55351794D01*
X111323404Y-55354914D01*
X111354700Y-55362057D01*
X111640414Y-55362057D01*
X111671709Y-55354914D01*
X111703660Y-55351794D01*
X112132230Y-55208937D01*
X112133529Y-55208147D01*
X112135041Y-55207977D01*
X112171484Y-55185077D01*
X112208291Y-55162706D01*
X112209120Y-55161429D01*
X112210406Y-55160621D01*
X112496121Y-54874906D01*
X112513198Y-54847727D01*
X112533585Y-54822928D01*
X112676442Y-54537214D01*
X112681647Y-54515872D01*
X112691586Y-54496278D01*
X112834442Y-53924850D01*
X112834947Y-53900292D01*
X112840414Y-53876342D01*
X112840414Y-53447771D01*
X112834947Y-53423820D01*
X112834442Y-53399263D01*
X112691586Y-52827835D01*
X112681647Y-52808240D01*
X112676442Y-52786899D01*
X112533585Y-52501185D01*
X112513200Y-52476387D01*
X112496121Y-52449206D01*
X112210406Y-52163492D01*
X112209118Y-52162683D01*
X112208291Y-52161408D01*
X112171492Y-52139041D01*
X112135040Y-52116137D01*
X112133529Y-52115966D01*
X112132230Y-52115177D01*
X111703660Y-51972320D01*
X111671709Y-51969199D01*
X111640414Y-51962057D01*
X111354700Y-51962057D01*
X111323404Y-51969199D01*
X111291454Y-51972320D01*
X110862883Y-52115177D01*
X110861583Y-52115966D01*
X110860072Y-52116137D01*
X110823613Y-52139045D01*
X110786822Y-52161408D01*
X110785993Y-52162683D01*
X110784706Y-52163493D01*
X110641850Y-52306350D01*
X110594494Y-52381715D01*
X110584529Y-52470164D01*
X110613926Y-52554178D01*
X110676864Y-52617116D01*
X110760878Y-52646513D01*
X110849327Y-52636548D01*
X110924692Y-52589192D01*
X111034164Y-52479720D01*
X111387156Y-52362057D01*
X111607957Y-52362057D01*
X111960949Y-52479721D01*
X112190329Y-52709099D01*
X112308851Y-52946144D01*
X112440414Y-53472393D01*
X112440414Y-53851719D01*
X112308851Y-54377968D01*
X112190329Y-54615014D01*
X111960950Y-54844392D01*
X111607957Y-54962057D01*
X111387156Y-54962057D01*
X111034164Y-54844393D01*
X110924693Y-54734921D01*
X110849327Y-54687565D01*
X110760879Y-54677600D01*
X110676865Y-54706997D01*
X110613926Y-54769935D01*
X110584529Y-54853949D01*
X109589503Y-54853949D01*
X109676442Y-54680071D01*
X109676802Y-54678594D01*
X109677751Y-54677405D01*
X109687337Y-54635403D01*
X109697535Y-54593597D01*
X109697218Y-54592110D01*
X109697557Y-54590628D01*
X109697557Y-52162057D01*
X109677751Y-52075280D01*
X109622255Y-52005691D01*
X109542061Y-51967071D01*
X109453053Y-51967071D01*
X109372859Y-52005691D01*
X109317363Y-52075280D01*
X109297557Y-52162057D01*
X109297557Y-54543414D01*
X109190329Y-54757869D01*
X109093370Y-54854829D01*
X108878914Y-54962057D01*
X108401913Y-54962057D01*
X108187457Y-54854829D01*
X108090498Y-54757869D01*
X107983271Y-54543415D01*
X107983271Y-52162057D01*
X107963465Y-52075280D01*
X107907969Y-52005691D01*
X107827775Y-51967071D01*
X107738767Y-51967071D01*
X107658573Y-52005691D01*
X107603077Y-52075280D01*
X107583271Y-52162057D01*
X107583271Y-54590628D01*
X106554700Y-54590628D01*
X106554700Y-52162057D01*
X106549686Y-52140088D01*
X106549686Y-52117553D01*
X106539908Y-52097249D01*
X106534894Y-52075280D01*
X106520842Y-52057660D01*
X106511066Y-52037359D01*
X106493448Y-52023308D01*
X106479398Y-52005691D01*
X106459096Y-51995914D01*
X106441477Y-51981863D01*
X106419507Y-51976848D01*
X106399204Y-51967071D01*
X106376668Y-51967071D01*
X106354700Y-51962057D01*
X105211843Y-51962057D01*
X105210360Y-51962395D01*
X105208874Y-51962079D01*
X105167044Y-51972281D01*
X105125066Y-51981863D01*
X105123877Y-51982810D01*
X105122401Y-51983171D01*
X104836686Y-52126028D01*
X104811886Y-52146413D01*
X104784706Y-52163493D01*
X104641850Y-52306350D01*
X104624772Y-52333528D01*
X104604386Y-52358328D01*
X104461529Y-52644042D01*
X104461168Y-52645518D01*
X104460220Y-52646708D01*
X104450633Y-52688709D01*
X104440436Y-52730516D01*
X104440752Y-52732002D01*
X104440414Y-52733485D01*
X104440414Y-53162057D01*
X103554700Y-53162057D01*
X103554700Y-52162057D01*
X103534894Y-52075280D01*
X103479398Y-52005691D01*
X103399204Y-51967071D01*
X103310196Y-51967071D01*
X103230002Y-52005691D01*
X103174506Y-52075280D01*
X103154700Y-52162057D01*
X103154700Y-54962057D01*
X101926128Y-54962057D01*
X101839351Y-54981863D01*
X101769762Y-55037359D01*
X101731142Y-55117553D01*
X101731142Y-55206561D01*
X100544542Y-55206561D01*
X100554700Y-55162057D01*
X100554700Y-53791724D01*
X101523432Y-52269432D01*
X101553311Y-52185588D01*
X101543852Y-52097084D01*
X101496930Y-52021448D01*
X101421837Y-51973662D01*
X101333446Y-51963190D01*
X101249266Y-51992105D01*
X101185968Y-52054682D01*
X100354700Y-53360959D01*
X99523432Y-52054682D01*
X99460134Y-51992105D01*
X99375954Y-51963190D01*
X99287563Y-51973662D01*
X99212470Y-52021448D01*
X99165548Y-52097084D01*
X99156089Y-52185588D01*
X96268986Y-52185588D01*
X96268986Y-52162057D01*
X96268708Y-52160841D01*
X96268971Y-52159623D01*
X96258826Y-52117546D01*
X96249180Y-52075280D01*
X96248401Y-52074304D01*
X96248110Y-52073094D01*
X96220711Y-52039582D01*
X96193684Y-52005691D01*
X96192560Y-52005150D01*
X96191771Y-52004184D01*
X96152498Y-51985856D01*
X96113490Y-51967071D01*
X96112243Y-51967071D01*
X96111114Y-51966544D01*
X96067845Y-51967071D01*
X96024482Y-51967071D01*
X96023356Y-51967612D01*
X96022112Y-51967628D01*
X95983332Y-51986887D01*
X95944288Y-52005691D01*
X95943511Y-52006665D01*
X95942394Y-52007220D01*
X95915797Y-52041417D01*
X95888792Y-52075280D01*
X95888514Y-52076495D01*
X95887749Y-52077480D01*
X95068985Y-53831972D01*
X94250223Y-52077480D01*
X94249457Y-52076495D01*
X94249180Y-52075280D01*
X94222174Y-52041417D01*
X94195578Y-52007220D01*
X94194460Y-52006665D01*
X94193684Y-52005691D01*
X94154639Y-51986887D01*
X94115860Y-51967628D01*
X94114615Y-51967612D01*
X94113490Y-51967071D01*
X94070127Y-51967071D01*
X94026858Y-51966544D01*
X94025729Y-51967071D01*
X94024482Y-51967071D01*
X93985489Y-51985849D01*
X93946200Y-52004184D01*
X93945409Y-52005150D01*
X93944288Y-52005691D01*
X93917279Y-52039557D01*
X93889862Y-52073094D01*
X93889570Y-52074304D01*
X93888792Y-52075280D01*
X93879145Y-52117546D01*
X93869001Y-52159623D01*
X93869263Y-52160841D01*
X93868986Y-52162057D01*
X93868986Y-55162057D01*
X92840415Y-55162057D01*
X92840415Y-52162057D01*
X92820609Y-52075280D01*
X92765113Y-52005691D01*
X92684919Y-51967071D01*
X92595911Y-51967071D01*
X92515717Y-52005691D01*
X92460221Y-52075280D01*
X92440415Y-52162057D01*
X92440415Y-55162057D01*
X91411844Y-55162057D01*
X91411844Y-52162057D01*
X91403465Y-52125349D01*
X91397691Y-52088161D01*
X91393632Y-52082264D01*
X91392038Y-52075280D01*
X91368563Y-52045844D01*
X91347224Y-52014842D01*
X91341006Y-52011289D01*
X91336542Y-52005691D01*
X91302628Y-51989358D01*
X91269944Y-51970682D01*
X91262801Y-51970178D01*
X91256348Y-51967071D01*
X91218694Y-51967071D01*
X91181155Y-51964426D01*
X91174503Y-51967071D01*
X91167340Y-51967071D01*
X91133419Y-51983406D01*
X91098445Y-51997313D01*
X91093597Y-52002583D01*
X91087146Y-52005691D01*
X91063673Y-52035123D01*
X91038195Y-52062830D01*
X89697558Y-54408943D01*
X89697558Y-52162057D01*
X89677752Y-52075280D01*
X89622256Y-52005691D01*
X89542062Y-51967071D01*
X89453054Y-51967071D01*
X89372860Y-52005691D01*
X89317364Y-52075280D01*
X89297558Y-52162057D01*
X89297558Y-55162057D01*
X88268987Y-55162057D01*
X88268987Y-52162057D01*
X88249181Y-52075280D01*
X88193685Y-52005691D01*
X88113491Y-51967071D01*
X88024483Y-51967071D01*
X87944289Y-52005691D01*
X87888793Y-52075280D01*
X87868987Y-52162057D01*
X87868987Y-55162057D01*
X87440416Y-55162057D01*
X87440416Y-51533486D01*
X113268985Y-51533486D01*
X113268985Y-55790628D01*
G37*
M02*
