%TF.GenerationSoftware,KiCad,Pcbnew,7.0.7*%
%TF.CreationDate,2024-01-01T23:26:10-08:00*%
%TF.ProjectId,Curly_Mini_v0,4375726c-795f-44d6-996e-695f76302e6b,rev?*%
%TF.SameCoordinates,Original*%
%TF.FileFunction,Copper,L1,Top*%
%TF.FilePolarity,Positive*%
%FSLAX46Y46*%
G04 Gerber Fmt 4.6, Leading zero omitted, Abs format (unit mm)*
G04 Created by KiCad (PCBNEW 7.0.7) date 2024-01-01 23:26:10*
%MOMM*%
%LPD*%
G01*
G04 APERTURE LIST*
G04 Aperture macros list*
%AMRoundRect*
0 Rectangle with rounded corners*
0 $1 Rounding radius*
0 $2 $3 $4 $5 $6 $7 $8 $9 X,Y pos of 4 corners*
0 Add a 4 corners polygon primitive as box body*
4,1,4,$2,$3,$4,$5,$6,$7,$8,$9,$2,$3,0*
0 Add four circle primitives for the rounded corners*
1,1,$1+$1,$2,$3*
1,1,$1+$1,$4,$5*
1,1,$1+$1,$6,$7*
1,1,$1+$1,$8,$9*
0 Add four rect primitives between the rounded corners*
20,1,$1+$1,$2,$3,$4,$5,0*
20,1,$1+$1,$4,$5,$6,$7,0*
20,1,$1+$1,$6,$7,$8,$9,0*
20,1,$1+$1,$8,$9,$2,$3,0*%
%AMRotRect*
0 Rectangle, with rotation*
0 The origin of the aperture is its center*
0 $1 length*
0 $2 width*
0 $3 Rotation angle, in degrees counterclockwise*
0 Add horizontal line*
21,1,$1,$2,0,0,$3*%
%AMFreePoly0*
4,1,29,0.193136,2.094410,0.334892,2.027705,0.455605,1.927842,0.547692,1.801096,0.605364,1.655431,0.625000,1.500000,0.625000,-1.500000,0.620072,-1.578333,0.581110,-1.730078,0.505636,-1.867366,0.398390,-1.981571,0.266112,-2.065517,0.117113,-2.113930,-0.039244,-2.123767,-0.193136,-2.094410,-0.334892,-2.027705,-0.455605,-1.927842,-0.547692,-1.801096,-0.605364,-1.655431,-0.625000,-1.500000,
-0.625000,1.500000,-0.620072,1.578333,-0.581110,1.730078,-0.505636,1.867366,-0.398390,1.981571,-0.266112,2.065517,-0.117113,2.113930,0.039244,2.123767,0.193136,2.094410,0.193136,2.094410,$1*%
%AMFreePoly1*
4,1,31,0.130236,2.238606,0.297060,2.188662,0.447869,2.101592,0.574533,1.982091,0.670224,1.836599,0.729784,1.672962,0.750000,1.500000,0.750000,-1.500000,0.744929,-1.587070,0.704769,-1.756515,0.626616,-1.912132,0.514681,-2.045530,0.375000,-2.149519,0.215102,-2.218492,0.043609,-2.248731,-0.130236,-2.238606,-0.297060,-2.188662,-0.447869,-2.101592,-0.574533,-1.982091,-0.670224,-1.836599,
-0.729784,-1.672962,-0.750000,-1.500000,-0.750000,1.500000,-0.744929,1.587070,-0.704769,1.756515,-0.626616,1.912132,-0.514681,2.045530,-0.375000,2.149519,-0.215102,2.218492,-0.043609,2.248731,0.130236,2.238606,0.130236,2.238606,$1*%
G04 Aperture macros list end*
%TA.AperFunction,CastellatedPad*%
%ADD10FreePoly0,180.000000*%
%TD*%
%TA.AperFunction,CastellatedPad*%
%ADD11FreePoly1,180.000000*%
%TD*%
%TA.AperFunction,SMDPad,CuDef*%
%ADD12RoundRect,0.150000X0.512500X0.150000X-0.512500X0.150000X-0.512500X-0.150000X0.512500X-0.150000X0*%
%TD*%
%TA.AperFunction,SMDPad,CuDef*%
%ADD13RoundRect,0.250000X0.350000X0.450000X-0.350000X0.450000X-0.350000X-0.450000X0.350000X-0.450000X0*%
%TD*%
%TA.AperFunction,SMDPad,CuDef*%
%ADD14RoundRect,0.135000X-0.135000X-0.185000X0.135000X-0.185000X0.135000X0.185000X-0.135000X0.185000X0*%
%TD*%
%TA.AperFunction,SMDPad,CuDef*%
%ADD15RoundRect,0.218750X0.218750X0.256250X-0.218750X0.256250X-0.218750X-0.256250X0.218750X-0.256250X0*%
%TD*%
%TA.AperFunction,ComponentPad*%
%ADD16R,1.700000X1.700000*%
%TD*%
%TA.AperFunction,ComponentPad*%
%ADD17O,1.700000X1.700000*%
%TD*%
%TA.AperFunction,SMDPad,CuDef*%
%ADD18RoundRect,0.100000X0.100000X-0.637500X0.100000X0.637500X-0.100000X0.637500X-0.100000X-0.637500X0*%
%TD*%
%TA.AperFunction,SMDPad,CuDef*%
%ADD19RoundRect,0.140000X-0.170000X0.140000X-0.170000X-0.140000X0.170000X-0.140000X0.170000X0.140000X0*%
%TD*%
%TA.AperFunction,SMDPad,CuDef*%
%ADD20RoundRect,0.140000X0.140000X0.170000X-0.140000X0.170000X-0.140000X-0.170000X0.140000X-0.170000X0*%
%TD*%
%TA.AperFunction,SMDPad,CuDef*%
%ADD21RoundRect,0.140000X-0.140000X-0.170000X0.140000X-0.170000X0.140000X0.170000X-0.140000X0.170000X0*%
%TD*%
%TA.AperFunction,SMDPad,CuDef*%
%ADD22RoundRect,0.150000X-0.512500X-0.150000X0.512500X-0.150000X0.512500X0.150000X-0.512500X0.150000X0*%
%TD*%
%TA.AperFunction,SMDPad,CuDef*%
%ADD23RoundRect,0.140000X0.170000X-0.140000X0.170000X0.140000X-0.170000X0.140000X-0.170000X-0.140000X0*%
%TD*%
%TA.AperFunction,SMDPad,CuDef*%
%ADD24RoundRect,0.225000X0.017678X-0.335876X0.335876X-0.017678X-0.017678X0.335876X-0.335876X0.017678X0*%
%TD*%
%TA.AperFunction,SMDPad,CuDef*%
%ADD25RoundRect,0.225000X0.250000X-0.225000X0.250000X0.225000X-0.250000X0.225000X-0.250000X-0.225000X0*%
%TD*%
%TA.AperFunction,SMDPad,CuDef*%
%ADD26RoundRect,0.140000X0.021213X-0.219203X0.219203X-0.021213X-0.021213X0.219203X-0.219203X0.021213X0*%
%TD*%
%TA.AperFunction,SMDPad,CuDef*%
%ADD27R,0.300000X0.600000*%
%TD*%
%TA.AperFunction,SMDPad,CuDef*%
%ADD28R,1.700000X0.300000*%
%TD*%
%TA.AperFunction,SMDPad,CuDef*%
%ADD29RotRect,1.400000X1.200000X45.000000*%
%TD*%
%TA.AperFunction,SMDPad,CuDef*%
%ADD30RoundRect,0.135000X0.135000X0.185000X-0.135000X0.185000X-0.135000X-0.185000X0.135000X-0.185000X0*%
%TD*%
%TA.AperFunction,SMDPad,CuDef*%
%ADD31RoundRect,0.250000X0.350000X0.650000X-0.350000X0.650000X-0.350000X-0.650000X0.350000X-0.650000X0*%
%TD*%
%TA.AperFunction,SMDPad,CuDef*%
%ADD32RoundRect,0.150000X0.150000X0.625000X-0.150000X0.625000X-0.150000X-0.625000X0.150000X-0.625000X0*%
%TD*%
%TA.AperFunction,SMDPad,CuDef*%
%ADD33RoundRect,0.050000X0.050000X-0.387500X0.050000X0.387500X-0.050000X0.387500X-0.050000X-0.387500X0*%
%TD*%
%TA.AperFunction,SMDPad,CuDef*%
%ADD34RoundRect,0.050000X0.387500X-0.050000X0.387500X0.050000X-0.387500X0.050000X-0.387500X-0.050000X0*%
%TD*%
%TA.AperFunction,SMDPad,CuDef*%
%ADD35R,3.200000X3.200000*%
%TD*%
%TA.AperFunction,SMDPad,CuDef*%
%ADD36RoundRect,0.135000X-0.185000X0.135000X-0.185000X-0.135000X0.185000X-0.135000X0.185000X0.135000X0*%
%TD*%
%TA.AperFunction,SMDPad,CuDef*%
%ADD37RoundRect,0.135000X-0.035355X0.226274X-0.226274X0.035355X0.035355X-0.226274X0.226274X-0.035355X0*%
%TD*%
%TA.AperFunction,SMDPad,CuDef*%
%ADD38RoundRect,0.013200X0.151800X-0.506800X0.151800X0.506800X-0.151800X0.506800X-0.151800X-0.506800X0*%
%TD*%
%TA.AperFunction,SMDPad,CuDef*%
%ADD39RoundRect,0.013200X0.506800X0.151800X-0.506800X0.151800X-0.506800X-0.151800X0.506800X-0.151800X0*%
%TD*%
%TA.AperFunction,SMDPad,CuDef*%
%ADD40R,3.700000X3.700000*%
%TD*%
%TA.AperFunction,ViaPad*%
%ADD41C,0.500000*%
%TD*%
%TA.AperFunction,ViaPad*%
%ADD42C,0.800000*%
%TD*%
%TA.AperFunction,Conductor*%
%ADD43C,0.300000*%
%TD*%
%TA.AperFunction,Conductor*%
%ADD44C,0.200000*%
%TD*%
%TA.AperFunction,Conductor*%
%ADD45C,0.150000*%
%TD*%
%TA.AperFunction,Conductor*%
%ADD46C,0.350000*%
%TD*%
%TA.AperFunction,Conductor*%
%ADD47C,0.250000*%
%TD*%
%TA.AperFunction,Conductor*%
%ADD48C,0.500000*%
%TD*%
G04 APERTURE END LIST*
D10*
%TO.P,J26,1,Pin_1*%
%TO.N,/CANH*%
X112675000Y-69600000D03*
%TO.P,J26,2,Pin_2*%
%TO.N,/CANL*%
X110925000Y-69600000D03*
D11*
%TO.P,J26,3,Pin_3*%
%TO.N,GND*%
X108925000Y-69600000D03*
%TO.P,J26,4,Pin_4*%
%TO.N,VDC*%
X106425000Y-69600000D03*
%TO.P,J26,5,Pin_5*%
%TO.N,GND*%
X103925000Y-69600000D03*
D10*
%TO.P,J26,6,Pin_6*%
%TO.N,/~{EXT_RESET}*%
X101925000Y-69600000D03*
%TO.P,J26,7,Pin_7*%
%TO.N,/GPIO_22*%
X100175000Y-69600000D03*
%TO.P,J26,8,Pin_8*%
%TO.N,/GPIO_23*%
X98425000Y-69600000D03*
%TO.P,J26,9,Pin_9*%
%TO.N,/GPIO_24*%
X96675000Y-69600000D03*
%TO.P,J26,10,Pin_10*%
%TO.N,/GPIO_25*%
X94925000Y-69600000D03*
%TO.P,J26,11,Pin_11*%
%TO.N,/GPIO_26_A0*%
X93175000Y-69600000D03*
%TO.P,J26,12,Pin_12*%
%TO.N,/GPIO_27_A1*%
X91425000Y-69600000D03*
%TO.P,J26,13,Pin_13*%
%TO.N,/GPIO_28_A2*%
X89675000Y-69600000D03*
%TO.P,J26,14,Pin_14*%
%TO.N,/GPIO_29_A3*%
X87925000Y-69600000D03*
%TO.P,J26,15,Pin_15*%
%TO.N,/GPIO_7*%
X86175000Y-69600000D03*
%TO.P,J26,16,Pin_16*%
%TO.N,/GPIO_6*%
X84425000Y-69600000D03*
%TO.P,J26,17,Pin_17*%
%TO.N,/GPIO_3*%
X82675000Y-69600000D03*
%TO.P,J26,18,Pin_18*%
%TO.N,/GPIO_2*%
X80925000Y-69600000D03*
%TO.P,J26,19,Pin_19*%
%TO.N,+3V3*%
X79175000Y-69600000D03*
%TO.P,J26,20,Pin_20*%
%TO.N,GND*%
X77425000Y-69600000D03*
%TO.P,J26,21,Pin_21*%
%TO.N,/RS232_1_RX*%
X75675000Y-69600000D03*
%TO.P,J26,22,Pin_22*%
%TO.N,/RS232_1_TX*%
X73925000Y-69600000D03*
%TO.P,J26,23,Pin_23*%
%TO.N,/RS232_0_RX*%
X72175000Y-69600000D03*
%TO.P,J26,24,Pin_24*%
%TO.N,/RS232_0_TX*%
X70425000Y-69600000D03*
%TD*%
D12*
%TO.P,U5,1,GND*%
%TO.N,GND*%
X107637500Y-66250000D03*
%TO.P,U5,2,VO*%
%TO.N,+5V*%
X107637500Y-64350000D03*
%TO.P,U5,3,VI*%
%TO.N,VDC*%
X105362500Y-65300000D03*
%TD*%
D13*
%TO.P,R6,2*%
%TO.N,/CANL*%
X110600000Y-66100000D03*
%TO.P,R6,1*%
%TO.N,/CANH*%
X112600000Y-66100000D03*
%TD*%
D14*
%TO.P,R5,1*%
%TO.N,Net-(D1-K)*%
X94000000Y-52000000D03*
%TO.P,R5,2*%
%TO.N,GND*%
X95020000Y-52000000D03*
%TD*%
D15*
%TO.P,D1,1,K*%
%TO.N,Net-(D1-K)*%
X92800000Y-52175000D03*
%TO.P,D1,2,A*%
%TO.N,Net-(D1-A)*%
X91225000Y-52175000D03*
%TD*%
D16*
%TO.P,J8,1,Pin_1*%
%TO.N,/USB_DP*%
X78740000Y-53340000D03*
D17*
%TO.P,J8,2,Pin_2*%
%TO.N,/USB_DM*%
X81280000Y-53340000D03*
%TO.P,J8,3,Pin_3*%
%TO.N,GND*%
X83820000Y-53340000D03*
%TD*%
D18*
%TO.P,U6,1,C1+*%
%TO.N,Net-(U6-C1+)*%
X73225000Y-63062500D03*
%TO.P,U6,2,VS+*%
%TO.N,Net-(U6-VS+)*%
X73875000Y-63062500D03*
%TO.P,U6,3,C1-*%
%TO.N,Net-(U6-C1-)*%
X74525000Y-63062500D03*
%TO.P,U6,4,C2+*%
%TO.N,Net-(U6-C2+)*%
X75175000Y-63062500D03*
%TO.P,U6,5,C2-*%
%TO.N,Net-(U6-C2-)*%
X75825000Y-63062500D03*
%TO.P,U6,6,VS-*%
%TO.N,Net-(U6-VS-)*%
X76475000Y-63062500D03*
%TO.P,U6,7,T2OUT*%
%TO.N,/RS232_1_TX*%
X77125000Y-63062500D03*
%TO.P,U6,8,R2IN*%
%TO.N,/RS232_1_RX*%
X77775000Y-63062500D03*
%TO.P,U6,9,R2OUT*%
%TO.N,/UART_1_RX*%
X77775000Y-57337500D03*
%TO.P,U6,10,T2IN*%
%TO.N,/UART_1_TX*%
X77125000Y-57337500D03*
%TO.P,U6,11,T1IN*%
%TO.N,/UART_0_TX*%
X76475000Y-57337500D03*
%TO.P,U6,12,R1OUT*%
%TO.N,/UART_0_RX*%
X75825000Y-57337500D03*
%TO.P,U6,13,R1IN*%
%TO.N,/RS232_0_RX*%
X75175000Y-57337500D03*
%TO.P,U6,14,T1OUT*%
%TO.N,/RS232_0_TX*%
X74525000Y-57337500D03*
%TO.P,U6,15,GND*%
%TO.N,GND*%
X73875000Y-57337500D03*
%TO.P,U6,16,VCC*%
%TO.N,+3V3*%
X73225000Y-57337500D03*
%TD*%
D19*
%TO.P,C34,1*%
%TO.N,+3V3*%
X71200000Y-56770000D03*
%TO.P,C34,2*%
%TO.N,GND*%
X71200000Y-57730000D03*
%TD*%
%TO.P,C33,1*%
%TO.N,+3V3*%
X72200000Y-56770000D03*
%TO.P,C33,2*%
%TO.N,GND*%
X72200000Y-57730000D03*
%TD*%
%TO.P,C32,1*%
%TO.N,Net-(U6-VS+)*%
X72200000Y-62670000D03*
%TO.P,C32,2*%
%TO.N,GND*%
X72200000Y-63630000D03*
%TD*%
D20*
%TO.P,C31,1*%
%TO.N,Net-(U6-VS-)*%
X76355000Y-65625000D03*
%TO.P,C31,2*%
%TO.N,GND*%
X75395000Y-65625000D03*
%TD*%
D21*
%TO.P,C30,1*%
%TO.N,Net-(U6-C1+)*%
X73045000Y-64600000D03*
%TO.P,C30,2*%
%TO.N,Net-(U6-C1-)*%
X74005000Y-64600000D03*
%TD*%
%TO.P,C12,1*%
%TO.N,Net-(U6-C2+)*%
X74945000Y-64600000D03*
%TO.P,C12,2*%
%TO.N,Net-(U6-C2-)*%
X75905000Y-64600000D03*
%TD*%
D22*
%TO.P,U3,3,VI*%
%TO.N,+5V*%
X101300000Y-53550000D03*
%TO.P,U3,2,VO*%
%TO.N,+3V3*%
X99025000Y-54500000D03*
%TO.P,U3,1,GND*%
%TO.N,GND*%
X99025000Y-52600000D03*
%TD*%
D21*
%TO.P,C29,1*%
%TO.N,+5V*%
X105400000Y-52850000D03*
%TO.P,C29,2*%
%TO.N,GND*%
X106360000Y-52850000D03*
%TD*%
D19*
%TO.P,C27,1*%
%TO.N,+3V3*%
X111750000Y-58345000D03*
%TO.P,C27,2*%
%TO.N,GND*%
X111750000Y-59305000D03*
%TD*%
D20*
%TO.P,C26,1*%
%TO.N,+3V3*%
X106655000Y-61465810D03*
%TO.P,C26,2*%
%TO.N,GND*%
X105695000Y-61465810D03*
%TD*%
D21*
%TO.P,C25,1*%
%TO.N,+5V*%
X105400000Y-51850000D03*
%TO.P,C25,2*%
%TO.N,GND*%
X106360000Y-51850000D03*
%TD*%
D23*
%TO.P,C24,1*%
%TO.N,VDC*%
X103900000Y-65230000D03*
%TO.P,C24,2*%
%TO.N,GND*%
X103900000Y-64270000D03*
%TD*%
D19*
%TO.P,C23,2*%
%TO.N,GND*%
X102750000Y-54530000D03*
%TO.P,C23,1*%
%TO.N,+5V*%
X102750000Y-53570000D03*
%TD*%
D24*
%TO.P,C22,1*%
%TO.N,+5V*%
X109526992Y-63348008D03*
%TO.P,C22,2*%
%TO.N,GND*%
X110623008Y-62251992D03*
%TD*%
D23*
%TO.P,C21,1*%
%TO.N,+3V3*%
X96100000Y-54555000D03*
%TO.P,C21,2*%
%TO.N,GND*%
X96100000Y-53595000D03*
%TD*%
D25*
%TO.P,C20,1*%
%TO.N,+3V3*%
X97350000Y-54350000D03*
%TO.P,C20,2*%
%TO.N,GND*%
X97350000Y-52800000D03*
%TD*%
D20*
%TO.P,C1,1*%
%TO.N,+3V3*%
X79930000Y-60725000D03*
%TO.P,C1,2*%
%TO.N,GND*%
X78970000Y-60725000D03*
%TD*%
D26*
%TO.P,C8,1*%
%TO.N,/XIN*%
X98999965Y-61350035D03*
%TO.P,C8,2*%
%TO.N,GND*%
X99678787Y-60671213D03*
%TD*%
D20*
%TO.P,C15,1*%
%TO.N,+3V3*%
X89905000Y-51725000D03*
%TO.P,C15,2*%
%TO.N,GND*%
X88945000Y-51725000D03*
%TD*%
D27*
%TO.P,U4,1,~{CS}*%
%TO.N,/~{QSPI_CSN}*%
X79950000Y-64400000D03*
%TO.P,U4,2,DO/IO1*%
%TO.N,/QSPI_SD1*%
X80450000Y-64400000D03*
%TO.P,U4,3,~{WP}/IO2*%
%TO.N,/QSPI_SD2*%
X80950000Y-64400000D03*
%TO.P,U4,4,GND*%
%TO.N,GND*%
X81450000Y-64400000D03*
%TO.P,U4,5,DI/IO0*%
%TO.N,/QSPI_SD0*%
X81450000Y-61900000D03*
%TO.P,U4,6,CLK*%
%TO.N,/QSPI_SCLK*%
X80950000Y-61900000D03*
%TO.P,U4,7,~{HOLD}/~{RESET}/IO3*%
%TO.N,/QSPI_SD3*%
X80450000Y-61900000D03*
%TO.P,U4,8,VCC*%
%TO.N,+3V3*%
X79950000Y-61900000D03*
D28*
%TO.P,U4,9,EXP*%
%TO.N,GND*%
X80700000Y-63150000D03*
%TD*%
D20*
%TO.P,C3,1*%
%TO.N,+1V1*%
X82330000Y-55750000D03*
%TO.P,C3,2*%
%TO.N,GND*%
X81370000Y-55750000D03*
%TD*%
D21*
%TO.P,C4,1*%
%TO.N,VDDA*%
X86110000Y-51895000D03*
%TO.P,C4,2*%
%TO.N,GND*%
X87070000Y-51895000D03*
%TD*%
D20*
%TO.P,C9,1*%
%TO.N,+1V1*%
X82680000Y-59450000D03*
%TO.P,C9,2*%
%TO.N,GND*%
X81720000Y-59450000D03*
%TD*%
D29*
%TO.P,Y2,1,1*%
%TO.N,/XIN*%
X98312599Y-59939482D03*
%TO.P,Y2,2,2*%
%TO.N,GND*%
X99868234Y-58383847D03*
%TO.P,Y2,3,3*%
%TO.N,/XOUT*%
X98666153Y-57181766D03*
%TO.P,Y2,4,4*%
%TO.N,GND*%
X97110518Y-58737401D03*
%TD*%
D19*
%TO.P,C19,1*%
%TO.N,+3V3*%
X84150000Y-64020000D03*
%TO.P,C19,2*%
%TO.N,GND*%
X84150000Y-64980000D03*
%TD*%
D30*
%TO.P,R1,2*%
%TO.N,/~{EXT_RESET}*%
X92240000Y-54500000D03*
%TO.P,R1,1*%
%TO.N,+3V3*%
X93260000Y-54500000D03*
%TD*%
D19*
%TO.P,C17,1*%
%TO.N,+3V3*%
X85125000Y-64020000D03*
%TO.P,C17,2*%
%TO.N,GND*%
X85125000Y-64980000D03*
%TD*%
D23*
%TO.P,C11,1*%
%TO.N,+1V1*%
X93775000Y-57605000D03*
%TO.P,C11,2*%
%TO.N,GND*%
X93775000Y-56645000D03*
%TD*%
D19*
%TO.P,C18,1*%
%TO.N,+3V3*%
X89050000Y-64590000D03*
%TO.P,C18,2*%
%TO.N,GND*%
X89050000Y-65550000D03*
%TD*%
D23*
%TO.P,C6,1*%
%TO.N,+3V3*%
X94800000Y-57180000D03*
%TO.P,C6,2*%
%TO.N,GND*%
X94800000Y-56220000D03*
%TD*%
D31*
%TO.P,J1,MP*%
%TO.N,N/C*%
X71150000Y-54925000D03*
X75750000Y-54925000D03*
D32*
%TO.P,J1,3,Pin_3*%
%TO.N,/SWDIO*%
X72450000Y-52400000D03*
%TO.P,J1,2,Pin_2*%
%TO.N,GND*%
X73450000Y-52400000D03*
%TO.P,J1,1,Pin_1*%
%TO.N,/SWCLK*%
X74450000Y-52400000D03*
%TD*%
D23*
%TO.P,C10,1*%
%TO.N,+1V1*%
X92750000Y-58555000D03*
%TO.P,C10,2*%
%TO.N,GND*%
X92750000Y-57595000D03*
%TD*%
D19*
%TO.P,C13,1*%
%TO.N,+3V3*%
X79750000Y-58820000D03*
%TO.P,C13,2*%
%TO.N,GND*%
X79750000Y-59780000D03*
%TD*%
D33*
%TO.P,U1,1,IOVDD*%
%TO.N,+3V3*%
X85450000Y-62850000D03*
%TO.P,U1,2,GPIO0*%
%TO.N,/UART_0_TX*%
X85850000Y-62850000D03*
%TO.P,U1,3,GPIO1*%
%TO.N,/UART_0_RX*%
X86250000Y-62850000D03*
%TO.P,U1,4,GPIO2*%
%TO.N,/GPIO_2*%
X86650000Y-62850000D03*
%TO.P,U1,5,GPIO3*%
%TO.N,/GPIO_3*%
X87050000Y-62850000D03*
%TO.P,U1,6,GPIO4*%
%TO.N,/UART_1_TX*%
X87450000Y-62850000D03*
%TO.P,U1,7,GPIO5*%
%TO.N,/UART_1_RX*%
X87850000Y-62850000D03*
%TO.P,U1,8,GPIO6*%
%TO.N,/GPIO_6*%
X88250000Y-62850000D03*
%TO.P,U1,9,GPIO7*%
%TO.N,/GPIO_7*%
X88650000Y-62850000D03*
%TO.P,U1,10,IOVDD*%
%TO.N,+3V3*%
X89050000Y-62850000D03*
%TO.P,U1,11,GPIO8*%
%TO.N,/~{CAN_TX2_RTS}*%
X89450000Y-62850000D03*
%TO.P,U1,12,GPIO9*%
%TO.N,/~{CAN_TX1_RTS}*%
X89850000Y-62850000D03*
%TO.P,U1,13,GPIO10*%
%TO.N,/~{CAN_TX0_RTS}*%
X90250000Y-62850000D03*
%TO.P,U1,14,GPIO11*%
%TO.N,/~{CAN_RESET}*%
X90650000Y-62850000D03*
D34*
%TO.P,U1,15,GPIO12*%
%TO.N,/SPI1_RX*%
X91487500Y-62012500D03*
%TO.P,U1,16,GPIO13*%
%TO.N,/SPI1_CSn*%
X91487500Y-61612500D03*
%TO.P,U1,17,GPIO14*%
%TO.N,/SPI1_SCK*%
X91487500Y-61212500D03*
%TO.P,U1,18,GPIO15*%
%TO.N,/SPI1_TX*%
X91487500Y-60812500D03*
%TO.P,U1,19,TESTEN*%
%TO.N,GND*%
X91487500Y-60412500D03*
%TO.P,U1,20,XIN*%
%TO.N,/XIN*%
X91487500Y-60012500D03*
%TO.P,U1,21,XOUT*%
%TO.N,Net-(U1-XOUT)*%
X91487500Y-59612500D03*
%TO.P,U1,22,IOVDD*%
%TO.N,+3V3*%
X91487500Y-59212500D03*
%TO.P,U1,23,DVDD*%
%TO.N,+1V1*%
X91487500Y-58812500D03*
%TO.P,U1,24,SWCLK*%
%TO.N,/SWCLK*%
X91487500Y-58412500D03*
%TO.P,U1,25,SWD*%
%TO.N,/SWDIO*%
X91487500Y-58012500D03*
%TO.P,U1,26,RUN*%
%TO.N,/~{EXT_RESET}*%
X91487500Y-57612500D03*
%TO.P,U1,27,GPIO16*%
%TO.N,/~{CAN_RX_INT}*%
X91487500Y-57212500D03*
%TO.P,U1,28,GPIO17*%
%TO.N,/~{CAN_RX_BUF0}*%
X91487500Y-56812500D03*
D33*
%TO.P,U1,29,GPIO18*%
%TO.N,/~{CAN_RX_BUF1}*%
X90650000Y-55975000D03*
%TO.P,U1,30,GPIO19*%
%TO.N,/MCP25625_CLK*%
X90250000Y-55975000D03*
%TO.P,U1,31,GPIO20*%
%TO.N,/CAN_TXVR_STBY*%
X89850000Y-55975000D03*
%TO.P,U1,32,GPIO21*%
%TO.N,Net-(D1-A)*%
X89450000Y-55975000D03*
%TO.P,U1,33,IOVDD*%
%TO.N,+3V3*%
X89050000Y-55975000D03*
%TO.P,U1,34,GPIO22*%
%TO.N,/GPIO_22*%
X88650000Y-55975000D03*
%TO.P,U1,35,GPIO23*%
%TO.N,/GPIO_23*%
X88250000Y-55975000D03*
%TO.P,U1,36,GPIO24*%
%TO.N,/GPIO_24*%
X87850000Y-55975000D03*
%TO.P,U1,37,GPIO25*%
%TO.N,/GPIO_25*%
X87450000Y-55975000D03*
%TO.P,U1,38,GPIO26_ADC0*%
%TO.N,/GPIO_26_A0*%
X87050000Y-55975000D03*
%TO.P,U1,39,GPIO27_ADC1*%
%TO.N,/GPIO_27_A1*%
X86650000Y-55975000D03*
%TO.P,U1,40,GPIO28_ADC2*%
%TO.N,/GPIO_28_A2*%
X86250000Y-55975000D03*
%TO.P,U1,41,GPIO29_ADC3*%
%TO.N,/GPIO_29_A3*%
X85850000Y-55975000D03*
%TO.P,U1,42,IOVDD*%
%TO.N,+3V3*%
X85450000Y-55975000D03*
D34*
%TO.P,U1,43,ADC_AVDD*%
%TO.N,VDDA*%
X84612500Y-56812500D03*
%TO.P,U1,44,VREG_IN*%
%TO.N,+3V3*%
X84612500Y-57212500D03*
%TO.P,U1,45,VREG_VOUT*%
%TO.N,+1V1*%
X84612500Y-57612500D03*
%TO.P,U1,46,USB_DM*%
%TO.N,Net-(U1-USB_DM)*%
X84612500Y-58012500D03*
%TO.P,U1,47,USB_DP*%
%TO.N,Net-(U1-USB_DP)*%
X84612500Y-58412500D03*
%TO.P,U1,48,USB_VDD*%
%TO.N,+3V3*%
X84612500Y-58812500D03*
%TO.P,U1,49,IOVDD*%
X84612500Y-59212500D03*
%TO.P,U1,50,DVDD*%
%TO.N,+1V1*%
X84612500Y-59612500D03*
%TO.P,U1,51,QSPI_SD3*%
%TO.N,/QSPI_SD3*%
X84612500Y-60012500D03*
%TO.P,U1,52,QSPI_SCLK*%
%TO.N,/QSPI_SCLK*%
X84612500Y-60412500D03*
%TO.P,U1,53,QSPI_SD0*%
%TO.N,/QSPI_SD0*%
X84612500Y-60812500D03*
%TO.P,U1,54,QSPI_SD2*%
%TO.N,/QSPI_SD2*%
X84612500Y-61212500D03*
%TO.P,U1,55,QSPI_SD1*%
%TO.N,/QSPI_SD1*%
X84612500Y-61612500D03*
%TO.P,U1,56,QSPI_SS*%
%TO.N,/~{QSPI_CSN}*%
X84612500Y-62012500D03*
D35*
%TO.P,U1,57,GND*%
%TO.N,GND*%
X88050000Y-59412500D03*
%TD*%
D23*
%TO.P,C16,2*%
%TO.N,GND*%
X89125000Y-52665000D03*
%TO.P,C16,1*%
%TO.N,+3V3*%
X89125000Y-53625000D03*
%TD*%
D36*
%TO.P,R4,1*%
%TO.N,/USB_DM*%
X80250000Y-55740000D03*
%TO.P,R4,2*%
%TO.N,Net-(U1-USB_DM)*%
X80250000Y-56760000D03*
%TD*%
D37*
%TO.P,R2,1*%
%TO.N,/XOUT*%
X96450000Y-57300000D03*
%TO.P,R2,2*%
%TO.N,Net-(U1-XOUT)*%
X95728752Y-58021248D03*
%TD*%
D20*
%TO.P,C2,1*%
%TO.N,+1V1*%
X82330000Y-56770000D03*
%TO.P,C2,2*%
%TO.N,GND*%
X81370000Y-56770000D03*
%TD*%
D19*
%TO.P,C14,1*%
%TO.N,+3V3*%
X80740000Y-58820000D03*
%TO.P,C14,2*%
%TO.N,GND*%
X80740000Y-59780000D03*
%TD*%
D23*
%TO.P,C5,1*%
%TO.N,+3V3*%
X83350000Y-56680000D03*
%TO.P,C5,2*%
%TO.N,GND*%
X83350000Y-55720000D03*
%TD*%
D36*
%TO.P,R3,1*%
%TO.N,/USB_DP*%
X79250000Y-55740000D03*
%TO.P,R3,2*%
%TO.N,Net-(U1-USB_DP)*%
X79250000Y-56760000D03*
%TD*%
D15*
%TO.P,FB1,1*%
%TO.N,+3V3*%
X87925000Y-53150000D03*
%TO.P,FB1,2*%
%TO.N,VDDA*%
X86350000Y-53150000D03*
%TD*%
D26*
%TO.P,C7,1*%
%TO.N,/XOUT*%
X97310554Y-56439446D03*
%TO.P,C7,2*%
%TO.N,GND*%
X97989376Y-55760624D03*
%TD*%
D38*
%TO.P,U2,1,~{CS}*%
%TO.N,/SPI1_CSn*%
X104925000Y-59990810D03*
%TO.P,U2,2,~{RESET}*%
%TO.N,/~{CAN_RESET}*%
X105575000Y-59990810D03*
%TO.P,U2,3,VDD*%
%TO.N,+3V3*%
X106225000Y-59990810D03*
%TO.P,U2,4,TXCAN*%
%TO.N,Net-(U2-TXCAN)*%
X106875000Y-59990810D03*
%TO.P,U2,5,RXCAN*%
%TO.N,Net-(U2-RXCAN)*%
X107525000Y-59990810D03*
%TO.P,U2,6,CLKOUT*%
%TO.N,unconnected-(U2-CLKOUT-Pad6)*%
X108175000Y-59990810D03*
%TO.P,U2,7,~{TX0RTS}*%
%TO.N,/~{CAN_TX0_RTS}*%
X108825000Y-59990810D03*
D39*
%TO.P,U2,8,~{TX1RTS}*%
%TO.N,/~{CAN_TX1_RTS}*%
X109710000Y-59105810D03*
%TO.P,U2,9,~{TX2RTS}*%
%TO.N,/~{CAN_TX2_RTS}*%
X109710000Y-58455810D03*
%TO.P,U2,10,RXD*%
%TO.N,Net-(U2-RXCAN)*%
X109710000Y-57805810D03*
%TO.P,U2,11,VIO*%
%TO.N,+3V3*%
X109710000Y-57155810D03*
%TO.P,U2,12,CANL*%
%TO.N,/CANL*%
X109710000Y-56505810D03*
%TO.P,U2,13,CANH*%
%TO.N,/CANH*%
X109710000Y-55855810D03*
%TO.P,U2,14*%
%TO.N,N/C*%
X109710000Y-55205810D03*
D38*
%TO.P,U2,15,STBY*%
%TO.N,/CAN_TXVR_STBY*%
X108825000Y-54320810D03*
%TO.P,U2,16,TXD*%
%TO.N,Net-(U2-TXCAN)*%
X108175000Y-54320810D03*
%TO.P,U2,17*%
%TO.N,N/C*%
X107525000Y-54320810D03*
%TO.P,U2,18,VSS*%
%TO.N,GND*%
X106875000Y-54320810D03*
%TO.P,U2,19,VDDA*%
%TO.N,+5V*%
X106225000Y-54320810D03*
%TO.P,U2,20,OSC2*%
%TO.N,unconnected-(U2-OSC2-Pad20)*%
X105575000Y-54320810D03*
%TO.P,U2,21,OSC1*%
%TO.N,/MCP25625_CLK*%
X104925000Y-54320810D03*
D39*
%TO.P,U2,22,GND*%
%TO.N,GND*%
X104040000Y-55205810D03*
%TO.P,U2,23,~{RX1BF}*%
%TO.N,/~{CAN_RX_BUF1}*%
X104040000Y-55855810D03*
%TO.P,U2,24,~{RX0BF}*%
%TO.N,/~{CAN_RX_BUF0}*%
X104040000Y-56505810D03*
%TO.P,U2,25,~{INT}*%
%TO.N,/~{CAN_RX_INT}*%
X104040000Y-57155810D03*
%TO.P,U2,26,SCK*%
%TO.N,/SPI1_SCK*%
X104040000Y-57805810D03*
%TO.P,U2,27,SI*%
%TO.N,/SPI1_TX*%
X104040000Y-58455810D03*
%TO.P,U2,28,SO*%
%TO.N,/SPI1_RX*%
X104040000Y-59105810D03*
D40*
%TO.P,U2,29,EP*%
%TO.N,GND*%
X106875000Y-57155810D03*
%TD*%
D41*
%TO.N,GND*%
X88341168Y-59355393D03*
%TO.N,/CAN_TXVR_STBY*%
X107575000Y-52050000D03*
X104075000Y-51825000D03*
%TO.N,GND*%
X86037000Y-59807289D03*
X86054911Y-60357089D03*
X88950000Y-51700000D03*
X89100000Y-52650000D03*
%TO.N,+3V3*%
X87900000Y-53175000D03*
X89125000Y-53625000D03*
X89925000Y-51750000D03*
%TO.N,GND*%
X108925000Y-65725000D03*
X108925000Y-65225000D03*
X107950000Y-66250000D03*
X107400000Y-66250000D03*
%TO.N,/GPIO_22*%
X89597934Y-56852306D03*
%TO.N,/GPIO_24*%
X88250000Y-54250000D03*
%TO.N,/GPIO_23*%
X88500500Y-54950000D03*
%TO.N,/GPIO_27_A1*%
X87454404Y-56863506D03*
%TO.N,/SWCLK*%
X90200000Y-58150000D03*
%TO.N,/SWDIO*%
X90102031Y-57457536D03*
%TO.N,/GPIO_25*%
X87446896Y-54520610D03*
%TO.N,/GPIO_26_A0*%
X86921987Y-54982966D03*
%TO.N,/GPIO_28_A2*%
X86344622Y-54532489D03*
%TO.N,/GPIO_29_A3*%
X85850000Y-55027112D03*
%TO.N,+3V3*%
X96100000Y-54550000D03*
X97350000Y-54200000D03*
X99350000Y-54500000D03*
X98650000Y-54500000D03*
%TO.N,GND*%
X97350000Y-52650000D03*
X99350000Y-52600000D03*
X98700000Y-52600000D03*
X102750000Y-54550000D03*
%TO.N,+5V*%
X101000000Y-53550000D03*
X101600000Y-53550000D03*
X102750000Y-53550000D03*
%TO.N,/~{CAN_RX_BUF0}*%
X94200000Y-54600000D03*
%TO.N,/~{CAN_RX_INT}*%
X94500000Y-55250000D03*
%TO.N,/~{CAN_RX_BUF1}*%
X94173944Y-53848944D03*
%TO.N,/~{CAN_RX_INT}*%
X102600000Y-57150000D03*
%TO.N,/~{CAN_RX_BUF0}*%
X103000000Y-56500000D03*
%TO.N,/~{CAN_RX_BUF1}*%
X102600000Y-55850000D03*
D42*
%TO.N,+5V*%
X104550000Y-52850000D03*
X106550000Y-64000000D03*
D41*
%TO.N,GND*%
X111750000Y-59275000D03*
%TO.N,+3V3*%
X111750000Y-58325000D03*
D42*
%TO.N,GND*%
X110600000Y-62250000D03*
D41*
X103900000Y-64250000D03*
%TO.N,/SPI1_RX*%
X103050000Y-59450000D03*
%TO.N,/SPI1_TX*%
X103050000Y-58500000D03*
%TO.N,GND*%
X107050000Y-53250000D03*
%TO.N,/SWCLK*%
X86032441Y-57538700D03*
%TO.N,/SWDIO*%
X85498746Y-56889935D03*
%TO.N,GND*%
X95010000Y-52000000D03*
%TO.N,+3V3*%
X83350000Y-56650000D03*
%TO.N,GND*%
X73744772Y-53650000D03*
X73200000Y-53650000D03*
%TO.N,/SWCLK*%
X74450000Y-54950000D03*
%TO.N,/SWDIO*%
X72500000Y-54300000D03*
%TO.N,GND*%
X75400000Y-65600000D03*
X72200000Y-63650000D03*
%TO.N,+3V3*%
X71200000Y-56800000D03*
X72200000Y-56800000D03*
%TO.N,GND*%
X71200000Y-57750000D03*
X72200000Y-57750000D03*
X73600000Y-59050000D03*
X73600000Y-58500000D03*
%TO.N,/UART_0_TX*%
X85650000Y-61950000D03*
%TO.N,/UART_0_RX*%
X86452951Y-61962032D03*
%TO.N,/UART_1_TX*%
X87275497Y-61963000D03*
%TO.N,/UART_1_RX*%
X88050000Y-61967992D03*
X77800000Y-58850000D03*
%TO.N,/UART_1_TX*%
X77150000Y-58550000D03*
%TO.N,/UART_0_TX*%
X76500000Y-58850000D03*
%TO.N,/UART_0_RX*%
X75850000Y-58550000D03*
%TO.N,+3V3*%
X93275000Y-54525000D03*
%TO.N,/~{EXT_RESET}*%
X92250000Y-54500000D03*
%TO.N,+3V3*%
X106650000Y-61465810D03*
%TO.N,GND*%
X105700000Y-61465810D03*
%TO.N,Net-(U2-RXCAN)*%
X110876056Y-58164754D03*
%TO.N,Net-(U2-TXCAN)*%
X107483423Y-61396169D03*
%TO.N,Net-(U2-RXCAN)*%
X108100000Y-61065810D03*
%TO.N,Net-(U2-TXCAN)*%
X107975000Y-53215810D03*
%TO.N,GND*%
X106350000Y-52850000D03*
X108000000Y-57940810D03*
X107575000Y-58315810D03*
X107000000Y-58365810D03*
X106500000Y-58365810D03*
X106000000Y-58215810D03*
X105600000Y-57865810D03*
X106875000Y-57510810D03*
X107275000Y-57115810D03*
X106875000Y-56715810D03*
X107800000Y-56265810D03*
X106000000Y-56265810D03*
X103000000Y-55205810D03*
%TO.N,+3V3*%
X90549500Y-59362000D03*
X94800000Y-57175000D03*
X85150000Y-64000000D03*
X89025000Y-64570000D03*
X80750000Y-58800000D03*
X84150000Y-64000000D03*
X79950000Y-60700000D03*
%TO.N,GND*%
X99700000Y-60650000D03*
X96650000Y-58800000D03*
X97200000Y-58250000D03*
X98000000Y-55750000D03*
X100350000Y-58300000D03*
X78950000Y-60700000D03*
X87060000Y-51925000D03*
X99950000Y-57900000D03*
X80750000Y-59800000D03*
X80050000Y-63150000D03*
X99400000Y-58450000D03*
X84150000Y-64975000D03*
X89050000Y-65545000D03*
X79750000Y-59800000D03*
X83350000Y-55700000D03*
X93800000Y-56650000D03*
X81400000Y-56750000D03*
X97050000Y-59200000D03*
X85150000Y-64975000D03*
X92750000Y-57575000D03*
X90742685Y-60411538D03*
X94825000Y-56225000D03*
X97600000Y-58650000D03*
X81350000Y-63150000D03*
X99800000Y-58850000D03*
%TO.N,/~{EXT_RESET}*%
X90600000Y-56862000D03*
%TO.N,/SPI1_TX*%
X92550000Y-60663000D03*
%TO.N,/SPI1_RX*%
X92550000Y-62162000D03*
%TD*%
D43*
%TO.N,+3V3*%
X106225000Y-60575000D02*
X106400000Y-60750000D01*
X106225000Y-59990810D02*
X106225000Y-60575000D01*
X106400000Y-60750000D02*
X106400000Y-61210810D01*
X106400000Y-61210810D02*
X106655000Y-61465810D01*
D44*
%TO.N,/SWDIO*%
X72450000Y-52400000D02*
X72450000Y-54250000D01*
X72450000Y-54250000D02*
X72500000Y-54300000D01*
D45*
%TO.N,/GPIO_22*%
X88865381Y-56687500D02*
X88650000Y-56472119D01*
X88650000Y-56472119D02*
X88650000Y-55975000D01*
X89362500Y-56687500D02*
X88865381Y-56687500D01*
X89527306Y-56852306D02*
X89362500Y-56687500D01*
X89597934Y-56852306D02*
X89527306Y-56852306D01*
%TO.N,/SWDIO*%
X90102031Y-57457536D02*
X90269731Y-57457536D01*
X90269731Y-57457536D02*
X90824695Y-58012500D01*
X90824695Y-58012500D02*
X91487500Y-58012500D01*
%TO.N,/SWCLK*%
X90462500Y-58412500D02*
X91487500Y-58412500D01*
X90200000Y-58150000D02*
X90462500Y-58412500D01*
%TO.N,/GPIO_24*%
X87971896Y-54528104D02*
X87971896Y-54738073D01*
X87971896Y-54738073D02*
X87850000Y-54859969D01*
X88250000Y-54250000D02*
X87971896Y-54528104D01*
X87850000Y-54859969D02*
X87850000Y-55975000D01*
%TO.N,/GPIO_23*%
X88500500Y-54950000D02*
X88250000Y-55200500D01*
X88250000Y-55200500D02*
X88250000Y-55975000D01*
D44*
%TO.N,+3V3*%
X89900000Y-53852942D02*
X89900000Y-51730000D01*
X89900000Y-51730000D02*
X89905000Y-51725000D01*
%TO.N,Net-(D1-A)*%
X90300000Y-54018628D02*
X90300000Y-53900000D01*
X91225000Y-52175000D02*
X91225000Y-52802944D01*
X91225000Y-52802944D02*
X90301496Y-53726448D01*
X90301496Y-53726448D02*
X90300000Y-53855247D01*
X90300000Y-53855247D02*
X90300000Y-53900000D01*
D45*
%TO.N,/GPIO_27_A1*%
X86650000Y-56472119D02*
X86650000Y-55975000D01*
X87454404Y-56863506D02*
X87041387Y-56863506D01*
X87041387Y-56863506D02*
X86650000Y-56472119D01*
D44*
%TO.N,/SPI1_RX*%
X103050000Y-59450000D02*
X103394190Y-59105810D01*
X103394190Y-59105810D02*
X104040000Y-59105810D01*
D46*
%TO.N,+3V3*%
X111750000Y-58345000D02*
X111750000Y-58154814D01*
X111750000Y-58154814D02*
X110750996Y-57155810D01*
X110750996Y-57155810D02*
X109710000Y-57155810D01*
D47*
%TO.N,/CANL*%
X112700000Y-58250000D02*
X112700000Y-64000000D01*
X112700000Y-57900000D02*
X112700000Y-58250000D01*
X111305810Y-56505810D02*
X112700000Y-57900000D01*
X112700000Y-64000000D02*
X112100000Y-64600000D01*
%TO.N,/CANH*%
X112050000Y-56550000D02*
X111355810Y-55855810D01*
X113150000Y-65550000D02*
X112600000Y-66100000D01*
X112050000Y-56550000D02*
X113150000Y-57650000D01*
X113150000Y-57650000D02*
X113150000Y-65550000D01*
D44*
%TO.N,/CAN_TXVR_STBY*%
X94450000Y-52800000D02*
X95184314Y-52800000D01*
X96484315Y-51500000D02*
X102775000Y-51500000D01*
X95184314Y-52800000D02*
X96484315Y-51500000D01*
X102775000Y-51500000D02*
X103100000Y-51825000D01*
X103100000Y-51825000D02*
X104075000Y-51825000D01*
%TO.N,/MCP25625_CLK*%
X95350000Y-53200000D02*
X96600000Y-51950000D01*
X102662500Y-52062500D02*
X102500000Y-51900000D01*
X102500000Y-51900000D02*
X96650000Y-51900000D01*
X96650000Y-51900000D02*
X96600000Y-51950000D01*
X102662500Y-52062500D02*
X104920810Y-54320810D01*
D46*
%TO.N,+3V3*%
X96100000Y-54555000D02*
X97145000Y-54555000D01*
X97145000Y-54555000D02*
X97350000Y-54350000D01*
%TO.N,GND*%
X96100000Y-53595000D02*
X96380000Y-53595000D01*
X96380000Y-53595000D02*
X97325000Y-52650000D01*
X97325000Y-52650000D02*
X97350000Y-52650000D01*
X97550000Y-52600000D02*
X97350000Y-52800000D01*
D44*
%TO.N,/CAN_TXVR_STBY*%
X89850000Y-55975000D02*
X89850000Y-55034314D01*
X89850000Y-55034314D02*
X90700000Y-54184314D01*
X90700000Y-54184314D02*
X90700000Y-53893628D01*
X90700000Y-53893628D02*
X91544686Y-53048944D01*
X91544686Y-53048944D02*
X93526056Y-53048944D01*
X93526056Y-53048944D02*
X93775000Y-52800000D01*
X93775000Y-52800000D02*
X94450000Y-52800000D01*
%TO.N,/MCP25625_CLK*%
X90250000Y-55975000D02*
X90250000Y-55200000D01*
X90250000Y-55200000D02*
X91100000Y-54350000D01*
X91100000Y-54350000D02*
X91100000Y-54059314D01*
X91100000Y-54059314D02*
X91710371Y-53448944D01*
X91710371Y-53448944D02*
X93701056Y-53448944D01*
X93701056Y-53448944D02*
X93950000Y-53200000D01*
X93950000Y-53200000D02*
X95350000Y-53200000D01*
X104920810Y-54320810D02*
X104925000Y-54320810D01*
%TO.N,/~{CAN_RX_BUF1}*%
X91876056Y-53848944D02*
X91600000Y-54125000D01*
X90650000Y-55365686D02*
X90650000Y-55975000D01*
X91600000Y-54415686D02*
X90650000Y-55365686D01*
X94173944Y-53848944D02*
X91876056Y-53848944D01*
X91600000Y-54125000D02*
X91600000Y-54415686D01*
%TO.N,/CAN_TXVR_STBY*%
X108825000Y-54320810D02*
X108825000Y-52825000D01*
X108825000Y-52825000D02*
X108050000Y-52050000D01*
X108050000Y-52050000D02*
X107575000Y-52050000D01*
X104075000Y-51825000D02*
X104050000Y-51825000D01*
X94450000Y-52800000D02*
X94900000Y-52800000D01*
D47*
%TO.N,Net-(D1-K)*%
X92800000Y-51950000D02*
X93775000Y-51950000D01*
D43*
%TO.N,VDDA*%
X86110000Y-51895000D02*
X86110000Y-52910000D01*
X86110000Y-52910000D02*
X86350000Y-53150000D01*
D44*
%TO.N,+3V3*%
X85600000Y-54500000D02*
X86175000Y-53925000D01*
X86175000Y-53925000D02*
X87150000Y-53925000D01*
X87150000Y-53925000D02*
X87900000Y-53175000D01*
D46*
X89125000Y-53600000D02*
X88325000Y-53600000D01*
X88325000Y-53600000D02*
X87900000Y-53175000D01*
D48*
%TO.N,+5V*%
X106550000Y-64000000D02*
X106900000Y-64350000D01*
X106900000Y-64350000D02*
X108475000Y-64350000D01*
X108475000Y-64350000D02*
X109176992Y-63648008D01*
%TO.N,GND*%
X86037000Y-59807289D02*
X86188038Y-59807289D01*
X86188038Y-59807289D02*
X86825000Y-60444251D01*
X86054911Y-60357089D02*
X86054911Y-59825200D01*
X86054911Y-59825200D02*
X86037000Y-59807289D01*
X86054911Y-60357089D02*
X86737838Y-60357089D01*
X86737838Y-60357089D02*
X86825000Y-60444251D01*
X86037000Y-59807289D02*
X87655211Y-59807289D01*
X87655211Y-59807289D02*
X88050000Y-59412500D01*
D43*
%TO.N,+1V1*%
X85437500Y-57612500D02*
X85437500Y-59600000D01*
X85437500Y-59600000D02*
X85437500Y-60587500D01*
D44*
X84612500Y-59612500D02*
X85425000Y-59612500D01*
X85425000Y-59612500D02*
X85437500Y-59600000D01*
D43*
X85437500Y-60587500D02*
X86075000Y-61225000D01*
D44*
%TO.N,/SPI1_TX*%
X92400500Y-60812500D02*
X92550000Y-60663000D01*
X91487500Y-60812500D02*
X92400500Y-60812500D01*
%TO.N,GND*%
X90742685Y-60411538D02*
X90743647Y-60412500D01*
X90743647Y-60412500D02*
X91487500Y-60412500D01*
D46*
X88920000Y-51650000D02*
X88945000Y-51675000D01*
X88950000Y-51650000D02*
X88920000Y-51650000D01*
X88950000Y-51680000D02*
X88950000Y-51650000D01*
X89100000Y-52650000D02*
X89125000Y-51855000D01*
%TO.N,+3V3*%
X87900000Y-52975000D02*
X87900000Y-52925000D01*
X87950000Y-52975000D02*
X87900000Y-52975000D01*
X89125000Y-53600000D02*
X89125000Y-53625000D01*
D44*
X89925000Y-51700000D02*
X89900000Y-51680000D01*
D46*
%TO.N,GND*%
X89125000Y-52665000D02*
X89100000Y-52650000D01*
X89125000Y-51855000D02*
X88950000Y-51680000D01*
%TO.N,+3V3*%
X89125000Y-53625000D02*
X89672058Y-53625000D01*
X89672058Y-53625000D02*
X89825000Y-53777942D01*
X87925000Y-52950000D02*
X87950000Y-52975000D01*
D44*
X89050000Y-55975000D02*
X89050000Y-54702942D01*
X89050000Y-54702942D02*
X89900000Y-53852942D01*
X89900000Y-51680000D02*
X89905000Y-51675000D01*
%TO.N,/GPIO_2*%
X80925000Y-67750000D02*
X81762500Y-66912500D01*
X82250000Y-66625000D02*
X82450000Y-66625000D01*
X81762500Y-66912500D02*
X82050000Y-66625000D01*
X82050000Y-66625000D02*
X82250000Y-66625000D01*
X80925000Y-71120000D02*
X80925000Y-67750000D01*
X82050000Y-66625000D02*
X82725000Y-66625000D01*
X83375000Y-65975000D02*
X82725000Y-66625000D01*
X80925000Y-68425000D02*
X80925000Y-71120000D01*
X83550000Y-65800000D02*
X83375000Y-65975000D01*
%TO.N,/GPIO_3*%
X84750000Y-66525000D02*
X85425000Y-66525000D01*
X83800000Y-66525000D02*
X84750000Y-66525000D01*
X84750000Y-66525000D02*
X85525000Y-66525000D01*
X85525000Y-66525000D02*
X87050000Y-65000000D01*
X87050000Y-65000000D02*
X87050000Y-64075000D01*
X82675000Y-71120000D02*
X82675000Y-67650000D01*
X82675000Y-67650000D02*
X83800000Y-66525000D01*
X87050000Y-64075000D02*
X87050000Y-64450000D01*
X87050000Y-62850000D02*
X87050000Y-64075000D01*
%TO.N,/GPIO_6*%
X84425000Y-68362500D02*
X87600000Y-65187500D01*
X87600000Y-65187500D02*
X87600000Y-64350000D01*
X87600000Y-64350000D02*
X88250000Y-63700000D01*
X88250000Y-63700000D02*
X88250000Y-62850000D01*
%TO.N,/GPIO_7*%
X88050000Y-64500000D02*
X88050000Y-65500000D01*
X88050000Y-65500000D02*
X86175000Y-67375000D01*
X86175000Y-67375000D02*
X86175000Y-71120000D01*
%TO.N,/GPIO_6*%
X84425000Y-68090686D02*
X84425000Y-71120000D01*
%TO.N,/GPIO_2*%
X86650000Y-62850000D02*
X86650000Y-64700000D01*
X86650000Y-64700000D02*
X85550000Y-65800000D01*
X85550000Y-65800000D02*
X83550000Y-65800000D01*
X82725000Y-66625000D02*
X82450000Y-66625000D01*
D47*
%TO.N,/RS232_1_RX*%
X77775000Y-65700000D02*
X77775000Y-63062500D01*
X75675000Y-68350000D02*
X77775000Y-66250000D01*
X77775000Y-66250000D02*
X77775000Y-65700000D01*
X75675000Y-71120000D02*
X75675000Y-68526497D01*
%TO.N,/RS232_1_TX*%
X76450000Y-66725000D02*
X74750000Y-66725000D01*
X77125000Y-63062500D02*
X77125000Y-66050000D01*
X77125000Y-66050000D02*
X76450000Y-66725000D01*
X74750000Y-66725000D02*
X73925000Y-67550000D01*
X73925000Y-67550000D02*
X73925000Y-71120000D01*
%TO.N,/RS232_0_RX*%
X72175000Y-71120000D02*
X72175000Y-65525000D01*
X72175000Y-65525000D02*
X71200000Y-64550000D01*
%TO.N,/RS232_0_TX*%
X70425000Y-71120000D02*
X70425000Y-61375000D01*
X70425000Y-61375000D02*
X72150000Y-59650000D01*
X72150000Y-59650000D02*
X73950000Y-59650000D01*
X73950000Y-59650000D02*
X74525000Y-59075000D01*
X74525000Y-59075000D02*
X74525000Y-57337500D01*
X70650000Y-70895000D02*
X70425000Y-71120000D01*
D48*
%TO.N,GND*%
X108925000Y-65725000D02*
X108925000Y-65225000D01*
X108925000Y-71120000D02*
X108925000Y-65725000D01*
X107950000Y-66250000D02*
X107400000Y-66250000D01*
X107400000Y-66250000D02*
X107637500Y-66250000D01*
X108925000Y-71120000D02*
X108925000Y-66575000D01*
X108925000Y-66575000D02*
X108600000Y-66250000D01*
X108600000Y-66250000D02*
X107950000Y-66250000D01*
%TO.N,VDC*%
X105362500Y-65300000D02*
X103970000Y-65300000D01*
X103970000Y-65300000D02*
X103900000Y-65230000D01*
X105362500Y-65300000D02*
X105362500Y-66412500D01*
X105362500Y-66412500D02*
X106425000Y-67475000D01*
X106425000Y-67475000D02*
X106425000Y-71120000D01*
D47*
%TO.N,/CANL*%
X112100000Y-64600000D02*
X110600000Y-66100000D01*
%TO.N,/CANH*%
X112550000Y-66050000D02*
X112600000Y-66100000D01*
D43*
X112675000Y-71120000D02*
X112675000Y-66175000D01*
X112675000Y-66175000D02*
X112600000Y-66100000D01*
%TO.N,/CANL*%
X110925000Y-71120000D02*
X110925000Y-66425000D01*
X110925000Y-66425000D02*
X110600000Y-66100000D01*
D47*
X111575000Y-65125000D02*
X112100000Y-64600000D01*
D45*
%TO.N,/GPIO_25*%
X87446896Y-54520610D02*
X87446896Y-55186844D01*
X87446896Y-55186844D02*
X87450000Y-55189948D01*
X87450000Y-55189948D02*
X87450000Y-55975000D01*
%TO.N,/GPIO_26_A0*%
X86921987Y-54982966D02*
X86921987Y-55312500D01*
X86921987Y-55312500D02*
X87050000Y-55440513D01*
X87050000Y-55440513D02*
X87050000Y-55975000D01*
D44*
%TO.N,/GPIO_7*%
X88650000Y-62850000D02*
X88650000Y-63900000D01*
X88650000Y-63900000D02*
X88050000Y-64500000D01*
D45*
%TO.N,/GPIO_26_A0*%
X87075000Y-55950000D02*
X87050000Y-55975000D01*
%TO.N,/~{EXT_RESET}*%
X90600000Y-56862000D02*
X90600000Y-57292831D01*
X90600000Y-57292831D02*
X90919669Y-57612500D01*
X90919669Y-57612500D02*
X91487500Y-57612500D01*
D44*
%TO.N,Net-(D1-A)*%
X89450000Y-55975000D02*
X89450000Y-54868628D01*
X89450000Y-54868628D02*
X90300000Y-54018628D01*
D45*
%TO.N,/GPIO_28_A2*%
X86250000Y-55975000D02*
X86250000Y-55369575D01*
X86250000Y-55369575D02*
X86375000Y-55244575D01*
X86375000Y-55244575D02*
X86375000Y-54562867D01*
X86375000Y-54562867D02*
X86344622Y-54532489D01*
%TO.N,/GPIO_29_A3*%
X85850000Y-55027112D02*
X85850000Y-55975000D01*
D44*
%TO.N,+3V3*%
X85600000Y-54500000D02*
X85087500Y-55012500D01*
X85087500Y-55012500D02*
X85087500Y-55612500D01*
X85087500Y-55612500D02*
X85450000Y-55975000D01*
D46*
%TO.N,VDDA*%
X85650000Y-53600000D02*
X85350000Y-53900000D01*
X85350000Y-53900000D02*
X84612500Y-54637500D01*
X86300000Y-52950000D02*
X85350000Y-53900000D01*
X86350000Y-52950000D02*
X86300000Y-52950000D01*
X84612500Y-54637500D02*
X84612500Y-56737500D01*
%TO.N,+3V3*%
X97350000Y-54175000D02*
X97350000Y-54175000D01*
X97350000Y-54200000D02*
X97350000Y-54175000D01*
X97325000Y-54200000D02*
X97350000Y-54200000D01*
X99350000Y-54500000D02*
X98650000Y-54500000D01*
X98650000Y-54500000D02*
X97675000Y-54500000D01*
%TO.N,GND*%
X97350000Y-52625000D02*
X97350000Y-52625000D01*
X97350000Y-52650000D02*
X97350000Y-52625000D01*
X97350000Y-52625000D02*
X98675000Y-52625000D01*
X98675000Y-52625000D02*
X98700000Y-52600000D01*
%TO.N,+3V3*%
X99025000Y-54500000D02*
X99350000Y-54500000D01*
X97675000Y-54500000D02*
X97350000Y-54175000D01*
X97145000Y-54380000D02*
X97325000Y-54200000D01*
%TO.N,GND*%
X103000000Y-55205810D02*
X103000000Y-54800000D01*
X103000000Y-54800000D02*
X102750000Y-54550000D01*
D44*
%TO.N,/~{CAN_RX_INT}*%
X94162746Y-55250000D02*
X94500000Y-55250000D01*
X93556373Y-55856373D02*
X94162746Y-55250000D01*
X93481373Y-55931373D02*
X93556373Y-55856373D01*
X93556373Y-55856373D02*
X93675000Y-55737746D01*
X92200246Y-57212500D02*
X93481373Y-55931373D01*
%TO.N,/~{CAN_RX_BUF0}*%
X94100000Y-54600000D02*
X94200000Y-54600000D01*
X91887500Y-56812500D02*
X94100000Y-54600000D01*
X91487500Y-56812500D02*
X91887500Y-56812500D01*
%TO.N,/~{CAN_RX_INT}*%
X102600000Y-57150000D02*
X102594190Y-57155810D01*
X102605810Y-57155810D02*
X102600000Y-57150000D01*
%TO.N,/~{CAN_RX_BUF0}*%
X103000000Y-56500000D02*
X102994190Y-56505810D01*
X103005810Y-56505810D02*
X103000000Y-56500000D01*
%TO.N,/~{CAN_RX_BUF1}*%
X102600000Y-55850000D02*
X102594190Y-55855810D01*
X102605810Y-55855810D02*
X102600000Y-55850000D01*
%TO.N,GND*%
X103000000Y-55205810D02*
X104040000Y-55205810D01*
%TO.N,/~{CAN_RX_BUF1}*%
X104040000Y-55855810D02*
X102605810Y-55855810D01*
%TO.N,/~{CAN_RX_BUF0}*%
X104040000Y-56505810D02*
X103005810Y-56505810D01*
%TO.N,/~{CAN_RX_INT}*%
X104040000Y-57155810D02*
X102605810Y-57155810D01*
D46*
%TO.N,+5V*%
X104550000Y-52850000D02*
X105400000Y-52850000D01*
%TO.N,GND*%
X107050000Y-53250000D02*
X106760000Y-53250000D01*
X106760000Y-53250000D02*
X106360000Y-52850000D01*
%TO.N,+5V*%
X106225000Y-54320810D02*
X106225000Y-53753320D01*
X106225000Y-53753320D02*
X105400000Y-52928320D01*
X105400000Y-52928320D02*
X105400000Y-52850000D01*
D47*
%TO.N,+3V3*%
X109710000Y-57155810D02*
X110680285Y-57155810D01*
X110680285Y-57155810D02*
X111451056Y-57926581D01*
D44*
%TO.N,/~{CAN_TX0_RTS}*%
X90250000Y-62850000D02*
X90250000Y-63600000D01*
X90250000Y-63600000D02*
X90700000Y-64050000D01*
X90700000Y-64050000D02*
X101450000Y-64050000D01*
X101450000Y-64050000D02*
X103334190Y-62165810D01*
X103334190Y-62165810D02*
X107777818Y-62165810D01*
X107777818Y-62165810D02*
X108438909Y-61504719D01*
%TO.N,/~{CAN_TX1_RTS}*%
X89850000Y-62850000D02*
X89850000Y-63765686D01*
X89850000Y-63765686D02*
X90534314Y-64450000D01*
X90534314Y-64450000D02*
X101650000Y-64450000D01*
X101650000Y-64450000D02*
X103534190Y-62565810D01*
X107943504Y-62565810D02*
X109710000Y-60799314D01*
X103534190Y-62565810D02*
X107943504Y-62565810D01*
X109710000Y-60799314D02*
X109710000Y-59105810D01*
%TO.N,/~{CAN_TX2_RTS}*%
X90368628Y-64850000D02*
X101350000Y-64850000D01*
X104868629Y-62965810D02*
X105200000Y-62965810D01*
X105200000Y-62965810D02*
X108109189Y-62965810D01*
X101350000Y-64850000D02*
X101815686Y-64850000D01*
X101815686Y-64850000D02*
X103699876Y-62965810D01*
X103699876Y-62965810D02*
X105200000Y-62965810D01*
%TO.N,/~{CAN_RESET}*%
X100650000Y-63650000D02*
X92525000Y-63650000D01*
X100650000Y-63650000D02*
X101250000Y-63650000D01*
X105575000Y-60586496D02*
X105575000Y-59990810D01*
X101250000Y-63650000D02*
X103534190Y-61365810D01*
X103534190Y-61365810D02*
X104795685Y-61365810D01*
X104795685Y-61365810D02*
X105575000Y-60586496D01*
%TO.N,/SPI1_CSn*%
X97984314Y-63250000D02*
X100750000Y-63250000D01*
X104925000Y-59990810D02*
X104925000Y-60670810D01*
X103234190Y-60965810D02*
X100950000Y-63250000D01*
X104925000Y-60670810D02*
X104630000Y-60965810D01*
X104630000Y-60965810D02*
X103234190Y-60965810D01*
X100950000Y-63250000D02*
X100750000Y-63250000D01*
%TO.N,/SPI1_TX*%
X104040000Y-58455810D02*
X103094190Y-58455810D01*
X103094190Y-58455810D02*
X103050000Y-58500000D01*
%TO.N,/SPI1_SCK*%
X104040000Y-57805810D02*
X102700000Y-57805810D01*
X102312500Y-60312500D02*
X99775000Y-62850000D01*
X102450000Y-58055810D02*
X102700000Y-57805810D01*
X102312500Y-60312500D02*
X102450000Y-60175000D01*
X102450000Y-60175000D02*
X102450000Y-58055810D01*
D47*
%TO.N,GND*%
X106875000Y-54320810D02*
X106875000Y-53425000D01*
X106875000Y-53425000D02*
X107050000Y-53250000D01*
%TO.N,/CANL*%
X111305810Y-56505810D02*
X109710000Y-56505810D01*
%TO.N,/CANH*%
X111355810Y-55855810D02*
X109710000Y-55855810D01*
D44*
%TO.N,/GPIO_3*%
X87050000Y-64450000D02*
X87050000Y-64900000D01*
%TO.N,+1V1*%
X84612500Y-57612500D02*
X85400000Y-57612500D01*
X85400000Y-57612500D02*
X85437500Y-57612500D01*
%TO.N,+3V3*%
X89050000Y-55975000D02*
X89050000Y-54725000D01*
X83320000Y-56650000D02*
X83350000Y-56680000D01*
X83350000Y-56650000D02*
X83320000Y-56650000D01*
X83350000Y-56680000D02*
X83350000Y-56650000D01*
D43*
%TO.N,/USB_DM*%
X80250000Y-55740000D02*
X80250000Y-54370000D01*
X80250000Y-54370000D02*
X81280000Y-53340000D01*
%TO.N,/USB_DP*%
X79250000Y-55740000D02*
X79250000Y-53850000D01*
X79250000Y-53850000D02*
X78740000Y-53340000D01*
D44*
%TO.N,+3V3*%
X87925000Y-53300000D02*
X87925000Y-53300000D01*
X87950000Y-53300000D02*
X87925000Y-53300000D01*
D46*
%TO.N,GND*%
X73450000Y-52400000D02*
X73450000Y-53400000D01*
X73450000Y-53400000D02*
X73200000Y-53650000D01*
X73450000Y-53355228D02*
X73744772Y-53650000D01*
X73200000Y-53650000D02*
X73744772Y-53650000D01*
D44*
%TO.N,/SWCLK*%
X74450000Y-54950000D02*
X74450000Y-52300000D01*
%TO.N,/SWDIO*%
X72450000Y-52300000D02*
X72450000Y-53650000D01*
%TO.N,GND*%
X73150000Y-53650000D02*
X73200000Y-53700000D01*
D46*
%TO.N,+3V3*%
X71200000Y-56800000D02*
X72200000Y-56800000D01*
X72200000Y-56800000D02*
X72200000Y-56770000D01*
X72200000Y-56770000D02*
X72657500Y-56770000D01*
X72657500Y-56770000D02*
X73225000Y-57337500D01*
X71200000Y-56770000D02*
X71200000Y-56800000D01*
%TO.N,GND*%
X71200000Y-57750000D02*
X72200000Y-57750000D01*
X73600000Y-59050000D02*
X73600000Y-58500000D01*
X73875000Y-57337500D02*
X73875000Y-58225000D01*
X73875000Y-58225000D02*
X73600000Y-58500000D01*
D44*
%TO.N,/UART_1_RX*%
X87850000Y-62850000D02*
X87850000Y-62167992D01*
X87850000Y-62167992D02*
X88050000Y-61967992D01*
%TO.N,/UART_1_TX*%
X87450000Y-62850000D02*
X87450000Y-62137503D01*
X87450000Y-62137503D02*
X87275497Y-61963000D01*
%TO.N,/UART_0_RX*%
X86250000Y-62850000D02*
X86250000Y-62164983D01*
X86250000Y-62164983D02*
X86452951Y-61962032D01*
%TO.N,/UART_0_TX*%
X85850000Y-62850000D02*
X85850000Y-62150000D01*
X85850000Y-62150000D02*
X85650000Y-61950000D01*
%TO.N,+1V1*%
X90000000Y-61150000D02*
X90000000Y-59062500D01*
D43*
X90000000Y-61362500D02*
X86212500Y-61362500D01*
D44*
X90000000Y-61262500D02*
X90000000Y-61150000D01*
D43*
X90000000Y-61150000D02*
X90000000Y-61362500D01*
X86212500Y-61362500D02*
X86075000Y-61225000D01*
D47*
%TO.N,/UART_1_RX*%
X77800000Y-58850000D02*
X77775000Y-58875000D01*
X77775000Y-58825000D02*
X77800000Y-58850000D01*
%TO.N,/UART_1_TX*%
X77150000Y-58550000D02*
X77125000Y-58575000D01*
X77125000Y-58525000D02*
X77150000Y-58550000D01*
%TO.N,/UART_0_TX*%
X76500000Y-58850000D02*
X76475000Y-58875000D01*
X76475000Y-58825000D02*
X76500000Y-58850000D01*
%TO.N,/UART_0_RX*%
X75850000Y-58550000D02*
X75825000Y-58575000D01*
X75825000Y-58525000D02*
X75850000Y-58550000D01*
%TO.N,/UART_1_RX*%
X77775000Y-57337500D02*
X77775000Y-58825000D01*
%TO.N,/UART_1_TX*%
X77125000Y-57337500D02*
X77125000Y-58525000D01*
%TO.N,/UART_0_TX*%
X76475000Y-57337500D02*
X76475000Y-58825000D01*
%TO.N,/UART_0_RX*%
X75825000Y-57337500D02*
X75825000Y-58525000D01*
%TO.N,/RS232_0_RX*%
X75175000Y-57337500D02*
X75175000Y-59375000D01*
X75175000Y-59375000D02*
X74050000Y-60500000D01*
X74050000Y-60500000D02*
X72300000Y-60500000D01*
X72300000Y-60500000D02*
X71200000Y-61600000D01*
X71200000Y-61600000D02*
X71200000Y-64550000D01*
D44*
%TO.N,Net-(U6-C1-)*%
X74525000Y-63062500D02*
X74525000Y-64080000D01*
X74525000Y-64080000D02*
X74005000Y-64600000D01*
%TO.N,Net-(U6-C1+)*%
X73225000Y-63062500D02*
X73225000Y-64420000D01*
X73225000Y-64420000D02*
X73045000Y-64600000D01*
%TO.N,Net-(U6-VS+)*%
X73875000Y-63062500D02*
X73875000Y-62409315D01*
X73490685Y-62025000D02*
X72845000Y-62025000D01*
X73875000Y-62409315D02*
X73490685Y-62025000D01*
X72845000Y-62025000D02*
X72200000Y-62670000D01*
%TO.N,Net-(U6-C2+)*%
X75175000Y-63062500D02*
X75175000Y-64370000D01*
X75175000Y-64370000D02*
X74945000Y-64600000D01*
%TO.N,Net-(U6-C2-)*%
X75825000Y-63062500D02*
X75825000Y-64520000D01*
X75825000Y-64520000D02*
X75905000Y-64600000D01*
%TO.N,Net-(U6-VS-)*%
X76475000Y-63062500D02*
X76485000Y-63072500D01*
X76485000Y-65495000D02*
X76355000Y-65625000D01*
X76485000Y-63072500D02*
X76485000Y-65495000D01*
%TO.N,/~{CAN_TX2_RTS}*%
X89450000Y-62850000D02*
X89450000Y-63931372D01*
X108109189Y-62965810D02*
X110575000Y-60500000D01*
X110575000Y-60500000D02*
X110575000Y-58640810D01*
X110575000Y-58640810D02*
X110390000Y-58455810D01*
X89450000Y-63931372D02*
X90368628Y-64850000D01*
X110390000Y-58455810D02*
X109710000Y-58455810D01*
%TO.N,Net-(U2-TXCAN)*%
X106875000Y-60715810D02*
X106875000Y-59990810D01*
X107483423Y-61396169D02*
X107483423Y-61324233D01*
X107483423Y-61324233D02*
X106875000Y-60715810D01*
%TO.N,/~{CAN_RESET}*%
X92525000Y-63650000D02*
X92300000Y-63650000D01*
X90650000Y-62850000D02*
X90650000Y-63375000D01*
X92525000Y-63650000D02*
X90925000Y-63650000D01*
X90925000Y-63650000D02*
X90650000Y-63375000D01*
%TO.N,/~{CAN_TX0_RTS}*%
X108438909Y-61504719D02*
X108202818Y-61740810D01*
X108825000Y-61118628D02*
X108438909Y-61504719D01*
D47*
%TO.N,+3V3*%
X106505000Y-61490810D02*
X106505000Y-61490810D01*
X106500000Y-61490810D02*
X106505000Y-61490810D01*
X106500000Y-61485810D02*
X106500000Y-61490810D01*
D44*
%TO.N,Net-(U2-RXCAN)*%
X110876056Y-58164754D02*
X110517112Y-57805810D01*
X110517112Y-57805810D02*
X109710000Y-57805810D01*
X110876056Y-58164754D02*
X110950000Y-58090810D01*
%TO.N,/~{CAN_TX0_RTS}*%
X108825000Y-59990810D02*
X108825000Y-61118628D01*
%TO.N,Net-(U2-TXCAN)*%
X108175000Y-53690810D02*
X108175000Y-54320810D01*
X107975000Y-53215810D02*
X107975000Y-53490810D01*
X107975000Y-53490810D02*
X108175000Y-53690810D01*
%TO.N,Net-(U2-RXCAN)*%
X108100000Y-61115810D02*
X108100000Y-61115810D01*
X108100000Y-61065810D02*
X108100000Y-61115810D01*
X108050000Y-61065810D02*
X108100000Y-61065810D01*
X107525000Y-60540810D02*
X108050000Y-61065810D01*
X107525000Y-59990810D02*
X107525000Y-60540810D01*
D46*
%TO.N,GND*%
X106360000Y-51850000D02*
X106360000Y-52850000D01*
%TO.N,+5V*%
X105400000Y-51850000D02*
X105400000Y-52850000D01*
D44*
%TO.N,GND*%
X107100000Y-57265810D02*
X106875000Y-57155810D01*
X106875000Y-56715810D02*
X107100000Y-57265810D01*
X106000000Y-56280810D02*
X106875000Y-57155810D01*
X106000000Y-56265810D02*
X106000000Y-56280810D01*
X105985000Y-56265810D02*
X106000000Y-56265810D01*
X106875000Y-54320810D02*
X106875000Y-56715810D01*
X104040000Y-55205810D02*
X104925000Y-55205810D01*
X104925000Y-55205810D02*
X105985000Y-56265810D01*
%TO.N,+3V3*%
X80750000Y-58800000D02*
X80730000Y-58820000D01*
X94800000Y-57175000D02*
X94800000Y-57512254D01*
X85450000Y-63695000D02*
X85150000Y-63995000D01*
X84612500Y-58812500D02*
X84605000Y-58820000D01*
X83882500Y-57212500D02*
X83350000Y-56680000D01*
X84605000Y-58820000D02*
X80770000Y-58820000D01*
X93099754Y-59212500D02*
X91487500Y-59212500D01*
D47*
X79950000Y-60745000D02*
X79950000Y-60700000D01*
D44*
X85150000Y-63995000D02*
X85150000Y-64000000D01*
X90699000Y-59212500D02*
X91487500Y-59212500D01*
X94800000Y-57512254D02*
X93099754Y-59212500D01*
X90549500Y-59362000D02*
X90699000Y-59212500D01*
X89050000Y-62850000D02*
X89050000Y-64770000D01*
D46*
X85125000Y-64020000D02*
X84150000Y-64000000D01*
D44*
X80770000Y-58820000D02*
X80750000Y-58800000D01*
X84612500Y-57212500D02*
X83882500Y-57212500D01*
X94800000Y-57180000D02*
X94800000Y-57175000D01*
X85145000Y-64000000D02*
X85125000Y-64020000D01*
D47*
X79950000Y-60700000D02*
X79905000Y-60700000D01*
X79950000Y-60745000D02*
X79950000Y-60745000D01*
X79905000Y-60700000D02*
X79930000Y-60725000D01*
D44*
X85450000Y-62850000D02*
X85450000Y-63695000D01*
X85150000Y-64000000D02*
X85145000Y-64000000D01*
D47*
X79950000Y-61900000D02*
X79950000Y-60745000D01*
D46*
X84150000Y-64000000D02*
X84150000Y-64020000D01*
X80740000Y-58820000D02*
X79750000Y-58820000D01*
D44*
X80730000Y-58820000D02*
X79750000Y-58820000D01*
D46*
%TO.N,GND*%
X93800000Y-56650000D02*
X93800000Y-56620000D01*
X81720000Y-59450000D02*
X81100000Y-59450000D01*
X94795000Y-56220000D02*
X94825000Y-56225000D01*
X94825000Y-56225000D02*
X94805000Y-56220000D01*
X93770000Y-56650000D02*
X93800000Y-56650000D01*
X94805000Y-56220000D02*
X94800000Y-56220000D01*
X92750000Y-57591680D02*
X92750000Y-57575000D01*
X81400000Y-55780000D02*
X81370000Y-55750000D01*
X84150000Y-64975000D02*
X85120000Y-64980000D01*
X92750000Y-57595000D02*
X92750000Y-57591680D01*
X84150000Y-64980000D02*
X84150000Y-64975000D01*
X94200000Y-56220000D02*
X94795000Y-56220000D01*
X81400000Y-56750000D02*
X81400000Y-55780000D01*
X93775000Y-56645000D02*
X93770000Y-56650000D01*
X85150000Y-64975000D02*
X85130000Y-64980000D01*
X81100000Y-59450000D02*
X80750000Y-59800000D01*
X92750000Y-57591680D02*
X92750000Y-57591680D01*
X92750000Y-57575000D02*
X92766680Y-57575000D01*
X92766680Y-57575000D02*
X93696680Y-56645000D01*
X85120000Y-64980000D02*
X85150000Y-64975000D01*
X85130000Y-64980000D02*
X85125000Y-64980000D01*
X93800000Y-56620000D02*
X94200000Y-56220000D01*
X93696680Y-56645000D02*
X93775000Y-56645000D01*
D44*
%TO.N,+1V1*%
X84612500Y-59612500D02*
X83242500Y-59612500D01*
X90000000Y-59062500D02*
X90250000Y-58812500D01*
X83080000Y-59450000D02*
X82680000Y-59450000D01*
D46*
X93775000Y-57608320D02*
X93775000Y-57605000D01*
X82330000Y-55750000D02*
X82330000Y-56770000D01*
D44*
X90250000Y-58812500D02*
X91487500Y-58812500D01*
X83242500Y-59612500D02*
X83080000Y-59450000D01*
D46*
X92828320Y-58555000D02*
X93775000Y-57608320D01*
D44*
X84612500Y-57612500D02*
X83172500Y-57612500D01*
X83172500Y-57612500D02*
X82330000Y-56770000D01*
X92492500Y-58812500D02*
X92750000Y-58555000D01*
X91487500Y-58812500D02*
X92492500Y-58812500D01*
D46*
X92750000Y-58555000D02*
X92828320Y-58555000D01*
D44*
%TO.N,VDDA*%
X84612500Y-56812500D02*
X84612500Y-55912500D01*
%TO.N,/XOUT*%
X97923833Y-56439446D02*
X98666153Y-57181766D01*
X97310554Y-56439446D02*
X97923833Y-56439446D01*
X96450000Y-57300000D02*
X97310554Y-56439446D01*
%TO.N,/XIN*%
X94650000Y-60500000D02*
X97752081Y-60500000D01*
X91487500Y-60012500D02*
X94162500Y-60012500D01*
X98999965Y-61350035D02*
X98999965Y-60626848D01*
X94162500Y-60012500D02*
X94650000Y-60500000D01*
X97752081Y-60500000D02*
X98312599Y-59939482D01*
X98999965Y-60626848D02*
X98312599Y-59939482D01*
%TO.N,Net-(U1-XOUT)*%
X94137500Y-59612500D02*
X95728752Y-58021248D01*
X91487500Y-59612500D02*
X94137500Y-59612500D01*
%TO.N,Net-(U1-USB_DP)*%
X79250000Y-56865686D02*
X79250000Y-56760000D01*
X84612500Y-58412500D02*
X82462500Y-58412500D01*
X82462500Y-58412500D02*
X82050000Y-58000000D01*
X80384314Y-58000000D02*
X79250000Y-56865686D01*
X82050000Y-58000000D02*
X80384314Y-58000000D01*
%TO.N,Net-(U1-USB_DM)*%
X84612500Y-58012500D02*
X82812500Y-58012500D01*
X80550000Y-57600000D02*
X80250000Y-57300000D01*
X82812500Y-58012500D02*
X82400000Y-57600000D01*
D47*
X80250000Y-56760000D02*
X80250000Y-56900000D01*
D44*
X82400000Y-57600000D02*
X80550000Y-57600000D01*
X80250000Y-57300000D02*
X80250000Y-56760000D01*
%TO.N,/SPI1_SCK*%
X96900000Y-61600000D02*
X94800000Y-61600000D01*
X94412500Y-61212500D02*
X91487500Y-61212500D01*
X98150000Y-62850000D02*
X96900000Y-61600000D01*
X99775000Y-62850000D02*
X98150000Y-62850000D01*
X94800000Y-61600000D02*
X94412500Y-61212500D01*
%TO.N,/SPI1_RX*%
X92400500Y-62012500D02*
X92550000Y-62162000D01*
X91487500Y-62012500D02*
X92400500Y-62012500D01*
%TO.N,/SPI1_CSn*%
X96734314Y-62000000D02*
X97984314Y-63250000D01*
X91487500Y-61612500D02*
X94246814Y-61612500D01*
X94634314Y-62000000D02*
X96734314Y-62000000D01*
X94246814Y-61612500D02*
X94634314Y-62000000D01*
%TO.N,/~{CAN_RX_INT}*%
X91487500Y-57212500D02*
X92200246Y-57212500D01*
%TO.N,/QSPI_SD3*%
X84612500Y-60012500D02*
X83037500Y-60012500D01*
X82000000Y-60600000D02*
X81134315Y-60600000D01*
X83037500Y-60012500D02*
X82950000Y-60100000D01*
X82500000Y-60100000D02*
X82000000Y-60600000D01*
X80450000Y-61284315D02*
X80450000Y-61900000D01*
X82950000Y-60100000D02*
X82500000Y-60100000D01*
X81134315Y-60600000D02*
X80450000Y-61284315D01*
%TO.N,/QSPI_SCLK*%
X82665685Y-60500000D02*
X82165685Y-61000000D01*
X83115686Y-60500000D02*
X82665685Y-60500000D01*
X82165685Y-61000000D02*
X81350000Y-61000000D01*
X84612500Y-60412500D02*
X83203186Y-60412500D01*
X83203186Y-60412500D02*
X83115686Y-60500000D01*
X81350000Y-61000000D02*
X80950000Y-61400000D01*
X80950000Y-61400000D02*
X80950000Y-61900000D01*
%TO.N,/QSPI_SD0*%
X82831370Y-60900000D02*
X82331370Y-61400000D01*
X81450000Y-61550000D02*
X81450000Y-61900000D01*
X84612500Y-60812500D02*
X83387500Y-60812500D01*
X83300000Y-60900000D02*
X82831370Y-60900000D01*
X83387500Y-60812500D02*
X83300000Y-60900000D01*
X81600000Y-61400000D02*
X81450000Y-61550000D01*
X82331370Y-61400000D02*
X81600000Y-61400000D01*
%TO.N,/QSPI_SD2*%
X83465686Y-61300000D02*
X83268628Y-61300000D01*
X83268628Y-61300000D02*
X82600000Y-61968628D01*
X81100000Y-65100000D02*
X80950000Y-64950000D01*
X82600000Y-61968628D02*
X82600000Y-64400000D01*
X83553186Y-61212500D02*
X83465686Y-61300000D01*
X84612500Y-61212500D02*
X83553186Y-61212500D01*
X81900000Y-65100000D02*
X81100000Y-65100000D01*
X82600000Y-64400000D02*
X81900000Y-65100000D01*
X80950000Y-64950000D02*
X80950000Y-64400000D01*
%TO.N,/QSPI_SD1*%
X80934315Y-65500000D02*
X80450000Y-65015685D01*
X84612500Y-61612500D02*
X83718872Y-61612500D01*
X83000000Y-64565686D02*
X82065685Y-65500000D01*
X83000000Y-62134314D02*
X83000000Y-64565686D01*
X83434314Y-61700000D02*
X83000000Y-62134314D01*
X83631372Y-61700000D02*
X83434314Y-61700000D01*
X82065685Y-65500000D02*
X80934315Y-65500000D01*
X80450000Y-65015685D02*
X80450000Y-64400000D01*
X83718872Y-61612500D02*
X83631372Y-61700000D01*
%TO.N,/~{QSPI_CSN}*%
X83400000Y-64731372D02*
X83400000Y-62300000D01*
X82231370Y-65900000D02*
X83400000Y-64731372D01*
X80768629Y-65900000D02*
X82231370Y-65900000D01*
X83912500Y-62100000D02*
X84000000Y-62012500D01*
X79950000Y-64400000D02*
X79950000Y-65081371D01*
X79950000Y-65081371D02*
X80768629Y-65900000D01*
X84000000Y-62012500D02*
X84612500Y-62012500D01*
X83600000Y-62100000D02*
X83912500Y-62100000D01*
X83400000Y-62300000D02*
X83600000Y-62100000D01*
%TD*%
%TA.AperFunction,Conductor*%
%TO.N,GND*%
G36*
X79772668Y-62450238D02*
G01*
X79775323Y-62450499D01*
X79775326Y-62450500D01*
X79775329Y-62450500D01*
X80124671Y-62450500D01*
X80124674Y-62450500D01*
X80124676Y-62450499D01*
X80127332Y-62450238D01*
X80132185Y-62450000D01*
X80267815Y-62450000D01*
X80272668Y-62450238D01*
X80275323Y-62450499D01*
X80275326Y-62450500D01*
X80275329Y-62450500D01*
X80624671Y-62450500D01*
X80624674Y-62450500D01*
X80624676Y-62450499D01*
X80627332Y-62450238D01*
X80632185Y-62450000D01*
X80767815Y-62450000D01*
X80772668Y-62450238D01*
X80775323Y-62450499D01*
X80775326Y-62450500D01*
X80775329Y-62450500D01*
X81124671Y-62450500D01*
X81124674Y-62450500D01*
X81124676Y-62450499D01*
X81127332Y-62450238D01*
X81132185Y-62450000D01*
X81267815Y-62450000D01*
X81272668Y-62450238D01*
X81275323Y-62450499D01*
X81275326Y-62450500D01*
X81275329Y-62450500D01*
X81624671Y-62450500D01*
X81624674Y-62450500D01*
X81624676Y-62450499D01*
X81627332Y-62450238D01*
X81632185Y-62450000D01*
X81801000Y-62450000D01*
X81859191Y-62468907D01*
X81895155Y-62518407D01*
X81900000Y-62549000D01*
X81900000Y-64563309D01*
X81881093Y-64621500D01*
X81871004Y-64633312D01*
X81783814Y-64720503D01*
X81729298Y-64748281D01*
X81713810Y-64749500D01*
X81449500Y-64749500D01*
X81391309Y-64730593D01*
X81355345Y-64681093D01*
X81350500Y-64650500D01*
X81350500Y-64075327D01*
X81350498Y-64075315D01*
X81344459Y-64044958D01*
X81335966Y-64002260D01*
X81280601Y-63919399D01*
X81280599Y-63919397D01*
X81243999Y-63894942D01*
X81230356Y-63877636D01*
X81228996Y-63878997D01*
X81200000Y-63850001D01*
X81200000Y-63850000D01*
X81199999Y-63850000D01*
X81132185Y-63850000D01*
X81127332Y-63849762D01*
X81124676Y-63849500D01*
X81124674Y-63849500D01*
X80775326Y-63849500D01*
X80775323Y-63849500D01*
X80772668Y-63849762D01*
X80767815Y-63850000D01*
X80632185Y-63850000D01*
X80627332Y-63849762D01*
X80624676Y-63849500D01*
X80624674Y-63849500D01*
X80275326Y-63849500D01*
X80275323Y-63849500D01*
X80272668Y-63849762D01*
X80267815Y-63850000D01*
X80132185Y-63850000D01*
X80127332Y-63849762D01*
X80124676Y-63849500D01*
X80124674Y-63849500D01*
X79775326Y-63849500D01*
X79775323Y-63849500D01*
X79772668Y-63849762D01*
X79767815Y-63850000D01*
X79599000Y-63850000D01*
X79540809Y-63831093D01*
X79504845Y-63781593D01*
X79500000Y-63751000D01*
X79500000Y-62549000D01*
X79518907Y-62490809D01*
X79568407Y-62454845D01*
X79599000Y-62450000D01*
X79767815Y-62450000D01*
X79772668Y-62450238D01*
G37*
%TD.AperFunction*%
%TD*%
%TA.AperFunction,Conductor*%
%TO.N,+3V3*%
G36*
X84996191Y-58781906D02*
G01*
X85032155Y-58831406D01*
X85037000Y-58861999D01*
X85037000Y-59163000D01*
X85018093Y-59221191D01*
X84968593Y-59257155D01*
X84938000Y-59262000D01*
X84249000Y-59262000D01*
X84190809Y-59243093D01*
X84154845Y-59193593D01*
X84150000Y-59163000D01*
X84150000Y-58862000D01*
X84168907Y-58803809D01*
X84218407Y-58767845D01*
X84249000Y-58763000D01*
X84649515Y-58763000D01*
X84649527Y-58762999D01*
X84938000Y-58762999D01*
X84996191Y-58781906D01*
G37*
%TD.AperFunction*%
%TD*%
M02*
