%TF.GenerationSoftware,KiCad,Pcbnew,7.0.7*%
%TF.CreationDate,2024-01-01T23:26:11-08:00*%
%TF.ProjectId,Curly_Mini_v0,4375726c-795f-44d6-996e-695f76302e6b,rev?*%
%TF.SameCoordinates,Original*%
%TF.FileFunction,Copper,L3,Inr*%
%TF.FilePolarity,Positive*%
%FSLAX46Y46*%
G04 Gerber Fmt 4.6, Leading zero omitted, Abs format (unit mm)*
G04 Created by KiCad (PCBNEW 7.0.7) date 2024-01-01 23:26:11*
%MOMM*%
%LPD*%
G01*
G04 APERTURE LIST*
G04 Aperture macros list*
%AMFreePoly0*
4,1,29,0.193136,2.094410,0.334892,2.027705,0.455605,1.927842,0.547692,1.801096,0.605364,1.655431,0.625000,1.500000,0.625000,-1.500000,0.620072,-1.578333,0.581110,-1.730078,0.505636,-1.867366,0.398390,-1.981571,0.266112,-2.065517,0.117113,-2.113930,-0.039244,-2.123767,-0.193136,-2.094410,-0.334892,-2.027705,-0.455605,-1.927842,-0.547692,-1.801096,-0.605364,-1.655431,-0.625000,-1.500000,
-0.625000,1.500000,-0.620072,1.578333,-0.581110,1.730078,-0.505636,1.867366,-0.398390,1.981571,-0.266112,2.065517,-0.117113,2.113930,0.039244,2.123767,0.193136,2.094410,0.193136,2.094410,$1*%
%AMFreePoly1*
4,1,31,0.130236,2.238606,0.297060,2.188662,0.447869,2.101592,0.574533,1.982091,0.670224,1.836599,0.729784,1.672962,0.750000,1.500000,0.750000,-1.500000,0.744929,-1.587070,0.704769,-1.756515,0.626616,-1.912132,0.514681,-2.045530,0.375000,-2.149519,0.215102,-2.218492,0.043609,-2.248731,-0.130236,-2.238606,-0.297060,-2.188662,-0.447869,-2.101592,-0.574533,-1.982091,-0.670224,-1.836599,
-0.729784,-1.672962,-0.750000,-1.500000,-0.750000,1.500000,-0.744929,1.587070,-0.704769,1.756515,-0.626616,1.912132,-0.514681,2.045530,-0.375000,2.149519,-0.215102,2.218492,-0.043609,2.248731,0.130236,2.238606,0.130236,2.238606,$1*%
G04 Aperture macros list end*
%TA.AperFunction,CastellatedPad*%
%ADD10FreePoly0,180.000000*%
%TD*%
%TA.AperFunction,CastellatedPad*%
%ADD11FreePoly1,180.000000*%
%TD*%
%TA.AperFunction,ComponentPad*%
%ADD12R,1.700000X1.700000*%
%TD*%
%TA.AperFunction,ComponentPad*%
%ADD13O,1.700000X1.700000*%
%TD*%
%TA.AperFunction,ViaPad*%
%ADD14C,0.500000*%
%TD*%
%TA.AperFunction,ViaPad*%
%ADD15C,0.800000*%
%TD*%
G04 APERTURE END LIST*
D10*
%TO.N,/CANH*%
%TO.C,J26*%
X112675000Y-69600000D03*
%TO.N,/CANL*%
X110925000Y-69600000D03*
D11*
%TO.N,GND*%
X108925000Y-69600000D03*
%TO.N,VDC*%
X106425000Y-69600000D03*
%TO.N,GND*%
X103925000Y-69600000D03*
D10*
%TO.N,/~{EXT_RESET}*%
X101925000Y-69600000D03*
%TO.N,/GPIO_22*%
X100175000Y-69600000D03*
%TO.N,/GPIO_23*%
X98425000Y-69600000D03*
%TO.N,/GPIO_24*%
X96675000Y-69600000D03*
%TO.N,/GPIO_25*%
X94925000Y-69600000D03*
%TO.N,/GPIO_26_A0*%
X93175000Y-69600000D03*
%TO.N,/GPIO_27_A1*%
X91425000Y-69600000D03*
%TO.N,/GPIO_28_A2*%
X89675000Y-69600000D03*
%TO.N,/GPIO_29_A3*%
X87925000Y-69600000D03*
%TO.N,/GPIO_7*%
X86175000Y-69600000D03*
%TO.N,/GPIO_6*%
X84425000Y-69600000D03*
%TO.N,/GPIO_3*%
X82675000Y-69600000D03*
%TO.N,/GPIO_2*%
X80925000Y-69600000D03*
%TO.N,+3V3*%
X79175000Y-69600000D03*
%TO.N,GND*%
X77425000Y-69600000D03*
%TO.N,/RS232_1_RX*%
X75675000Y-69600000D03*
%TO.N,/RS232_1_TX*%
X73925000Y-69600000D03*
%TO.N,/RS232_0_RX*%
X72175000Y-69600000D03*
%TO.N,/RS232_0_TX*%
X70425000Y-69600000D03*
%TD*%
D12*
%TO.N,/USB_DP*%
%TO.C,J8*%
X78740000Y-53340000D03*
D13*
%TO.N,/USB_DM*%
X81280000Y-53340000D03*
%TO.N,GND*%
X83820000Y-53340000D03*
%TD*%
D14*
%TO.N,GND*%
X88341168Y-59355393D03*
%TO.N,/CAN_TXVR_STBY*%
X107575000Y-52050000D03*
X104075000Y-51825000D03*
%TO.N,GND*%
X86037000Y-59807289D03*
X86054911Y-60357089D03*
X88950000Y-51700000D03*
X89100000Y-52650000D03*
%TO.N,+3V3*%
X87900000Y-53175000D03*
X89125000Y-53625000D03*
X89925000Y-51750000D03*
%TO.N,GND*%
X108925000Y-65725000D03*
X108925000Y-65225000D03*
X107950000Y-66250000D03*
X107400000Y-66250000D03*
%TO.N,/GPIO_22*%
X89597934Y-56852306D03*
%TO.N,/GPIO_24*%
X88250000Y-54250000D03*
%TO.N,/GPIO_23*%
X88500500Y-54950000D03*
%TO.N,/GPIO_27_A1*%
X87454404Y-56863506D03*
%TO.N,/SWCLK*%
X90200000Y-58150000D03*
%TO.N,/SWDIO*%
X90102031Y-57457536D03*
%TO.N,/GPIO_25*%
X87446896Y-54520610D03*
%TO.N,/GPIO_26_A0*%
X86921987Y-54982966D03*
%TO.N,/GPIO_28_A2*%
X86344622Y-54532489D03*
%TO.N,/GPIO_29_A3*%
X85850000Y-55027112D03*
%TO.N,+3V3*%
X96100000Y-54550000D03*
X97350000Y-54200000D03*
X99350000Y-54500000D03*
X98650000Y-54500000D03*
%TO.N,GND*%
X97350000Y-52650000D03*
X99350000Y-52600000D03*
X98700000Y-52600000D03*
X102750000Y-54550000D03*
%TO.N,+5V*%
X101000000Y-53550000D03*
X101600000Y-53550000D03*
X102750000Y-53550000D03*
%TO.N,/~{CAN_RX_BUF0}*%
X94200000Y-54600000D03*
%TO.N,/~{CAN_RX_INT}*%
X94500000Y-55250000D03*
%TO.N,/~{CAN_RX_BUF1}*%
X94173944Y-53848944D03*
%TO.N,/~{CAN_RX_INT}*%
X102600000Y-57150000D03*
%TO.N,/~{CAN_RX_BUF0}*%
X103000000Y-56500000D03*
%TO.N,/~{CAN_RX_BUF1}*%
X102600000Y-55850000D03*
D15*
%TO.N,+5V*%
X104550000Y-52850000D03*
X106550000Y-64000000D03*
D14*
%TO.N,GND*%
X111750000Y-59275000D03*
%TO.N,+3V3*%
X111750000Y-58325000D03*
D15*
%TO.N,GND*%
X110600000Y-62250000D03*
D14*
X103900000Y-64250000D03*
%TO.N,/SPI1_RX*%
X103050000Y-59450000D03*
%TO.N,/SPI1_TX*%
X103050000Y-58500000D03*
%TO.N,GND*%
X107050000Y-53250000D03*
%TO.N,/SWCLK*%
X86032441Y-57538700D03*
%TO.N,/SWDIO*%
X85498746Y-56889935D03*
%TO.N,GND*%
X95010000Y-52000000D03*
%TO.N,+3V3*%
X83350000Y-56650000D03*
%TO.N,GND*%
X73744772Y-53650000D03*
X73200000Y-53650000D03*
%TO.N,/SWCLK*%
X74450000Y-54950000D03*
%TO.N,/SWDIO*%
X72500000Y-54300000D03*
%TO.N,GND*%
X75400000Y-65600000D03*
X72200000Y-63650000D03*
%TO.N,+3V3*%
X71200000Y-56800000D03*
X72200000Y-56800000D03*
%TO.N,GND*%
X71200000Y-57750000D03*
X72200000Y-57750000D03*
X73600000Y-59050000D03*
X73600000Y-58500000D03*
%TO.N,/UART_0_TX*%
X85650000Y-61950000D03*
%TO.N,/UART_0_RX*%
X86452951Y-61962032D03*
%TO.N,/UART_1_TX*%
X87275497Y-61963000D03*
%TO.N,/UART_1_RX*%
X88050000Y-61967992D03*
X77800000Y-58850000D03*
%TO.N,/UART_1_TX*%
X77150000Y-58550000D03*
%TO.N,/UART_0_TX*%
X76500000Y-58850000D03*
%TO.N,/UART_0_RX*%
X75850000Y-58550000D03*
%TO.N,+3V3*%
X93275000Y-54525000D03*
%TO.N,/~{EXT_RESET}*%
X92250000Y-54500000D03*
%TO.N,+3V3*%
X106650000Y-61465810D03*
%TO.N,GND*%
X105700000Y-61465810D03*
%TO.N,Net-(U2-RXCAN)*%
X110876056Y-58164754D03*
%TO.N,Net-(U2-TXCAN)*%
X107483423Y-61396169D03*
%TO.N,Net-(U2-RXCAN)*%
X108100000Y-61065810D03*
%TO.N,Net-(U2-TXCAN)*%
X107975000Y-53215810D03*
%TO.N,GND*%
X106350000Y-52850000D03*
X108000000Y-57940810D03*
X107575000Y-58315810D03*
X107000000Y-58365810D03*
X106500000Y-58365810D03*
X106000000Y-58215810D03*
X105600000Y-57865810D03*
X106875000Y-57510810D03*
X107275000Y-57115810D03*
X106875000Y-56715810D03*
X107800000Y-56265810D03*
X106000000Y-56265810D03*
X103000000Y-55205810D03*
%TO.N,+3V3*%
X90549500Y-59362000D03*
X94800000Y-57175000D03*
X85150000Y-64000000D03*
X89025000Y-64570000D03*
X80750000Y-58800000D03*
X84150000Y-64000000D03*
X79950000Y-60700000D03*
%TO.N,GND*%
X99700000Y-60650000D03*
X96650000Y-58800000D03*
X97200000Y-58250000D03*
X98000000Y-55750000D03*
X100350000Y-58300000D03*
X78950000Y-60700000D03*
X87060000Y-51925000D03*
X99950000Y-57900000D03*
X80750000Y-59800000D03*
X80050000Y-63150000D03*
X99400000Y-58450000D03*
X84150000Y-64975000D03*
X89050000Y-65545000D03*
X79750000Y-59800000D03*
X83350000Y-55700000D03*
X93800000Y-56650000D03*
X81400000Y-56750000D03*
X97050000Y-59200000D03*
X85150000Y-64975000D03*
X92750000Y-57575000D03*
X90742685Y-60411538D03*
X94825000Y-56225000D03*
X97600000Y-58650000D03*
X81350000Y-63150000D03*
X99800000Y-58850000D03*
%TO.N,/~{EXT_RESET}*%
X90600000Y-56862000D03*
%TO.N,/SPI1_TX*%
X92550000Y-60663000D03*
%TO.N,/SPI1_RX*%
X92550000Y-62162000D03*
%TD*%
%TA.AperFunction,Conductor*%
%TO.N,GND*%
G36*
X89699795Y-51139407D02*
G01*
X89735759Y-51188907D01*
X89735759Y-51250093D01*
X89699795Y-51299593D01*
X89695127Y-51302784D01*
X89593873Y-51367855D01*
X89499622Y-51476628D01*
X89439834Y-51607543D01*
X89419353Y-51749997D01*
X89419353Y-51750002D01*
X89439834Y-51892456D01*
X89499622Y-52023371D01*
X89499623Y-52023373D01*
X89592962Y-52131093D01*
X89593873Y-52132144D01*
X89710576Y-52207144D01*
X89714947Y-52209953D01*
X89821403Y-52241211D01*
X89853035Y-52250499D01*
X89853036Y-52250499D01*
X89853039Y-52250500D01*
X89853041Y-52250500D01*
X89996959Y-52250500D01*
X89996961Y-52250500D01*
X90135053Y-52209953D01*
X90256128Y-52132143D01*
X90350377Y-52023373D01*
X90410165Y-51892457D01*
X90416992Y-51844971D01*
X90419863Y-51825002D01*
X103569353Y-51825002D01*
X103589834Y-51967456D01*
X103627532Y-52050002D01*
X103649623Y-52098373D01*
X103743872Y-52207143D01*
X103743873Y-52207144D01*
X103864942Y-52284950D01*
X103864947Y-52284953D01*
X103948207Y-52309400D01*
X103970286Y-52315883D01*
X104020793Y-52350419D01*
X104041355Y-52408046D01*
X104024117Y-52466753D01*
X104023871Y-52467110D01*
X103969781Y-52545473D01*
X103969781Y-52545474D01*
X103913763Y-52693182D01*
X103913762Y-52693183D01*
X103894722Y-52849998D01*
X103894722Y-52850001D01*
X103913762Y-53006816D01*
X103913763Y-53006818D01*
X103963103Y-53136917D01*
X103969780Y-53154523D01*
X104059515Y-53284528D01*
X104059516Y-53284529D01*
X104059517Y-53284530D01*
X104177760Y-53389283D01*
X104317635Y-53462696D01*
X104471015Y-53500500D01*
X104471018Y-53500500D01*
X104628982Y-53500500D01*
X104628985Y-53500500D01*
X104782365Y-53462696D01*
X104922240Y-53389283D01*
X105040483Y-53284530D01*
X105087915Y-53215812D01*
X107469353Y-53215812D01*
X107489834Y-53358266D01*
X107549622Y-53489181D01*
X107549623Y-53489183D01*
X107624478Y-53575571D01*
X107643873Y-53597954D01*
X107764942Y-53675760D01*
X107764947Y-53675763D01*
X107845789Y-53699500D01*
X107903035Y-53716309D01*
X107903036Y-53716309D01*
X107903039Y-53716310D01*
X107903041Y-53716310D01*
X108046959Y-53716310D01*
X108046961Y-53716310D01*
X108185053Y-53675763D01*
X108306128Y-53597953D01*
X108400377Y-53489183D01*
X108460165Y-53358267D01*
X108480647Y-53215810D01*
X108474779Y-53175000D01*
X108460165Y-53073353D01*
X108400377Y-52942437D01*
X108306128Y-52833667D01*
X108306127Y-52833666D01*
X108306126Y-52833665D01*
X108185057Y-52755859D01*
X108185054Y-52755857D01*
X108185053Y-52755857D01*
X108185050Y-52755856D01*
X108046964Y-52715310D01*
X108046961Y-52715310D01*
X107903039Y-52715310D01*
X107903035Y-52715310D01*
X107764949Y-52755856D01*
X107764942Y-52755859D01*
X107643873Y-52833665D01*
X107549622Y-52942438D01*
X107489834Y-53073353D01*
X107469353Y-53215807D01*
X107469353Y-53215812D01*
X105087915Y-53215812D01*
X105130220Y-53154523D01*
X105186237Y-53006818D01*
X105205278Y-52850000D01*
X105198339Y-52792855D01*
X105186237Y-52693183D01*
X105186237Y-52693182D01*
X105130220Y-52545477D01*
X105051992Y-52432144D01*
X105040484Y-52415471D01*
X104936524Y-52323371D01*
X104922240Y-52310717D01*
X104814241Y-52254034D01*
X104782364Y-52237303D01*
X104628987Y-52199500D01*
X104628985Y-52199500D01*
X104608241Y-52199500D01*
X104550050Y-52180593D01*
X104514086Y-52131093D01*
X104514086Y-52069907D01*
X104518188Y-52059373D01*
X104522468Y-52050002D01*
X107069353Y-52050002D01*
X107089834Y-52192456D01*
X107146202Y-52315883D01*
X107149623Y-52323373D01*
X107209316Y-52392263D01*
X107243873Y-52432144D01*
X107364942Y-52509950D01*
X107364947Y-52509953D01*
X107471403Y-52541211D01*
X107503035Y-52550499D01*
X107503036Y-52550499D01*
X107503039Y-52550500D01*
X107503041Y-52550500D01*
X107646959Y-52550500D01*
X107646961Y-52550500D01*
X107785053Y-52509953D01*
X107906128Y-52432143D01*
X108000377Y-52323373D01*
X108060165Y-52192457D01*
X108073692Y-52098373D01*
X108080647Y-52050002D01*
X108080647Y-52049997D01*
X108060165Y-51907543D01*
X108000377Y-51776628D01*
X108000377Y-51776627D01*
X107906128Y-51667857D01*
X107906127Y-51667856D01*
X107906126Y-51667855D01*
X107785057Y-51590049D01*
X107785054Y-51590047D01*
X107785053Y-51590047D01*
X107785050Y-51590046D01*
X107646964Y-51549500D01*
X107646961Y-51549500D01*
X107503039Y-51549500D01*
X107503035Y-51549500D01*
X107364949Y-51590046D01*
X107364942Y-51590049D01*
X107243873Y-51667855D01*
X107149622Y-51776628D01*
X107089834Y-51907543D01*
X107069353Y-52049997D01*
X107069353Y-52050002D01*
X104522468Y-52050002D01*
X104560165Y-51967456D01*
X104580647Y-51825002D01*
X104580647Y-51824997D01*
X104560165Y-51682543D01*
X104517923Y-51590047D01*
X104500377Y-51551627D01*
X104406128Y-51442857D01*
X104406127Y-51442856D01*
X104406126Y-51442855D01*
X104285057Y-51365049D01*
X104285054Y-51365047D01*
X104285053Y-51365047D01*
X104285050Y-51365046D01*
X104146964Y-51324500D01*
X104146961Y-51324500D01*
X104003039Y-51324500D01*
X104003035Y-51324500D01*
X103864949Y-51365046D01*
X103864942Y-51365049D01*
X103743873Y-51442855D01*
X103649622Y-51551628D01*
X103589834Y-51682543D01*
X103569353Y-51824997D01*
X103569353Y-51825002D01*
X90419863Y-51825002D01*
X90430647Y-51750002D01*
X90430647Y-51749997D01*
X90410165Y-51607543D01*
X90350377Y-51476628D01*
X90350377Y-51476627D01*
X90256128Y-51367857D01*
X90256127Y-51367856D01*
X90256126Y-51367855D01*
X90154873Y-51302784D01*
X90116141Y-51255418D01*
X90112648Y-51194332D01*
X90145728Y-51142860D01*
X90202744Y-51120661D01*
X90208396Y-51120500D01*
X113615500Y-51120500D01*
X113673691Y-51139407D01*
X113709655Y-51188907D01*
X113714500Y-51219500D01*
X113714500Y-67814900D01*
X113695593Y-67873091D01*
X113646093Y-67909055D01*
X113584907Y-67909055D01*
X113535407Y-67873091D01*
X113523452Y-67851344D01*
X113522647Y-67849312D01*
X113504937Y-67804579D01*
X113464519Y-67702494D01*
X113464517Y-67702490D01*
X113433673Y-67646386D01*
X113340855Y-67518633D01*
X113299205Y-67474279D01*
X113297035Y-67471968D01*
X113297023Y-67471957D01*
X113175356Y-67371305D01*
X113148328Y-67354153D01*
X113121300Y-67337001D01*
X113049859Y-67303383D01*
X112978417Y-67269765D01*
X112917546Y-67249986D01*
X112917531Y-67249982D01*
X112917530Y-67249982D01*
X112917526Y-67249981D01*
X112917521Y-67249980D01*
X112762420Y-67220393D01*
X112762415Y-67220392D01*
X112698519Y-67216372D01*
X112698518Y-67216372D01*
X112540913Y-67226287D01*
X112478038Y-67238282D01*
X112478013Y-67238288D01*
X112327859Y-67287077D01*
X112327849Y-67287081D01*
X112269917Y-67314341D01*
X112269905Y-67314348D01*
X112136591Y-67398952D01*
X112087257Y-67439764D01*
X112087255Y-67439767D01*
X111979160Y-67554876D01*
X111941530Y-67606671D01*
X111941527Y-67606676D01*
X111888439Y-67703243D01*
X111843837Y-67745127D01*
X111783134Y-67752795D01*
X111729517Y-67723319D01*
X111714931Y-67703244D01*
X111714518Y-67702493D01*
X111714517Y-67702490D01*
X111683673Y-67646386D01*
X111590855Y-67518633D01*
X111549205Y-67474279D01*
X111547035Y-67471968D01*
X111547023Y-67471957D01*
X111425356Y-67371305D01*
X111398328Y-67354153D01*
X111371300Y-67337001D01*
X111299858Y-67303383D01*
X111228417Y-67269765D01*
X111167546Y-67249986D01*
X111167531Y-67249982D01*
X111167530Y-67249982D01*
X111167526Y-67249981D01*
X111167521Y-67249980D01*
X111012420Y-67220393D01*
X111012415Y-67220392D01*
X110948519Y-67216372D01*
X110948518Y-67216372D01*
X110790913Y-67226287D01*
X110728038Y-67238282D01*
X110728013Y-67238288D01*
X110577859Y-67287077D01*
X110577849Y-67287081D01*
X110519917Y-67314341D01*
X110519905Y-67314348D01*
X110386591Y-67398952D01*
X110337257Y-67439764D01*
X110337255Y-67439767D01*
X110229160Y-67554876D01*
X110191530Y-67606671D01*
X110191527Y-67606676D01*
X110115462Y-67745037D01*
X110115452Y-67745059D01*
X110091891Y-67804563D01*
X110091886Y-67804576D01*
X110091887Y-67804576D01*
X110052616Y-67957526D01*
X110052614Y-67957534D01*
X110052615Y-67957534D01*
X110044592Y-68021043D01*
X110044592Y-69543750D01*
X110044231Y-69549723D01*
X110041864Y-69569206D01*
X110041864Y-69630791D01*
X110044231Y-69650276D01*
X110044592Y-69656249D01*
X110044592Y-71020500D01*
X110025685Y-71078691D01*
X109976185Y-71114655D01*
X109945592Y-71119500D01*
X107529408Y-71119500D01*
X107471217Y-71100593D01*
X107435253Y-71051093D01*
X107430408Y-71020500D01*
X107430407Y-69659247D01*
X107430719Y-69653698D01*
X107431188Y-69649533D01*
X107433548Y-69628597D01*
X107433548Y-69571403D01*
X107430719Y-69546294D01*
X107430408Y-69540748D01*
X107430408Y-68048887D01*
X107429544Y-68034045D01*
X107428024Y-68021043D01*
X107413433Y-67896210D01*
X107399757Y-67838506D01*
X107387407Y-67804576D01*
X107339798Y-67673770D01*
X107339796Y-67673766D01*
X107339792Y-67673754D01*
X107313178Y-67620761D01*
X107216836Y-67474279D01*
X107216832Y-67474274D01*
X107216828Y-67474268D01*
X107178721Y-67428856D01*
X107178716Y-67428850D01*
X107090777Y-67345884D01*
X107051191Y-67308536D01*
X107051186Y-67308532D01*
X107003632Y-67273129D01*
X107003626Y-67273125D01*
X106963541Y-67249982D01*
X106851785Y-67185460D01*
X106849420Y-67184440D01*
X106797335Y-67161972D01*
X106797333Y-67161971D01*
X106699065Y-67132552D01*
X106629375Y-67111688D01*
X106629370Y-67111687D01*
X106570975Y-67101390D01*
X106454287Y-67094593D01*
X106395944Y-67091196D01*
X106395943Y-67091196D01*
X106336740Y-67094644D01*
X106164089Y-67125086D01*
X106164082Y-67125088D01*
X106107280Y-67142092D01*
X106107269Y-67142096D01*
X105946287Y-67211537D01*
X105946280Y-67211541D01*
X105894948Y-67241178D01*
X105894931Y-67241188D01*
X105894928Y-67241191D01*
X105856547Y-67269765D01*
X105754301Y-67345884D01*
X105754283Y-67345898D01*
X105711178Y-67386565D01*
X105711165Y-67386578D01*
X105598464Y-67520888D01*
X105565877Y-67570433D01*
X105487192Y-67727109D01*
X105487186Y-67727123D01*
X105466907Y-67782838D01*
X105426477Y-67953427D01*
X105419592Y-68012336D01*
X105419591Y-68012346D01*
X105419591Y-69540752D01*
X105419280Y-69546293D01*
X105418894Y-69549723D01*
X105416452Y-69571396D01*
X105416452Y-69628606D01*
X105419280Y-69653695D01*
X105419592Y-69659244D01*
X105419592Y-71020500D01*
X105400685Y-71078691D01*
X105351185Y-71114655D01*
X105320592Y-71119500D01*
X102904408Y-71119500D01*
X102846217Y-71100593D01*
X102810253Y-71051093D01*
X102805408Y-71020500D01*
X102805407Y-69656253D01*
X102805768Y-69650280D01*
X102808136Y-69630787D01*
X102808136Y-69569213D01*
X102805767Y-69549717D01*
X102805407Y-69543746D01*
X102805408Y-68052661D01*
X102805408Y-68052660D01*
X102805171Y-68048887D01*
X102804400Y-68036635D01*
X102788569Y-67911322D01*
X102772648Y-67849313D01*
X102731368Y-67745050D01*
X102714519Y-67702494D01*
X102714517Y-67702490D01*
X102683673Y-67646386D01*
X102590855Y-67518633D01*
X102549205Y-67474279D01*
X102547035Y-67471968D01*
X102547023Y-67471957D01*
X102425356Y-67371305D01*
X102398328Y-67354153D01*
X102371300Y-67337001D01*
X102299858Y-67303383D01*
X102228417Y-67269765D01*
X102167546Y-67249986D01*
X102167531Y-67249982D01*
X102167530Y-67249982D01*
X102167526Y-67249981D01*
X102167521Y-67249980D01*
X102012420Y-67220393D01*
X102012415Y-67220392D01*
X101948519Y-67216372D01*
X101948518Y-67216372D01*
X101790913Y-67226287D01*
X101728038Y-67238282D01*
X101728013Y-67238288D01*
X101577859Y-67287077D01*
X101577849Y-67287081D01*
X101519917Y-67314341D01*
X101519905Y-67314348D01*
X101386591Y-67398952D01*
X101337257Y-67439764D01*
X101337255Y-67439767D01*
X101229160Y-67554876D01*
X101191530Y-67606671D01*
X101191527Y-67606676D01*
X101138439Y-67703243D01*
X101093837Y-67745127D01*
X101033134Y-67752795D01*
X100979517Y-67723319D01*
X100964931Y-67703244D01*
X100964518Y-67702493D01*
X100964517Y-67702490D01*
X100933673Y-67646386D01*
X100840855Y-67518633D01*
X100799205Y-67474279D01*
X100797035Y-67471968D01*
X100797023Y-67471957D01*
X100675356Y-67371305D01*
X100648328Y-67354153D01*
X100621300Y-67337001D01*
X100549859Y-67303383D01*
X100478417Y-67269765D01*
X100417546Y-67249986D01*
X100417531Y-67249982D01*
X100417530Y-67249982D01*
X100417526Y-67249981D01*
X100417521Y-67249980D01*
X100262420Y-67220393D01*
X100262415Y-67220392D01*
X100198519Y-67216372D01*
X100198518Y-67216372D01*
X100040913Y-67226287D01*
X99978038Y-67238282D01*
X99978013Y-67238288D01*
X99827859Y-67287077D01*
X99827849Y-67287081D01*
X99769917Y-67314341D01*
X99769905Y-67314348D01*
X99636591Y-67398952D01*
X99587257Y-67439764D01*
X99587255Y-67439767D01*
X99479160Y-67554876D01*
X99441530Y-67606671D01*
X99441527Y-67606676D01*
X99388439Y-67703243D01*
X99343837Y-67745127D01*
X99283134Y-67752795D01*
X99229517Y-67723319D01*
X99214931Y-67703244D01*
X99214518Y-67702493D01*
X99214517Y-67702490D01*
X99183673Y-67646386D01*
X99090855Y-67518633D01*
X99049205Y-67474279D01*
X99047035Y-67471968D01*
X99047023Y-67471957D01*
X98925356Y-67371305D01*
X98898328Y-67354153D01*
X98871300Y-67337001D01*
X98799858Y-67303383D01*
X98728417Y-67269765D01*
X98667546Y-67249986D01*
X98667531Y-67249982D01*
X98667530Y-67249982D01*
X98667526Y-67249981D01*
X98667521Y-67249980D01*
X98512420Y-67220393D01*
X98512415Y-67220392D01*
X98448519Y-67216372D01*
X98448518Y-67216372D01*
X98290913Y-67226287D01*
X98228038Y-67238282D01*
X98228013Y-67238288D01*
X98077859Y-67287077D01*
X98077849Y-67287081D01*
X98019917Y-67314341D01*
X98019905Y-67314348D01*
X97886591Y-67398952D01*
X97837257Y-67439764D01*
X97837255Y-67439767D01*
X97729160Y-67554876D01*
X97691530Y-67606671D01*
X97691527Y-67606676D01*
X97638439Y-67703243D01*
X97593837Y-67745127D01*
X97533134Y-67752795D01*
X97479517Y-67723319D01*
X97464931Y-67703244D01*
X97464518Y-67702493D01*
X97464517Y-67702490D01*
X97433673Y-67646386D01*
X97340855Y-67518633D01*
X97299205Y-67474279D01*
X97297035Y-67471968D01*
X97297023Y-67471957D01*
X97175356Y-67371305D01*
X97148328Y-67354153D01*
X97121300Y-67337001D01*
X97049859Y-67303383D01*
X96978417Y-67269765D01*
X96917546Y-67249986D01*
X96917531Y-67249982D01*
X96917530Y-67249982D01*
X96917526Y-67249981D01*
X96917521Y-67249980D01*
X96762420Y-67220393D01*
X96762415Y-67220392D01*
X96698519Y-67216372D01*
X96698518Y-67216372D01*
X96540913Y-67226287D01*
X96478038Y-67238282D01*
X96478013Y-67238288D01*
X96327859Y-67287077D01*
X96327849Y-67287081D01*
X96269917Y-67314341D01*
X96269905Y-67314348D01*
X96136591Y-67398952D01*
X96087257Y-67439764D01*
X96087255Y-67439767D01*
X95979160Y-67554876D01*
X95941530Y-67606671D01*
X95941527Y-67606676D01*
X95888439Y-67703243D01*
X95843837Y-67745127D01*
X95783134Y-67752795D01*
X95729517Y-67723319D01*
X95714931Y-67703244D01*
X95714518Y-67702493D01*
X95714517Y-67702490D01*
X95683673Y-67646386D01*
X95590855Y-67518633D01*
X95549205Y-67474279D01*
X95547035Y-67471968D01*
X95547023Y-67471957D01*
X95425356Y-67371305D01*
X95398328Y-67354153D01*
X95371300Y-67337001D01*
X95299858Y-67303383D01*
X95228417Y-67269765D01*
X95167546Y-67249986D01*
X95167531Y-67249982D01*
X95167530Y-67249982D01*
X95167526Y-67249981D01*
X95167521Y-67249980D01*
X95012420Y-67220393D01*
X95012415Y-67220392D01*
X94948519Y-67216372D01*
X94948518Y-67216372D01*
X94790913Y-67226287D01*
X94728038Y-67238282D01*
X94728013Y-67238288D01*
X94577859Y-67287077D01*
X94577849Y-67287081D01*
X94519917Y-67314341D01*
X94519905Y-67314348D01*
X94386591Y-67398952D01*
X94337257Y-67439764D01*
X94337255Y-67439767D01*
X94229160Y-67554876D01*
X94191530Y-67606671D01*
X94191527Y-67606676D01*
X94138439Y-67703243D01*
X94093837Y-67745127D01*
X94033134Y-67752795D01*
X93979517Y-67723319D01*
X93964931Y-67703244D01*
X93964518Y-67702493D01*
X93964517Y-67702490D01*
X93933673Y-67646386D01*
X93840855Y-67518633D01*
X93799205Y-67474279D01*
X93797035Y-67471968D01*
X93797023Y-67471957D01*
X93675356Y-67371305D01*
X93648328Y-67354153D01*
X93621300Y-67337001D01*
X93549859Y-67303383D01*
X93478417Y-67269765D01*
X93417546Y-67249986D01*
X93417531Y-67249982D01*
X93417530Y-67249982D01*
X93417526Y-67249981D01*
X93417521Y-67249980D01*
X93262420Y-67220393D01*
X93262415Y-67220392D01*
X93198519Y-67216372D01*
X93198518Y-67216372D01*
X93040913Y-67226287D01*
X92978038Y-67238282D01*
X92978013Y-67238288D01*
X92827859Y-67287077D01*
X92827849Y-67287081D01*
X92769917Y-67314341D01*
X92769905Y-67314348D01*
X92636591Y-67398952D01*
X92587257Y-67439764D01*
X92587255Y-67439767D01*
X92479160Y-67554876D01*
X92441530Y-67606671D01*
X92441527Y-67606676D01*
X92388439Y-67703243D01*
X92343837Y-67745127D01*
X92283134Y-67752795D01*
X92229517Y-67723319D01*
X92214931Y-67703244D01*
X92214518Y-67702493D01*
X92214517Y-67702490D01*
X92183673Y-67646386D01*
X92090855Y-67518633D01*
X92049205Y-67474279D01*
X92047035Y-67471968D01*
X92047023Y-67471957D01*
X91925356Y-67371305D01*
X91898328Y-67354153D01*
X91871300Y-67337001D01*
X91799858Y-67303383D01*
X91728417Y-67269765D01*
X91667546Y-67249986D01*
X91667531Y-67249982D01*
X91667530Y-67249982D01*
X91667526Y-67249981D01*
X91667521Y-67249980D01*
X91512420Y-67220393D01*
X91512415Y-67220392D01*
X91448519Y-67216372D01*
X91448518Y-67216372D01*
X91290913Y-67226287D01*
X91228038Y-67238282D01*
X91228013Y-67238288D01*
X91077859Y-67287077D01*
X91077849Y-67287081D01*
X91019917Y-67314341D01*
X91019905Y-67314348D01*
X90886591Y-67398952D01*
X90837257Y-67439764D01*
X90837255Y-67439767D01*
X90729160Y-67554876D01*
X90691530Y-67606671D01*
X90691527Y-67606676D01*
X90638439Y-67703243D01*
X90593837Y-67745127D01*
X90533134Y-67752795D01*
X90479517Y-67723319D01*
X90464931Y-67703244D01*
X90464518Y-67702493D01*
X90464517Y-67702490D01*
X90433673Y-67646386D01*
X90340855Y-67518633D01*
X90299205Y-67474279D01*
X90297035Y-67471968D01*
X90297023Y-67471957D01*
X90175356Y-67371305D01*
X90148328Y-67354153D01*
X90121300Y-67337001D01*
X90049859Y-67303383D01*
X89978417Y-67269765D01*
X89917546Y-67249986D01*
X89917531Y-67249982D01*
X89917530Y-67249982D01*
X89917526Y-67249981D01*
X89917521Y-67249980D01*
X89762420Y-67220393D01*
X89762415Y-67220392D01*
X89698519Y-67216372D01*
X89698518Y-67216372D01*
X89540913Y-67226287D01*
X89478038Y-67238282D01*
X89478013Y-67238288D01*
X89327859Y-67287077D01*
X89327849Y-67287081D01*
X89269917Y-67314341D01*
X89269905Y-67314348D01*
X89136591Y-67398952D01*
X89087257Y-67439764D01*
X89087255Y-67439767D01*
X88979160Y-67554876D01*
X88941530Y-67606671D01*
X88941527Y-67606676D01*
X88888439Y-67703243D01*
X88843837Y-67745127D01*
X88783134Y-67752795D01*
X88729517Y-67723319D01*
X88714931Y-67703244D01*
X88714518Y-67702493D01*
X88714517Y-67702490D01*
X88683673Y-67646386D01*
X88590855Y-67518633D01*
X88549205Y-67474279D01*
X88547035Y-67471968D01*
X88547023Y-67471957D01*
X88425356Y-67371305D01*
X88398328Y-67354153D01*
X88371300Y-67337001D01*
X88299858Y-67303383D01*
X88228417Y-67269765D01*
X88167546Y-67249986D01*
X88167531Y-67249982D01*
X88167530Y-67249982D01*
X88167526Y-67249981D01*
X88167521Y-67249980D01*
X88012420Y-67220393D01*
X88012415Y-67220392D01*
X87948519Y-67216372D01*
X87948518Y-67216372D01*
X87790913Y-67226287D01*
X87728038Y-67238282D01*
X87728013Y-67238288D01*
X87577859Y-67287077D01*
X87577849Y-67287081D01*
X87519917Y-67314341D01*
X87519905Y-67314348D01*
X87386591Y-67398952D01*
X87337257Y-67439764D01*
X87337255Y-67439767D01*
X87229160Y-67554876D01*
X87191530Y-67606671D01*
X87191527Y-67606676D01*
X87138439Y-67703243D01*
X87093837Y-67745127D01*
X87033134Y-67752795D01*
X86979517Y-67723319D01*
X86964931Y-67703244D01*
X86964518Y-67702493D01*
X86964517Y-67702490D01*
X86933673Y-67646386D01*
X86840855Y-67518633D01*
X86799205Y-67474279D01*
X86797035Y-67471968D01*
X86797023Y-67471957D01*
X86675356Y-67371305D01*
X86648328Y-67354153D01*
X86621300Y-67337001D01*
X86549859Y-67303383D01*
X86478417Y-67269765D01*
X86417546Y-67249986D01*
X86417531Y-67249982D01*
X86417530Y-67249982D01*
X86417526Y-67249981D01*
X86417521Y-67249980D01*
X86262420Y-67220393D01*
X86262415Y-67220392D01*
X86198519Y-67216372D01*
X86198518Y-67216372D01*
X86040913Y-67226287D01*
X85978038Y-67238282D01*
X85978013Y-67238288D01*
X85827859Y-67287077D01*
X85827849Y-67287081D01*
X85769917Y-67314341D01*
X85769905Y-67314348D01*
X85636591Y-67398952D01*
X85587257Y-67439764D01*
X85587255Y-67439767D01*
X85479160Y-67554876D01*
X85441530Y-67606671D01*
X85441527Y-67606676D01*
X85388439Y-67703243D01*
X85343837Y-67745127D01*
X85283134Y-67752795D01*
X85229517Y-67723319D01*
X85214931Y-67703244D01*
X85214518Y-67702493D01*
X85214517Y-67702490D01*
X85183673Y-67646386D01*
X85090855Y-67518633D01*
X85049205Y-67474279D01*
X85047035Y-67471968D01*
X85047023Y-67471957D01*
X84925356Y-67371305D01*
X84898328Y-67354153D01*
X84871300Y-67337001D01*
X84799858Y-67303383D01*
X84728417Y-67269765D01*
X84667546Y-67249986D01*
X84667531Y-67249982D01*
X84667530Y-67249982D01*
X84667526Y-67249981D01*
X84667521Y-67249980D01*
X84512420Y-67220393D01*
X84512415Y-67220392D01*
X84448519Y-67216372D01*
X84448518Y-67216372D01*
X84290913Y-67226287D01*
X84228038Y-67238282D01*
X84228013Y-67238288D01*
X84077859Y-67287077D01*
X84077849Y-67287081D01*
X84019917Y-67314341D01*
X84019905Y-67314348D01*
X83886591Y-67398952D01*
X83837257Y-67439764D01*
X83837255Y-67439767D01*
X83729160Y-67554876D01*
X83691530Y-67606671D01*
X83691527Y-67606676D01*
X83638439Y-67703243D01*
X83593837Y-67745127D01*
X83533134Y-67752795D01*
X83479517Y-67723319D01*
X83464931Y-67703244D01*
X83464518Y-67702493D01*
X83464517Y-67702490D01*
X83433673Y-67646386D01*
X83340855Y-67518633D01*
X83299205Y-67474279D01*
X83297035Y-67471968D01*
X83297023Y-67471957D01*
X83175356Y-67371305D01*
X83148328Y-67354153D01*
X83121300Y-67337001D01*
X83049859Y-67303383D01*
X82978417Y-67269765D01*
X82917546Y-67249986D01*
X82917531Y-67249982D01*
X82917530Y-67249982D01*
X82917526Y-67249981D01*
X82917521Y-67249980D01*
X82762420Y-67220393D01*
X82762415Y-67220392D01*
X82698519Y-67216372D01*
X82698518Y-67216372D01*
X82540913Y-67226287D01*
X82478038Y-67238282D01*
X82478013Y-67238288D01*
X82327859Y-67287077D01*
X82327849Y-67287081D01*
X82269917Y-67314341D01*
X82269905Y-67314348D01*
X82136591Y-67398952D01*
X82087257Y-67439764D01*
X82087255Y-67439767D01*
X81979160Y-67554876D01*
X81941530Y-67606671D01*
X81941527Y-67606676D01*
X81888439Y-67703243D01*
X81843837Y-67745127D01*
X81783134Y-67752795D01*
X81729517Y-67723319D01*
X81714931Y-67703244D01*
X81714518Y-67702493D01*
X81714517Y-67702490D01*
X81683673Y-67646386D01*
X81590855Y-67518633D01*
X81549205Y-67474279D01*
X81547035Y-67471968D01*
X81547023Y-67471957D01*
X81425356Y-67371305D01*
X81398328Y-67354153D01*
X81371300Y-67337001D01*
X81299859Y-67303383D01*
X81228417Y-67269765D01*
X81167546Y-67249986D01*
X81167531Y-67249982D01*
X81167530Y-67249982D01*
X81167526Y-67249981D01*
X81167521Y-67249980D01*
X81012420Y-67220393D01*
X81012415Y-67220392D01*
X80948519Y-67216372D01*
X80948518Y-67216372D01*
X80790913Y-67226287D01*
X80728038Y-67238282D01*
X80728013Y-67238288D01*
X80577859Y-67287077D01*
X80577849Y-67287081D01*
X80519917Y-67314341D01*
X80519905Y-67314348D01*
X80386591Y-67398952D01*
X80337257Y-67439764D01*
X80337255Y-67439767D01*
X80229160Y-67554876D01*
X80191530Y-67606671D01*
X80191527Y-67606676D01*
X80138439Y-67703243D01*
X80093837Y-67745127D01*
X80033134Y-67752795D01*
X79979517Y-67723319D01*
X79964931Y-67703244D01*
X79964518Y-67702493D01*
X79964517Y-67702490D01*
X79933673Y-67646386D01*
X79840855Y-67518633D01*
X79799205Y-67474279D01*
X79797035Y-67471968D01*
X79797023Y-67471957D01*
X79675356Y-67371305D01*
X79648328Y-67354153D01*
X79621300Y-67337001D01*
X79549858Y-67303383D01*
X79478417Y-67269765D01*
X79417546Y-67249986D01*
X79417531Y-67249982D01*
X79417530Y-67249982D01*
X79417526Y-67249981D01*
X79417521Y-67249980D01*
X79262420Y-67220393D01*
X79262415Y-67220392D01*
X79198519Y-67216372D01*
X79198518Y-67216372D01*
X79040913Y-67226287D01*
X78978038Y-67238282D01*
X78978013Y-67238288D01*
X78827859Y-67287077D01*
X78827849Y-67287081D01*
X78769917Y-67314341D01*
X78769905Y-67314348D01*
X78636591Y-67398952D01*
X78587257Y-67439764D01*
X78587255Y-67439767D01*
X78479160Y-67554876D01*
X78441530Y-67606671D01*
X78441527Y-67606676D01*
X78365462Y-67745037D01*
X78365452Y-67745059D01*
X78341891Y-67804563D01*
X78341886Y-67804576D01*
X78341887Y-67804576D01*
X78302616Y-67957526D01*
X78302614Y-67957534D01*
X78302615Y-67957534D01*
X78294592Y-68021043D01*
X78294592Y-69543750D01*
X78294231Y-69549723D01*
X78291864Y-69569206D01*
X78291864Y-69630791D01*
X78294231Y-69650276D01*
X78294592Y-69656249D01*
X78294592Y-71020500D01*
X78275685Y-71078691D01*
X78226185Y-71114655D01*
X78195592Y-71119500D01*
X76654408Y-71119500D01*
X76596217Y-71100593D01*
X76560253Y-71051093D01*
X76555408Y-71020500D01*
X76555408Y-69656249D01*
X76555769Y-69650276D01*
X76558136Y-69630787D01*
X76558136Y-69569213D01*
X76555768Y-69549715D01*
X76555408Y-69543750D01*
X76555408Y-68052660D01*
X76555171Y-68048887D01*
X76554400Y-68036635D01*
X76538569Y-67911322D01*
X76522648Y-67849313D01*
X76481368Y-67745050D01*
X76464519Y-67702494D01*
X76464517Y-67702490D01*
X76433673Y-67646386D01*
X76340855Y-67518633D01*
X76299205Y-67474279D01*
X76297035Y-67471968D01*
X76297023Y-67471957D01*
X76175356Y-67371305D01*
X76148328Y-67354153D01*
X76121300Y-67337001D01*
X76049859Y-67303383D01*
X75978417Y-67269765D01*
X75917546Y-67249986D01*
X75917531Y-67249982D01*
X75917530Y-67249982D01*
X75917526Y-67249981D01*
X75917521Y-67249980D01*
X75762420Y-67220393D01*
X75762415Y-67220392D01*
X75698519Y-67216372D01*
X75698518Y-67216372D01*
X75540913Y-67226287D01*
X75478038Y-67238282D01*
X75478013Y-67238288D01*
X75327859Y-67287077D01*
X75327849Y-67287081D01*
X75269917Y-67314341D01*
X75269905Y-67314348D01*
X75136591Y-67398952D01*
X75087257Y-67439764D01*
X75087255Y-67439767D01*
X74979160Y-67554876D01*
X74941530Y-67606671D01*
X74941527Y-67606676D01*
X74888439Y-67703243D01*
X74843837Y-67745127D01*
X74783134Y-67752795D01*
X74729517Y-67723319D01*
X74714931Y-67703244D01*
X74714518Y-67702493D01*
X74714517Y-67702490D01*
X74683673Y-67646386D01*
X74590855Y-67518633D01*
X74549205Y-67474279D01*
X74547035Y-67471968D01*
X74547023Y-67471957D01*
X74425356Y-67371305D01*
X74398328Y-67354153D01*
X74371300Y-67337001D01*
X74299859Y-67303383D01*
X74228417Y-67269765D01*
X74167546Y-67249986D01*
X74167531Y-67249982D01*
X74167530Y-67249982D01*
X74167526Y-67249981D01*
X74167521Y-67249980D01*
X74012420Y-67220393D01*
X74012415Y-67220392D01*
X73948519Y-67216372D01*
X73948518Y-67216372D01*
X73790913Y-67226287D01*
X73728038Y-67238282D01*
X73728013Y-67238288D01*
X73577859Y-67287077D01*
X73577849Y-67287081D01*
X73519917Y-67314341D01*
X73519905Y-67314348D01*
X73386591Y-67398952D01*
X73337257Y-67439764D01*
X73337255Y-67439767D01*
X73229160Y-67554876D01*
X73191530Y-67606671D01*
X73191527Y-67606676D01*
X73138439Y-67703243D01*
X73093837Y-67745127D01*
X73033134Y-67752795D01*
X72979517Y-67723319D01*
X72964931Y-67703244D01*
X72964518Y-67702493D01*
X72964517Y-67702490D01*
X72933673Y-67646386D01*
X72840855Y-67518633D01*
X72799205Y-67474279D01*
X72797035Y-67471968D01*
X72797023Y-67471957D01*
X72675356Y-67371305D01*
X72648328Y-67354153D01*
X72621300Y-67337001D01*
X72549858Y-67303383D01*
X72478417Y-67269765D01*
X72417546Y-67249986D01*
X72417531Y-67249982D01*
X72417530Y-67249982D01*
X72417526Y-67249981D01*
X72417521Y-67249980D01*
X72262420Y-67220393D01*
X72262415Y-67220392D01*
X72198519Y-67216372D01*
X72198518Y-67216372D01*
X72040913Y-67226287D01*
X71978038Y-67238282D01*
X71978013Y-67238288D01*
X71827859Y-67287077D01*
X71827849Y-67287081D01*
X71769917Y-67314341D01*
X71769905Y-67314348D01*
X71636591Y-67398952D01*
X71587257Y-67439764D01*
X71587255Y-67439767D01*
X71479160Y-67554876D01*
X71441530Y-67606671D01*
X71441527Y-67606676D01*
X71388439Y-67703243D01*
X71343837Y-67745127D01*
X71283134Y-67752795D01*
X71229517Y-67723319D01*
X71214931Y-67703244D01*
X71214518Y-67702493D01*
X71214517Y-67702490D01*
X71183673Y-67646386D01*
X71090855Y-67518633D01*
X71049205Y-67474279D01*
X71047035Y-67471968D01*
X71047023Y-67471957D01*
X70925356Y-67371305D01*
X70898328Y-67354153D01*
X70871300Y-67337001D01*
X70799859Y-67303383D01*
X70728417Y-67269765D01*
X70667546Y-67249986D01*
X70667531Y-67249982D01*
X70667530Y-67249982D01*
X70667526Y-67249981D01*
X70667521Y-67249980D01*
X70512420Y-67220393D01*
X70512415Y-67220392D01*
X70448519Y-67216372D01*
X70448518Y-67216372D01*
X70290913Y-67226287D01*
X70228038Y-67238282D01*
X70228013Y-67238288D01*
X70077859Y-67287077D01*
X70077849Y-67287081D01*
X70019917Y-67314341D01*
X70019905Y-67314348D01*
X69886591Y-67398952D01*
X69837257Y-67439764D01*
X69837255Y-67439767D01*
X69729160Y-67554876D01*
X69691530Y-67606671D01*
X69691527Y-67606676D01*
X69615462Y-67745037D01*
X69615452Y-67745059D01*
X69591891Y-67804563D01*
X69591886Y-67804576D01*
X69591887Y-67804576D01*
X69552616Y-67957526D01*
X69552614Y-67957534D01*
X69552615Y-67957534D01*
X69544592Y-68021043D01*
X69544592Y-69543750D01*
X69544231Y-69549723D01*
X69541864Y-69569206D01*
X69541864Y-69630791D01*
X69544231Y-69650276D01*
X69544592Y-69656249D01*
X69544592Y-71020500D01*
X69525685Y-71078691D01*
X69476185Y-71114655D01*
X69445592Y-71119500D01*
X69314500Y-71119500D01*
X69256309Y-71100593D01*
X69220345Y-71051093D01*
X69215500Y-71020500D01*
X69215500Y-64570002D01*
X88519353Y-64570002D01*
X88539834Y-64712456D01*
X88599622Y-64843371D01*
X88599623Y-64843373D01*
X88693872Y-64952143D01*
X88693873Y-64952144D01*
X88814942Y-65029950D01*
X88814947Y-65029953D01*
X88921403Y-65061211D01*
X88953035Y-65070499D01*
X88953036Y-65070499D01*
X88953039Y-65070500D01*
X88953041Y-65070500D01*
X89096959Y-65070500D01*
X89096961Y-65070500D01*
X89235053Y-65029953D01*
X89356128Y-64952143D01*
X89450377Y-64843373D01*
X89510165Y-64712457D01*
X89530647Y-64570000D01*
X89526230Y-64539281D01*
X89510165Y-64427543D01*
X89450377Y-64296628D01*
X89450377Y-64296627D01*
X89356128Y-64187857D01*
X89356127Y-64187856D01*
X89356126Y-64187855D01*
X89235057Y-64110049D01*
X89235054Y-64110047D01*
X89235053Y-64110047D01*
X89235050Y-64110046D01*
X89096964Y-64069500D01*
X89096961Y-64069500D01*
X88953039Y-64069500D01*
X88953035Y-64069500D01*
X88814949Y-64110046D01*
X88814942Y-64110049D01*
X88693873Y-64187855D01*
X88599622Y-64296628D01*
X88539834Y-64427543D01*
X88519353Y-64569997D01*
X88519353Y-64570002D01*
X69215500Y-64570002D01*
X69215500Y-64000002D01*
X83644353Y-64000002D01*
X83664834Y-64142456D01*
X83712687Y-64247238D01*
X83724623Y-64273373D01*
X83818872Y-64382143D01*
X83818873Y-64382144D01*
X83900388Y-64434530D01*
X83939947Y-64459953D01*
X84046403Y-64491211D01*
X84078035Y-64500499D01*
X84078036Y-64500499D01*
X84078039Y-64500500D01*
X84078041Y-64500500D01*
X84221959Y-64500500D01*
X84221961Y-64500500D01*
X84360053Y-64459953D01*
X84481128Y-64382143D01*
X84575182Y-64273597D01*
X84627576Y-64242003D01*
X84688537Y-64247238D01*
X84724816Y-64273596D01*
X84818872Y-64382143D01*
X84818873Y-64382144D01*
X84900388Y-64434530D01*
X84939947Y-64459953D01*
X85046403Y-64491211D01*
X85078035Y-64500499D01*
X85078036Y-64500499D01*
X85078039Y-64500500D01*
X85078041Y-64500500D01*
X85221959Y-64500500D01*
X85221961Y-64500500D01*
X85360053Y-64459953D01*
X85481128Y-64382143D01*
X85575377Y-64273373D01*
X85635165Y-64142457D01*
X85655647Y-64000001D01*
X105894722Y-64000001D01*
X105913762Y-64156816D01*
X105913763Y-64156818D01*
X105948055Y-64247238D01*
X105969780Y-64304523D01*
X106059515Y-64434528D01*
X106059516Y-64434529D01*
X106059517Y-64434530D01*
X106177760Y-64539283D01*
X106317635Y-64612696D01*
X106471015Y-64650500D01*
X106471018Y-64650500D01*
X106628982Y-64650500D01*
X106628985Y-64650500D01*
X106782365Y-64612696D01*
X106922240Y-64539283D01*
X107040483Y-64434530D01*
X107130220Y-64304523D01*
X107186237Y-64156818D01*
X107205278Y-64000000D01*
X107186237Y-63843182D01*
X107130220Y-63695477D01*
X107040483Y-63565470D01*
X106922240Y-63460717D01*
X106852302Y-63424010D01*
X106782364Y-63387303D01*
X106628987Y-63349500D01*
X106628985Y-63349500D01*
X106471015Y-63349500D01*
X106471012Y-63349500D01*
X106317635Y-63387303D01*
X106177758Y-63460718D01*
X106059515Y-63565471D01*
X105969780Y-63695476D01*
X105913763Y-63843182D01*
X105913762Y-63843183D01*
X105894722Y-63999998D01*
X105894722Y-64000001D01*
X85655647Y-64000001D01*
X85655647Y-64000000D01*
X85635165Y-63857543D01*
X85575377Y-63726627D01*
X85481128Y-63617857D01*
X85481127Y-63617856D01*
X85481126Y-63617855D01*
X85360057Y-63540049D01*
X85360054Y-63540047D01*
X85360053Y-63540047D01*
X85360050Y-63540046D01*
X85221964Y-63499500D01*
X85221961Y-63499500D01*
X85078039Y-63499500D01*
X85078035Y-63499500D01*
X84939949Y-63540046D01*
X84939942Y-63540049D01*
X84818872Y-63617856D01*
X84818870Y-63617858D01*
X84724819Y-63726400D01*
X84672424Y-63757996D01*
X84611463Y-63752760D01*
X84575181Y-63726400D01*
X84481129Y-63617858D01*
X84481127Y-63617856D01*
X84360057Y-63540049D01*
X84360054Y-63540047D01*
X84360053Y-63540047D01*
X84360050Y-63540046D01*
X84221964Y-63499500D01*
X84221961Y-63499500D01*
X84078039Y-63499500D01*
X84078035Y-63499500D01*
X83939949Y-63540046D01*
X83939942Y-63540049D01*
X83818873Y-63617855D01*
X83724622Y-63726628D01*
X83664834Y-63857543D01*
X83644353Y-63999997D01*
X83644353Y-64000002D01*
X69215500Y-64000002D01*
X69215500Y-61950002D01*
X85144353Y-61950002D01*
X85164834Y-62092456D01*
X85196595Y-62162002D01*
X85224623Y-62223373D01*
X85315555Y-62328315D01*
X85318873Y-62332144D01*
X85439942Y-62409950D01*
X85439947Y-62409953D01*
X85526514Y-62435371D01*
X85578035Y-62450499D01*
X85578036Y-62450499D01*
X85578039Y-62450500D01*
X85578041Y-62450500D01*
X85721959Y-62450500D01*
X85721961Y-62450500D01*
X85860053Y-62409953D01*
X85953342Y-62350000D01*
X85987085Y-62328315D01*
X85987841Y-62329492D01*
X86037061Y-62308685D01*
X86096658Y-62322537D01*
X86120359Y-62342485D01*
X86121823Y-62344175D01*
X86242898Y-62421985D01*
X86340009Y-62450499D01*
X86380986Y-62462531D01*
X86380987Y-62462531D01*
X86380990Y-62462532D01*
X86380992Y-62462532D01*
X86524910Y-62462532D01*
X86524912Y-62462532D01*
X86663004Y-62421985D01*
X86766685Y-62355353D01*
X86784076Y-62344177D01*
X86784076Y-62344176D01*
X86784079Y-62344175D01*
X86788985Y-62338512D01*
X86841378Y-62306917D01*
X86902339Y-62312150D01*
X86938620Y-62338509D01*
X86944369Y-62345143D01*
X86944372Y-62345145D01*
X86944373Y-62345146D01*
X87065439Y-62422950D01*
X87065444Y-62422953D01*
X87159258Y-62450499D01*
X87203532Y-62463499D01*
X87203533Y-62463499D01*
X87203536Y-62463500D01*
X87203538Y-62463500D01*
X87347456Y-62463500D01*
X87347458Y-62463500D01*
X87485550Y-62422953D01*
X87605422Y-62345915D01*
X87664593Y-62330362D01*
X87711440Y-62348601D01*
X87712915Y-62346307D01*
X87832179Y-62422953D01*
X87839947Y-62427945D01*
X87946403Y-62459203D01*
X87978035Y-62468491D01*
X87978036Y-62468491D01*
X87978039Y-62468492D01*
X87978041Y-62468492D01*
X88121959Y-62468492D01*
X88121961Y-62468492D01*
X88260053Y-62427945D01*
X88381128Y-62350135D01*
X88475377Y-62241365D01*
X88511621Y-62162002D01*
X92044353Y-62162002D01*
X92064834Y-62304456D01*
X92118950Y-62422952D01*
X92124623Y-62435373D01*
X92153320Y-62468491D01*
X92218873Y-62544144D01*
X92339942Y-62621950D01*
X92339947Y-62621953D01*
X92446403Y-62653211D01*
X92478035Y-62662499D01*
X92478036Y-62662499D01*
X92478039Y-62662500D01*
X92478041Y-62662500D01*
X92621959Y-62662500D01*
X92621961Y-62662500D01*
X92760053Y-62621953D01*
X92881128Y-62544143D01*
X92975377Y-62435373D01*
X93035165Y-62304457D01*
X93046823Y-62223371D01*
X93055647Y-62162002D01*
X93055647Y-62161997D01*
X93035165Y-62019543D01*
X93010854Y-61966310D01*
X92975377Y-61888627D01*
X92881128Y-61779857D01*
X92881127Y-61779856D01*
X92881126Y-61779855D01*
X92760057Y-61702049D01*
X92760054Y-61702047D01*
X92760053Y-61702047D01*
X92760050Y-61702046D01*
X92621964Y-61661500D01*
X92621961Y-61661500D01*
X92478039Y-61661500D01*
X92478035Y-61661500D01*
X92339949Y-61702046D01*
X92339942Y-61702049D01*
X92218873Y-61779855D01*
X92124622Y-61888628D01*
X92064834Y-62019543D01*
X92044353Y-62161997D01*
X92044353Y-62162002D01*
X88511621Y-62162002D01*
X88535165Y-62110449D01*
X88548235Y-62019543D01*
X88555647Y-61967994D01*
X88555647Y-61967989D01*
X88535165Y-61825535D01*
X88510275Y-61771035D01*
X88475377Y-61694619D01*
X88381128Y-61585849D01*
X88381127Y-61585848D01*
X88381126Y-61585847D01*
X88260057Y-61508041D01*
X88260054Y-61508039D01*
X88260053Y-61508039D01*
X88260050Y-61508038D01*
X88121964Y-61467492D01*
X88121961Y-61467492D01*
X87978039Y-61467492D01*
X87978035Y-61467492D01*
X87839949Y-61508038D01*
X87839942Y-61508041D01*
X87720077Y-61585074D01*
X87660902Y-61600629D01*
X87614056Y-61582390D01*
X87612582Y-61584685D01*
X87485554Y-61503049D01*
X87485551Y-61503047D01*
X87485550Y-61503047D01*
X87485547Y-61503046D01*
X87347461Y-61462500D01*
X87347458Y-61462500D01*
X87203536Y-61462500D01*
X87203532Y-61462500D01*
X87065446Y-61503046D01*
X87065439Y-61503049D01*
X86944368Y-61580856D01*
X86944366Y-61580858D01*
X86939457Y-61586524D01*
X86887059Y-61618117D01*
X86826098Y-61612877D01*
X86789824Y-61586519D01*
X86784079Y-61579889D01*
X86733905Y-61547644D01*
X86663008Y-61502081D01*
X86663005Y-61502079D01*
X86663004Y-61502079D01*
X86663001Y-61502078D01*
X86524915Y-61461532D01*
X86524912Y-61461532D01*
X86380990Y-61461532D01*
X86380986Y-61461532D01*
X86242900Y-61502078D01*
X86242893Y-61502081D01*
X86115866Y-61583717D01*
X86115111Y-61582543D01*
X86065867Y-61603348D01*
X86006273Y-61589483D01*
X85982588Y-61569542D01*
X85981128Y-61567857D01*
X85948182Y-61546684D01*
X85860057Y-61490049D01*
X85860054Y-61490047D01*
X85860053Y-61490047D01*
X85860050Y-61490046D01*
X85721964Y-61449500D01*
X85721961Y-61449500D01*
X85578039Y-61449500D01*
X85578035Y-61449500D01*
X85439949Y-61490046D01*
X85439942Y-61490049D01*
X85318873Y-61567855D01*
X85224622Y-61676628D01*
X85164834Y-61807543D01*
X85144353Y-61949997D01*
X85144353Y-61950002D01*
X69215500Y-61950002D01*
X69215500Y-60700000D01*
X79444353Y-60700000D01*
X79464834Y-60842456D01*
X79507725Y-60936373D01*
X79524623Y-60973373D01*
X79604721Y-61065812D01*
X79618873Y-61082144D01*
X79732710Y-61155302D01*
X79739947Y-61159953D01*
X79846403Y-61191211D01*
X79878035Y-61200499D01*
X79878036Y-61200499D01*
X79878039Y-61200500D01*
X79878041Y-61200500D01*
X80021959Y-61200500D01*
X80021961Y-61200500D01*
X80160053Y-61159953D01*
X80281128Y-61082143D01*
X80375377Y-60973373D01*
X80435165Y-60842457D01*
X80455647Y-60700000D01*
X80453298Y-60683665D01*
X80450327Y-60663002D01*
X92044353Y-60663002D01*
X92064834Y-60805456D01*
X92100276Y-60883061D01*
X92124623Y-60936373D01*
X92191909Y-61014026D01*
X92218873Y-61045144D01*
X92339942Y-61122950D01*
X92339947Y-61122953D01*
X92446403Y-61154211D01*
X92478035Y-61163499D01*
X92478036Y-61163499D01*
X92478039Y-61163500D01*
X92478041Y-61163500D01*
X92621959Y-61163500D01*
X92621961Y-61163500D01*
X92760053Y-61122953D01*
X92881128Y-61045143D01*
X92975377Y-60936373D01*
X93035165Y-60805457D01*
X93055647Y-60663000D01*
X93047431Y-60605859D01*
X93035165Y-60520543D01*
X92992275Y-60426628D01*
X92975377Y-60389627D01*
X92881128Y-60280857D01*
X92881127Y-60280856D01*
X92881126Y-60280855D01*
X92760057Y-60203049D01*
X92760054Y-60203047D01*
X92760053Y-60203047D01*
X92760050Y-60203046D01*
X92621964Y-60162500D01*
X92621961Y-60162500D01*
X92478039Y-60162500D01*
X92478035Y-60162500D01*
X92339949Y-60203046D01*
X92339942Y-60203049D01*
X92218873Y-60280855D01*
X92124622Y-60389628D01*
X92064834Y-60520543D01*
X92044353Y-60662997D01*
X92044353Y-60663002D01*
X80450327Y-60663002D01*
X80435165Y-60557543D01*
X80375377Y-60426628D01*
X80375377Y-60426627D01*
X80281128Y-60317857D01*
X80281127Y-60317856D01*
X80281126Y-60317855D01*
X80160057Y-60240049D01*
X80160054Y-60240047D01*
X80160053Y-60240047D01*
X80160050Y-60240046D01*
X80021964Y-60199500D01*
X80021961Y-60199500D01*
X79878039Y-60199500D01*
X79878035Y-60199500D01*
X79739949Y-60240046D01*
X79739942Y-60240049D01*
X79618873Y-60317855D01*
X79524622Y-60426628D01*
X79464834Y-60557543D01*
X79444353Y-60699997D01*
X79444353Y-60700000D01*
X69215500Y-60700000D01*
X69215500Y-59362002D01*
X90043853Y-59362002D01*
X90064334Y-59504456D01*
X90124122Y-59635371D01*
X90124123Y-59635373D01*
X90200373Y-59723371D01*
X90218373Y-59744144D01*
X90339442Y-59821950D01*
X90339447Y-59821953D01*
X90445903Y-59853211D01*
X90477535Y-59862499D01*
X90477536Y-59862499D01*
X90477539Y-59862500D01*
X90477541Y-59862500D01*
X90621459Y-59862500D01*
X90621461Y-59862500D01*
X90759553Y-59821953D01*
X90880628Y-59744143D01*
X90974877Y-59635373D01*
X91034665Y-59504457D01*
X91055147Y-59362000D01*
X91053493Y-59350499D01*
X91053421Y-59350000D01*
X93900000Y-59350000D01*
X94050000Y-59500000D01*
X94776629Y-58773371D01*
X95100000Y-58450001D01*
X95250000Y-58300000D01*
X95176627Y-58226627D01*
X95070001Y-58120001D01*
X95042226Y-58065487D01*
X95051797Y-58005055D01*
X95070000Y-57979999D01*
X97929998Y-55120001D01*
X97984513Y-55092226D01*
X98044945Y-55101797D01*
X98070000Y-55120000D01*
X100023371Y-57073371D01*
X101929996Y-58979996D01*
X101957773Y-59034513D01*
X101948202Y-59094945D01*
X101929996Y-59120004D01*
X99070003Y-61979996D01*
X99015486Y-62007773D01*
X98955054Y-61998202D01*
X98929998Y-61979998D01*
X97650000Y-60700000D01*
X97350000Y-60700000D01*
X94600000Y-60700000D01*
X94600000Y-60850000D01*
X97458992Y-60850000D01*
X97517183Y-60868907D01*
X97528996Y-60878996D01*
X99000000Y-62350000D01*
X99108637Y-62241363D01*
X99150001Y-62200000D01*
X99884189Y-61465812D01*
X106144353Y-61465812D01*
X106164834Y-61608266D01*
X106207663Y-61702046D01*
X106224623Y-61739183D01*
X106283857Y-61807543D01*
X106318873Y-61847954D01*
X106439942Y-61925760D01*
X106439947Y-61925763D01*
X106546403Y-61957021D01*
X106578035Y-61966309D01*
X106578036Y-61966309D01*
X106578039Y-61966310D01*
X106578041Y-61966310D01*
X106721959Y-61966310D01*
X106721961Y-61966310D01*
X106860053Y-61925763D01*
X106981128Y-61847953D01*
X107024935Y-61797396D01*
X107077329Y-61765800D01*
X107138290Y-61771035D01*
X107153271Y-61778939D01*
X107273370Y-61856122D01*
X107379826Y-61887380D01*
X107411458Y-61896668D01*
X107411459Y-61896668D01*
X107411462Y-61896669D01*
X107411464Y-61896669D01*
X107555382Y-61896669D01*
X107555384Y-61896669D01*
X107693476Y-61856122D01*
X107814551Y-61778312D01*
X107908800Y-61669542D01*
X107929600Y-61623995D01*
X107970971Y-61578919D01*
X108020958Y-61568789D01*
X108020958Y-61566310D01*
X108171959Y-61566310D01*
X108171961Y-61566310D01*
X108310053Y-61525763D01*
X108431128Y-61447953D01*
X108525377Y-61339183D01*
X108585165Y-61208267D01*
X108603080Y-61083665D01*
X108605647Y-61065812D01*
X108605647Y-61065807D01*
X108585165Y-60923353D01*
X108566764Y-60883061D01*
X108525377Y-60792437D01*
X108431128Y-60683667D01*
X108431127Y-60683666D01*
X108431126Y-60683665D01*
X108310057Y-60605859D01*
X108310054Y-60605857D01*
X108310053Y-60605857D01*
X108310050Y-60605856D01*
X108171964Y-60565310D01*
X108171961Y-60565310D01*
X108028039Y-60565310D01*
X108028035Y-60565310D01*
X107889949Y-60605856D01*
X107889942Y-60605859D01*
X107768873Y-60683665D01*
X107674621Y-60792439D01*
X107653820Y-60837985D01*
X107612447Y-60883061D01*
X107562464Y-60893187D01*
X107562464Y-60895669D01*
X107411458Y-60895669D01*
X107273372Y-60936215D01*
X107273365Y-60936218D01*
X107152295Y-61014025D01*
X107152293Y-61014027D01*
X107108487Y-61064582D01*
X107056091Y-61096178D01*
X106995130Y-61090942D01*
X106980145Y-61083035D01*
X106860057Y-61005859D01*
X106860054Y-61005857D01*
X106860053Y-61005857D01*
X106860050Y-61005856D01*
X106721964Y-60965310D01*
X106721961Y-60965310D01*
X106578039Y-60965310D01*
X106578035Y-60965310D01*
X106439949Y-61005856D01*
X106439942Y-61005859D01*
X106318873Y-61083665D01*
X106224622Y-61192438D01*
X106164834Y-61323353D01*
X106144353Y-61465807D01*
X106144353Y-61465812D01*
X99884189Y-61465812D01*
X101487501Y-59862499D01*
X101899998Y-59450002D01*
X102544353Y-59450002D01*
X102564834Y-59592456D01*
X102584433Y-59635371D01*
X102624623Y-59723373D01*
X102718872Y-59832143D01*
X102718873Y-59832144D01*
X102839942Y-59909950D01*
X102839947Y-59909953D01*
X102946403Y-59941211D01*
X102978035Y-59950499D01*
X102978036Y-59950499D01*
X102978039Y-59950500D01*
X102978041Y-59950500D01*
X103121959Y-59950500D01*
X103121961Y-59950500D01*
X103260053Y-59909953D01*
X103381128Y-59832143D01*
X103475377Y-59723373D01*
X103535165Y-59592457D01*
X103547817Y-59504457D01*
X103555647Y-59450002D01*
X103555647Y-59449997D01*
X103535165Y-59307543D01*
X103500731Y-59232144D01*
X103475377Y-59176627D01*
X103381128Y-59067857D01*
X103381127Y-59067856D01*
X103374221Y-59063418D01*
X103366232Y-59058284D01*
X103327501Y-59010919D01*
X103324007Y-58949834D01*
X103357086Y-58898361D01*
X103366228Y-58891718D01*
X103381128Y-58882143D01*
X103475377Y-58773373D01*
X103535165Y-58642457D01*
X103548970Y-58546442D01*
X103555647Y-58500002D01*
X103555647Y-58499997D01*
X103535165Y-58357543D01*
X103520303Y-58325000D01*
X103475377Y-58226627D01*
X103421766Y-58164756D01*
X110370409Y-58164756D01*
X110390890Y-58307210D01*
X110441421Y-58417855D01*
X110450679Y-58438127D01*
X110504292Y-58500000D01*
X110544929Y-58546898D01*
X110643045Y-58609953D01*
X110666003Y-58624707D01*
X110753844Y-58650499D01*
X110804091Y-58665253D01*
X110804092Y-58665253D01*
X110804095Y-58665254D01*
X110804097Y-58665254D01*
X110948015Y-58665254D01*
X110948017Y-58665254D01*
X111086109Y-58624707D01*
X111183689Y-58561996D01*
X111242861Y-58546442D01*
X111299878Y-58568641D01*
X111319068Y-58593526D01*
X111320795Y-58592417D01*
X111324619Y-58598368D01*
X111324622Y-58598371D01*
X111324623Y-58598373D01*
X111382575Y-58665254D01*
X111418873Y-58707144D01*
X111419494Y-58707543D01*
X111539947Y-58784953D01*
X111646403Y-58816211D01*
X111678035Y-58825499D01*
X111678036Y-58825499D01*
X111678039Y-58825500D01*
X111678041Y-58825500D01*
X111821959Y-58825500D01*
X111821961Y-58825500D01*
X111960053Y-58784953D01*
X112081128Y-58707143D01*
X112175377Y-58598373D01*
X112235165Y-58467457D01*
X112243779Y-58407543D01*
X112255647Y-58325002D01*
X112255647Y-58324997D01*
X112235165Y-58182543D01*
X112220303Y-58150000D01*
X112175377Y-58051627D01*
X112081128Y-57942857D01*
X112081127Y-57942856D01*
X112081126Y-57942855D01*
X111960057Y-57865049D01*
X111960054Y-57865047D01*
X111960053Y-57865047D01*
X111960050Y-57865046D01*
X111821964Y-57824500D01*
X111821961Y-57824500D01*
X111678039Y-57824500D01*
X111678035Y-57824500D01*
X111539949Y-57865046D01*
X111539942Y-57865049D01*
X111442368Y-57927756D01*
X111383193Y-57943311D01*
X111326176Y-57921112D01*
X111306995Y-57896222D01*
X111305261Y-57897337D01*
X111301436Y-57891385D01*
X111288649Y-57876628D01*
X111207184Y-57782611D01*
X111207183Y-57782610D01*
X111207182Y-57782609D01*
X111086113Y-57704803D01*
X111086110Y-57704801D01*
X111086109Y-57704801D01*
X111086106Y-57704800D01*
X110948020Y-57664254D01*
X110948017Y-57664254D01*
X110804095Y-57664254D01*
X110804091Y-57664254D01*
X110666005Y-57704800D01*
X110665998Y-57704803D01*
X110544929Y-57782609D01*
X110450678Y-57891382D01*
X110390890Y-58022297D01*
X110370409Y-58164751D01*
X110370409Y-58164756D01*
X103421766Y-58164756D01*
X103381128Y-58117857D01*
X103381127Y-58117856D01*
X103381126Y-58117855D01*
X103260057Y-58040049D01*
X103260054Y-58040047D01*
X103260053Y-58040047D01*
X103260050Y-58040046D01*
X103121964Y-57999500D01*
X103121961Y-57999500D01*
X102978039Y-57999500D01*
X102978035Y-57999500D01*
X102839949Y-58040046D01*
X102839942Y-58040049D01*
X102718873Y-58117855D01*
X102624622Y-58226628D01*
X102564834Y-58357543D01*
X102544353Y-58499997D01*
X102544353Y-58500002D01*
X102564834Y-58642456D01*
X102575246Y-58665254D01*
X102624623Y-58773373D01*
X102669791Y-58825500D01*
X102718873Y-58882144D01*
X102733765Y-58891714D01*
X102772498Y-58939079D01*
X102775992Y-59000164D01*
X102742914Y-59051637D01*
X102733771Y-59058281D01*
X102718873Y-59067856D01*
X102718872Y-59067856D01*
X102718872Y-59067857D01*
X102705865Y-59082868D01*
X102624622Y-59176628D01*
X102564834Y-59307543D01*
X102544353Y-59449997D01*
X102544353Y-59450002D01*
X101899998Y-59450002D01*
X102300000Y-59050000D01*
X102299999Y-59049999D01*
X102300000Y-59049999D01*
X102150000Y-58899999D01*
X100400002Y-57150002D01*
X102094353Y-57150002D01*
X102114834Y-57292456D01*
X102162233Y-57396243D01*
X102174623Y-57423373D01*
X102204227Y-57457538D01*
X102268873Y-57532144D01*
X102307774Y-57557144D01*
X102389947Y-57609953D01*
X102496403Y-57641211D01*
X102528035Y-57650499D01*
X102528036Y-57650499D01*
X102528039Y-57650500D01*
X102528041Y-57650500D01*
X102671959Y-57650500D01*
X102671961Y-57650500D01*
X102810053Y-57609953D01*
X102931128Y-57532143D01*
X103025377Y-57423373D01*
X103085165Y-57292457D01*
X103099154Y-57195160D01*
X103105647Y-57150002D01*
X103105647Y-57149998D01*
X103099889Y-57109953D01*
X103095866Y-57081974D01*
X103106299Y-57021688D01*
X103150176Y-56979045D01*
X103165965Y-56972898D01*
X103210053Y-56959953D01*
X103331128Y-56882143D01*
X103425377Y-56773373D01*
X103485165Y-56642457D01*
X103501819Y-56526627D01*
X103505647Y-56500002D01*
X103505647Y-56499997D01*
X103485165Y-56357543D01*
X103477174Y-56340046D01*
X103425377Y-56226627D01*
X103331128Y-56117857D01*
X103331127Y-56117856D01*
X103331126Y-56117855D01*
X103210057Y-56040049D01*
X103210053Y-56040047D01*
X103165965Y-56027101D01*
X103115460Y-55992565D01*
X103094899Y-55934938D01*
X103095867Y-55918023D01*
X103105647Y-55850002D01*
X103105647Y-55849997D01*
X103085165Y-55707543D01*
X103050731Y-55632144D01*
X103025377Y-55576627D01*
X102931128Y-55467857D01*
X102931127Y-55467856D01*
X102931126Y-55467855D01*
X102810057Y-55390049D01*
X102810054Y-55390047D01*
X102810053Y-55390047D01*
X102810050Y-55390046D01*
X102671964Y-55349500D01*
X102671961Y-55349500D01*
X102528039Y-55349500D01*
X102528035Y-55349500D01*
X102389949Y-55390046D01*
X102389942Y-55390049D01*
X102268873Y-55467855D01*
X102174622Y-55576628D01*
X102114834Y-55707543D01*
X102094353Y-55849997D01*
X102094353Y-55850002D01*
X102114834Y-55992456D01*
X102172103Y-56117855D01*
X102174623Y-56123373D01*
X102264093Y-56226628D01*
X102268873Y-56232144D01*
X102389942Y-56309950D01*
X102389947Y-56309953D01*
X102434031Y-56322897D01*
X102484538Y-56357433D01*
X102505100Y-56415060D01*
X102504133Y-56431975D01*
X102494354Y-56499997D01*
X102494353Y-56500002D01*
X102494353Y-56500004D01*
X102504132Y-56568024D01*
X102493698Y-56628313D01*
X102449820Y-56670955D01*
X102434033Y-56677102D01*
X102389945Y-56690047D01*
X102268873Y-56767855D01*
X102174622Y-56876628D01*
X102114834Y-57007543D01*
X102094353Y-57149997D01*
X102094353Y-57150002D01*
X100400002Y-57150002D01*
X99367855Y-56117855D01*
X98388617Y-55138617D01*
X98360842Y-55084103D01*
X98370413Y-55023671D01*
X98413678Y-54980406D01*
X98474110Y-54970835D01*
X98486511Y-54973625D01*
X98525080Y-54984950D01*
X98578035Y-55000499D01*
X98578036Y-55000499D01*
X98578039Y-55000500D01*
X98578041Y-55000500D01*
X98721959Y-55000500D01*
X98721961Y-55000500D01*
X98860053Y-54959953D01*
X98946476Y-54904412D01*
X99005652Y-54888857D01*
X99053523Y-54904412D01*
X99124459Y-54950000D01*
X99139947Y-54959953D01*
X99246403Y-54991211D01*
X99278035Y-55000499D01*
X99278036Y-55000499D01*
X99278039Y-55000500D01*
X99278041Y-55000500D01*
X99421959Y-55000500D01*
X99421961Y-55000500D01*
X99560053Y-54959953D01*
X99681128Y-54882143D01*
X99775377Y-54773373D01*
X99835165Y-54642457D01*
X99851821Y-54526612D01*
X99855647Y-54500002D01*
X99855647Y-54499997D01*
X99835165Y-54357543D01*
X99821046Y-54326627D01*
X99775377Y-54226627D01*
X99681128Y-54117857D01*
X99681127Y-54117856D01*
X99681126Y-54117855D01*
X99560057Y-54040049D01*
X99560054Y-54040047D01*
X99560053Y-54040047D01*
X99560050Y-54040046D01*
X99421964Y-53999500D01*
X99421961Y-53999500D01*
X99278039Y-53999500D01*
X99278035Y-53999500D01*
X99139949Y-54040046D01*
X99139947Y-54040047D01*
X99053523Y-54095588D01*
X98994347Y-54111141D01*
X98946477Y-54095588D01*
X98898957Y-54065049D01*
X98860053Y-54040047D01*
X98860050Y-54040046D01*
X98721964Y-53999500D01*
X98721961Y-53999500D01*
X98578039Y-53999500D01*
X98578035Y-53999500D01*
X98439949Y-54040046D01*
X98439942Y-54040049D01*
X98318873Y-54117855D01*
X98224622Y-54226628D01*
X98164834Y-54357543D01*
X98144353Y-54499997D01*
X98144353Y-54500002D01*
X98164834Y-54642456D01*
X98165836Y-54644650D01*
X98166065Y-54646649D01*
X98166829Y-54649250D01*
X98166378Y-54649382D01*
X98172810Y-54705436D01*
X98142723Y-54758713D01*
X98087066Y-54784130D01*
X98027100Y-54771978D01*
X98005782Y-54755782D01*
X98000000Y-54750000D01*
X97999999Y-54750000D01*
X95470744Y-57279255D01*
X95416227Y-57307032D01*
X95355795Y-57297461D01*
X95312530Y-57254196D01*
X95302748Y-57195160D01*
X95305647Y-57174999D01*
X95305647Y-57174997D01*
X95285165Y-57032543D01*
X95257925Y-56972897D01*
X95225377Y-56901627D01*
X95131128Y-56792857D01*
X95131127Y-56792856D01*
X95131126Y-56792855D01*
X95010057Y-56715049D01*
X95010054Y-56715047D01*
X95010053Y-56715047D01*
X95010050Y-56715046D01*
X94871964Y-56674500D01*
X94871961Y-56674500D01*
X94728039Y-56674500D01*
X94728035Y-56674500D01*
X94589949Y-56715046D01*
X94589942Y-56715049D01*
X94468873Y-56792855D01*
X94374622Y-56901628D01*
X94314834Y-57032543D01*
X94294353Y-57174997D01*
X94294353Y-57175002D01*
X94314834Y-57317456D01*
X94356798Y-57409342D01*
X94374623Y-57448373D01*
X94452889Y-57538697D01*
X94468873Y-57557144D01*
X94535546Y-57599992D01*
X94589947Y-57634953D01*
X94689738Y-57664254D01*
X94728035Y-57675499D01*
X94728036Y-57675499D01*
X94728039Y-57675500D01*
X94728041Y-57675500D01*
X94835492Y-57675500D01*
X94893683Y-57694407D01*
X94929647Y-57743907D01*
X94929647Y-57805093D01*
X94905496Y-57844504D01*
X94850000Y-57899999D01*
X94700000Y-58049999D01*
X94700000Y-58050000D01*
X94879997Y-58229997D01*
X94907773Y-58284512D01*
X94898202Y-58344944D01*
X94879996Y-58370003D01*
X93900000Y-59349999D01*
X93900000Y-59350000D01*
X91053421Y-59350000D01*
X91034665Y-59219543D01*
X90990745Y-59123373D01*
X90974877Y-59088627D01*
X90880628Y-58979857D01*
X90880627Y-58979856D01*
X90880626Y-58979855D01*
X90759557Y-58902049D01*
X90759554Y-58902047D01*
X90759553Y-58902047D01*
X90759550Y-58902046D01*
X90621464Y-58861500D01*
X90621461Y-58861500D01*
X90477539Y-58861500D01*
X90477535Y-58861500D01*
X90339449Y-58902046D01*
X90339442Y-58902049D01*
X90218373Y-58979855D01*
X90124122Y-59088628D01*
X90064334Y-59219543D01*
X90043853Y-59361997D01*
X90043853Y-59362002D01*
X69215500Y-59362002D01*
X69215500Y-58550002D01*
X75344353Y-58550002D01*
X75364834Y-58692456D01*
X75407077Y-58784953D01*
X75424623Y-58823373D01*
X75491020Y-58900000D01*
X75518873Y-58932144D01*
X75624715Y-59000164D01*
X75639947Y-59009953D01*
X75723592Y-59034513D01*
X75778035Y-59050499D01*
X75778036Y-59050499D01*
X75778039Y-59050500D01*
X75778041Y-59050500D01*
X75921960Y-59050500D01*
X75921961Y-59050500D01*
X75944918Y-59043759D01*
X76006078Y-59045506D01*
X76054531Y-59082868D01*
X76062860Y-59097616D01*
X76074623Y-59123373D01*
X76125548Y-59182144D01*
X76168873Y-59232144D01*
X76286197Y-59307543D01*
X76289947Y-59309953D01*
X76396403Y-59341211D01*
X76428035Y-59350499D01*
X76428036Y-59350499D01*
X76428039Y-59350500D01*
X76428041Y-59350500D01*
X76571959Y-59350500D01*
X76571961Y-59350500D01*
X76710053Y-59309953D01*
X76831128Y-59232143D01*
X76925377Y-59123373D01*
X76937137Y-59097621D01*
X76978506Y-59052546D01*
X77038472Y-59040394D01*
X77055081Y-59043759D01*
X77078039Y-59050500D01*
X77078040Y-59050500D01*
X77221960Y-59050500D01*
X77221961Y-59050500D01*
X77244918Y-59043759D01*
X77306078Y-59045506D01*
X77354531Y-59082868D01*
X77362860Y-59097616D01*
X77374623Y-59123373D01*
X77425548Y-59182144D01*
X77468873Y-59232144D01*
X77586197Y-59307543D01*
X77589947Y-59309953D01*
X77696403Y-59341211D01*
X77728035Y-59350499D01*
X77728036Y-59350499D01*
X77728039Y-59350500D01*
X77728041Y-59350500D01*
X77871959Y-59350500D01*
X77871961Y-59350500D01*
X78010053Y-59309953D01*
X78131128Y-59232143D01*
X78225377Y-59123373D01*
X78285165Y-58992457D01*
X78298694Y-58898361D01*
X78305647Y-58850002D01*
X78305647Y-58849997D01*
X78298459Y-58800002D01*
X80244353Y-58800002D01*
X80264834Y-58942456D01*
X80317732Y-59058285D01*
X80324623Y-59073373D01*
X80414093Y-59176628D01*
X80418873Y-59182144D01*
X80496675Y-59232144D01*
X80539947Y-59259953D01*
X80646403Y-59291211D01*
X80678035Y-59300499D01*
X80678036Y-59300499D01*
X80678039Y-59300500D01*
X80678041Y-59300500D01*
X80821959Y-59300500D01*
X80821961Y-59300500D01*
X80960053Y-59259953D01*
X81081128Y-59182143D01*
X81175377Y-59073373D01*
X81235165Y-58942457D01*
X81255647Y-58800000D01*
X81253483Y-58784950D01*
X81235165Y-58657543D01*
X81213430Y-58609950D01*
X81175377Y-58526627D01*
X81081128Y-58417857D01*
X81081127Y-58417856D01*
X81081126Y-58417855D01*
X80960057Y-58340049D01*
X80960054Y-58340047D01*
X80960053Y-58340047D01*
X80960050Y-58340046D01*
X80821964Y-58299500D01*
X80821961Y-58299500D01*
X80678039Y-58299500D01*
X80678035Y-58299500D01*
X80539949Y-58340046D01*
X80539942Y-58340049D01*
X80418873Y-58417855D01*
X80324622Y-58526628D01*
X80264834Y-58657543D01*
X80244353Y-58799997D01*
X80244353Y-58800002D01*
X78298459Y-58800002D01*
X78285165Y-58707543D01*
X78265852Y-58665254D01*
X78225377Y-58576627D01*
X78131128Y-58467857D01*
X78131127Y-58467856D01*
X78131126Y-58467855D01*
X78010057Y-58390049D01*
X78010054Y-58390047D01*
X78010053Y-58390047D01*
X78010050Y-58390046D01*
X77871964Y-58349500D01*
X77871961Y-58349500D01*
X77728039Y-58349500D01*
X77728037Y-58349500D01*
X77705079Y-58356241D01*
X77643918Y-58354492D01*
X77595467Y-58317127D01*
X77587137Y-58302377D01*
X77578978Y-58284512D01*
X77575377Y-58276627D01*
X77481128Y-58167857D01*
X77481127Y-58167856D01*
X77481126Y-58167855D01*
X77360057Y-58090049D01*
X77360054Y-58090047D01*
X77360053Y-58090047D01*
X77360050Y-58090046D01*
X77221964Y-58049500D01*
X77221961Y-58049500D01*
X77078039Y-58049500D01*
X77078035Y-58049500D01*
X76939949Y-58090046D01*
X76939942Y-58090049D01*
X76818873Y-58167855D01*
X76724621Y-58276629D01*
X76712861Y-58302379D01*
X76671488Y-58347456D01*
X76611521Y-58359604D01*
X76594919Y-58356240D01*
X76571966Y-58349501D01*
X76571962Y-58349500D01*
X76571961Y-58349500D01*
X76428039Y-58349500D01*
X76428037Y-58349500D01*
X76405079Y-58356241D01*
X76343918Y-58354492D01*
X76295467Y-58317127D01*
X76287137Y-58302377D01*
X76278978Y-58284512D01*
X76275377Y-58276627D01*
X76181128Y-58167857D01*
X76181127Y-58167856D01*
X76181126Y-58167855D01*
X76060057Y-58090049D01*
X76060054Y-58090047D01*
X76060053Y-58090047D01*
X76060050Y-58090046D01*
X75921964Y-58049500D01*
X75921961Y-58049500D01*
X75778039Y-58049500D01*
X75778035Y-58049500D01*
X75639949Y-58090046D01*
X75639942Y-58090049D01*
X75518873Y-58167855D01*
X75424622Y-58276628D01*
X75364834Y-58407543D01*
X75344353Y-58549997D01*
X75344353Y-58550002D01*
X69215500Y-58550002D01*
X69215500Y-56800002D01*
X70694353Y-56800002D01*
X70714834Y-56942456D01*
X70762687Y-57047238D01*
X70774623Y-57073373D01*
X70868872Y-57182143D01*
X70868873Y-57182144D01*
X70967689Y-57245649D01*
X70989947Y-57259953D01*
X71096403Y-57291211D01*
X71128035Y-57300499D01*
X71128036Y-57300499D01*
X71128039Y-57300500D01*
X71128041Y-57300500D01*
X71271959Y-57300500D01*
X71271961Y-57300500D01*
X71410053Y-57259953D01*
X71531128Y-57182143D01*
X71625182Y-57073597D01*
X71677576Y-57042003D01*
X71738537Y-57047238D01*
X71774816Y-57073596D01*
X71868872Y-57182143D01*
X71868873Y-57182144D01*
X71967689Y-57245649D01*
X71989947Y-57259953D01*
X72096403Y-57291211D01*
X72128035Y-57300499D01*
X72128036Y-57300499D01*
X72128039Y-57300500D01*
X72128041Y-57300500D01*
X72271959Y-57300500D01*
X72271961Y-57300500D01*
X72410053Y-57259953D01*
X72531128Y-57182143D01*
X72625377Y-57073373D01*
X72685165Y-56942457D01*
X72705647Y-56800000D01*
X72704562Y-56792457D01*
X72685165Y-56657543D01*
X72681721Y-56650002D01*
X82844353Y-56650002D01*
X82864834Y-56792456D01*
X82909351Y-56889932D01*
X82924623Y-56923373D01*
X83009813Y-57021688D01*
X83018873Y-57032144D01*
X83096415Y-57081977D01*
X83139947Y-57109953D01*
X83226514Y-57135371D01*
X83278035Y-57150499D01*
X83278036Y-57150499D01*
X83278039Y-57150500D01*
X83278041Y-57150500D01*
X83421959Y-57150500D01*
X83421961Y-57150500D01*
X83560053Y-57109953D01*
X83681128Y-57032143D01*
X83775377Y-56923373D01*
X83790647Y-56889937D01*
X84993099Y-56889937D01*
X85013580Y-57032391D01*
X85036226Y-57081977D01*
X85073369Y-57163308D01*
X85157109Y-57259950D01*
X85167619Y-57272079D01*
X85288688Y-57349885D01*
X85288693Y-57349888D01*
X85395149Y-57381146D01*
X85426781Y-57390434D01*
X85426782Y-57390434D01*
X85426785Y-57390435D01*
X85433859Y-57390435D01*
X85492050Y-57409342D01*
X85528014Y-57458842D01*
X85531851Y-57503524D01*
X85526794Y-57538697D01*
X85526794Y-57538702D01*
X85547275Y-57681156D01*
X85603876Y-57805093D01*
X85607064Y-57812073D01*
X85701313Y-57920843D01*
X85701314Y-57920844D01*
X85793357Y-57979996D01*
X85822388Y-57998653D01*
X85902913Y-58022297D01*
X85960476Y-58039199D01*
X85960477Y-58039199D01*
X85960480Y-58039200D01*
X85960482Y-58039200D01*
X86104400Y-58039200D01*
X86104402Y-58039200D01*
X86242494Y-57998653D01*
X86363569Y-57920843D01*
X86457818Y-57812073D01*
X86517606Y-57681157D01*
X86524433Y-57633671D01*
X86538088Y-57538702D01*
X86538088Y-57538697D01*
X86517606Y-57396243D01*
X86502196Y-57362500D01*
X86457818Y-57265327D01*
X86363569Y-57156557D01*
X86363568Y-57156556D01*
X86363567Y-57156555D01*
X86242498Y-57078749D01*
X86242495Y-57078747D01*
X86242494Y-57078747D01*
X86242491Y-57078746D01*
X86104405Y-57038200D01*
X86104402Y-57038200D01*
X86097328Y-57038200D01*
X86039137Y-57019293D01*
X86003173Y-56969793D01*
X85999336Y-56925111D01*
X86004393Y-56889937D01*
X86004393Y-56889932D01*
X86000594Y-56863508D01*
X86948757Y-56863508D01*
X86969238Y-57005962D01*
X87003954Y-57081977D01*
X87029027Y-57136879D01*
X87113571Y-57234449D01*
X87123277Y-57245650D01*
X87244346Y-57323456D01*
X87244351Y-57323459D01*
X87334351Y-57349885D01*
X87382439Y-57364005D01*
X87382440Y-57364005D01*
X87382443Y-57364006D01*
X87382445Y-57364006D01*
X87526363Y-57364006D01*
X87526365Y-57364006D01*
X87664457Y-57323459D01*
X87785532Y-57245649D01*
X87879781Y-57136879D01*
X87939569Y-57005963D01*
X87956252Y-56889932D01*
X87960051Y-56863508D01*
X87960051Y-56863503D01*
X87958441Y-56852308D01*
X89092287Y-56852308D01*
X89112768Y-56994762D01*
X89152599Y-57081977D01*
X89172557Y-57125679D01*
X89266806Y-57234449D01*
X89266807Y-57234450D01*
X89387876Y-57312256D01*
X89387881Y-57312259D01*
X89516025Y-57349885D01*
X89525670Y-57352717D01*
X89576177Y-57387253D01*
X89596739Y-57444880D01*
X89596384Y-57451089D01*
X89596384Y-57457538D01*
X89616865Y-57599992D01*
X89676653Y-57730907D01*
X89676654Y-57730909D01*
X89742725Y-57807160D01*
X89766542Y-57863519D01*
X89757958Y-57913117D01*
X89714834Y-58007543D01*
X89694353Y-58149997D01*
X89694353Y-58150002D01*
X89714834Y-58292456D01*
X89772103Y-58417855D01*
X89774623Y-58423373D01*
X89864093Y-58526628D01*
X89868873Y-58532144D01*
X89938092Y-58576628D01*
X89989947Y-58609953D01*
X90096403Y-58641211D01*
X90128035Y-58650499D01*
X90128036Y-58650499D01*
X90128039Y-58650500D01*
X90128041Y-58650500D01*
X90271959Y-58650500D01*
X90271961Y-58650500D01*
X90410053Y-58609953D01*
X90531128Y-58532143D01*
X90625377Y-58423373D01*
X90685165Y-58292457D01*
X90703080Y-58167855D01*
X90705647Y-58150002D01*
X90705647Y-58149997D01*
X90685165Y-58007543D01*
X90681104Y-57998650D01*
X90625377Y-57876627D01*
X90559305Y-57800375D01*
X90535489Y-57744017D01*
X90544073Y-57694419D01*
X90582647Y-57609953D01*
X90587196Y-57599993D01*
X90601066Y-57503524D01*
X90607678Y-57457538D01*
X90607678Y-57455485D01*
X90608207Y-57453854D01*
X90608686Y-57450528D01*
X90609261Y-57450610D01*
X90626585Y-57397294D01*
X90676085Y-57361330D01*
X90678739Y-57360509D01*
X90810053Y-57321953D01*
X90931128Y-57244143D01*
X91025377Y-57135373D01*
X91085165Y-57004457D01*
X91096823Y-56923371D01*
X91105647Y-56862002D01*
X91105647Y-56861997D01*
X91085165Y-56719543D01*
X91071694Y-56690047D01*
X91025377Y-56588627D01*
X90931128Y-56479857D01*
X90931127Y-56479856D01*
X90931126Y-56479855D01*
X90810057Y-56402049D01*
X90810054Y-56402047D01*
X90810053Y-56402047D01*
X90810050Y-56402046D01*
X90671964Y-56361500D01*
X90671961Y-56361500D01*
X90528039Y-56361500D01*
X90528035Y-56361500D01*
X90389949Y-56402046D01*
X90389942Y-56402049D01*
X90268872Y-56479856D01*
X90268870Y-56479858D01*
X90177926Y-56584813D01*
X90125530Y-56616409D01*
X90064569Y-56611173D01*
X90030252Y-56582286D01*
X90027947Y-56584284D01*
X90023311Y-56578934D01*
X90023311Y-56578933D01*
X89929062Y-56470163D01*
X89929061Y-56470162D01*
X89929060Y-56470161D01*
X89807991Y-56392355D01*
X89807988Y-56392353D01*
X89807987Y-56392353D01*
X89807984Y-56392352D01*
X89669898Y-56351806D01*
X89669895Y-56351806D01*
X89525973Y-56351806D01*
X89525969Y-56351806D01*
X89387883Y-56392352D01*
X89387876Y-56392355D01*
X89266807Y-56470161D01*
X89172556Y-56578934D01*
X89112768Y-56709849D01*
X89092287Y-56852303D01*
X89092287Y-56852308D01*
X87958441Y-56852308D01*
X87939569Y-56721049D01*
X87919499Y-56677102D01*
X87879781Y-56590133D01*
X87785532Y-56481363D01*
X87785531Y-56481362D01*
X87785530Y-56481361D01*
X87664461Y-56403555D01*
X87664458Y-56403553D01*
X87664457Y-56403553D01*
X87659325Y-56402046D01*
X87526368Y-56363006D01*
X87526365Y-56363006D01*
X87382443Y-56363006D01*
X87382439Y-56363006D01*
X87244353Y-56403552D01*
X87244346Y-56403555D01*
X87123277Y-56481361D01*
X87029026Y-56590134D01*
X86969238Y-56721049D01*
X86948757Y-56863503D01*
X86948757Y-56863508D01*
X86000594Y-56863508D01*
X85983911Y-56747478D01*
X85951771Y-56677102D01*
X85924123Y-56616562D01*
X85829874Y-56507792D01*
X85829873Y-56507791D01*
X85829872Y-56507790D01*
X85708803Y-56429984D01*
X85708800Y-56429982D01*
X85708799Y-56429982D01*
X85708796Y-56429981D01*
X85570710Y-56389435D01*
X85570707Y-56389435D01*
X85426785Y-56389435D01*
X85426781Y-56389435D01*
X85288695Y-56429981D01*
X85288688Y-56429984D01*
X85167619Y-56507790D01*
X85073368Y-56616563D01*
X85013580Y-56747478D01*
X84993099Y-56889932D01*
X84993099Y-56889937D01*
X83790647Y-56889937D01*
X83835165Y-56792457D01*
X83845648Y-56719543D01*
X83855647Y-56650002D01*
X83855647Y-56649997D01*
X83835165Y-56507543D01*
X83823208Y-56481361D01*
X83775377Y-56376627D01*
X83681128Y-56267857D01*
X83681127Y-56267856D01*
X83681126Y-56267855D01*
X83560057Y-56190049D01*
X83560054Y-56190047D01*
X83560053Y-56190047D01*
X83560050Y-56190046D01*
X83421964Y-56149500D01*
X83421961Y-56149500D01*
X83278039Y-56149500D01*
X83278035Y-56149500D01*
X83139949Y-56190046D01*
X83139942Y-56190049D01*
X83018873Y-56267855D01*
X82924622Y-56376628D01*
X82864834Y-56507543D01*
X82844353Y-56649997D01*
X82844353Y-56650002D01*
X72681721Y-56650002D01*
X72666449Y-56616562D01*
X72625377Y-56526627D01*
X72531128Y-56417857D01*
X72531127Y-56417856D01*
X72531126Y-56417855D01*
X72410057Y-56340049D01*
X72410054Y-56340047D01*
X72410053Y-56340047D01*
X72410050Y-56340046D01*
X72271964Y-56299500D01*
X72271961Y-56299500D01*
X72128039Y-56299500D01*
X72128035Y-56299500D01*
X71989949Y-56340046D01*
X71989942Y-56340049D01*
X71868872Y-56417856D01*
X71868870Y-56417858D01*
X71774819Y-56526400D01*
X71722424Y-56557996D01*
X71661463Y-56552760D01*
X71625181Y-56526400D01*
X71531129Y-56417858D01*
X71531127Y-56417856D01*
X71410057Y-56340049D01*
X71410054Y-56340047D01*
X71410053Y-56340047D01*
X71410050Y-56340046D01*
X71271964Y-56299500D01*
X71271961Y-56299500D01*
X71128039Y-56299500D01*
X71128035Y-56299500D01*
X70989949Y-56340046D01*
X70989942Y-56340049D01*
X70868873Y-56417855D01*
X70774622Y-56526628D01*
X70714834Y-56657543D01*
X70694353Y-56799997D01*
X70694353Y-56800002D01*
X69215500Y-56800002D01*
X69215500Y-54950002D01*
X73944353Y-54950002D01*
X73964834Y-55092456D01*
X73977415Y-55120003D01*
X74024623Y-55223373D01*
X74118872Y-55332143D01*
X74118873Y-55332144D01*
X74238861Y-55409255D01*
X74239947Y-55409953D01*
X74346403Y-55441211D01*
X74378035Y-55450499D01*
X74378036Y-55450499D01*
X74378039Y-55450500D01*
X74378041Y-55450500D01*
X74521959Y-55450500D01*
X74521961Y-55450500D01*
X74660053Y-55409953D01*
X74781128Y-55332143D01*
X74875377Y-55223373D01*
X74935165Y-55092457D01*
X74944560Y-55027114D01*
X85344353Y-55027114D01*
X85364834Y-55169568D01*
X85401567Y-55250000D01*
X85424623Y-55300485D01*
X85502230Y-55390049D01*
X85518873Y-55409256D01*
X85639942Y-55487062D01*
X85639947Y-55487065D01*
X85746403Y-55518323D01*
X85778035Y-55527611D01*
X85778036Y-55527611D01*
X85778039Y-55527612D01*
X85778041Y-55527612D01*
X85921959Y-55527612D01*
X85921961Y-55527612D01*
X86060053Y-55487065D01*
X86181128Y-55409255D01*
X86275377Y-55300485D01*
X86298433Y-55250000D01*
X86306021Y-55233386D01*
X86347393Y-55188308D01*
X86407360Y-55176157D01*
X86463016Y-55201575D01*
X86486127Y-55233385D01*
X86493713Y-55249995D01*
X86496610Y-55256339D01*
X86562294Y-55332143D01*
X86590860Y-55365110D01*
X86711929Y-55442916D01*
X86711934Y-55442919D01*
X86796866Y-55467857D01*
X86850022Y-55483465D01*
X86850023Y-55483465D01*
X86850026Y-55483466D01*
X86850028Y-55483466D01*
X86993946Y-55483466D01*
X86993948Y-55483466D01*
X87132040Y-55442919D01*
X87253115Y-55365109D01*
X87347364Y-55256339D01*
X87407152Y-55125423D01*
X87409723Y-55107543D01*
X87409942Y-55106022D01*
X87436937Y-55051114D01*
X87491051Y-55022560D01*
X87507934Y-55021110D01*
X87518855Y-55021110D01*
X87518857Y-55021110D01*
X87656949Y-54980563D01*
X87778024Y-54902753D01*
X87825337Y-54848149D01*
X87877733Y-54816553D01*
X87938694Y-54821788D01*
X87984935Y-54861856D01*
X87998794Y-54921451D01*
X87998150Y-54927067D01*
X87994854Y-54949997D01*
X87994853Y-54950001D01*
X87994853Y-54950002D01*
X88015334Y-55092456D01*
X88027915Y-55120003D01*
X88075123Y-55223373D01*
X88169372Y-55332143D01*
X88169373Y-55332144D01*
X88289361Y-55409255D01*
X88290447Y-55409953D01*
X88396903Y-55441211D01*
X88428535Y-55450499D01*
X88428536Y-55450499D01*
X88428539Y-55450500D01*
X88428541Y-55450500D01*
X88572459Y-55450500D01*
X88572461Y-55450500D01*
X88710553Y-55409953D01*
X88831628Y-55332143D01*
X88925877Y-55223373D01*
X88985665Y-55092457D01*
X88998886Y-55000500D01*
X89006147Y-54950002D01*
X89006147Y-54949997D01*
X88985665Y-54807543D01*
X88977675Y-54790047D01*
X88925877Y-54676627D01*
X88831628Y-54567857D01*
X88831627Y-54567856D01*
X88831626Y-54567855D01*
X88767291Y-54526510D01*
X88745616Y-54500002D01*
X91744353Y-54500002D01*
X91764834Y-54642456D01*
X91808954Y-54739064D01*
X91824623Y-54773373D01*
X91906493Y-54867857D01*
X91918873Y-54882144D01*
X92024461Y-54950001D01*
X92039947Y-54959953D01*
X92146403Y-54991211D01*
X92178035Y-55000499D01*
X92178036Y-55000499D01*
X92178039Y-55000500D01*
X92178041Y-55000500D01*
X92321959Y-55000500D01*
X92321961Y-55000500D01*
X92460053Y-54959953D01*
X92581128Y-54882143D01*
X92675377Y-54773373D01*
X92675377Y-54773371D01*
X92680013Y-54768022D01*
X92682186Y-54769905D01*
X92719874Y-54739064D01*
X92780958Y-54735548D01*
X92832443Y-54768607D01*
X92845880Y-54790177D01*
X92849622Y-54798372D01*
X92943873Y-54907144D01*
X93060576Y-54982144D01*
X93064947Y-54984953D01*
X93171403Y-55016211D01*
X93203035Y-55025499D01*
X93203036Y-55025499D01*
X93203039Y-55025500D01*
X93203041Y-55025500D01*
X93346959Y-55025500D01*
X93346961Y-55025500D01*
X93485053Y-54984953D01*
X93606128Y-54907143D01*
X93630186Y-54879377D01*
X93682581Y-54847781D01*
X93743542Y-54853016D01*
X93779824Y-54879375D01*
X93864093Y-54976628D01*
X93868873Y-54982144D01*
X93965469Y-55044222D01*
X94004200Y-55091588D01*
X94009938Y-55141594D01*
X93994352Y-55249995D01*
X93994353Y-55250002D01*
X94014834Y-55392456D01*
X94074622Y-55523371D01*
X94074623Y-55523373D01*
X94168872Y-55632143D01*
X94168873Y-55632144D01*
X94286197Y-55707543D01*
X94289947Y-55709953D01*
X94396403Y-55741211D01*
X94428035Y-55750499D01*
X94428036Y-55750499D01*
X94428039Y-55750500D01*
X94428041Y-55750500D01*
X94571959Y-55750500D01*
X94571961Y-55750500D01*
X94710053Y-55709953D01*
X94831128Y-55632143D01*
X94925377Y-55523373D01*
X94985165Y-55392457D01*
X94993837Y-55332143D01*
X95005647Y-55250002D01*
X95005647Y-55249997D01*
X94985165Y-55107543D01*
X94978170Y-55092226D01*
X94925377Y-54976627D01*
X94831128Y-54867857D01*
X94831127Y-54867856D01*
X94831126Y-54867855D01*
X94734530Y-54805777D01*
X94695798Y-54758411D01*
X94690061Y-54708404D01*
X94705647Y-54600002D01*
X94705647Y-54599997D01*
X94698459Y-54550002D01*
X95594353Y-54550002D01*
X95614834Y-54692456D01*
X95671508Y-54816553D01*
X95674623Y-54823373D01*
X95764474Y-54927067D01*
X95768873Y-54932144D01*
X95889942Y-55009950D01*
X95889947Y-55009953D01*
X95996403Y-55041211D01*
X96028035Y-55050499D01*
X96028036Y-55050499D01*
X96028039Y-55050500D01*
X96028041Y-55050500D01*
X96171959Y-55050500D01*
X96171961Y-55050500D01*
X96310053Y-55009953D01*
X96431128Y-54932143D01*
X96525377Y-54823373D01*
X96585165Y-54692457D01*
X96598459Y-54599997D01*
X96605647Y-54550002D01*
X96605647Y-54549997D01*
X96585165Y-54407543D01*
X96568293Y-54370599D01*
X96525377Y-54276627D01*
X96458982Y-54200002D01*
X96844353Y-54200002D01*
X96864834Y-54342456D01*
X96924622Y-54473371D01*
X96924623Y-54473373D01*
X97006493Y-54567857D01*
X97018873Y-54582144D01*
X97123498Y-54649382D01*
X97139947Y-54659953D01*
X97246403Y-54691211D01*
X97278035Y-54700499D01*
X97278036Y-54700499D01*
X97278039Y-54700500D01*
X97278041Y-54700500D01*
X97421959Y-54700500D01*
X97421961Y-54700500D01*
X97560053Y-54659953D01*
X97681128Y-54582143D01*
X97775377Y-54473373D01*
X97835165Y-54342457D01*
X97847147Y-54259117D01*
X97855647Y-54200002D01*
X97855647Y-54199997D01*
X97835165Y-54057543D01*
X97821046Y-54026627D01*
X97775377Y-53926627D01*
X97681128Y-53817857D01*
X97681127Y-53817856D01*
X97681126Y-53817855D01*
X97560057Y-53740049D01*
X97560054Y-53740047D01*
X97560053Y-53740047D01*
X97560050Y-53740046D01*
X97421964Y-53699500D01*
X97421961Y-53699500D01*
X97278039Y-53699500D01*
X97278035Y-53699500D01*
X97139949Y-53740046D01*
X97139942Y-53740049D01*
X97018873Y-53817855D01*
X96924622Y-53926628D01*
X96864834Y-54057543D01*
X96844353Y-54199997D01*
X96844353Y-54200002D01*
X96458982Y-54200002D01*
X96431128Y-54167857D01*
X96431127Y-54167856D01*
X96431126Y-54167855D01*
X96310057Y-54090049D01*
X96310054Y-54090047D01*
X96310053Y-54090047D01*
X96310050Y-54090046D01*
X96171964Y-54049500D01*
X96171961Y-54049500D01*
X96028039Y-54049500D01*
X96028035Y-54049500D01*
X95889949Y-54090046D01*
X95889942Y-54090049D01*
X95768873Y-54167855D01*
X95674622Y-54276628D01*
X95614834Y-54407543D01*
X95594353Y-54549997D01*
X95594353Y-54550002D01*
X94698459Y-54550002D01*
X94685165Y-54457543D01*
X94667133Y-54418059D01*
X94625377Y-54326627D01*
X94580006Y-54274266D01*
X94556190Y-54217907D01*
X94570049Y-54158312D01*
X94580009Y-54144604D01*
X94581523Y-54142857D01*
X94599321Y-54122317D01*
X94659109Y-53991401D01*
X94679591Y-53848944D01*
X94678312Y-53840049D01*
X94659109Y-53706487D01*
X94645076Y-53675760D01*
X94599321Y-53575571D01*
X94577166Y-53550002D01*
X100494353Y-53550002D01*
X100514834Y-53692456D01*
X100571582Y-53816714D01*
X100574623Y-53823373D01*
X100664093Y-53926628D01*
X100668873Y-53932144D01*
X100785576Y-54007144D01*
X100789947Y-54009953D01*
X100864996Y-54031989D01*
X100928035Y-54050499D01*
X100928036Y-54050499D01*
X100928039Y-54050500D01*
X100928041Y-54050500D01*
X101071959Y-54050500D01*
X101071961Y-54050500D01*
X101210053Y-54009953D01*
X101246477Y-53986544D01*
X101305650Y-53970989D01*
X101353522Y-53986544D01*
X101389947Y-54009953D01*
X101464996Y-54031989D01*
X101528035Y-54050499D01*
X101528036Y-54050499D01*
X101528039Y-54050500D01*
X101528041Y-54050500D01*
X101671959Y-54050500D01*
X101671961Y-54050500D01*
X101810053Y-54009953D01*
X101931128Y-53932143D01*
X102025377Y-53823373D01*
X102081949Y-53699500D01*
X102084947Y-53692935D01*
X102126319Y-53647858D01*
X102186286Y-53635707D01*
X102241942Y-53661125D01*
X102265053Y-53692935D01*
X102321582Y-53816714D01*
X102324623Y-53823373D01*
X102414093Y-53926628D01*
X102418873Y-53932144D01*
X102535576Y-54007144D01*
X102539947Y-54009953D01*
X102614996Y-54031989D01*
X102678035Y-54050499D01*
X102678036Y-54050499D01*
X102678039Y-54050500D01*
X102678041Y-54050500D01*
X102821959Y-54050500D01*
X102821961Y-54050500D01*
X102960053Y-54009953D01*
X103081128Y-53932143D01*
X103175377Y-53823373D01*
X103235165Y-53692457D01*
X103244863Y-53625004D01*
X103255647Y-53550002D01*
X103255647Y-53549997D01*
X103235165Y-53407543D01*
X103204319Y-53340000D01*
X103175377Y-53276627D01*
X103081128Y-53167857D01*
X103081127Y-53167856D01*
X103081126Y-53167855D01*
X102960057Y-53090049D01*
X102960054Y-53090047D01*
X102960053Y-53090047D01*
X102960050Y-53090046D01*
X102821964Y-53049500D01*
X102821961Y-53049500D01*
X102678039Y-53049500D01*
X102678035Y-53049500D01*
X102539949Y-53090046D01*
X102539942Y-53090049D01*
X102418873Y-53167855D01*
X102324622Y-53276628D01*
X102265053Y-53407064D01*
X102223681Y-53452141D01*
X102163714Y-53464292D01*
X102108058Y-53438874D01*
X102084947Y-53407064D01*
X102025377Y-53276628D01*
X102025377Y-53276627D01*
X101931128Y-53167857D01*
X101931127Y-53167856D01*
X101931126Y-53167855D01*
X101810057Y-53090049D01*
X101810054Y-53090047D01*
X101810053Y-53090047D01*
X101810050Y-53090046D01*
X101671964Y-53049500D01*
X101671961Y-53049500D01*
X101528039Y-53049500D01*
X101528035Y-53049500D01*
X101389949Y-53090046D01*
X101389943Y-53090048D01*
X101353522Y-53113455D01*
X101294347Y-53129008D01*
X101246478Y-53113455D01*
X101210056Y-53090048D01*
X101210050Y-53090046D01*
X101071964Y-53049500D01*
X101071961Y-53049500D01*
X100928039Y-53049500D01*
X100928035Y-53049500D01*
X100789949Y-53090046D01*
X100789942Y-53090049D01*
X100668873Y-53167855D01*
X100574622Y-53276628D01*
X100514834Y-53407543D01*
X100494353Y-53549997D01*
X100494353Y-53550002D01*
X94577166Y-53550002D01*
X94505072Y-53466801D01*
X94505071Y-53466800D01*
X94505070Y-53466799D01*
X94384001Y-53388993D01*
X94383998Y-53388991D01*
X94383997Y-53388991D01*
X94383994Y-53388990D01*
X94245908Y-53348444D01*
X94245905Y-53348444D01*
X94101983Y-53348444D01*
X94101979Y-53348444D01*
X93963893Y-53388990D01*
X93963886Y-53388993D01*
X93842817Y-53466799D01*
X93748566Y-53575572D01*
X93688778Y-53706487D01*
X93668297Y-53848941D01*
X93668297Y-53848946D01*
X93689786Y-53998410D01*
X93687756Y-53998701D01*
X93686292Y-54050034D01*
X93648932Y-54098488D01*
X93590226Y-54115729D01*
X93539525Y-54100054D01*
X93516027Y-54084953D01*
X93485053Y-54065047D01*
X93485050Y-54065046D01*
X93346964Y-54024500D01*
X93346961Y-54024500D01*
X93203039Y-54024500D01*
X93203035Y-54024500D01*
X93064949Y-54065046D01*
X93064942Y-54065049D01*
X92943873Y-54142855D01*
X92920418Y-54169924D01*
X92849623Y-54251627D01*
X92849622Y-54251628D01*
X92844987Y-54256978D01*
X92842822Y-54255102D01*
X92805056Y-54285962D01*
X92743969Y-54289432D01*
X92692509Y-54256334D01*
X92679118Y-54234819D01*
X92675377Y-54226628D01*
X92675377Y-54226627D01*
X92581128Y-54117857D01*
X92581127Y-54117856D01*
X92581126Y-54117855D01*
X92460057Y-54040049D01*
X92460054Y-54040047D01*
X92460053Y-54040047D01*
X92460050Y-54040046D01*
X92321964Y-53999500D01*
X92321961Y-53999500D01*
X92178039Y-53999500D01*
X92178035Y-53999500D01*
X92039949Y-54040046D01*
X92039942Y-54040049D01*
X91918873Y-54117855D01*
X91824622Y-54226628D01*
X91764834Y-54357543D01*
X91744353Y-54499997D01*
X91744353Y-54500002D01*
X88745616Y-54500002D01*
X88728560Y-54479144D01*
X88725066Y-54418059D01*
X88730763Y-54402095D01*
X88735165Y-54392457D01*
X88750221Y-54287740D01*
X88755647Y-54250002D01*
X88755647Y-54249997D01*
X88744134Y-54169924D01*
X88754567Y-54109635D01*
X88798445Y-54066993D01*
X88859007Y-54058285D01*
X88895647Y-54072550D01*
X88914947Y-54084953D01*
X89004136Y-54111141D01*
X89053035Y-54125499D01*
X89053036Y-54125499D01*
X89053039Y-54125500D01*
X89053041Y-54125500D01*
X89196959Y-54125500D01*
X89196961Y-54125500D01*
X89335053Y-54084953D01*
X89456128Y-54007143D01*
X89550377Y-53898373D01*
X89610165Y-53767457D01*
X89622582Y-53681093D01*
X89630647Y-53625002D01*
X89630647Y-53624997D01*
X89610165Y-53482543D01*
X89575913Y-53407543D01*
X89550377Y-53351627D01*
X89456128Y-53242857D01*
X89456127Y-53242856D01*
X89456126Y-53242855D01*
X89335057Y-53165049D01*
X89335054Y-53165047D01*
X89335053Y-53165047D01*
X89335050Y-53165046D01*
X89196964Y-53124500D01*
X89196961Y-53124500D01*
X89053039Y-53124500D01*
X89053035Y-53124500D01*
X88914949Y-53165046D01*
X88914942Y-53165049D01*
X88793873Y-53242855D01*
X88699622Y-53351628D01*
X88639834Y-53482543D01*
X88619353Y-53624997D01*
X88619353Y-53625004D01*
X88630865Y-53705076D01*
X88620432Y-53765365D01*
X88576553Y-53808007D01*
X88515991Y-53816714D01*
X88479350Y-53802448D01*
X88460057Y-53790049D01*
X88460054Y-53790047D01*
X88460053Y-53790047D01*
X88460050Y-53790046D01*
X88321964Y-53749500D01*
X88321961Y-53749500D01*
X88268978Y-53749500D01*
X88210787Y-53730593D01*
X88174823Y-53681093D01*
X88174823Y-53619907D01*
X88210787Y-53570407D01*
X88215454Y-53567216D01*
X88231128Y-53557143D01*
X88325377Y-53448373D01*
X88385165Y-53317457D01*
X88399779Y-53215812D01*
X88405647Y-53175002D01*
X88405647Y-53174997D01*
X88385165Y-53032543D01*
X88344015Y-52942438D01*
X88325377Y-52901627D01*
X88231128Y-52792857D01*
X88231127Y-52792856D01*
X88231126Y-52792855D01*
X88110057Y-52715049D01*
X88110054Y-52715047D01*
X88110053Y-52715047D01*
X88110050Y-52715046D01*
X87971964Y-52674500D01*
X87971961Y-52674500D01*
X87828039Y-52674500D01*
X87828035Y-52674500D01*
X87689949Y-52715046D01*
X87689942Y-52715049D01*
X87568873Y-52792855D01*
X87474622Y-52901628D01*
X87414834Y-53032543D01*
X87394353Y-53174997D01*
X87394353Y-53175002D01*
X87414834Y-53317456D01*
X87455976Y-53407543D01*
X87474623Y-53448373D01*
X87568872Y-53557143D01*
X87568873Y-53557144D01*
X87674463Y-53625002D01*
X87689947Y-53634953D01*
X87779082Y-53661125D01*
X87828035Y-53675499D01*
X87828036Y-53675499D01*
X87828039Y-53675500D01*
X87828041Y-53675500D01*
X87881022Y-53675500D01*
X87939213Y-53694407D01*
X87975177Y-53743907D01*
X87975177Y-53805093D01*
X87939213Y-53854593D01*
X87934546Y-53857784D01*
X87918872Y-53867856D01*
X87824622Y-53976628D01*
X87804371Y-54020971D01*
X87762999Y-54066048D01*
X87703032Y-54078199D01*
X87660797Y-54063130D01*
X87656952Y-54060659D01*
X87656949Y-54060657D01*
X87646344Y-54057543D01*
X87518860Y-54020110D01*
X87518857Y-54020110D01*
X87374935Y-54020110D01*
X87374931Y-54020110D01*
X87236845Y-54060656D01*
X87236838Y-54060659D01*
X87115769Y-54138465D01*
X87021518Y-54247238D01*
X86983099Y-54331362D01*
X86941726Y-54376439D01*
X86881760Y-54388590D01*
X86826104Y-54363172D01*
X86802993Y-54331361D01*
X86770000Y-54259118D01*
X86769999Y-54259117D01*
X86769999Y-54259116D01*
X86675750Y-54150346D01*
X86675749Y-54150345D01*
X86675748Y-54150344D01*
X86554679Y-54072538D01*
X86554676Y-54072536D01*
X86554675Y-54072536D01*
X86554672Y-54072535D01*
X86416586Y-54031989D01*
X86416583Y-54031989D01*
X86272661Y-54031989D01*
X86272657Y-54031989D01*
X86134571Y-54072535D01*
X86134564Y-54072538D01*
X86013495Y-54150344D01*
X85919244Y-54259117D01*
X85859456Y-54390032D01*
X85851597Y-54444695D01*
X85824601Y-54499603D01*
X85781497Y-54525596D01*
X85639947Y-54567159D01*
X85639942Y-54567161D01*
X85518873Y-54644967D01*
X85424622Y-54753740D01*
X85364834Y-54884655D01*
X85344353Y-55027109D01*
X85344353Y-55027114D01*
X74944560Y-55027114D01*
X74948386Y-55000500D01*
X74955647Y-54950002D01*
X74955647Y-54949997D01*
X74935165Y-54807543D01*
X74927175Y-54790047D01*
X74875377Y-54676627D01*
X74781128Y-54567857D01*
X74781127Y-54567856D01*
X74781126Y-54567855D01*
X74660057Y-54490049D01*
X74660054Y-54490047D01*
X74660053Y-54490047D01*
X74642456Y-54484880D01*
X74521964Y-54449500D01*
X74521961Y-54449500D01*
X74378039Y-54449500D01*
X74378035Y-54449500D01*
X74239949Y-54490046D01*
X74239942Y-54490049D01*
X74118873Y-54567855D01*
X74024622Y-54676628D01*
X73964834Y-54807543D01*
X73944353Y-54949997D01*
X73944353Y-54950002D01*
X69215500Y-54950002D01*
X69215500Y-54300002D01*
X71994353Y-54300002D01*
X72014834Y-54442456D01*
X72063947Y-54549997D01*
X72074623Y-54573373D01*
X72164093Y-54676628D01*
X72168873Y-54682144D01*
X72289942Y-54759950D01*
X72289947Y-54759953D01*
X72392439Y-54790047D01*
X72428035Y-54800499D01*
X72428036Y-54800499D01*
X72428039Y-54800500D01*
X72428041Y-54800500D01*
X72571959Y-54800500D01*
X72571961Y-54800500D01*
X72710053Y-54759953D01*
X72831128Y-54682143D01*
X72925377Y-54573373D01*
X72985165Y-54442457D01*
X72992354Y-54392455D01*
X73005647Y-54300002D01*
X73005647Y-54299997D01*
X72993379Y-54214672D01*
X77639500Y-54214672D01*
X77639501Y-54214684D01*
X77654033Y-54287736D01*
X77654035Y-54287742D01*
X77709397Y-54370599D01*
X77709400Y-54370602D01*
X77780426Y-54418059D01*
X77792260Y-54425966D01*
X77847808Y-54437015D01*
X77865315Y-54440498D01*
X77865320Y-54440498D01*
X77865326Y-54440500D01*
X77865327Y-54440500D01*
X79614673Y-54440500D01*
X79614674Y-54440500D01*
X79687740Y-54425966D01*
X79770601Y-54370601D01*
X79825966Y-54287740D01*
X79840500Y-54214674D01*
X79840500Y-53340000D01*
X80174785Y-53340000D01*
X80193603Y-53543083D01*
X80249418Y-53739250D01*
X80340327Y-53921821D01*
X80463236Y-54084579D01*
X80613959Y-54221981D01*
X80787363Y-54329348D01*
X80977544Y-54403024D01*
X81178024Y-54440500D01*
X81381976Y-54440500D01*
X81582456Y-54403024D01*
X81772637Y-54329348D01*
X81946041Y-54221981D01*
X82096764Y-54084579D01*
X82219673Y-53921821D01*
X82310582Y-53739250D01*
X82366397Y-53543083D01*
X82385215Y-53340000D01*
X82366397Y-53136917D01*
X82310582Y-52940750D01*
X82219673Y-52758179D01*
X82096764Y-52595421D01*
X81946041Y-52458019D01*
X81772637Y-52350652D01*
X81582456Y-52276976D01*
X81582455Y-52276975D01*
X81582453Y-52276975D01*
X81381976Y-52239500D01*
X81178024Y-52239500D01*
X80977546Y-52276975D01*
X80907632Y-52304059D01*
X80787363Y-52350652D01*
X80682677Y-52415471D01*
X80613959Y-52458019D01*
X80463237Y-52595420D01*
X80340328Y-52758177D01*
X80340323Y-52758186D01*
X80268898Y-52901628D01*
X80249418Y-52940750D01*
X80193603Y-53136917D01*
X80174785Y-53340000D01*
X79840500Y-53340000D01*
X79840500Y-52465326D01*
X79825966Y-52392260D01*
X79777218Y-52319302D01*
X79770602Y-52309400D01*
X79770599Y-52309397D01*
X79687742Y-52254035D01*
X79687740Y-52254034D01*
X79687737Y-52254033D01*
X79687736Y-52254033D01*
X79614684Y-52239501D01*
X79614674Y-52239500D01*
X77865326Y-52239500D01*
X77865325Y-52239500D01*
X77865315Y-52239501D01*
X77792263Y-52254033D01*
X77792257Y-52254035D01*
X77709400Y-52309397D01*
X77709397Y-52309400D01*
X77654035Y-52392257D01*
X77654033Y-52392263D01*
X77639501Y-52465315D01*
X77639500Y-52465327D01*
X77639500Y-54214672D01*
X72993379Y-54214672D01*
X72985165Y-54157543D01*
X72963286Y-54109635D01*
X72925377Y-54026627D01*
X72831128Y-53917857D01*
X72831127Y-53917856D01*
X72831126Y-53917855D01*
X72710057Y-53840049D01*
X72710054Y-53840047D01*
X72710053Y-53840047D01*
X72710050Y-53840046D01*
X72571964Y-53799500D01*
X72571961Y-53799500D01*
X72428039Y-53799500D01*
X72428035Y-53799500D01*
X72289949Y-53840046D01*
X72289942Y-53840049D01*
X72168873Y-53917855D01*
X72074622Y-54026628D01*
X72014834Y-54157543D01*
X71994353Y-54299997D01*
X71994353Y-54300002D01*
X69215500Y-54300002D01*
X69215500Y-51219500D01*
X69234407Y-51161309D01*
X69283907Y-51125345D01*
X69314500Y-51120500D01*
X89641604Y-51120500D01*
X89699795Y-51139407D01*
G37*
%TD.AperFunction*%
%TD*%
M02*
