%TF.GenerationSoftware,KiCad,Pcbnew,7.0.7*%
%TF.CreationDate,2024-01-01T23:26:11-08:00*%
%TF.ProjectId,Curly_Mini_v0,4375726c-795f-44d6-996e-695f76302e6b,rev?*%
%TF.SameCoordinates,Original*%
%TF.FileFunction,Soldermask,Top*%
%TF.FilePolarity,Negative*%
%FSLAX46Y46*%
G04 Gerber Fmt 4.6, Leading zero omitted, Abs format (unit mm)*
G04 Created by KiCad (PCBNEW 7.0.7) date 2024-01-01 23:26:11*
%MOMM*%
%LPD*%
G01*
G04 APERTURE LIST*
G04 Aperture macros list*
%AMRoundRect*
0 Rectangle with rounded corners*
0 $1 Rounding radius*
0 $2 $3 $4 $5 $6 $7 $8 $9 X,Y pos of 4 corners*
0 Add a 4 corners polygon primitive as box body*
4,1,4,$2,$3,$4,$5,$6,$7,$8,$9,$2,$3,0*
0 Add four circle primitives for the rounded corners*
1,1,$1+$1,$2,$3*
1,1,$1+$1,$4,$5*
1,1,$1+$1,$6,$7*
1,1,$1+$1,$8,$9*
0 Add four rect primitives between the rounded corners*
20,1,$1+$1,$2,$3,$4,$5,0*
20,1,$1+$1,$4,$5,$6,$7,0*
20,1,$1+$1,$6,$7,$8,$9,0*
20,1,$1+$1,$8,$9,$2,$3,0*%
%AMRotRect*
0 Rectangle, with rotation*
0 The origin of the aperture is its center*
0 $1 length*
0 $2 width*
0 $3 Rotation angle, in degrees counterclockwise*
0 Add horizontal line*
21,1,$1,$2,0,0,$3*%
%AMFreePoly0*
4,1,29,0.193136,2.094410,0.334892,2.027705,0.455605,1.927842,0.547692,1.801096,0.605364,1.655431,0.625000,1.500000,0.625000,-1.500000,0.620072,-1.578333,0.581110,-1.730078,0.505636,-1.867366,0.398390,-1.981571,0.266112,-2.065517,0.117113,-2.113930,-0.039244,-2.123767,-0.193136,-2.094410,-0.334892,-2.027705,-0.455605,-1.927842,-0.547692,-1.801096,-0.605364,-1.655431,-0.625000,-1.500000,
-0.625000,1.500000,-0.620072,1.578333,-0.581110,1.730078,-0.505636,1.867366,-0.398390,1.981571,-0.266112,2.065517,-0.117113,2.113930,0.039244,2.123767,0.193136,2.094410,0.193136,2.094410,$1*%
%AMFreePoly1*
4,1,31,0.130236,2.238606,0.297060,2.188662,0.447869,2.101592,0.574533,1.982091,0.670224,1.836599,0.729784,1.672962,0.750000,1.500000,0.750000,-1.500000,0.744929,-1.587070,0.704769,-1.756515,0.626616,-1.912132,0.514681,-2.045530,0.375000,-2.149519,0.215102,-2.218492,0.043609,-2.248731,-0.130236,-2.238606,-0.297060,-2.188662,-0.447869,-2.101592,-0.574533,-1.982091,-0.670224,-1.836599,
-0.729784,-1.672962,-0.750000,-1.500000,-0.750000,1.500000,-0.744929,1.587070,-0.704769,1.756515,-0.626616,1.912132,-0.514681,2.045530,-0.375000,2.149519,-0.215102,2.218492,-0.043609,2.248731,0.130236,2.238606,0.130236,2.238606,$1*%
G04 Aperture macros list end*
%ADD10FreePoly0,180.000000*%
%ADD11FreePoly1,180.000000*%
%ADD12RoundRect,0.150000X0.512500X0.150000X-0.512500X0.150000X-0.512500X-0.150000X0.512500X-0.150000X0*%
%ADD13RoundRect,0.250000X0.350000X0.450000X-0.350000X0.450000X-0.350000X-0.450000X0.350000X-0.450000X0*%
%ADD14RoundRect,0.135000X-0.135000X-0.185000X0.135000X-0.185000X0.135000X0.185000X-0.135000X0.185000X0*%
%ADD15RoundRect,0.218750X0.218750X0.256250X-0.218750X0.256250X-0.218750X-0.256250X0.218750X-0.256250X0*%
%ADD16R,1.700000X1.700000*%
%ADD17O,1.700000X1.700000*%
%ADD18RoundRect,0.100000X0.100000X-0.637500X0.100000X0.637500X-0.100000X0.637500X-0.100000X-0.637500X0*%
%ADD19RoundRect,0.140000X-0.170000X0.140000X-0.170000X-0.140000X0.170000X-0.140000X0.170000X0.140000X0*%
%ADD20RoundRect,0.140000X0.140000X0.170000X-0.140000X0.170000X-0.140000X-0.170000X0.140000X-0.170000X0*%
%ADD21RoundRect,0.140000X-0.140000X-0.170000X0.140000X-0.170000X0.140000X0.170000X-0.140000X0.170000X0*%
%ADD22RoundRect,0.150000X-0.512500X-0.150000X0.512500X-0.150000X0.512500X0.150000X-0.512500X0.150000X0*%
%ADD23RoundRect,0.140000X0.170000X-0.140000X0.170000X0.140000X-0.170000X0.140000X-0.170000X-0.140000X0*%
%ADD24RoundRect,0.225000X0.017678X-0.335876X0.335876X-0.017678X-0.017678X0.335876X-0.335876X0.017678X0*%
%ADD25RoundRect,0.225000X0.250000X-0.225000X0.250000X0.225000X-0.250000X0.225000X-0.250000X-0.225000X0*%
%ADD26RoundRect,0.140000X0.021213X-0.219203X0.219203X-0.021213X-0.021213X0.219203X-0.219203X0.021213X0*%
%ADD27RoundRect,0.102000X0.150000X-0.300000X0.150000X0.300000X-0.150000X0.300000X-0.150000X-0.300000X0*%
%ADD28RoundRect,0.102000X0.850000X-0.150000X0.850000X0.150000X-0.850000X0.150000X-0.850000X-0.150000X0*%
%ADD29RotRect,1.400000X1.200000X45.000000*%
%ADD30RoundRect,0.135000X0.135000X0.185000X-0.135000X0.185000X-0.135000X-0.185000X0.135000X-0.185000X0*%
%ADD31RoundRect,0.250000X0.350000X0.650000X-0.350000X0.650000X-0.350000X-0.650000X0.350000X-0.650000X0*%
%ADD32RoundRect,0.150000X0.150000X0.625000X-0.150000X0.625000X-0.150000X-0.625000X0.150000X-0.625000X0*%
%ADD33RoundRect,0.050000X0.050000X-0.387500X0.050000X0.387500X-0.050000X0.387500X-0.050000X-0.387500X0*%
%ADD34RoundRect,0.050000X0.387500X-0.050000X0.387500X0.050000X-0.387500X0.050000X-0.387500X-0.050000X0*%
%ADD35R,3.200000X3.200000*%
%ADD36RoundRect,0.135000X-0.185000X0.135000X-0.185000X-0.135000X0.185000X-0.135000X0.185000X0.135000X0*%
%ADD37RoundRect,0.135000X-0.035355X0.226274X-0.226274X0.035355X0.035355X-0.226274X0.226274X-0.035355X0*%
%ADD38RoundRect,0.115200X0.151800X-0.506800X0.151800X0.506800X-0.151800X0.506800X-0.151800X-0.506800X0*%
%ADD39RoundRect,0.115200X0.506800X0.151800X-0.506800X0.151800X-0.506800X-0.151800X0.506800X-0.151800X0*%
%ADD40RoundRect,0.102000X1.850000X-1.850000X1.850000X1.850000X-1.850000X1.850000X-1.850000X-1.850000X0*%
G04 APERTURE END LIST*
D10*
%TO.C,J26*%
X112675000Y-69600000D03*
X110925000Y-69600000D03*
D11*
X108925000Y-69600000D03*
X106425000Y-69600000D03*
X103925000Y-69600000D03*
D10*
X101925000Y-69600000D03*
X100175000Y-69600000D03*
X98425000Y-69600000D03*
X96675000Y-69600000D03*
X94925000Y-69600000D03*
X93175000Y-69600000D03*
X91425000Y-69600000D03*
X89675000Y-69600000D03*
X87925000Y-69600000D03*
X86175000Y-69600000D03*
X84425000Y-69600000D03*
X82675000Y-69600000D03*
X80925000Y-69600000D03*
X79175000Y-69600000D03*
X77425000Y-69600000D03*
X75675000Y-69600000D03*
X73925000Y-69600000D03*
X72175000Y-69600000D03*
X70425000Y-69600000D03*
%TD*%
D12*
%TO.C,U5*%
X107637500Y-66250000D03*
X107637500Y-64350000D03*
X105362500Y-65300000D03*
%TD*%
D13*
%TO.C,R6*%
X110600000Y-66100000D03*
X112600000Y-66100000D03*
%TD*%
D14*
%TO.C,R5*%
X94000000Y-52000000D03*
X95020000Y-52000000D03*
%TD*%
D15*
%TO.C,D1*%
X92800000Y-52175000D03*
X91225000Y-52175000D03*
%TD*%
D16*
%TO.C,J8*%
X78740000Y-53340000D03*
D17*
X81280000Y-53340000D03*
X83820000Y-53340000D03*
%TD*%
D18*
%TO.C,U6*%
X73225000Y-63062500D03*
X73875000Y-63062500D03*
X74525000Y-63062500D03*
X75175000Y-63062500D03*
X75825000Y-63062500D03*
X76475000Y-63062500D03*
X77125000Y-63062500D03*
X77775000Y-63062500D03*
X77775000Y-57337500D03*
X77125000Y-57337500D03*
X76475000Y-57337500D03*
X75825000Y-57337500D03*
X75175000Y-57337500D03*
X74525000Y-57337500D03*
X73875000Y-57337500D03*
X73225000Y-57337500D03*
%TD*%
D19*
%TO.C,C34*%
X71200000Y-56770000D03*
X71200000Y-57730000D03*
%TD*%
%TO.C,C33*%
X72200000Y-56770000D03*
X72200000Y-57730000D03*
%TD*%
%TO.C,C32*%
X72200000Y-62670000D03*
X72200000Y-63630000D03*
%TD*%
D20*
%TO.C,C31*%
X76355000Y-65625000D03*
X75395000Y-65625000D03*
%TD*%
D21*
%TO.C,C30*%
X73045000Y-64600000D03*
X74005000Y-64600000D03*
%TD*%
%TO.C,C12*%
X74945000Y-64600000D03*
X75905000Y-64600000D03*
%TD*%
D22*
%TO.C,U3*%
X101300000Y-53550000D03*
X99025000Y-54500000D03*
X99025000Y-52600000D03*
%TD*%
D21*
%TO.C,C29*%
X105400000Y-52850000D03*
X106360000Y-52850000D03*
%TD*%
D19*
%TO.C,C27*%
X111750000Y-58345000D03*
X111750000Y-59305000D03*
%TD*%
D20*
%TO.C,C26*%
X106655000Y-61465810D03*
X105695000Y-61465810D03*
%TD*%
D21*
%TO.C,C25*%
X105400000Y-51850000D03*
X106360000Y-51850000D03*
%TD*%
D23*
%TO.C,C24*%
X103900000Y-65230000D03*
X103900000Y-64270000D03*
%TD*%
D19*
%TO.C,C23*%
X102750000Y-54530000D03*
X102750000Y-53570000D03*
%TD*%
D24*
%TO.C,C22*%
X109526992Y-63348008D03*
X110623008Y-62251992D03*
%TD*%
D23*
%TO.C,C21*%
X96100000Y-54555000D03*
X96100000Y-53595000D03*
%TD*%
D25*
%TO.C,C20*%
X97350000Y-54350000D03*
X97350000Y-52800000D03*
%TD*%
D20*
%TO.C,C1*%
X79930000Y-60725000D03*
X78970000Y-60725000D03*
%TD*%
D26*
%TO.C,C8*%
X98999965Y-61350035D03*
X99678787Y-60671213D03*
%TD*%
D20*
%TO.C,C15*%
X89905000Y-51725000D03*
X88945000Y-51725000D03*
%TD*%
D27*
%TO.C,U4*%
X79950000Y-64400000D03*
X80450000Y-64400000D03*
X80950000Y-64400000D03*
X81450000Y-64400000D03*
X81450000Y-61900000D03*
X80950000Y-61900000D03*
X80450000Y-61900000D03*
X79950000Y-61900000D03*
D28*
X80700000Y-63150000D03*
%TD*%
D20*
%TO.C,C3*%
X82330000Y-55750000D03*
X81370000Y-55750000D03*
%TD*%
D21*
%TO.C,C4*%
X86110000Y-51895000D03*
X87070000Y-51895000D03*
%TD*%
D20*
%TO.C,C9*%
X82680000Y-59450000D03*
X81720000Y-59450000D03*
%TD*%
D29*
%TO.C,Y2*%
X98312599Y-59939482D03*
X99868234Y-58383847D03*
X98666153Y-57181766D03*
X97110518Y-58737401D03*
%TD*%
D19*
%TO.C,C19*%
X84150000Y-64020000D03*
X84150000Y-64980000D03*
%TD*%
D30*
%TO.C,R1*%
X92240000Y-54500000D03*
X93260000Y-54500000D03*
%TD*%
D19*
%TO.C,C17*%
X85125000Y-64020000D03*
X85125000Y-64980000D03*
%TD*%
D23*
%TO.C,C11*%
X93775000Y-57605000D03*
X93775000Y-56645000D03*
%TD*%
D19*
%TO.C,C18*%
X89050000Y-64590000D03*
X89050000Y-65550000D03*
%TD*%
D23*
%TO.C,C6*%
X94800000Y-57180000D03*
X94800000Y-56220000D03*
%TD*%
D31*
%TO.C,J1*%
X71150000Y-54925000D03*
X75750000Y-54925000D03*
D32*
X72450000Y-52400000D03*
X73450000Y-52400000D03*
X74450000Y-52400000D03*
%TD*%
D23*
%TO.C,C10*%
X92750000Y-58555000D03*
X92750000Y-57595000D03*
%TD*%
D19*
%TO.C,C13*%
X79750000Y-58820000D03*
X79750000Y-59780000D03*
%TD*%
D33*
%TO.C,U1*%
X85450000Y-62850000D03*
X85850000Y-62850000D03*
X86250000Y-62850000D03*
X86650000Y-62850000D03*
X87050000Y-62850000D03*
X87450000Y-62850000D03*
X87850000Y-62850000D03*
X88250000Y-62850000D03*
X88650000Y-62850000D03*
X89050000Y-62850000D03*
X89450000Y-62850000D03*
X89850000Y-62850000D03*
X90250000Y-62850000D03*
X90650000Y-62850000D03*
D34*
X91487500Y-62012500D03*
X91487500Y-61612500D03*
X91487500Y-61212500D03*
X91487500Y-60812500D03*
X91487500Y-60412500D03*
X91487500Y-60012500D03*
X91487500Y-59612500D03*
X91487500Y-59212500D03*
X91487500Y-58812500D03*
X91487500Y-58412500D03*
X91487500Y-58012500D03*
X91487500Y-57612500D03*
X91487500Y-57212500D03*
X91487500Y-56812500D03*
D33*
X90650000Y-55975000D03*
X90250000Y-55975000D03*
X89850000Y-55975000D03*
X89450000Y-55975000D03*
X89050000Y-55975000D03*
X88650000Y-55975000D03*
X88250000Y-55975000D03*
X87850000Y-55975000D03*
X87450000Y-55975000D03*
X87050000Y-55975000D03*
X86650000Y-55975000D03*
X86250000Y-55975000D03*
X85850000Y-55975000D03*
X85450000Y-55975000D03*
D34*
X84612500Y-56812500D03*
X84612500Y-57212500D03*
X84612500Y-57612500D03*
X84612500Y-58012500D03*
X84612500Y-58412500D03*
X84612500Y-58812500D03*
X84612500Y-59212500D03*
X84612500Y-59612500D03*
X84612500Y-60012500D03*
X84612500Y-60412500D03*
X84612500Y-60812500D03*
X84612500Y-61212500D03*
X84612500Y-61612500D03*
X84612500Y-62012500D03*
D35*
X88050000Y-59412500D03*
%TD*%
D23*
%TO.C,C16*%
X89125000Y-52665000D03*
X89125000Y-53625000D03*
%TD*%
D36*
%TO.C,R4*%
X80250000Y-55740000D03*
X80250000Y-56760000D03*
%TD*%
D37*
%TO.C,R2*%
X96450000Y-57300000D03*
X95728752Y-58021248D03*
%TD*%
D20*
%TO.C,C2*%
X82330000Y-56770000D03*
X81370000Y-56770000D03*
%TD*%
D19*
%TO.C,C14*%
X80740000Y-58820000D03*
X80740000Y-59780000D03*
%TD*%
D23*
%TO.C,C5*%
X83350000Y-56680000D03*
X83350000Y-55720000D03*
%TD*%
D36*
%TO.C,R3*%
X79250000Y-55740000D03*
X79250000Y-56760000D03*
%TD*%
D15*
%TO.C,FB1*%
X87925000Y-53150000D03*
X86350000Y-53150000D03*
%TD*%
D26*
%TO.C,C7*%
X97310554Y-56439446D03*
X97989376Y-55760624D03*
%TD*%
D38*
%TO.C,U2*%
X104925000Y-59990810D03*
X105575000Y-59990810D03*
X106225000Y-59990810D03*
X106875000Y-59990810D03*
X107525000Y-59990810D03*
X108175000Y-59990810D03*
X108825000Y-59990810D03*
D39*
X109710000Y-59105810D03*
X109710000Y-58455810D03*
X109710000Y-57805810D03*
X109710000Y-57155810D03*
X109710000Y-56505810D03*
X109710000Y-55855810D03*
X109710000Y-55205810D03*
D38*
X108825000Y-54320810D03*
X108175000Y-54320810D03*
X107525000Y-54320810D03*
X106875000Y-54320810D03*
X106225000Y-54320810D03*
X105575000Y-54320810D03*
X104925000Y-54320810D03*
D39*
X104040000Y-55205810D03*
X104040000Y-55855810D03*
X104040000Y-56505810D03*
X104040000Y-57155810D03*
X104040000Y-57805810D03*
X104040000Y-58455810D03*
X104040000Y-59105810D03*
D40*
X106875000Y-57155810D03*
%TD*%
M02*
