%TF.GenerationSoftware,KiCad,Pcbnew,7.0.7*%
%TF.CreationDate,2024-01-24T12:14:41-08:00*%
%TF.ProjectId,Waffle_Mini_v0,57616666-6c65-45f4-9d69-6e695f76302e,rev?*%
%TF.SameCoordinates,Original*%
%TF.FileFunction,Copper,L4,Bot*%
%TF.FilePolarity,Positive*%
%FSLAX46Y46*%
G04 Gerber Fmt 4.6, Leading zero omitted, Abs format (unit mm)*
G04 Created by KiCad (PCBNEW 7.0.7) date 2024-01-24 12:14:41*
%MOMM*%
%LPD*%
G01*
G04 APERTURE LIST*
G04 Aperture macros list*
%AMRoundRect*
0 Rectangle with rounded corners*
0 $1 Rounding radius*
0 $2 $3 $4 $5 $6 $7 $8 $9 X,Y pos of 4 corners*
0 Add a 4 corners polygon primitive as box body*
4,1,4,$2,$3,$4,$5,$6,$7,$8,$9,$2,$3,0*
0 Add four circle primitives for the rounded corners*
1,1,$1+$1,$2,$3*
1,1,$1+$1,$4,$5*
1,1,$1+$1,$6,$7*
1,1,$1+$1,$8,$9*
0 Add four rect primitives between the rounded corners*
20,1,$1+$1,$2,$3,$4,$5,0*
20,1,$1+$1,$4,$5,$6,$7,0*
20,1,$1+$1,$6,$7,$8,$9,0*
20,1,$1+$1,$8,$9,$2,$3,0*%
%AMFreePoly0*
4,1,19,0.850000,-2.000000,0.845017,-2.091901,0.805505,-2.271406,0.728329,-2.438221,0.617096,-2.584545,0.477009,-2.703536,0.314617,-2.789630,0.137515,-2.838803,-0.046018,-2.848753,-0.227399,-2.819017,-0.398147,-2.750985,-0.550278,-2.647838,-0.676679,-2.514398,-0.771439,-2.356906,-0.830127,-2.182725,-0.850000,-2.000000,-0.850000,0.850000,0.850000,0.850000,0.850000,-2.000000,0.850000,-2.000000,
$1*%
G04 Aperture macros list end*
%TA.AperFunction,CastellatedPad*%
%ADD10FreePoly0,0.000000*%
%TD*%
%TA.AperFunction,CastellatedPad*%
%ADD11RoundRect,0.425000X-0.425000X-0.425000X0.425000X-0.425000X0.425000X0.425000X-0.425000X0.425000X0*%
%TD*%
%TA.AperFunction,CastellatedPad*%
%ADD12FreePoly0,180.000000*%
%TD*%
%TA.AperFunction,CastellatedPad*%
%ADD13RoundRect,0.425000X0.425000X0.425000X-0.425000X0.425000X-0.425000X-0.425000X0.425000X-0.425000X0*%
%TD*%
%TA.AperFunction,ViaPad*%
%ADD14C,0.800000*%
%TD*%
%TA.AperFunction,ViaPad*%
%ADD15C,0.500000*%
%TD*%
%TA.AperFunction,Conductor*%
%ADD16C,0.350000*%
%TD*%
%TA.AperFunction,Conductor*%
%ADD17C,0.250000*%
%TD*%
G04 APERTURE END LIST*
D10*
%TO.P,J15,1,Pin_1*%
%TO.N,GND*%
X152400000Y-101600000D03*
D11*
X152400000Y-104140000D03*
%TD*%
D12*
%TO.P,J7,1,Pin_1*%
%TO.N,Net-(J7-Pin_1)*%
X144780000Y-88900000D03*
D13*
X144780000Y-86360000D03*
%TD*%
D10*
%TO.P,J25,1,Pin_1*%
%TO.N,+3.3V*%
X134620000Y-101600000D03*
D11*
X134620000Y-104140000D03*
%TD*%
D12*
%TO.P,J21,1,Pin_1*%
%TO.N,Net-(J21-Pin_1)*%
X165100000Y-88900000D03*
D13*
X165100000Y-86360000D03*
%TD*%
D12*
%TO.P,J9,1,Pin_1*%
%TO.N,Net-(J9-Pin_1)*%
X139700000Y-88900000D03*
D13*
X139700000Y-86360000D03*
%TD*%
D10*
%TO.P,J18,1,Pin_1*%
%TO.N,/CANL*%
X160020000Y-101600000D03*
D11*
X160020000Y-104140000D03*
%TD*%
D12*
%TO.P,J23,1,Pin_1*%
%TO.N,Net-(J23-Pin_1)*%
X160020000Y-88900000D03*
D13*
X160020000Y-86360000D03*
%TD*%
D10*
%TO.P,J12,1,Pin_1*%
%TO.N,Net-(J12-Pin_1)*%
X144780000Y-101600000D03*
D11*
X144780000Y-104140000D03*
%TD*%
D10*
%TO.P,J27,1,Pin_1*%
%TO.N,GND*%
X137160000Y-101600000D03*
D11*
X137160000Y-104140000D03*
%TD*%
D12*
%TO.P,J4,1,Pin_1*%
%TO.N,Net-(J4-Pin_1)*%
X152400000Y-88900000D03*
D13*
X152400000Y-86360000D03*
%TD*%
D12*
%TO.P,J29,1,Pin_1*%
%TO.N,GND*%
X167640000Y-88900000D03*
D13*
X167640000Y-86360000D03*
%TD*%
D12*
%TO.P,J6,1,Pin_1*%
%TO.N,Net-(J6-Pin_1)*%
X147320000Y-88900000D03*
D13*
X147320000Y-86360000D03*
%TD*%
D12*
%TO.P,J22,1,Pin_1*%
%TO.N,Net-(J22-Pin_1)*%
X162560000Y-88900000D03*
D13*
X162560000Y-86360000D03*
%TD*%
D12*
%TO.P,J26,1,Pin_1*%
%TO.N,GND*%
X137160000Y-88900000D03*
D13*
X137160000Y-86360000D03*
%TD*%
D12*
%TO.P,J8,1,Pin_1*%
%TO.N,Net-(J8-Pin_1)*%
X142240000Y-88900000D03*
D13*
X142240000Y-86360000D03*
%TD*%
D12*
%TO.P,J2,1,Pin_1*%
%TO.N,Net-(J2-Pin_1)*%
X157480000Y-88900000D03*
D13*
X157480000Y-86360000D03*
%TD*%
D10*
%TO.P,J13,1,Pin_1*%
%TO.N,Net-(J13-Pin_1)*%
X147320000Y-101600000D03*
D11*
X147320000Y-104140000D03*
%TD*%
D12*
%TO.P,J24,1,Pin_1*%
%TO.N,+VSW*%
X134620000Y-88900000D03*
D13*
X134620000Y-86360000D03*
%TD*%
D10*
%TO.P,J11,1,Pin_1*%
%TO.N,Net-(J11-Pin_1)*%
X142240000Y-101600000D03*
D11*
X142240000Y-104140000D03*
%TD*%
D10*
%TO.P,J28,1,Pin_1*%
%TO.N,GND*%
X167640000Y-101600000D03*
D11*
X167640000Y-104140000D03*
%TD*%
D10*
%TO.P,J14,1,Pin_1*%
%TO.N,Net-(J14-Pin_1)*%
X149860000Y-101600000D03*
D11*
X149860000Y-104140000D03*
%TD*%
D12*
%TO.P,J5,1,Pin_1*%
%TO.N,Net-(J5-Pin_1)*%
X149860000Y-88900000D03*
D13*
X149860000Y-86360000D03*
%TD*%
D12*
%TO.P,J3,1,Pin_1*%
%TO.N,Net-(J3-Pin_1)*%
X154940000Y-88900000D03*
D13*
X154940000Y-86360000D03*
%TD*%
D10*
%TO.P,J16,1,Pin_1*%
%TO.N,GND*%
X154940000Y-101600000D03*
D11*
X154940000Y-104140000D03*
%TD*%
D10*
%TO.P,J20,1,Pin_1*%
%TO.N,Net-(J20-Pin_1)*%
X165100000Y-101600000D03*
D11*
X165100000Y-104140000D03*
%TD*%
D10*
%TO.P,J17,1,Pin_1*%
%TO.N,GND*%
X157480000Y-101600000D03*
D11*
X157480000Y-104140000D03*
%TD*%
D10*
%TO.P,J19,1,Pin_1*%
%TO.N,/CANH*%
X162560000Y-101600000D03*
D11*
X162560000Y-104140000D03*
%TD*%
D10*
%TO.P,J10,1,Pin_1*%
%TO.N,Net-(J10-Pin_1)*%
X139700000Y-101600000D03*
D11*
X139700000Y-104140000D03*
%TD*%
D14*
%TO.N,GND*%
X136800000Y-98200000D03*
X140000000Y-96950000D03*
D15*
X149700000Y-99875000D03*
D14*
X138300000Y-99525000D03*
X152300000Y-94260000D03*
X137500000Y-92100000D03*
X137100000Y-95500000D03*
X146200000Y-92600000D03*
X157056250Y-99500000D03*
X155306250Y-99500000D03*
X153200000Y-95160000D03*
D15*
X162900000Y-93300000D03*
D14*
X151300000Y-93360000D03*
X153200000Y-93360000D03*
X151300000Y-95160000D03*
D15*
X164100000Y-98925000D03*
X153050000Y-99550000D03*
D14*
%TO.N,+3.3V*%
X134800000Y-98200000D03*
X138300000Y-97925000D03*
X134800000Y-96600000D03*
D15*
X149700000Y-98325000D03*
D14*
X144500000Y-97425000D03*
D15*
X161300000Y-93300000D03*
D14*
X140195000Y-93655000D03*
X155306250Y-98100000D03*
X148100000Y-92600000D03*
X157900000Y-91550000D03*
X144500000Y-92725000D03*
%TO.N,/JTAG_TMS*%
X146400000Y-94300000D03*
D15*
X149100000Y-97262000D03*
%TO.N,/JTAG_TCK*%
X148006233Y-96706233D03*
D14*
X145700000Y-95100000D03*
%TO.N,/XRSn*%
X154950000Y-91450000D03*
D15*
X138775000Y-94950000D03*
X141975000Y-91450000D03*
%TO.N,Net-(J20-Pin_1)*%
X159100000Y-94300000D03*
%TO.N,/CANTX*%
X158900000Y-95700000D03*
X163100000Y-95000000D03*
%TD*%
D16*
%TO.N,/JTAG_TMS*%
X146800000Y-94300000D02*
X146400000Y-94300000D01*
X149100000Y-96600000D02*
X146800000Y-94300000D01*
X149100000Y-97262000D02*
X149100000Y-96600000D01*
%TO.N,/JTAG_TCK*%
X146400000Y-95100000D02*
X145700000Y-95100000D01*
D17*
X145700000Y-95100000D02*
X145800000Y-95100000D01*
D16*
X148006233Y-96706233D02*
X146400000Y-95100000D01*
%TO.N,/XRSn*%
X138775000Y-94950000D02*
X138775000Y-92900000D01*
X140225000Y-91450000D02*
X141975000Y-91450000D01*
X141975000Y-91450000D02*
X154950000Y-91450000D01*
X138775000Y-92900000D02*
X140225000Y-91450000D01*
D17*
%TO.N,Net-(J20-Pin_1)*%
X165100000Y-98600000D02*
X165100000Y-101600000D01*
X160900000Y-96100000D02*
X162600000Y-96100000D01*
X159100000Y-94300000D02*
X160900000Y-96100000D01*
X162600000Y-96100000D02*
X165100000Y-98600000D01*
%TD*%
M02*
