%TF.GenerationSoftware,KiCad,Pcbnew,7.0.7*%
%TF.CreationDate,2024-01-24T12:14:43-08:00*%
%TF.ProjectId,Waffle_Mini_v0,57616666-6c65-45f4-9d69-6e695f76302e,rev?*%
%TF.SameCoordinates,Original*%
%TF.FileFunction,Soldermask,Bot*%
%TF.FilePolarity,Negative*%
%FSLAX46Y46*%
G04 Gerber Fmt 4.6, Leading zero omitted, Abs format (unit mm)*
G04 Created by KiCad (PCBNEW 7.0.7) date 2024-01-24 12:14:43*
%MOMM*%
%LPD*%
G01*
G04 APERTURE LIST*
G04 Aperture macros list*
%AMRoundRect*
0 Rectangle with rounded corners*
0 $1 Rounding radius*
0 $2 $3 $4 $5 $6 $7 $8 $9 X,Y pos of 4 corners*
0 Add a 4 corners polygon primitive as box body*
4,1,4,$2,$3,$4,$5,$6,$7,$8,$9,$2,$3,0*
0 Add four circle primitives for the rounded corners*
1,1,$1+$1,$2,$3*
1,1,$1+$1,$4,$5*
1,1,$1+$1,$6,$7*
1,1,$1+$1,$8,$9*
0 Add four rect primitives between the rounded corners*
20,1,$1+$1,$2,$3,$4,$5,0*
20,1,$1+$1,$4,$5,$6,$7,0*
20,1,$1+$1,$6,$7,$8,$9,0*
20,1,$1+$1,$8,$9,$2,$3,0*%
%AMFreePoly0*
4,1,19,0.850000,-2.000000,0.845017,-2.091901,0.805505,-2.271406,0.728329,-2.438221,0.617096,-2.584545,0.477009,-2.703536,0.314617,-2.789630,0.137515,-2.838803,-0.046018,-2.848753,-0.227399,-2.819017,-0.398147,-2.750985,-0.550278,-2.647838,-0.676679,-2.514398,-0.771439,-2.356906,-0.830127,-2.182725,-0.850000,-2.000000,-0.850000,0.850000,0.850000,0.850000,0.850000,-2.000000,0.850000,-2.000000,
$1*%
G04 Aperture macros list end*
%ADD10FreePoly0,0.000000*%
%ADD11RoundRect,0.425000X-0.425000X-0.425000X0.425000X-0.425000X0.425000X0.425000X-0.425000X0.425000X0*%
%ADD12FreePoly0,180.000000*%
%ADD13RoundRect,0.425000X0.425000X0.425000X-0.425000X0.425000X-0.425000X-0.425000X0.425000X-0.425000X0*%
%ADD14C,0.990600*%
G04 APERTURE END LIST*
D10*
%TO.C,J15*%
X152400000Y-101600000D03*
D11*
X152400000Y-104140000D03*
%TD*%
D12*
%TO.C,J7*%
X144780000Y-88900000D03*
D13*
X144780000Y-86360000D03*
%TD*%
D10*
%TO.C,J25*%
X134620000Y-101600000D03*
D11*
X134620000Y-104140000D03*
%TD*%
D12*
%TO.C,J21*%
X165100000Y-88900000D03*
D13*
X165100000Y-86360000D03*
%TD*%
D12*
%TO.C,J9*%
X139700000Y-88900000D03*
D13*
X139700000Y-86360000D03*
%TD*%
D10*
%TO.C,J18*%
X160020000Y-101600000D03*
D11*
X160020000Y-104140000D03*
%TD*%
D12*
%TO.C,J23*%
X160020000Y-88900000D03*
D13*
X160020000Y-86360000D03*
%TD*%
D10*
%TO.C,J12*%
X144780000Y-101600000D03*
D11*
X144780000Y-104140000D03*
%TD*%
D10*
%TO.C,J27*%
X137160000Y-101600000D03*
D11*
X137160000Y-104140000D03*
%TD*%
D12*
%TO.C,J4*%
X152400000Y-88900000D03*
D13*
X152400000Y-86360000D03*
%TD*%
D12*
%TO.C,J29*%
X167640000Y-88900000D03*
D13*
X167640000Y-86360000D03*
%TD*%
D12*
%TO.C,J6*%
X147320000Y-88900000D03*
D13*
X147320000Y-86360000D03*
%TD*%
D12*
%TO.C,J22*%
X162560000Y-88900000D03*
D13*
X162560000Y-86360000D03*
%TD*%
D12*
%TO.C,J26*%
X137160000Y-88900000D03*
D13*
X137160000Y-86360000D03*
%TD*%
D12*
%TO.C,J8*%
X142240000Y-88900000D03*
D13*
X142240000Y-86360000D03*
%TD*%
D12*
%TO.C,J2*%
X157480000Y-88900000D03*
D13*
X157480000Y-86360000D03*
%TD*%
D10*
%TO.C,J13*%
X147320000Y-101600000D03*
D11*
X147320000Y-104140000D03*
%TD*%
D12*
%TO.C,J24*%
X134620000Y-88900000D03*
D13*
X134620000Y-86360000D03*
%TD*%
D14*
%TO.C,J1*%
X141605000Y-93160000D03*
X142621000Y-98240000D03*
X140589000Y-98240000D03*
%TD*%
D10*
%TO.C,J11*%
X142240000Y-101600000D03*
D11*
X142240000Y-104140000D03*
%TD*%
D10*
%TO.C,J28*%
X167640000Y-101600000D03*
D11*
X167640000Y-104140000D03*
%TD*%
D10*
%TO.C,J14*%
X149860000Y-101600000D03*
D11*
X149860000Y-104140000D03*
%TD*%
D12*
%TO.C,J5*%
X149860000Y-88900000D03*
D13*
X149860000Y-86360000D03*
%TD*%
D12*
%TO.C,J3*%
X154940000Y-88900000D03*
D13*
X154940000Y-86360000D03*
%TD*%
D10*
%TO.C,J16*%
X154940000Y-101600000D03*
D11*
X154940000Y-104140000D03*
%TD*%
D10*
%TO.C,J20*%
X165100000Y-101600000D03*
D11*
X165100000Y-104140000D03*
%TD*%
D10*
%TO.C,J17*%
X157480000Y-101600000D03*
D11*
X157480000Y-104140000D03*
%TD*%
D10*
%TO.C,J19*%
X162560000Y-101600000D03*
D11*
X162560000Y-104140000D03*
%TD*%
D10*
%TO.C,J10*%
X139700000Y-101600000D03*
D11*
X139700000Y-104140000D03*
%TD*%
M02*
