M48
; DRILL file {KiCad 7.0.7} date Wed 24 Jan 2024 12:14:35 PM PST
; FORMAT={-:-/ absolute / inch / decimal}
; #@! TF.CreationDate,2024-01-24T12:14:35-08:00
; #@! TF.GenerationSoftware,Kicad,Pcbnew,7.0.7
; #@! TF.FileFunction,Plated,1,4,PTH
FMAT,2
INCH
; #@! TA.AperFunction,Plated,PTH,ViaDrill
T1C0.0118
; #@! TA.AperFunction,Plated,PTH,ViaDrill
T2C0.0157
; #@! TA.AperFunction,Plated,PTH,ComponentDrill
T3C0.0394
%
G90
G05
T1
X5.4636Y-3.7382
X5.5896Y-3.6004
X5.827Y-3.8073
X5.8701Y-3.8292
X5.8937Y-3.8711
X5.8937Y-3.9321
X6.0256Y-3.9193
X6.2559Y-3.7677
X6.2638Y-3.7126
X6.3504Y-3.6732
X6.4134Y-3.6732
X6.4213Y-3.7402
X6.4606Y-3.8947
T2
X5.3071Y-3.8031
X5.3071Y-3.8661
X5.3858Y-3.8661
X5.3976Y-3.7598
X5.4134Y-3.626
X5.4449Y-3.8553
X5.4449Y-3.9183
X5.5118Y-3.8169
X5.5195Y-3.6872
X5.689Y-3.6506
X5.689Y-3.8356
X5.7362Y-3.7441
X5.7559Y-3.6457
X5.7638Y-3.7126
X5.8307Y-3.6457
X5.9567Y-3.6756
X5.9567Y-3.7465
X5.9961Y-3.711
X6.0315Y-3.6756
X6.0315Y-3.7465
X6.1004Y-3.6004
X6.1144Y-3.8622
X6.1144Y-3.9173
X6.1833Y-3.9173
X6.2165Y-3.6043
T3
X5.3Y-3.4
X5.3Y-3.5
X5.3Y-4.0
X5.3Y-4.1
X5.4Y-3.4
X5.4Y-3.5
X5.4Y-4.0
X5.4Y-4.1
X5.5Y-3.4
X5.5Y-3.5
X5.5Y-4.0
X5.5Y-4.1
X5.6Y-3.4
X5.6Y-3.5
X5.6Y-4.0
X5.6Y-4.1
X5.7Y-3.4
X5.7Y-3.5
X5.7Y-4.0
X5.7Y-4.1
X5.8Y-3.4
X5.8Y-3.5
X5.8Y-4.0
X5.8Y-4.1
X5.9Y-3.4
X5.9Y-3.5
X5.9Y-4.0
X5.9Y-4.1
X6.0Y-3.4
X6.0Y-3.5
X6.0Y-4.0
X6.0Y-4.1
X6.1Y-3.4
X6.1Y-3.5
X6.1Y-4.0
X6.1Y-4.1
X6.2Y-3.4
X6.2Y-3.5
X6.2Y-4.0
X6.2Y-4.1
X6.3Y-3.4
X6.3Y-3.5
X6.3Y-4.0
X6.3Y-4.1
X6.4Y-3.4
X6.4Y-3.5
X6.4Y-4.0
X6.4Y-4.1
X6.5Y-3.4
X6.5Y-3.5
X6.5Y-4.0
X6.5Y-4.1
X6.6Y-3.4
X6.6Y-3.5
X6.6Y-4.0
X6.6Y-4.1
T0
M30
