%TF.GenerationSoftware,KiCad,Pcbnew,7.0.7*%
%TF.CreationDate,2024-01-24T12:14:40-08:00*%
%TF.ProjectId,Waffle_Mini_v0,57616666-6c65-45f4-9d69-6e695f76302e,rev?*%
%TF.SameCoordinates,Original*%
%TF.FileFunction,Copper,L2,Inr*%
%TF.FilePolarity,Positive*%
%FSLAX46Y46*%
G04 Gerber Fmt 4.6, Leading zero omitted, Abs format (unit mm)*
G04 Created by KiCad (PCBNEW 7.0.7) date 2024-01-24 12:14:40*
%MOMM*%
%LPD*%
G01*
G04 APERTURE LIST*
G04 Aperture macros list*
%AMRoundRect*
0 Rectangle with rounded corners*
0 $1 Rounding radius*
0 $2 $3 $4 $5 $6 $7 $8 $9 X,Y pos of 4 corners*
0 Add a 4 corners polygon primitive as box body*
4,1,4,$2,$3,$4,$5,$6,$7,$8,$9,$2,$3,0*
0 Add four circle primitives for the rounded corners*
1,1,$1+$1,$2,$3*
1,1,$1+$1,$4,$5*
1,1,$1+$1,$6,$7*
1,1,$1+$1,$8,$9*
0 Add four rect primitives between the rounded corners*
20,1,$1+$1,$2,$3,$4,$5,0*
20,1,$1+$1,$4,$5,$6,$7,0*
20,1,$1+$1,$6,$7,$8,$9,0*
20,1,$1+$1,$8,$9,$2,$3,0*%
%AMFreePoly0*
4,1,19,0.850000,-2.000000,0.845017,-2.091901,0.805505,-2.271406,0.728329,-2.438221,0.617096,-2.584545,0.477009,-2.703536,0.314617,-2.789630,0.137515,-2.838803,-0.046018,-2.848753,-0.227399,-2.819017,-0.398147,-2.750985,-0.550278,-2.647838,-0.676679,-2.514398,-0.771439,-2.356906,-0.830127,-2.182725,-0.850000,-2.000000,-0.850000,0.850000,0.850000,0.850000,0.850000,-2.000000,0.850000,-2.000000,
$1*%
G04 Aperture macros list end*
%TA.AperFunction,CastellatedPad*%
%ADD10FreePoly0,0.000000*%
%TD*%
%TA.AperFunction,CastellatedPad*%
%ADD11RoundRect,0.425000X-0.425000X-0.425000X0.425000X-0.425000X0.425000X0.425000X-0.425000X0.425000X0*%
%TD*%
%TA.AperFunction,CastellatedPad*%
%ADD12FreePoly0,180.000000*%
%TD*%
%TA.AperFunction,CastellatedPad*%
%ADD13RoundRect,0.425000X0.425000X0.425000X-0.425000X0.425000X-0.425000X-0.425000X0.425000X-0.425000X0*%
%TD*%
%TA.AperFunction,ViaPad*%
%ADD14C,0.800000*%
%TD*%
%TA.AperFunction,ViaPad*%
%ADD15C,0.500000*%
%TD*%
%TA.AperFunction,Conductor*%
%ADD16C,0.200000*%
%TD*%
G04 APERTURE END LIST*
D10*
%TO.N,GND*%
%TO.C,J15*%
X152400000Y-101600000D03*
D11*
X152400000Y-104140000D03*
%TD*%
D12*
%TO.N,Net-(J7-Pin_1)*%
%TO.C,J7*%
X144780000Y-88900000D03*
D13*
X144780000Y-86360000D03*
%TD*%
D10*
%TO.N,+3.3V*%
%TO.C,J25*%
X134620000Y-101600000D03*
D11*
X134620000Y-104140000D03*
%TD*%
D12*
%TO.N,Net-(J21-Pin_1)*%
%TO.C,J21*%
X165100000Y-88900000D03*
D13*
X165100000Y-86360000D03*
%TD*%
D12*
%TO.N,Net-(J9-Pin_1)*%
%TO.C,J9*%
X139700000Y-88900000D03*
D13*
X139700000Y-86360000D03*
%TD*%
D10*
%TO.N,/CANL*%
%TO.C,J18*%
X160020000Y-101600000D03*
D11*
X160020000Y-104140000D03*
%TD*%
D12*
%TO.N,Net-(J23-Pin_1)*%
%TO.C,J23*%
X160020000Y-88900000D03*
D13*
X160020000Y-86360000D03*
%TD*%
D10*
%TO.N,Net-(J12-Pin_1)*%
%TO.C,J12*%
X144780000Y-101600000D03*
D11*
X144780000Y-104140000D03*
%TD*%
D10*
%TO.N,GND*%
%TO.C,J27*%
X137160000Y-101600000D03*
D11*
X137160000Y-104140000D03*
%TD*%
D12*
%TO.N,Net-(J4-Pin_1)*%
%TO.C,J4*%
X152400000Y-88900000D03*
D13*
X152400000Y-86360000D03*
%TD*%
D12*
%TO.N,GND*%
%TO.C,J29*%
X167640000Y-88900000D03*
D13*
X167640000Y-86360000D03*
%TD*%
D12*
%TO.N,Net-(J6-Pin_1)*%
%TO.C,J6*%
X147320000Y-88900000D03*
D13*
X147320000Y-86360000D03*
%TD*%
D12*
%TO.N,Net-(J22-Pin_1)*%
%TO.C,J22*%
X162560000Y-88900000D03*
D13*
X162560000Y-86360000D03*
%TD*%
D12*
%TO.N,GND*%
%TO.C,J26*%
X137160000Y-88900000D03*
D13*
X137160000Y-86360000D03*
%TD*%
D12*
%TO.N,Net-(J8-Pin_1)*%
%TO.C,J8*%
X142240000Y-88900000D03*
D13*
X142240000Y-86360000D03*
%TD*%
D12*
%TO.N,Net-(J2-Pin_1)*%
%TO.C,J2*%
X157480000Y-88900000D03*
D13*
X157480000Y-86360000D03*
%TD*%
D10*
%TO.N,Net-(J13-Pin_1)*%
%TO.C,J13*%
X147320000Y-101600000D03*
D11*
X147320000Y-104140000D03*
%TD*%
D12*
%TO.N,+VSW*%
%TO.C,J24*%
X134620000Y-88900000D03*
D13*
X134620000Y-86360000D03*
%TD*%
D10*
%TO.N,Net-(J11-Pin_1)*%
%TO.C,J11*%
X142240000Y-101600000D03*
D11*
X142240000Y-104140000D03*
%TD*%
D10*
%TO.N,GND*%
%TO.C,J28*%
X167640000Y-101600000D03*
D11*
X167640000Y-104140000D03*
%TD*%
D10*
%TO.N,Net-(J14-Pin_1)*%
%TO.C,J14*%
X149860000Y-101600000D03*
D11*
X149860000Y-104140000D03*
%TD*%
D12*
%TO.N,Net-(J5-Pin_1)*%
%TO.C,J5*%
X149860000Y-88900000D03*
D13*
X149860000Y-86360000D03*
%TD*%
D12*
%TO.N,Net-(J3-Pin_1)*%
%TO.C,J3*%
X154940000Y-88900000D03*
D13*
X154940000Y-86360000D03*
%TD*%
D10*
%TO.N,GND*%
%TO.C,J16*%
X154940000Y-101600000D03*
D11*
X154940000Y-104140000D03*
%TD*%
D10*
%TO.N,Net-(J20-Pin_1)*%
%TO.C,J20*%
X165100000Y-101600000D03*
D11*
X165100000Y-104140000D03*
%TD*%
D10*
%TO.N,GND*%
%TO.C,J17*%
X157480000Y-101600000D03*
D11*
X157480000Y-104140000D03*
%TD*%
D10*
%TO.N,/CANH*%
%TO.C,J19*%
X162560000Y-101600000D03*
D11*
X162560000Y-104140000D03*
%TD*%
D10*
%TO.N,Net-(J10-Pin_1)*%
%TO.C,J10*%
X139700000Y-101600000D03*
D11*
X139700000Y-104140000D03*
%TD*%
D14*
%TO.N,GND*%
X136800000Y-98200000D03*
X140000000Y-96950000D03*
D15*
X149700000Y-99875000D03*
D14*
X138300000Y-99525000D03*
X152300000Y-94260000D03*
X137500000Y-92100000D03*
X137100000Y-95500000D03*
X146200000Y-92600000D03*
X157056250Y-99500000D03*
X155306250Y-99500000D03*
X153200000Y-95160000D03*
D15*
X162900000Y-93300000D03*
D14*
X151300000Y-93360000D03*
X153200000Y-93360000D03*
X151300000Y-95160000D03*
D15*
X164100000Y-98925000D03*
X153050000Y-99550000D03*
D14*
%TO.N,+3.3V*%
X134800000Y-98200000D03*
X138300000Y-97925000D03*
X134800000Y-96600000D03*
D15*
X149700000Y-98325000D03*
D14*
X144500000Y-97425000D03*
D15*
X161300000Y-93300000D03*
D14*
X140195000Y-93655000D03*
X155306250Y-98100000D03*
X148100000Y-92600000D03*
X157900000Y-91550000D03*
X144500000Y-92725000D03*
%TO.N,/JTAG_TMS*%
X146400000Y-94300000D03*
D15*
X149100000Y-97262000D03*
%TO.N,/JTAG_TCK*%
X148006233Y-96706233D03*
D14*
X145700000Y-95100000D03*
%TO.N,/XRSn*%
X154950000Y-91450000D03*
D15*
X138775000Y-94950000D03*
X141975000Y-91450000D03*
%TO.N,Net-(J20-Pin_1)*%
X159100000Y-94300000D03*
%TO.N,/CANTX*%
X158900000Y-95700000D03*
X163100000Y-95000000D03*
%TD*%
D16*
%TO.N,/CANTX*%
X162400000Y-96100000D02*
X163100000Y-95400000D01*
X163100000Y-95400000D02*
X163100000Y-95000000D01*
X158900000Y-95700000D02*
X159300000Y-96100000D01*
X159300000Y-96100000D02*
X162400000Y-96100000D01*
%TD*%
%TA.AperFunction,Conductor*%
%TO.N,GND*%
G36*
X137762470Y-89149363D02*
G01*
X137768949Y-89155396D01*
X138310170Y-89696617D01*
X138343655Y-89757940D01*
X138346173Y-89775451D01*
X138349499Y-89821960D01*
X138349500Y-89821965D01*
X138390045Y-89960050D01*
X138390047Y-89960053D01*
X138467857Y-90081128D01*
X138576627Y-90175377D01*
X138707543Y-90235165D01*
X138850000Y-90255647D01*
X139623766Y-90255647D01*
X139627122Y-90255737D01*
X139642029Y-90256546D01*
X139681083Y-90258664D01*
X139681085Y-90258664D01*
X139681088Y-90258664D01*
X139716889Y-90256722D01*
X139735056Y-90255737D01*
X139738410Y-90255647D01*
X140550000Y-90255647D01*
X140621961Y-90250500D01*
X140621963Y-90250499D01*
X140621965Y-90250499D01*
X140760050Y-90209954D01*
X140760050Y-90209953D01*
X140760053Y-90209953D01*
X140881128Y-90132143D01*
X140881131Y-90132140D01*
X140887833Y-90126334D01*
X140889127Y-90127827D01*
X140938285Y-90096228D01*
X141008155Y-90096220D01*
X141054434Y-90121486D01*
X141116627Y-90175377D01*
X141247543Y-90235165D01*
X141390000Y-90255647D01*
X142163766Y-90255647D01*
X142167122Y-90255737D01*
X142182029Y-90256546D01*
X142221083Y-90258664D01*
X142221085Y-90258664D01*
X142221088Y-90258664D01*
X142256889Y-90256722D01*
X142275056Y-90255737D01*
X142278410Y-90255647D01*
X143090000Y-90255647D01*
X143161961Y-90250500D01*
X143161963Y-90250499D01*
X143161965Y-90250499D01*
X143300050Y-90209954D01*
X143300050Y-90209953D01*
X143300053Y-90209953D01*
X143421128Y-90132143D01*
X143421131Y-90132140D01*
X143427833Y-90126334D01*
X143429127Y-90127827D01*
X143478285Y-90096228D01*
X143548155Y-90096220D01*
X143594434Y-90121486D01*
X143656627Y-90175377D01*
X143787543Y-90235165D01*
X143930000Y-90255647D01*
X144703766Y-90255647D01*
X144707122Y-90255737D01*
X144722029Y-90256546D01*
X144761083Y-90258664D01*
X144761085Y-90258664D01*
X144761088Y-90258664D01*
X144796889Y-90256722D01*
X144815056Y-90255737D01*
X144818410Y-90255647D01*
X145630000Y-90255647D01*
X145701961Y-90250500D01*
X145701963Y-90250499D01*
X145701965Y-90250499D01*
X145840050Y-90209954D01*
X145840050Y-90209953D01*
X145840053Y-90209953D01*
X145961128Y-90132143D01*
X145961131Y-90132140D01*
X145967833Y-90126334D01*
X145969127Y-90127827D01*
X146018285Y-90096228D01*
X146088155Y-90096220D01*
X146134434Y-90121486D01*
X146196627Y-90175377D01*
X146327543Y-90235165D01*
X146470000Y-90255647D01*
X147243766Y-90255647D01*
X147247122Y-90255737D01*
X147262029Y-90256546D01*
X147301083Y-90258664D01*
X147301085Y-90258664D01*
X147301088Y-90258664D01*
X147336889Y-90256722D01*
X147355056Y-90255737D01*
X147358410Y-90255647D01*
X148170000Y-90255647D01*
X148241961Y-90250500D01*
X148241963Y-90250499D01*
X148241965Y-90250499D01*
X148380050Y-90209954D01*
X148380050Y-90209953D01*
X148380053Y-90209953D01*
X148501128Y-90132143D01*
X148501131Y-90132140D01*
X148507833Y-90126334D01*
X148509127Y-90127827D01*
X148558285Y-90096228D01*
X148628155Y-90096220D01*
X148674434Y-90121486D01*
X148736627Y-90175377D01*
X148867543Y-90235165D01*
X149010000Y-90255647D01*
X149783766Y-90255647D01*
X149787122Y-90255737D01*
X149802029Y-90256546D01*
X149841083Y-90258664D01*
X149841085Y-90258664D01*
X149841088Y-90258664D01*
X149876889Y-90256722D01*
X149895056Y-90255737D01*
X149898410Y-90255647D01*
X150710000Y-90255647D01*
X150781961Y-90250500D01*
X150781963Y-90250499D01*
X150781965Y-90250499D01*
X150920050Y-90209954D01*
X150920050Y-90209953D01*
X150920053Y-90209953D01*
X151041128Y-90132143D01*
X151041131Y-90132140D01*
X151047833Y-90126334D01*
X151049127Y-90127827D01*
X151098285Y-90096228D01*
X151168155Y-90096220D01*
X151214434Y-90121486D01*
X151276627Y-90175377D01*
X151407543Y-90235165D01*
X151550000Y-90255647D01*
X152323766Y-90255647D01*
X152327122Y-90255737D01*
X152342029Y-90256546D01*
X152381083Y-90258664D01*
X152381085Y-90258664D01*
X152381088Y-90258664D01*
X152416889Y-90256722D01*
X152435056Y-90255737D01*
X152438410Y-90255647D01*
X153250000Y-90255647D01*
X153321961Y-90250500D01*
X153321963Y-90250499D01*
X153321965Y-90250499D01*
X153460050Y-90209954D01*
X153460050Y-90209953D01*
X153460053Y-90209953D01*
X153581128Y-90132143D01*
X153581131Y-90132140D01*
X153587833Y-90126334D01*
X153589127Y-90127827D01*
X153638285Y-90096228D01*
X153708155Y-90096220D01*
X153754434Y-90121486D01*
X153816627Y-90175377D01*
X153947543Y-90235165D01*
X154090000Y-90255647D01*
X154863766Y-90255647D01*
X154867122Y-90255737D01*
X154882029Y-90256546D01*
X154921083Y-90258664D01*
X154921085Y-90258664D01*
X154921088Y-90258664D01*
X154956889Y-90256722D01*
X154975056Y-90255737D01*
X154978410Y-90255647D01*
X155790000Y-90255647D01*
X155861961Y-90250500D01*
X155861963Y-90250499D01*
X155861965Y-90250499D01*
X156000050Y-90209954D01*
X156000050Y-90209953D01*
X156000053Y-90209953D01*
X156121128Y-90132143D01*
X156121131Y-90132140D01*
X156127833Y-90126334D01*
X156129127Y-90127827D01*
X156178285Y-90096228D01*
X156248155Y-90096220D01*
X156294434Y-90121486D01*
X156356627Y-90175377D01*
X156487543Y-90235165D01*
X156630000Y-90255647D01*
X157403766Y-90255647D01*
X157407122Y-90255737D01*
X157422029Y-90256546D01*
X157461083Y-90258664D01*
X157461085Y-90258664D01*
X157461088Y-90258664D01*
X157496889Y-90256722D01*
X157515056Y-90255737D01*
X157518410Y-90255647D01*
X158330000Y-90255647D01*
X158401961Y-90250500D01*
X158401963Y-90250499D01*
X158401965Y-90250499D01*
X158540050Y-90209954D01*
X158540050Y-90209953D01*
X158540053Y-90209953D01*
X158661128Y-90132143D01*
X158661131Y-90132140D01*
X158667833Y-90126334D01*
X158669127Y-90127827D01*
X158718285Y-90096228D01*
X158788155Y-90096220D01*
X158834434Y-90121486D01*
X158896627Y-90175377D01*
X159027543Y-90235165D01*
X159170000Y-90255647D01*
X159943766Y-90255647D01*
X159947122Y-90255737D01*
X159962029Y-90256546D01*
X160001083Y-90258664D01*
X160001085Y-90258664D01*
X160001088Y-90258664D01*
X160036889Y-90256722D01*
X160055056Y-90255737D01*
X160058410Y-90255647D01*
X160870000Y-90255647D01*
X160941961Y-90250500D01*
X160941963Y-90250499D01*
X160941965Y-90250499D01*
X161080050Y-90209954D01*
X161080050Y-90209953D01*
X161080053Y-90209953D01*
X161201128Y-90132143D01*
X161201131Y-90132140D01*
X161207833Y-90126334D01*
X161209127Y-90127827D01*
X161258285Y-90096228D01*
X161328155Y-90096220D01*
X161374434Y-90121486D01*
X161436627Y-90175377D01*
X161567543Y-90235165D01*
X161710000Y-90255647D01*
X162483766Y-90255647D01*
X162487122Y-90255737D01*
X162502029Y-90256546D01*
X162541083Y-90258664D01*
X162541085Y-90258664D01*
X162541088Y-90258664D01*
X162576889Y-90256722D01*
X162595056Y-90255737D01*
X162598410Y-90255647D01*
X163410000Y-90255647D01*
X163481961Y-90250500D01*
X163481963Y-90250499D01*
X163481965Y-90250499D01*
X163620050Y-90209954D01*
X163620050Y-90209953D01*
X163620053Y-90209953D01*
X163741128Y-90132143D01*
X163741131Y-90132140D01*
X163747833Y-90126334D01*
X163749127Y-90127827D01*
X163798285Y-90096228D01*
X163868155Y-90096220D01*
X163914434Y-90121486D01*
X163976627Y-90175377D01*
X164107543Y-90235165D01*
X164250000Y-90255647D01*
X165023766Y-90255647D01*
X165027122Y-90255737D01*
X165042029Y-90256546D01*
X165081083Y-90258664D01*
X165081085Y-90258664D01*
X165081088Y-90258664D01*
X165116889Y-90256722D01*
X165135056Y-90255737D01*
X165138410Y-90255647D01*
X165950000Y-90255647D01*
X166021961Y-90250500D01*
X166021963Y-90250499D01*
X166021965Y-90250499D01*
X166160050Y-90209954D01*
X166160050Y-90209953D01*
X166160053Y-90209953D01*
X166281128Y-90132143D01*
X166375377Y-90023373D01*
X166435165Y-89892457D01*
X166452997Y-89768424D01*
X166482021Y-89704871D01*
X166488054Y-89698392D01*
X167031050Y-89155395D01*
X167092373Y-89121910D01*
X167162064Y-89126894D01*
X167217998Y-89168765D01*
X167223039Y-89176025D01*
X167223048Y-89176039D01*
X167258239Y-89230798D01*
X167373602Y-89330759D01*
X167371293Y-89333422D01*
X167406006Y-89373499D01*
X167415935Y-89442660D01*
X167386898Y-89506210D01*
X167380882Y-89512669D01*
X166657465Y-90236085D01*
X166657465Y-90236086D01*
X166790001Y-90255141D01*
X166790001Y-90255142D01*
X167563730Y-90255142D01*
X167567087Y-90255233D01*
X167621054Y-90258159D01*
X167621060Y-90258159D01*
X167675025Y-90255233D01*
X167678382Y-90255142D01*
X168490001Y-90255142D01*
X168561890Y-90250000D01*
X168699841Y-90209494D01*
X168718459Y-90197529D01*
X168785498Y-90177843D01*
X168852538Y-90197526D01*
X168898293Y-90250329D01*
X168909500Y-90301843D01*
X168909500Y-100198958D01*
X168889815Y-100265997D01*
X168837011Y-100311752D01*
X168767853Y-100321696D01*
X168733989Y-100311753D01*
X168632312Y-100265319D01*
X168489999Y-100244858D01*
X167716270Y-100244858D01*
X167712913Y-100244767D01*
X167658946Y-100241841D01*
X167658940Y-100241841D01*
X167604975Y-100244767D01*
X167601618Y-100244858D01*
X166789999Y-100244858D01*
X166718111Y-100249999D01*
X166718109Y-100250000D01*
X166660476Y-100266922D01*
X166660476Y-100266923D01*
X167380883Y-100987330D01*
X167414368Y-101048653D01*
X167409384Y-101118344D01*
X167372357Y-101167804D01*
X167373602Y-101169241D01*
X167258238Y-101269202D01*
X167223046Y-101323962D01*
X167170242Y-101369717D01*
X167101083Y-101379660D01*
X167037528Y-101350634D01*
X167031050Y-101344603D01*
X166489829Y-100803382D01*
X166456344Y-100742059D01*
X166453826Y-100724546D01*
X166450500Y-100678039D01*
X166450499Y-100678034D01*
X166409954Y-100539949D01*
X166369260Y-100476628D01*
X166332143Y-100418872D01*
X166223373Y-100324623D01*
X166195190Y-100311752D01*
X166092456Y-100264834D01*
X165982801Y-100249069D01*
X165950000Y-100244353D01*
X165949998Y-100244353D01*
X165176234Y-100244353D01*
X165172877Y-100244262D01*
X165157970Y-100243453D01*
X165118917Y-100241336D01*
X165118912Y-100241336D01*
X165083110Y-100243277D01*
X165064943Y-100244262D01*
X165061590Y-100244353D01*
X164250000Y-100244353D01*
X164178039Y-100249499D01*
X164178034Y-100249500D01*
X164039949Y-100290045D01*
X163918872Y-100367857D01*
X163912172Y-100373663D01*
X163910880Y-100372172D01*
X163861689Y-100403779D01*
X163791819Y-100403771D01*
X163745565Y-100378512D01*
X163731605Y-100366416D01*
X163683373Y-100324623D01*
X163655190Y-100311752D01*
X163552456Y-100264834D01*
X163442801Y-100249069D01*
X163410000Y-100244353D01*
X163409998Y-100244353D01*
X162636234Y-100244353D01*
X162632877Y-100244262D01*
X162617970Y-100243453D01*
X162578917Y-100241336D01*
X162578912Y-100241336D01*
X162543110Y-100243277D01*
X162524943Y-100244262D01*
X162521590Y-100244353D01*
X161710000Y-100244353D01*
X161638039Y-100249499D01*
X161638034Y-100249500D01*
X161499949Y-100290045D01*
X161378872Y-100367857D01*
X161372172Y-100373663D01*
X161370880Y-100372172D01*
X161321689Y-100403779D01*
X161251819Y-100403771D01*
X161205565Y-100378512D01*
X161191605Y-100366416D01*
X161143373Y-100324623D01*
X161115190Y-100311752D01*
X161012456Y-100264834D01*
X160902801Y-100249069D01*
X160870000Y-100244353D01*
X160869998Y-100244353D01*
X160096234Y-100244353D01*
X160092877Y-100244262D01*
X160077970Y-100243453D01*
X160038917Y-100241336D01*
X160038912Y-100241336D01*
X160003110Y-100243277D01*
X159984943Y-100244262D01*
X159981590Y-100244353D01*
X159170000Y-100244353D01*
X159098039Y-100249499D01*
X159098034Y-100249500D01*
X158959949Y-100290045D01*
X158838873Y-100367856D01*
X158744623Y-100476626D01*
X158744622Y-100476628D01*
X158684834Y-100607543D01*
X158667002Y-100731573D01*
X158637977Y-100795129D01*
X158631945Y-100801607D01*
X158100000Y-101333551D01*
X158100000Y-100626445D01*
X158462533Y-100263913D01*
X158329998Y-100244858D01*
X158100000Y-100244858D01*
X158100000Y-98700000D01*
X155977750Y-98700000D01*
X156038783Y-98632216D01*
X156133429Y-98468284D01*
X156191924Y-98288256D01*
X156211710Y-98100000D01*
X156191924Y-97911744D01*
X156134339Y-97734518D01*
X156133431Y-97731722D01*
X156133430Y-97731721D01*
X156133429Y-97731716D01*
X156038783Y-97567784D01*
X155912121Y-97427112D01*
X155909214Y-97425000D01*
X155758984Y-97315851D01*
X155758979Y-97315848D01*
X155586057Y-97238857D01*
X155586052Y-97238855D01*
X155440250Y-97207865D01*
X155400896Y-97199500D01*
X155211604Y-97199500D01*
X155179147Y-97206398D01*
X155026447Y-97238855D01*
X155026442Y-97238857D01*
X154853520Y-97315848D01*
X154853515Y-97315851D01*
X154700379Y-97427111D01*
X154573716Y-97567785D01*
X154479071Y-97731715D01*
X154479068Y-97731722D01*
X154439302Y-97854111D01*
X154420576Y-97911744D01*
X154400790Y-98100000D01*
X154420576Y-98288256D01*
X154420577Y-98288259D01*
X154479068Y-98468277D01*
X154479071Y-98468284D01*
X154573717Y-98632216D01*
X154624302Y-98688396D01*
X154634750Y-98700000D01*
X154600000Y-98700000D01*
X154600000Y-100244858D01*
X154124000Y-100244858D01*
X154056961Y-100225173D01*
X154011206Y-100172369D01*
X154000000Y-100120858D01*
X154000000Y-97400000D01*
X153400000Y-97400000D01*
X152500000Y-97400000D01*
X152499995Y-97400000D01*
X151816698Y-97595229D01*
X151782633Y-97600000D01*
X150600000Y-97600000D01*
X150600000Y-97916298D01*
X150580315Y-97983337D01*
X150527511Y-98029092D01*
X150458353Y-98039036D01*
X150394797Y-98010011D01*
X150371007Y-97982271D01*
X150290478Y-97854111D01*
X150170890Y-97734523D01*
X150170884Y-97734518D01*
X150027697Y-97644547D01*
X150027691Y-97644544D01*
X149907366Y-97602441D01*
X149850589Y-97561719D01*
X149824842Y-97496766D01*
X149831278Y-97444446D01*
X149836313Y-97430059D01*
X149844769Y-97355013D01*
X149855249Y-97262002D01*
X149855249Y-97261997D01*
X149836314Y-97093943D01*
X149792344Y-96968284D01*
X149780456Y-96934310D01*
X149780455Y-96934309D01*
X149780454Y-96934305D01*
X149780452Y-96934302D01*
X149690481Y-96791115D01*
X149690476Y-96791109D01*
X149570890Y-96671523D01*
X149570884Y-96671518D01*
X149427697Y-96581547D01*
X149427694Y-96581545D01*
X149268056Y-96525685D01*
X149100003Y-96506751D01*
X149099997Y-96506751D01*
X148931942Y-96525686D01*
X148876354Y-96545137D01*
X148806575Y-96548698D01*
X148745948Y-96513969D01*
X148718358Y-96469049D01*
X148686688Y-96378541D01*
X148686685Y-96378535D01*
X148596714Y-96235348D01*
X148596709Y-96235342D01*
X148477123Y-96115756D01*
X148477117Y-96115751D01*
X148333930Y-96025780D01*
X148333927Y-96025778D01*
X148174289Y-95969918D01*
X148006236Y-95950984D01*
X148006230Y-95950984D01*
X147838176Y-95969918D01*
X147678538Y-96025778D01*
X147678535Y-96025780D01*
X147535348Y-96115751D01*
X147535342Y-96115756D01*
X147415756Y-96235342D01*
X147415751Y-96235348D01*
X147325780Y-96378535D01*
X147325778Y-96378538D01*
X147269918Y-96538176D01*
X147250984Y-96706230D01*
X147250984Y-96706235D01*
X147269918Y-96874289D01*
X147325778Y-97033927D01*
X147325780Y-97033930D01*
X147415751Y-97177117D01*
X147415756Y-97177123D01*
X147535342Y-97296709D01*
X147535348Y-97296714D01*
X147678535Y-97386685D01*
X147678538Y-97386687D01*
X147678542Y-97386688D01*
X147678543Y-97386689D01*
X147716584Y-97400000D01*
X147838176Y-97442547D01*
X148006230Y-97461482D01*
X148006233Y-97461482D01*
X148006236Y-97461482D01*
X148152610Y-97444989D01*
X148174292Y-97442546D01*
X148229877Y-97423095D01*
X148299655Y-97419533D01*
X148360282Y-97454261D01*
X148387873Y-97499182D01*
X148419542Y-97589686D01*
X148419547Y-97589697D01*
X148509518Y-97732884D01*
X148509523Y-97732890D01*
X148629109Y-97852476D01*
X148629115Y-97852481D01*
X148772302Y-97942452D01*
X148772308Y-97942455D01*
X148772310Y-97942456D01*
X148892632Y-97984558D01*
X148949408Y-98025280D01*
X148975156Y-98090232D01*
X148968722Y-98142549D01*
X148963686Y-98156941D01*
X148963685Y-98156945D01*
X148944751Y-98324997D01*
X148944751Y-98325002D01*
X148963685Y-98493056D01*
X149019545Y-98652694D01*
X149019547Y-98652697D01*
X149109518Y-98795884D01*
X149109523Y-98795890D01*
X149229109Y-98915476D01*
X149229115Y-98915481D01*
X149372302Y-99005452D01*
X149372305Y-99005454D01*
X149372309Y-99005455D01*
X149372310Y-99005456D01*
X149444913Y-99030860D01*
X149531943Y-99061314D01*
X149699997Y-99080249D01*
X149700000Y-99080249D01*
X149700003Y-99080249D01*
X149868056Y-99061314D01*
X149868548Y-99061142D01*
X150027690Y-99005456D01*
X150027692Y-99005454D01*
X150027694Y-99005454D01*
X150027697Y-99005452D01*
X150170884Y-98915481D01*
X150170885Y-98915480D01*
X150170890Y-98915477D01*
X150290477Y-98795890D01*
X150371006Y-98667728D01*
X150423341Y-98621438D01*
X150492394Y-98610790D01*
X150556243Y-98639165D01*
X150594615Y-98697555D01*
X150600000Y-98733701D01*
X150600000Y-100120353D01*
X150580315Y-100187392D01*
X150527511Y-100233147D01*
X150476000Y-100244353D01*
X149936234Y-100244353D01*
X149932877Y-100244262D01*
X149917970Y-100243453D01*
X149878917Y-100241336D01*
X149878912Y-100241336D01*
X149843110Y-100243277D01*
X149824943Y-100244262D01*
X149821590Y-100244353D01*
X149010000Y-100244353D01*
X148938039Y-100249499D01*
X148938034Y-100249500D01*
X148799949Y-100290045D01*
X148678872Y-100367857D01*
X148672172Y-100373663D01*
X148670880Y-100372172D01*
X148621689Y-100403779D01*
X148551819Y-100403771D01*
X148505565Y-100378512D01*
X148491605Y-100366416D01*
X148443373Y-100324623D01*
X148415190Y-100311752D01*
X148312456Y-100264834D01*
X148202801Y-100249069D01*
X148170000Y-100244353D01*
X148169998Y-100244353D01*
X147396234Y-100244353D01*
X147392877Y-100244262D01*
X147377970Y-100243453D01*
X147338917Y-100241336D01*
X147338912Y-100241336D01*
X147303110Y-100243277D01*
X147284943Y-100244262D01*
X147281590Y-100244353D01*
X146470000Y-100244353D01*
X146398039Y-100249499D01*
X146398034Y-100249500D01*
X146259949Y-100290045D01*
X146138872Y-100367857D01*
X146132172Y-100373663D01*
X146130880Y-100372172D01*
X146081689Y-100403779D01*
X146011819Y-100403771D01*
X145965565Y-100378512D01*
X145951605Y-100366416D01*
X145903373Y-100324623D01*
X145875190Y-100311752D01*
X145772456Y-100264834D01*
X145662801Y-100249069D01*
X145630000Y-100244353D01*
X145629998Y-100244353D01*
X144856234Y-100244353D01*
X144852877Y-100244262D01*
X144837970Y-100243453D01*
X144798917Y-100241336D01*
X144798912Y-100241336D01*
X144763110Y-100243277D01*
X144744943Y-100244262D01*
X144741590Y-100244353D01*
X143930000Y-100244353D01*
X143858039Y-100249499D01*
X143858034Y-100249500D01*
X143719949Y-100290045D01*
X143598872Y-100367857D01*
X143592172Y-100373663D01*
X143590880Y-100372172D01*
X143541689Y-100403779D01*
X143471819Y-100403771D01*
X143425565Y-100378512D01*
X143411605Y-100366416D01*
X143363373Y-100324623D01*
X143335190Y-100311752D01*
X143232456Y-100264834D01*
X143122801Y-100249069D01*
X143090000Y-100244353D01*
X143089998Y-100244353D01*
X142316234Y-100244353D01*
X142312877Y-100244262D01*
X142297970Y-100243453D01*
X142258917Y-100241336D01*
X142258912Y-100241336D01*
X142223110Y-100243277D01*
X142204943Y-100244262D01*
X142201590Y-100244353D01*
X141390000Y-100244353D01*
X141318039Y-100249499D01*
X141318034Y-100249500D01*
X141179949Y-100290045D01*
X141058872Y-100367857D01*
X141052172Y-100373663D01*
X141050880Y-100372172D01*
X141001689Y-100403779D01*
X140931819Y-100403771D01*
X140885565Y-100378512D01*
X140871605Y-100366416D01*
X140823373Y-100324623D01*
X140795190Y-100311752D01*
X140692456Y-100264834D01*
X140582801Y-100249069D01*
X140550000Y-100244353D01*
X140549998Y-100244353D01*
X139776234Y-100244353D01*
X139772877Y-100244262D01*
X139757970Y-100243453D01*
X139718917Y-100241336D01*
X139718912Y-100241336D01*
X139683110Y-100243277D01*
X139664943Y-100244262D01*
X139661590Y-100244353D01*
X138850000Y-100244353D01*
X138778039Y-100249499D01*
X138778034Y-100249500D01*
X138639949Y-100290045D01*
X138518873Y-100367856D01*
X138424623Y-100476626D01*
X138424622Y-100476628D01*
X138364834Y-100607543D01*
X138347002Y-100731572D01*
X138317977Y-100795128D01*
X138311945Y-100801606D01*
X137768949Y-101344602D01*
X137707626Y-101378087D01*
X137637934Y-101373103D01*
X137582001Y-101331231D01*
X137576953Y-101323961D01*
X137541761Y-101269202D01*
X137426398Y-101169241D01*
X137428708Y-101166574D01*
X137394005Y-101126528D01*
X137384058Y-101057370D01*
X137413080Y-100993813D01*
X137419116Y-100987330D01*
X138142533Y-100263913D01*
X138009998Y-100244858D01*
X137236270Y-100244858D01*
X137232913Y-100244767D01*
X137178946Y-100241841D01*
X137178940Y-100241841D01*
X137124975Y-100244767D01*
X137121618Y-100244858D01*
X136309999Y-100244858D01*
X136238111Y-100249999D01*
X136238109Y-100250000D01*
X136180476Y-100266922D01*
X136180476Y-100266923D01*
X136900883Y-100987330D01*
X136934368Y-101048653D01*
X136929384Y-101118344D01*
X136892357Y-101167804D01*
X136893602Y-101169241D01*
X136778238Y-101269202D01*
X136743046Y-101323962D01*
X136690242Y-101369717D01*
X136621083Y-101379660D01*
X136557528Y-101350634D01*
X136551050Y-101344603D01*
X136009829Y-100803382D01*
X135976344Y-100742059D01*
X135973826Y-100724546D01*
X135970500Y-100678039D01*
X135970499Y-100678034D01*
X135929954Y-100539949D01*
X135889260Y-100476628D01*
X135852143Y-100418872D01*
X135743373Y-100324623D01*
X135715190Y-100311752D01*
X135612456Y-100264834D01*
X135502801Y-100249069D01*
X135470000Y-100244353D01*
X135469998Y-100244353D01*
X134696234Y-100244353D01*
X134692877Y-100244262D01*
X134677970Y-100243453D01*
X134638917Y-100241336D01*
X134638912Y-100241336D01*
X134603110Y-100243277D01*
X134584943Y-100244262D01*
X134581590Y-100244353D01*
X133770000Y-100244353D01*
X133698039Y-100249499D01*
X133698034Y-100249500D01*
X133559949Y-100290045D01*
X133559947Y-100290046D01*
X133541536Y-100301878D01*
X133474496Y-100321561D01*
X133407457Y-100301875D01*
X133361703Y-100249069D01*
X133350499Y-100197565D01*
X133350499Y-98200000D01*
X133894540Y-98200000D01*
X133914326Y-98388256D01*
X133914327Y-98388259D01*
X133972818Y-98568277D01*
X133972821Y-98568284D01*
X134067467Y-98732216D01*
X134142191Y-98815205D01*
X134194129Y-98872888D01*
X134347265Y-98984148D01*
X134347270Y-98984151D01*
X134520192Y-99061142D01*
X134520197Y-99061144D01*
X134705354Y-99100500D01*
X134705355Y-99100500D01*
X134894644Y-99100500D01*
X134894646Y-99100500D01*
X135079803Y-99061144D01*
X135252730Y-98984151D01*
X135405871Y-98872888D01*
X135532533Y-98732216D01*
X135627179Y-98568284D01*
X135685674Y-98388256D01*
X135705460Y-98200000D01*
X135685674Y-98011744D01*
X135657489Y-97925000D01*
X137394540Y-97925000D01*
X137414326Y-98113256D01*
X137414327Y-98113259D01*
X137472818Y-98293277D01*
X137472821Y-98293284D01*
X137567467Y-98457216D01*
X137694129Y-98597888D01*
X137847265Y-98709148D01*
X137847270Y-98709151D01*
X138020192Y-98786142D01*
X138020197Y-98786144D01*
X138205354Y-98825500D01*
X138205355Y-98825500D01*
X138394644Y-98825500D01*
X138394646Y-98825500D01*
X138579803Y-98786144D01*
X138752730Y-98709151D01*
X138905871Y-98597888D01*
X139032533Y-98457216D01*
X139127179Y-98293284D01*
X139130306Y-98283660D01*
X139839393Y-98283660D01*
X139869668Y-98455354D01*
X139938721Y-98615438D01*
X139938722Y-98615440D01*
X139938724Y-98615443D01*
X140008488Y-98709151D01*
X140042832Y-98755283D01*
X140176386Y-98867349D01*
X140332185Y-98945594D01*
X140501829Y-98985800D01*
X140501831Y-98985800D01*
X140632429Y-98985800D01*
X140632436Y-98985800D01*
X140762164Y-98970637D01*
X140925993Y-98911008D01*
X141071654Y-98815205D01*
X141191296Y-98688393D01*
X141278467Y-98537407D01*
X141328469Y-98370388D01*
X141333521Y-98283660D01*
X141871393Y-98283660D01*
X141901668Y-98455354D01*
X141970721Y-98615438D01*
X141970722Y-98615440D01*
X141970724Y-98615443D01*
X142040488Y-98709151D01*
X142074832Y-98755283D01*
X142208386Y-98867349D01*
X142364185Y-98945594D01*
X142533829Y-98985800D01*
X142533831Y-98985800D01*
X142664429Y-98985800D01*
X142664436Y-98985800D01*
X142794164Y-98970637D01*
X142957993Y-98911008D01*
X143103654Y-98815205D01*
X143223296Y-98688393D01*
X143310467Y-98537407D01*
X143360469Y-98370388D01*
X143370607Y-98196340D01*
X143340332Y-98024646D01*
X143271279Y-97864562D01*
X143263498Y-97854111D01*
X143174468Y-97734523D01*
X143167168Y-97724717D01*
X143151066Y-97711206D01*
X143033614Y-97612651D01*
X143033612Y-97612650D01*
X142877818Y-97534407D01*
X142877816Y-97534406D01*
X142877815Y-97534406D01*
X142708171Y-97494200D01*
X142577564Y-97494200D01*
X142464052Y-97507467D01*
X142447835Y-97509363D01*
X142447832Y-97509364D01*
X142284008Y-97568991D01*
X142284004Y-97568993D01*
X142138348Y-97664792D01*
X142138347Y-97664793D01*
X142018706Y-97791603D01*
X142018703Y-97791609D01*
X141931534Y-97942590D01*
X141881531Y-98109610D01*
X141881530Y-98109616D01*
X141876479Y-98196340D01*
X141871393Y-98283660D01*
X141333521Y-98283660D01*
X141338607Y-98196340D01*
X141308332Y-98024646D01*
X141239279Y-97864562D01*
X141231498Y-97854111D01*
X141142468Y-97734523D01*
X141135168Y-97724717D01*
X141119066Y-97711206D01*
X141001614Y-97612651D01*
X141001612Y-97612650D01*
X140845818Y-97534407D01*
X140845816Y-97534406D01*
X140845815Y-97534406D01*
X140676171Y-97494200D01*
X140545564Y-97494200D01*
X140432052Y-97507467D01*
X140415835Y-97509363D01*
X140415832Y-97509364D01*
X140252008Y-97568991D01*
X140252004Y-97568993D01*
X140106348Y-97664792D01*
X140106347Y-97664793D01*
X139986706Y-97791603D01*
X139986703Y-97791609D01*
X139899534Y-97942590D01*
X139849531Y-98109610D01*
X139849530Y-98109616D01*
X139844479Y-98196340D01*
X139839393Y-98283660D01*
X139130306Y-98283660D01*
X139185674Y-98113256D01*
X139205460Y-97925000D01*
X139185674Y-97736744D01*
X139127179Y-97556716D01*
X139051133Y-97425000D01*
X143594540Y-97425000D01*
X143614326Y-97613256D01*
X143614327Y-97613259D01*
X143672818Y-97793277D01*
X143672821Y-97793284D01*
X143767467Y-97957216D01*
X143894128Y-98097888D01*
X143894129Y-98097888D01*
X144047265Y-98209148D01*
X144047270Y-98209151D01*
X144220192Y-98286142D01*
X144220197Y-98286144D01*
X144405354Y-98325500D01*
X144405355Y-98325500D01*
X144594644Y-98325500D01*
X144594646Y-98325500D01*
X144779803Y-98286144D01*
X144952730Y-98209151D01*
X145105871Y-98097888D01*
X145232533Y-97957216D01*
X145327179Y-97793284D01*
X145385674Y-97613256D01*
X145405460Y-97425000D01*
X145385674Y-97236744D01*
X145327179Y-97056716D01*
X145232533Y-96892784D01*
X145105871Y-96752112D01*
X145105870Y-96752111D01*
X144952734Y-96640851D01*
X144952729Y-96640848D01*
X144779807Y-96563857D01*
X144779802Y-96563855D01*
X144634000Y-96532865D01*
X144594646Y-96524500D01*
X144405354Y-96524500D01*
X144372897Y-96531398D01*
X144220197Y-96563855D01*
X144220192Y-96563857D01*
X144047270Y-96640848D01*
X144047265Y-96640851D01*
X143894129Y-96752111D01*
X143767466Y-96892785D01*
X143672821Y-97056715D01*
X143672818Y-97056722D01*
X143633700Y-97177117D01*
X143614326Y-97236744D01*
X143594540Y-97425000D01*
X139051133Y-97425000D01*
X139032533Y-97392784D01*
X138905871Y-97252112D01*
X138887626Y-97238856D01*
X138752734Y-97140851D01*
X138752729Y-97140848D01*
X138579807Y-97063857D01*
X138579802Y-97063855D01*
X138434000Y-97032865D01*
X138394646Y-97024500D01*
X138205354Y-97024500D01*
X138172897Y-97031398D01*
X138020197Y-97063855D01*
X138020192Y-97063857D01*
X137847270Y-97140848D01*
X137847265Y-97140851D01*
X137694129Y-97252111D01*
X137567466Y-97392785D01*
X137472821Y-97556715D01*
X137472818Y-97556722D01*
X137414327Y-97736740D01*
X137414326Y-97736744D01*
X137394540Y-97925000D01*
X135657489Y-97925000D01*
X135627179Y-97831716D01*
X135532533Y-97667784D01*
X135405871Y-97527112D01*
X135381441Y-97509363D01*
X135368992Y-97500318D01*
X135326326Y-97444989D01*
X135320347Y-97375375D01*
X135352952Y-97313580D01*
X135368992Y-97299682D01*
X135373084Y-97296709D01*
X135405871Y-97272888D01*
X135532533Y-97132216D01*
X135627179Y-96968284D01*
X135685674Y-96788256D01*
X135705460Y-96600000D01*
X135685674Y-96411744D01*
X135628359Y-96235348D01*
X135627181Y-96231722D01*
X135627180Y-96231721D01*
X135627179Y-96231716D01*
X135532533Y-96067784D01*
X135405871Y-95927112D01*
X135405870Y-95927111D01*
X135252734Y-95815851D01*
X135252729Y-95815848D01*
X135079807Y-95738857D01*
X135079802Y-95738855D01*
X134921693Y-95705249D01*
X134894646Y-95699500D01*
X134705354Y-95699500D01*
X134678307Y-95705249D01*
X134520197Y-95738855D01*
X134520192Y-95738857D01*
X134347270Y-95815848D01*
X134347265Y-95815851D01*
X134194129Y-95927111D01*
X134067466Y-96067785D01*
X133972821Y-96231715D01*
X133972818Y-96231722D01*
X133924493Y-96380452D01*
X133914326Y-96411744D01*
X133894540Y-96600000D01*
X133914326Y-96788256D01*
X133914327Y-96788259D01*
X133972818Y-96968277D01*
X133972821Y-96968284D01*
X134067467Y-97132216D01*
X134194129Y-97272888D01*
X134226916Y-97296709D01*
X134231008Y-97299682D01*
X134273673Y-97355013D01*
X134279652Y-97424626D01*
X134247046Y-97486421D01*
X134231008Y-97500318D01*
X134194127Y-97527113D01*
X134067466Y-97667785D01*
X133972821Y-97831715D01*
X133972818Y-97831722D01*
X133932043Y-97957216D01*
X133914326Y-98011744D01*
X133894540Y-98200000D01*
X133350499Y-98200000D01*
X133350499Y-94950002D01*
X138019751Y-94950002D01*
X138038685Y-95118056D01*
X138094545Y-95277694D01*
X138094547Y-95277697D01*
X138184518Y-95420884D01*
X138184523Y-95420890D01*
X138304109Y-95540476D01*
X138304115Y-95540481D01*
X138447302Y-95630452D01*
X138447305Y-95630454D01*
X138447309Y-95630455D01*
X138447310Y-95630456D01*
X138452340Y-95632216D01*
X138606943Y-95686314D01*
X138774997Y-95705249D01*
X138775000Y-95705249D01*
X138775003Y-95705249D01*
X138943056Y-95686314D01*
X138943059Y-95686313D01*
X139102690Y-95630456D01*
X139102692Y-95630454D01*
X139102694Y-95630454D01*
X139102697Y-95630452D01*
X139245884Y-95540481D01*
X139245885Y-95540480D01*
X139245890Y-95540477D01*
X139365477Y-95420890D01*
X139424041Y-95327687D01*
X139455452Y-95277697D01*
X139455454Y-95277694D01*
X139455454Y-95277692D01*
X139455456Y-95277690D01*
X139511313Y-95118059D01*
X139511313Y-95118058D01*
X139511314Y-95118056D01*
X139513348Y-95100000D01*
X144794540Y-95100000D01*
X144814326Y-95288256D01*
X144814327Y-95288258D01*
X144814327Y-95288259D01*
X144872818Y-95468277D01*
X144872821Y-95468284D01*
X144967467Y-95632216D01*
X145063487Y-95738857D01*
X145094129Y-95772888D01*
X145247265Y-95884148D01*
X145247270Y-95884151D01*
X145420192Y-95961142D01*
X145420197Y-95961144D01*
X145605354Y-96000500D01*
X145605355Y-96000500D01*
X145794644Y-96000500D01*
X145794646Y-96000500D01*
X145979803Y-95961144D01*
X146152730Y-95884151D01*
X146305871Y-95772888D01*
X146371498Y-95700002D01*
X158144751Y-95700002D01*
X158163685Y-95868056D01*
X158219545Y-96027694D01*
X158219547Y-96027697D01*
X158309518Y-96170884D01*
X158309523Y-96170890D01*
X158429109Y-96290476D01*
X158429115Y-96290481D01*
X158572302Y-96380452D01*
X158572308Y-96380455D01*
X158572310Y-96380456D01*
X158731941Y-96436313D01*
X158750961Y-96438455D01*
X158815373Y-96465520D01*
X158824760Y-96473995D01*
X158844669Y-96493904D01*
X158850020Y-96500005D01*
X158871718Y-96528282D01*
X158941131Y-96581544D01*
X158997159Y-96624536D01*
X158997162Y-96624537D01*
X158997163Y-96624538D01*
X159070198Y-96654789D01*
X159143238Y-96685044D01*
X159221619Y-96695363D01*
X159299999Y-96705682D01*
X159300000Y-96705682D01*
X159335329Y-96701030D01*
X159343428Y-96700500D01*
X162356572Y-96700500D01*
X162364670Y-96701030D01*
X162400000Y-96705682D01*
X162400001Y-96705682D01*
X162452254Y-96698802D01*
X162556762Y-96685044D01*
X162702841Y-96624536D01*
X162758869Y-96581544D01*
X162828282Y-96528282D01*
X162849984Y-96499998D01*
X162855310Y-96493923D01*
X163493916Y-95855318D01*
X163500006Y-95849977D01*
X163528282Y-95828282D01*
X163624536Y-95702841D01*
X163685044Y-95556762D01*
X163694370Y-95485918D01*
X163712313Y-95436136D01*
X163780456Y-95327690D01*
X163836313Y-95168059D01*
X163851010Y-95037620D01*
X163855249Y-95000002D01*
X163855249Y-94999997D01*
X163836314Y-94831943D01*
X163780454Y-94672305D01*
X163780452Y-94672302D01*
X163690481Y-94529115D01*
X163690476Y-94529109D01*
X163570890Y-94409523D01*
X163570884Y-94409518D01*
X163427697Y-94319547D01*
X163427694Y-94319545D01*
X163268056Y-94263685D01*
X163100003Y-94244751D01*
X163099997Y-94244751D01*
X162931943Y-94263685D01*
X162772305Y-94319545D01*
X162772302Y-94319547D01*
X162629115Y-94409518D01*
X162629109Y-94409523D01*
X162509523Y-94529109D01*
X162509518Y-94529115D01*
X162419547Y-94672302D01*
X162419545Y-94672305D01*
X162363685Y-94831943D01*
X162344751Y-94999997D01*
X162344751Y-95000002D01*
X162363686Y-95168058D01*
X162363687Y-95168061D01*
X162368804Y-95182686D01*
X162372365Y-95252465D01*
X162339444Y-95311319D01*
X162278462Y-95372302D01*
X162214633Y-95436132D01*
X162187584Y-95463181D01*
X162126261Y-95496666D01*
X162099902Y-95499500D01*
X159712944Y-95499500D01*
X159645905Y-95479815D01*
X159600150Y-95427011D01*
X159595902Y-95416453D01*
X159580456Y-95372310D01*
X159580452Y-95372302D01*
X159490481Y-95229115D01*
X159490476Y-95229109D01*
X159423493Y-95162126D01*
X159390008Y-95100803D01*
X159394992Y-95031111D01*
X159436864Y-94975178D01*
X159445177Y-94969467D01*
X159570890Y-94890477D01*
X159690477Y-94770890D01*
X159715092Y-94731716D01*
X159780452Y-94627697D01*
X159780454Y-94627694D01*
X159780454Y-94627692D01*
X159780456Y-94627690D01*
X159836313Y-94468059D01*
X159836313Y-94468058D01*
X159836314Y-94468056D01*
X159855249Y-94300002D01*
X159855249Y-94299997D01*
X159836314Y-94131943D01*
X159783306Y-93980456D01*
X159780456Y-93972310D01*
X159780455Y-93972309D01*
X159780454Y-93972305D01*
X159780452Y-93972302D01*
X159690481Y-93829115D01*
X159690476Y-93829109D01*
X159570890Y-93709523D01*
X159570884Y-93709518D01*
X159427697Y-93619547D01*
X159427694Y-93619545D01*
X159268056Y-93563685D01*
X159100003Y-93544751D01*
X159099997Y-93544751D01*
X158931943Y-93563685D01*
X158772305Y-93619545D01*
X158772302Y-93619547D01*
X158629115Y-93709518D01*
X158629109Y-93709523D01*
X158509523Y-93829109D01*
X158509518Y-93829115D01*
X158419547Y-93972302D01*
X158419545Y-93972305D01*
X158363685Y-94131943D01*
X158344751Y-94299997D01*
X158344751Y-94300002D01*
X158363685Y-94468056D01*
X158419545Y-94627694D01*
X158419547Y-94627697D01*
X158509518Y-94770884D01*
X158509523Y-94770890D01*
X158576506Y-94837873D01*
X158609991Y-94899196D01*
X158605007Y-94968888D01*
X158563135Y-95024821D01*
X158554798Y-95030547D01*
X158429111Y-95109521D01*
X158309523Y-95229109D01*
X158309518Y-95229115D01*
X158219547Y-95372302D01*
X158219545Y-95372305D01*
X158163685Y-95531943D01*
X158144751Y-95699997D01*
X158144751Y-95700002D01*
X146371498Y-95700002D01*
X146432533Y-95632216D01*
X146527179Y-95468284D01*
X146585674Y-95288256D01*
X146587771Y-95268300D01*
X146614353Y-95203689D01*
X146671650Y-95163703D01*
X146673631Y-95163162D01*
X146673628Y-95163150D01*
X146679799Y-95161144D01*
X146679803Y-95161144D01*
X146679806Y-95161142D01*
X146679808Y-95161142D01*
X146795744Y-95109523D01*
X146852730Y-95084151D01*
X147005871Y-94972888D01*
X147132533Y-94832216D01*
X147227179Y-94668284D01*
X147285674Y-94488256D01*
X147305460Y-94300000D01*
X147285674Y-94111744D01*
X147227179Y-93931716D01*
X147132533Y-93767784D01*
X147005871Y-93627112D01*
X147005870Y-93627111D01*
X146852734Y-93515851D01*
X146852729Y-93515848D01*
X146679807Y-93438857D01*
X146679802Y-93438855D01*
X146534000Y-93407865D01*
X146494646Y-93399500D01*
X146305354Y-93399500D01*
X146272897Y-93406398D01*
X146120197Y-93438855D01*
X146120192Y-93438857D01*
X145947270Y-93515848D01*
X145947265Y-93515851D01*
X145794129Y-93627111D01*
X145667466Y-93767785D01*
X145572821Y-93931715D01*
X145572818Y-93931722D01*
X145514327Y-94111739D01*
X145514325Y-94111750D01*
X145512228Y-94131700D01*
X145485643Y-94196314D01*
X145428345Y-94236298D01*
X145426372Y-94236836D01*
X145426376Y-94236848D01*
X145420194Y-94238856D01*
X145247270Y-94315848D01*
X145247265Y-94315851D01*
X145094129Y-94427111D01*
X144967466Y-94567785D01*
X144872821Y-94731715D01*
X144872818Y-94731722D01*
X144840166Y-94832216D01*
X144814326Y-94911744D01*
X144794540Y-95100000D01*
X139513348Y-95100000D01*
X139530249Y-94950002D01*
X139530249Y-94949997D01*
X139511314Y-94781943D01*
X139457340Y-94627694D01*
X139455456Y-94622310D01*
X139455455Y-94622309D01*
X139455454Y-94622305D01*
X139455452Y-94622302D01*
X139365481Y-94479115D01*
X139365476Y-94479109D01*
X139245890Y-94359523D01*
X139245884Y-94359518D01*
X139102697Y-94269547D01*
X139102694Y-94269545D01*
X138943056Y-94213685D01*
X138775003Y-94194751D01*
X138774997Y-94194751D01*
X138606943Y-94213685D01*
X138447305Y-94269545D01*
X138447302Y-94269547D01*
X138304115Y-94359518D01*
X138304109Y-94359523D01*
X138184523Y-94479109D01*
X138184518Y-94479115D01*
X138094547Y-94622302D01*
X138094545Y-94622305D01*
X138038685Y-94781943D01*
X138019751Y-94949997D01*
X138019751Y-94950002D01*
X133350499Y-94950002D01*
X133350499Y-93655000D01*
X139289540Y-93655000D01*
X139309326Y-93843256D01*
X139309327Y-93843259D01*
X139367818Y-94023277D01*
X139367821Y-94023284D01*
X139462467Y-94187216D01*
X139564020Y-94300002D01*
X139589129Y-94327888D01*
X139742265Y-94439148D01*
X139742270Y-94439151D01*
X139915192Y-94516142D01*
X139915197Y-94516144D01*
X140100354Y-94555500D01*
X140100355Y-94555500D01*
X140289644Y-94555500D01*
X140289646Y-94555500D01*
X140474803Y-94516144D01*
X140647730Y-94439151D01*
X140800871Y-94327888D01*
X140927533Y-94187216D01*
X141022179Y-94023284D01*
X141067362Y-93884225D01*
X141106798Y-93826552D01*
X141171157Y-93799353D01*
X141240003Y-93811267D01*
X141240804Y-93811665D01*
X141348185Y-93865594D01*
X141517829Y-93905800D01*
X141517831Y-93905800D01*
X141648429Y-93905800D01*
X141648436Y-93905800D01*
X141778164Y-93890637D01*
X141941993Y-93831008D01*
X142087654Y-93735205D01*
X142207296Y-93608393D01*
X142294467Y-93457407D01*
X142344469Y-93290388D01*
X142354607Y-93116340D01*
X142324332Y-92944646D01*
X142255279Y-92784562D01*
X142210937Y-92725000D01*
X143594540Y-92725000D01*
X143614326Y-92913256D01*
X143614327Y-92913259D01*
X143672818Y-93093277D01*
X143672821Y-93093284D01*
X143767467Y-93257216D01*
X143805992Y-93300002D01*
X143894129Y-93397888D01*
X144047265Y-93509148D01*
X144047270Y-93509151D01*
X144220192Y-93586142D01*
X144220197Y-93586144D01*
X144405354Y-93625500D01*
X144405355Y-93625500D01*
X144594644Y-93625500D01*
X144594646Y-93625500D01*
X144779803Y-93586144D01*
X144952730Y-93509151D01*
X145105871Y-93397888D01*
X145232533Y-93257216D01*
X145327179Y-93093284D01*
X145385674Y-92913256D01*
X145405460Y-92725000D01*
X145392322Y-92600000D01*
X147194540Y-92600000D01*
X147214326Y-92788256D01*
X147214327Y-92788259D01*
X147272818Y-92968277D01*
X147272821Y-92968284D01*
X147367467Y-93132216D01*
X147480016Y-93257214D01*
X147494129Y-93272888D01*
X147647265Y-93384148D01*
X147647270Y-93384151D01*
X147820192Y-93461142D01*
X147820197Y-93461144D01*
X148005354Y-93500500D01*
X148005355Y-93500500D01*
X148194644Y-93500500D01*
X148194646Y-93500500D01*
X148379803Y-93461144D01*
X148552730Y-93384151D01*
X148668552Y-93300002D01*
X160544751Y-93300002D01*
X160563685Y-93468056D01*
X160619545Y-93627694D01*
X160619547Y-93627697D01*
X160709518Y-93770884D01*
X160709523Y-93770890D01*
X160829109Y-93890476D01*
X160829115Y-93890481D01*
X160972302Y-93980452D01*
X160972305Y-93980454D01*
X160972309Y-93980455D01*
X160972310Y-93980456D01*
X161044913Y-94005860D01*
X161131943Y-94036314D01*
X161299997Y-94055249D01*
X161300000Y-94055249D01*
X161300003Y-94055249D01*
X161468056Y-94036314D01*
X161468059Y-94036313D01*
X161627690Y-93980456D01*
X161627692Y-93980454D01*
X161627694Y-93980454D01*
X161627697Y-93980452D01*
X161770884Y-93890481D01*
X161770885Y-93890480D01*
X161770890Y-93890477D01*
X161890477Y-93770890D01*
X161892429Y-93767784D01*
X161980452Y-93627697D01*
X161980454Y-93627694D01*
X161980454Y-93627692D01*
X161980456Y-93627690D01*
X162036313Y-93468059D01*
X162036313Y-93468058D01*
X162036314Y-93468056D01*
X162055249Y-93300002D01*
X162055249Y-93299997D01*
X162036314Y-93131943D01*
X161980454Y-92972305D01*
X161980452Y-92972302D01*
X161890481Y-92829115D01*
X161890476Y-92829109D01*
X161770890Y-92709523D01*
X161770884Y-92709518D01*
X161627697Y-92619547D01*
X161627694Y-92619545D01*
X161468056Y-92563685D01*
X161300003Y-92544751D01*
X161299997Y-92544751D01*
X161131943Y-92563685D01*
X160972305Y-92619545D01*
X160972302Y-92619547D01*
X160829115Y-92709518D01*
X160829109Y-92709523D01*
X160709523Y-92829109D01*
X160709518Y-92829115D01*
X160619547Y-92972302D01*
X160619545Y-92972305D01*
X160563685Y-93131943D01*
X160544751Y-93299997D01*
X160544751Y-93300002D01*
X148668552Y-93300002D01*
X148705871Y-93272888D01*
X148832533Y-93132216D01*
X148927179Y-92968284D01*
X148985674Y-92788256D01*
X149005460Y-92600000D01*
X148985674Y-92411744D01*
X148927179Y-92231716D01*
X148832533Y-92067784D01*
X148705871Y-91927112D01*
X148705870Y-91927111D01*
X148552734Y-91815851D01*
X148552729Y-91815848D01*
X148379807Y-91738857D01*
X148379802Y-91738855D01*
X148234000Y-91707865D01*
X148194646Y-91699500D01*
X148005354Y-91699500D01*
X147972897Y-91706398D01*
X147820197Y-91738855D01*
X147820192Y-91738857D01*
X147647270Y-91815848D01*
X147647265Y-91815851D01*
X147494129Y-91927111D01*
X147367466Y-92067785D01*
X147272821Y-92231715D01*
X147272818Y-92231722D01*
X147214521Y-92411144D01*
X147214326Y-92411744D01*
X147194540Y-92600000D01*
X145392322Y-92600000D01*
X145385674Y-92536744D01*
X145327179Y-92356716D01*
X145232533Y-92192784D01*
X145105871Y-92052112D01*
X145105870Y-92052111D01*
X144952734Y-91940851D01*
X144952729Y-91940848D01*
X144779807Y-91863857D01*
X144779802Y-91863855D01*
X144634000Y-91832865D01*
X144594646Y-91824500D01*
X144405354Y-91824500D01*
X144372897Y-91831398D01*
X144220197Y-91863855D01*
X144220192Y-91863857D01*
X144047270Y-91940848D01*
X144047265Y-91940851D01*
X143894129Y-92052111D01*
X143767466Y-92192785D01*
X143672821Y-92356715D01*
X143672818Y-92356722D01*
X143629841Y-92488993D01*
X143614326Y-92536744D01*
X143594540Y-92725000D01*
X142210937Y-92725000D01*
X142151168Y-92644717D01*
X142121169Y-92619545D01*
X142017614Y-92532651D01*
X142017612Y-92532650D01*
X141861818Y-92454407D01*
X141861816Y-92454406D01*
X141861815Y-92454406D01*
X141692171Y-92414200D01*
X141561564Y-92414200D01*
X141448052Y-92427467D01*
X141431835Y-92429363D01*
X141431832Y-92429364D01*
X141268008Y-92488991D01*
X141268004Y-92488993D01*
X141122348Y-92584792D01*
X141122347Y-92584793D01*
X141002706Y-92711603D01*
X141002703Y-92711609D01*
X140915533Y-92862593D01*
X140912673Y-92869224D01*
X140911273Y-92868620D01*
X140877735Y-92920198D01*
X140814025Y-92948882D01*
X140744921Y-92938569D01*
X140724150Y-92926371D01*
X140704595Y-92912164D01*
X140647730Y-92870849D01*
X140647728Y-92870848D01*
X140647729Y-92870848D01*
X140474807Y-92793857D01*
X140474802Y-92793855D01*
X140329000Y-92762865D01*
X140289646Y-92754500D01*
X140100354Y-92754500D01*
X140067897Y-92761398D01*
X139915197Y-92793855D01*
X139915192Y-92793857D01*
X139742270Y-92870848D01*
X139742265Y-92870851D01*
X139589129Y-92982111D01*
X139462466Y-93122785D01*
X139367821Y-93286715D01*
X139367818Y-93286722D01*
X139309327Y-93466740D01*
X139309326Y-93466744D01*
X139289540Y-93655000D01*
X133350499Y-93655000D01*
X133350499Y-91450002D01*
X141219751Y-91450002D01*
X141238685Y-91618056D01*
X141294545Y-91777694D01*
X141294547Y-91777697D01*
X141384518Y-91920884D01*
X141384523Y-91920890D01*
X141504109Y-92040476D01*
X141504115Y-92040481D01*
X141647302Y-92130452D01*
X141647305Y-92130454D01*
X141647309Y-92130455D01*
X141647310Y-92130456D01*
X141719913Y-92155860D01*
X141806943Y-92186314D01*
X141974997Y-92205249D01*
X141975000Y-92205249D01*
X141975003Y-92205249D01*
X142143056Y-92186314D01*
X142143059Y-92186313D01*
X142302690Y-92130456D01*
X142302692Y-92130454D01*
X142302694Y-92130454D01*
X142302697Y-92130452D01*
X142445884Y-92040481D01*
X142445885Y-92040480D01*
X142445890Y-92040477D01*
X142565477Y-91920890D01*
X142565481Y-91920884D01*
X142655452Y-91777697D01*
X142655454Y-91777694D01*
X142655454Y-91777692D01*
X142655456Y-91777690D01*
X142711313Y-91618059D01*
X142711313Y-91618058D01*
X142711314Y-91618056D01*
X142730249Y-91450002D01*
X142730249Y-91450000D01*
X154044540Y-91450000D01*
X154064326Y-91638256D01*
X154064327Y-91638259D01*
X154122818Y-91818277D01*
X154122821Y-91818284D01*
X154217467Y-91982216D01*
X154280401Y-92052111D01*
X154344129Y-92122888D01*
X154497265Y-92234148D01*
X154497270Y-92234151D01*
X154670192Y-92311142D01*
X154670197Y-92311144D01*
X154855354Y-92350500D01*
X154855355Y-92350500D01*
X155044644Y-92350500D01*
X155044646Y-92350500D01*
X155229803Y-92311144D01*
X155402730Y-92234151D01*
X155555871Y-92122888D01*
X155682533Y-91982216D01*
X155777179Y-91818284D01*
X155835674Y-91638256D01*
X155844950Y-91550000D01*
X156994540Y-91550000D01*
X157014326Y-91738256D01*
X157014327Y-91738259D01*
X157072818Y-91918277D01*
X157072821Y-91918284D01*
X157167467Y-92082216D01*
X157210901Y-92130454D01*
X157294129Y-92222888D01*
X157447265Y-92334148D01*
X157447270Y-92334151D01*
X157620192Y-92411142D01*
X157620197Y-92411144D01*
X157805354Y-92450500D01*
X157805355Y-92450500D01*
X157994644Y-92450500D01*
X157994646Y-92450500D01*
X158179803Y-92411144D01*
X158352730Y-92334151D01*
X158505871Y-92222888D01*
X158632533Y-92082216D01*
X158727179Y-91918284D01*
X158785674Y-91738256D01*
X158805460Y-91550000D01*
X158785674Y-91361744D01*
X158727179Y-91181716D01*
X158632533Y-91017784D01*
X158505871Y-90877112D01*
X158481655Y-90859518D01*
X158352734Y-90765851D01*
X158352729Y-90765848D01*
X158179807Y-90688857D01*
X158179802Y-90688855D01*
X158034001Y-90657865D01*
X157994646Y-90649500D01*
X157805354Y-90649500D01*
X157772897Y-90656398D01*
X157620197Y-90688855D01*
X157620192Y-90688857D01*
X157447270Y-90765848D01*
X157447265Y-90765851D01*
X157294129Y-90877111D01*
X157167466Y-91017785D01*
X157072821Y-91181715D01*
X157072818Y-91181722D01*
X157014327Y-91361740D01*
X157014326Y-91361744D01*
X156994540Y-91550000D01*
X155844950Y-91550000D01*
X155855460Y-91450000D01*
X155835674Y-91261744D01*
X155777179Y-91081716D01*
X155682533Y-90917784D01*
X155555871Y-90777112D01*
X155545456Y-90769545D01*
X155402734Y-90665851D01*
X155402729Y-90665848D01*
X155229807Y-90588857D01*
X155229802Y-90588855D01*
X155084001Y-90557865D01*
X155044646Y-90549500D01*
X154855354Y-90549500D01*
X154822897Y-90556398D01*
X154670197Y-90588855D01*
X154670192Y-90588857D01*
X154497270Y-90665848D01*
X154497265Y-90665851D01*
X154344129Y-90777111D01*
X154217466Y-90917785D01*
X154122821Y-91081715D01*
X154122818Y-91081722D01*
X154064327Y-91261740D01*
X154064326Y-91261744D01*
X154044540Y-91450000D01*
X142730249Y-91450000D01*
X142730249Y-91449997D01*
X142711314Y-91281943D01*
X142655454Y-91122305D01*
X142655452Y-91122302D01*
X142565481Y-90979115D01*
X142565476Y-90979109D01*
X142445890Y-90859523D01*
X142445884Y-90859518D01*
X142302697Y-90769547D01*
X142302694Y-90769545D01*
X142143056Y-90713685D01*
X141975003Y-90694751D01*
X141974997Y-90694751D01*
X141806943Y-90713685D01*
X141647305Y-90769545D01*
X141647302Y-90769547D01*
X141504115Y-90859518D01*
X141504109Y-90859523D01*
X141384523Y-90979109D01*
X141384518Y-90979115D01*
X141294547Y-91122302D01*
X141294545Y-91122305D01*
X141238685Y-91281943D01*
X141219751Y-91449997D01*
X141219751Y-91450002D01*
X133350499Y-91450002D01*
X133350499Y-90301589D01*
X133370184Y-90234551D01*
X133422988Y-90188796D01*
X133492146Y-90178852D01*
X133526008Y-90188795D01*
X133627543Y-90235165D01*
X133770000Y-90255647D01*
X134543766Y-90255647D01*
X134547122Y-90255737D01*
X134562029Y-90256546D01*
X134601083Y-90258664D01*
X134601085Y-90258664D01*
X134601088Y-90258664D01*
X134636889Y-90256722D01*
X134655056Y-90255737D01*
X134658410Y-90255647D01*
X135470000Y-90255647D01*
X135541961Y-90250500D01*
X135541963Y-90250499D01*
X135541965Y-90250499D01*
X135680050Y-90209954D01*
X135680050Y-90209953D01*
X135680053Y-90209953D01*
X135801128Y-90132143D01*
X135895377Y-90023373D01*
X135955165Y-89892457D01*
X135972997Y-89768424D01*
X136002021Y-89704871D01*
X136008054Y-89698392D01*
X136551050Y-89155395D01*
X136612373Y-89121910D01*
X136682064Y-89126894D01*
X136737998Y-89168765D01*
X136743039Y-89176025D01*
X136743048Y-89176039D01*
X136778239Y-89230798D01*
X136893602Y-89330759D01*
X136891293Y-89333422D01*
X136926006Y-89373499D01*
X136935935Y-89442660D01*
X136906898Y-89506210D01*
X136900882Y-89512669D01*
X136177465Y-90236085D01*
X136177465Y-90236086D01*
X136310001Y-90255141D01*
X136310001Y-90255142D01*
X137083730Y-90255142D01*
X137087087Y-90255233D01*
X137141054Y-90258159D01*
X137141060Y-90258159D01*
X137195025Y-90255233D01*
X137198382Y-90255142D01*
X138010001Y-90255142D01*
X138081883Y-90250000D01*
X138081884Y-90250000D01*
X138139522Y-90233075D01*
X137419116Y-89512669D01*
X137385631Y-89451346D01*
X137390615Y-89381654D01*
X137427641Y-89332193D01*
X137426398Y-89330759D01*
X137433100Y-89324952D01*
X137541761Y-89230798D01*
X137576954Y-89176037D01*
X137629755Y-89130283D01*
X137698914Y-89120339D01*
X137762470Y-89149363D01*
G37*
%TD.AperFunction*%
%TA.AperFunction,Conductor*%
G36*
X153843039Y-97719685D02*
G01*
X153888794Y-97772489D01*
X153900000Y-97824000D01*
X153900000Y-100400000D01*
X153246446Y-100400000D01*
X153382533Y-100263913D01*
X153249998Y-100244858D01*
X152476270Y-100244858D01*
X152472913Y-100244767D01*
X152418946Y-100241841D01*
X152418940Y-100241841D01*
X152364975Y-100244767D01*
X152361618Y-100244858D01*
X151549999Y-100244858D01*
X151478111Y-100249999D01*
X151478109Y-100250000D01*
X151420476Y-100266922D01*
X151420476Y-100266923D01*
X151553553Y-100400000D01*
X151100000Y-100400000D01*
X151100000Y-100431097D01*
X151092143Y-100418872D01*
X150983373Y-100324623D01*
X150933563Y-100301875D01*
X150852455Y-100264834D01*
X150852457Y-100264834D01*
X150806353Y-100258206D01*
X150742797Y-100229181D01*
X150705023Y-100170402D01*
X150700000Y-100135468D01*
X150700000Y-97824000D01*
X150719685Y-97756961D01*
X150772489Y-97711206D01*
X150824000Y-97700000D01*
X153776000Y-97700000D01*
X153843039Y-97719685D01*
G37*
%TD.AperFunction*%
%TD*%
%TA.AperFunction,Conductor*%
%TO.N,GND*%
G36*
X154700379Y-98772888D02*
G01*
X154853515Y-98884148D01*
X154853520Y-98884151D01*
X155026442Y-98961142D01*
X155026447Y-98961144D01*
X155211604Y-99000500D01*
X155211605Y-99000500D01*
X155400894Y-99000500D01*
X155400896Y-99000500D01*
X155586053Y-98961144D01*
X155758980Y-98884151D01*
X155912121Y-98772888D01*
X155977750Y-98700000D01*
X158100000Y-98700000D01*
X158100000Y-104139500D01*
X151334500Y-104139500D01*
X151267461Y-104119815D01*
X151221706Y-104067011D01*
X151210500Y-104015500D01*
X151210500Y-103743130D01*
X151210864Y-103736421D01*
X151212560Y-103720826D01*
X151215647Y-103692443D01*
X151215647Y-100750000D01*
X151210500Y-100678039D01*
X151169953Y-100539947D01*
X151100000Y-100431097D01*
X151100000Y-100400000D01*
X154600000Y-100400000D01*
X154600000Y-98700000D01*
X154634750Y-98700000D01*
X154700379Y-98772888D01*
G37*
%TD.AperFunction*%
%TD*%
M02*
