%TF.GenerationSoftware,KiCad,Pcbnew,7.0.7*%
%TF.CreationDate,2024-01-12T14:51:30-08:00*%
%TF.ProjectId,Waffle_Mini_v0,57616666-6c65-45f4-9d69-6e695f76302e,rev?*%
%TF.SameCoordinates,Original*%
%TF.FileFunction,Copper,L3,Inr*%
%TF.FilePolarity,Positive*%
%FSLAX46Y46*%
G04 Gerber Fmt 4.6, Leading zero omitted, Abs format (unit mm)*
G04 Created by KiCad (PCBNEW 7.0.7) date 2024-01-12 14:51:30*
%MOMM*%
%LPD*%
G01*
G04 APERTURE LIST*
G04 Aperture macros list*
%AMRoundRect*
0 Rectangle with rounded corners*
0 $1 Rounding radius*
0 $2 $3 $4 $5 $6 $7 $8 $9 X,Y pos of 4 corners*
0 Add a 4 corners polygon primitive as box body*
4,1,4,$2,$3,$4,$5,$6,$7,$8,$9,$2,$3,0*
0 Add four circle primitives for the rounded corners*
1,1,$1+$1,$2,$3*
1,1,$1+$1,$4,$5*
1,1,$1+$1,$6,$7*
1,1,$1+$1,$8,$9*
0 Add four rect primitives between the rounded corners*
20,1,$1+$1,$2,$3,$4,$5,0*
20,1,$1+$1,$4,$5,$6,$7,0*
20,1,$1+$1,$6,$7,$8,$9,0*
20,1,$1+$1,$8,$9,$2,$3,0*%
%AMFreePoly0*
4,1,19,0.850000,-2.000000,0.845017,-2.091901,0.805505,-2.271406,0.728329,-2.438221,0.617096,-2.584545,0.477009,-2.703536,0.314617,-2.789630,0.137515,-2.838803,-0.046018,-2.848753,-0.227399,-2.819017,-0.398147,-2.750985,-0.550278,-2.647838,-0.676679,-2.514398,-0.771439,-2.356906,-0.830127,-2.182725,-0.850000,-2.000000,-0.850000,0.850000,0.850000,0.850000,0.850000,-2.000000,0.850000,-2.000000,
$1*%
G04 Aperture macros list end*
%TA.AperFunction,CastellatedPad*%
%ADD10FreePoly0,0.000000*%
%TD*%
%TA.AperFunction,CastellatedPad*%
%ADD11RoundRect,0.425000X-0.425000X-0.425000X0.425000X-0.425000X0.425000X0.425000X-0.425000X0.425000X0*%
%TD*%
%TA.AperFunction,CastellatedPad*%
%ADD12FreePoly0,180.000000*%
%TD*%
%TA.AperFunction,CastellatedPad*%
%ADD13RoundRect,0.425000X0.425000X0.425000X-0.425000X0.425000X-0.425000X-0.425000X0.425000X-0.425000X0*%
%TD*%
%TA.AperFunction,ViaPad*%
%ADD14C,0.500000*%
%TD*%
%TA.AperFunction,ViaPad*%
%ADD15C,0.800000*%
%TD*%
G04 APERTURE END LIST*
D10*
%TO.N,GND*%
%TO.C,J15*%
X152400000Y-101600000D03*
D11*
X152400000Y-104140000D03*
%TD*%
D12*
%TO.N,Net-(J7-Pin_1)*%
%TO.C,J7*%
X144780000Y-88900000D03*
D13*
X144780000Y-86360000D03*
%TD*%
D10*
%TO.N,+3.3V*%
%TO.C,J25*%
X134620000Y-101600000D03*
D11*
X134620000Y-104140000D03*
%TD*%
D12*
%TO.N,Net-(J21-Pin_1)*%
%TO.C,J21*%
X165100000Y-88900000D03*
D13*
X165100000Y-86360000D03*
%TD*%
D12*
%TO.N,Net-(J9-Pin_1)*%
%TO.C,J9*%
X139700000Y-88900000D03*
D13*
X139700000Y-86360000D03*
%TD*%
D10*
%TO.N,/CANL*%
%TO.C,J18*%
X160020000Y-101600000D03*
D11*
X160020000Y-104140000D03*
%TD*%
D12*
%TO.N,Net-(J23-Pin_1)*%
%TO.C,J23*%
X160020000Y-88900000D03*
D13*
X160020000Y-86360000D03*
%TD*%
D10*
%TO.N,Net-(J12-Pin_1)*%
%TO.C,J12*%
X144780000Y-101600000D03*
D11*
X144780000Y-104140000D03*
%TD*%
D10*
%TO.N,GND*%
%TO.C,J27*%
X137160000Y-101600000D03*
D11*
X137160000Y-104140000D03*
%TD*%
D12*
%TO.N,Net-(J4-Pin_1)*%
%TO.C,J4*%
X152400000Y-88900000D03*
D13*
X152400000Y-86360000D03*
%TD*%
D12*
%TO.N,GND*%
%TO.C,J29*%
X167640000Y-88900000D03*
D13*
X167640000Y-86360000D03*
%TD*%
D12*
%TO.N,Net-(J6-Pin_1)*%
%TO.C,J6*%
X147320000Y-88900000D03*
D13*
X147320000Y-86360000D03*
%TD*%
D12*
%TO.N,Net-(J22-Pin_1)*%
%TO.C,J22*%
X162560000Y-88900000D03*
D13*
X162560000Y-86360000D03*
%TD*%
D12*
%TO.N,GND*%
%TO.C,J26*%
X137160000Y-88900000D03*
D13*
X137160000Y-86360000D03*
%TD*%
D12*
%TO.N,Net-(J8-Pin_1)*%
%TO.C,J8*%
X142240000Y-88900000D03*
D13*
X142240000Y-86360000D03*
%TD*%
D12*
%TO.N,Net-(J2-Pin_1)*%
%TO.C,J2*%
X157480000Y-88900000D03*
D13*
X157480000Y-86360000D03*
%TD*%
D10*
%TO.N,Net-(J13-Pin_1)*%
%TO.C,J13*%
X147320000Y-101600000D03*
D11*
X147320000Y-104140000D03*
%TD*%
D12*
%TO.N,+VSW*%
%TO.C,J24*%
X134620000Y-88900000D03*
D13*
X134620000Y-86360000D03*
%TD*%
D10*
%TO.N,Net-(J11-Pin_1)*%
%TO.C,J11*%
X142240000Y-101600000D03*
D11*
X142240000Y-104140000D03*
%TD*%
D10*
%TO.N,GND*%
%TO.C,J28*%
X167640000Y-101600000D03*
D11*
X167640000Y-104140000D03*
%TD*%
D10*
%TO.N,Net-(J14-Pin_1)*%
%TO.C,J14*%
X149860000Y-101600000D03*
D11*
X149860000Y-104140000D03*
%TD*%
D12*
%TO.N,Net-(J5-Pin_1)*%
%TO.C,J5*%
X149860000Y-88900000D03*
D13*
X149860000Y-86360000D03*
%TD*%
D12*
%TO.N,Net-(J3-Pin_1)*%
%TO.C,J3*%
X154940000Y-88900000D03*
D13*
X154940000Y-86360000D03*
%TD*%
D10*
%TO.N,GND*%
%TO.C,J16*%
X154940000Y-101600000D03*
D11*
X154940000Y-104140000D03*
%TD*%
D10*
%TO.N,Net-(J20-Pin_1)*%
%TO.C,J20*%
X165100000Y-101600000D03*
D11*
X165100000Y-104140000D03*
%TD*%
D10*
%TO.N,GND*%
%TO.C,J17*%
X157480000Y-101600000D03*
D11*
X157480000Y-104140000D03*
%TD*%
D10*
%TO.N,/CANH*%
%TO.C,J19*%
X162560000Y-101600000D03*
D11*
X162560000Y-104140000D03*
%TD*%
D10*
%TO.N,Net-(J10-Pin_1)*%
%TO.C,J10*%
X139700000Y-101600000D03*
D11*
X139700000Y-104140000D03*
%TD*%
D14*
%TO.N,GND*%
X164100000Y-98925000D03*
X162900000Y-93300000D03*
%TO.N,+3.3V*%
X161300000Y-93300000D03*
%TO.N,/CANTX*%
X163100000Y-95000000D03*
X158900000Y-95700000D03*
%TO.N,Net-(J20-Pin_1)*%
X159100000Y-94300000D03*
%TO.N,+3.3V*%
X149700000Y-98325000D03*
%TO.N,GND*%
X153050000Y-99550000D03*
X149700000Y-99875000D03*
%TO.N,/JTAG_TCK*%
X148006233Y-96706233D03*
%TO.N,/JTAG_TMS*%
X149100000Y-97262000D03*
%TO.N,/XRSn*%
X138775000Y-94950000D03*
X141975000Y-91450000D03*
D15*
%TO.N,+3.3V*%
X144500000Y-97425000D03*
%TO.N,/JTAG_TCK*%
X145700000Y-95100000D03*
%TO.N,/JTAG_TMS*%
X146400000Y-94300000D03*
%TO.N,+3.3V*%
X144500000Y-92725000D03*
%TO.N,GND*%
X136800000Y-98200000D03*
X140000000Y-96950000D03*
X138300000Y-99525000D03*
X152300000Y-94260000D03*
X137500000Y-92100000D03*
X137100000Y-95500000D03*
X146200000Y-92600000D03*
X157056250Y-99500000D03*
X155306250Y-99500000D03*
X153200000Y-95160000D03*
X151300000Y-93360000D03*
X153200000Y-93360000D03*
X151300000Y-95160000D03*
%TO.N,+3.3V*%
X134800000Y-98200000D03*
X138300000Y-97925000D03*
X134800000Y-96600000D03*
X140195000Y-93655000D03*
X155306250Y-98100000D03*
X148100000Y-92600000D03*
X157900000Y-91550000D03*
%TO.N,/XRSn*%
X154950000Y-91450000D03*
%TD*%
%TA.AperFunction,Conductor*%
%TO.N,+3.3V*%
G36*
X166454434Y-90121486D02*
G01*
X166516627Y-90175377D01*
X166647543Y-90235165D01*
X166790000Y-90255647D01*
X167563766Y-90255647D01*
X167567122Y-90255737D01*
X167582029Y-90256546D01*
X167621083Y-90258664D01*
X167621085Y-90258664D01*
X167621088Y-90258664D01*
X167656889Y-90256722D01*
X167675056Y-90255737D01*
X167678410Y-90255647D01*
X168490000Y-90255647D01*
X168561961Y-90250500D01*
X168561963Y-90250499D01*
X168561965Y-90250499D01*
X168700050Y-90209954D01*
X168700050Y-90209953D01*
X168700053Y-90209953D01*
X168718459Y-90198123D01*
X168785498Y-90178438D01*
X168852538Y-90198121D01*
X168898293Y-90250925D01*
X168909500Y-90302438D01*
X168909500Y-100198409D01*
X168889815Y-100265448D01*
X168837011Y-100311203D01*
X168767853Y-100321147D01*
X168733988Y-100311203D01*
X168632456Y-100264834D01*
X168525792Y-100249499D01*
X168490000Y-100244353D01*
X168489998Y-100244353D01*
X167716234Y-100244353D01*
X167712877Y-100244262D01*
X167697970Y-100243453D01*
X167658917Y-100241336D01*
X167658912Y-100241336D01*
X167623110Y-100243277D01*
X167604943Y-100244262D01*
X167601590Y-100244353D01*
X166790000Y-100244353D01*
X166718039Y-100249499D01*
X166718034Y-100249500D01*
X166579949Y-100290045D01*
X166458872Y-100367857D01*
X166452172Y-100373663D01*
X166450880Y-100372172D01*
X166401689Y-100403779D01*
X166331819Y-100403771D01*
X166285565Y-100378512D01*
X166271605Y-100366416D01*
X166223373Y-100324623D01*
X166199598Y-100313765D01*
X166092456Y-100264834D01*
X165985792Y-100249499D01*
X165950000Y-100244353D01*
X165949998Y-100244353D01*
X165176234Y-100244353D01*
X165172877Y-100244262D01*
X165157970Y-100243453D01*
X165118917Y-100241336D01*
X165118912Y-100241336D01*
X165083110Y-100243277D01*
X165064943Y-100244262D01*
X165061590Y-100244353D01*
X164250000Y-100244353D01*
X164178039Y-100249499D01*
X164178034Y-100249500D01*
X164039949Y-100290045D01*
X163918872Y-100367857D01*
X163912172Y-100373663D01*
X163910880Y-100372172D01*
X163861689Y-100403779D01*
X163791819Y-100403771D01*
X163745565Y-100378512D01*
X163731605Y-100366416D01*
X163683373Y-100324623D01*
X163659598Y-100313765D01*
X163552456Y-100264834D01*
X163445792Y-100249499D01*
X163410000Y-100244353D01*
X163409998Y-100244353D01*
X162636234Y-100244353D01*
X162632877Y-100244262D01*
X162617970Y-100243453D01*
X162578917Y-100241336D01*
X162578912Y-100241336D01*
X162543110Y-100243277D01*
X162524943Y-100244262D01*
X162521590Y-100244353D01*
X161710000Y-100244353D01*
X161638039Y-100249499D01*
X161638034Y-100249500D01*
X161499949Y-100290045D01*
X161378872Y-100367857D01*
X161372172Y-100373663D01*
X161370880Y-100372172D01*
X161321689Y-100403779D01*
X161251819Y-100403771D01*
X161205565Y-100378512D01*
X161191605Y-100366416D01*
X161143373Y-100324623D01*
X161119598Y-100313765D01*
X161012456Y-100264834D01*
X160905792Y-100249499D01*
X160870000Y-100244353D01*
X160869998Y-100244353D01*
X160096234Y-100244353D01*
X160092877Y-100244262D01*
X160077970Y-100243453D01*
X160038917Y-100241336D01*
X160038912Y-100241336D01*
X160003110Y-100243277D01*
X159984943Y-100244262D01*
X159981590Y-100244353D01*
X159170000Y-100244353D01*
X159098039Y-100249499D01*
X159098034Y-100249500D01*
X158959949Y-100290045D01*
X158838872Y-100367857D01*
X158832172Y-100373663D01*
X158830880Y-100372172D01*
X158781689Y-100403779D01*
X158711819Y-100403771D01*
X158665565Y-100378512D01*
X158651605Y-100366416D01*
X158603373Y-100324623D01*
X158579598Y-100313765D01*
X158472456Y-100264834D01*
X158365792Y-100249499D01*
X158330000Y-100244353D01*
X158329998Y-100244353D01*
X157876282Y-100244353D01*
X157809243Y-100224668D01*
X157763488Y-100171864D01*
X157753544Y-100102706D01*
X157782569Y-100039150D01*
X157784134Y-100037379D01*
X157788783Y-100032216D01*
X157883429Y-99868284D01*
X157941924Y-99688256D01*
X157961710Y-99500000D01*
X157941924Y-99311744D01*
X157883429Y-99131716D01*
X157788783Y-98967784D01*
X157750262Y-98925002D01*
X163344751Y-98925002D01*
X163363685Y-99093056D01*
X163419545Y-99252694D01*
X163419547Y-99252697D01*
X163509518Y-99395884D01*
X163509523Y-99395890D01*
X163629109Y-99515476D01*
X163629115Y-99515481D01*
X163772302Y-99605452D01*
X163772305Y-99605454D01*
X163772309Y-99605455D01*
X163772310Y-99605456D01*
X163844913Y-99630860D01*
X163931943Y-99661314D01*
X164099997Y-99680249D01*
X164100000Y-99680249D01*
X164100003Y-99680249D01*
X164268056Y-99661314D01*
X164268059Y-99661313D01*
X164427690Y-99605456D01*
X164427692Y-99605454D01*
X164427694Y-99605454D01*
X164427697Y-99605452D01*
X164570884Y-99515481D01*
X164570885Y-99515480D01*
X164570890Y-99515477D01*
X164690477Y-99395890D01*
X164743350Y-99311744D01*
X164780452Y-99252697D01*
X164780454Y-99252694D01*
X164780454Y-99252692D01*
X164780456Y-99252690D01*
X164836313Y-99093059D01*
X164836313Y-99093058D01*
X164836314Y-99093056D01*
X164855249Y-98925002D01*
X164855249Y-98924997D01*
X164836314Y-98756943D01*
X164780454Y-98597305D01*
X164780452Y-98597302D01*
X164690481Y-98454115D01*
X164690476Y-98454109D01*
X164570890Y-98334523D01*
X164570884Y-98334518D01*
X164427697Y-98244547D01*
X164427694Y-98244545D01*
X164268056Y-98188685D01*
X164100003Y-98169751D01*
X164099997Y-98169751D01*
X163931943Y-98188685D01*
X163772305Y-98244545D01*
X163772302Y-98244547D01*
X163629115Y-98334518D01*
X163629109Y-98334523D01*
X163509523Y-98454109D01*
X163509518Y-98454115D01*
X163419547Y-98597302D01*
X163419545Y-98597305D01*
X163363685Y-98756943D01*
X163344751Y-98924997D01*
X163344751Y-98925002D01*
X157750262Y-98925002D01*
X157662121Y-98827112D01*
X157654488Y-98821566D01*
X157508984Y-98715851D01*
X157508979Y-98715848D01*
X157336057Y-98638857D01*
X157336052Y-98638855D01*
X157190251Y-98607865D01*
X157150896Y-98599500D01*
X156961604Y-98599500D01*
X156929147Y-98606398D01*
X156776447Y-98638855D01*
X156776442Y-98638857D01*
X156603520Y-98715848D01*
X156603515Y-98715851D01*
X156450379Y-98827111D01*
X156323716Y-98967785D01*
X156288637Y-99028544D01*
X156238070Y-99076760D01*
X156169463Y-99089983D01*
X156104598Y-99064015D01*
X156073863Y-99028544D01*
X156053217Y-98992785D01*
X156038783Y-98967784D01*
X155912121Y-98827112D01*
X155904488Y-98821566D01*
X155758984Y-98715851D01*
X155758979Y-98715848D01*
X155586057Y-98638857D01*
X155586052Y-98638855D01*
X155440251Y-98607865D01*
X155400896Y-98599500D01*
X155211604Y-98599500D01*
X155179147Y-98606398D01*
X155026447Y-98638855D01*
X155026442Y-98638857D01*
X154853520Y-98715848D01*
X154853515Y-98715851D01*
X154700379Y-98827111D01*
X154573716Y-98967785D01*
X154479071Y-99131715D01*
X154479068Y-99131722D01*
X154420577Y-99311740D01*
X154420576Y-99311744D01*
X154400790Y-99500000D01*
X154420576Y-99688256D01*
X154420577Y-99688259D01*
X154479068Y-99868277D01*
X154479071Y-99868284D01*
X154573717Y-100032216D01*
X154578366Y-100037379D01*
X154608597Y-100100370D01*
X154599974Y-100169705D01*
X154555233Y-100223372D01*
X154488581Y-100244330D01*
X154486218Y-100244353D01*
X154124000Y-100244353D01*
X154056961Y-100224668D01*
X154011206Y-100171864D01*
X154000000Y-100120353D01*
X154000000Y-97400000D01*
X153400000Y-97400000D01*
X152500000Y-97400000D01*
X152499995Y-97400000D01*
X151816698Y-97595229D01*
X151782633Y-97600000D01*
X150600000Y-97600000D01*
X150600000Y-99466298D01*
X150580315Y-99533337D01*
X150527511Y-99579092D01*
X150458353Y-99589036D01*
X150394797Y-99560011D01*
X150371007Y-99532271D01*
X150290478Y-99404111D01*
X150170890Y-99284523D01*
X150170884Y-99284518D01*
X150027697Y-99194547D01*
X150027694Y-99194545D01*
X149868056Y-99138685D01*
X149700003Y-99119751D01*
X149699997Y-99119751D01*
X149531943Y-99138685D01*
X149372305Y-99194545D01*
X149372302Y-99194547D01*
X149229115Y-99284518D01*
X149229109Y-99284523D01*
X149109523Y-99404109D01*
X149109518Y-99404115D01*
X149019547Y-99547302D01*
X149019545Y-99547305D01*
X148963685Y-99706943D01*
X148944751Y-99874997D01*
X148944751Y-99875002D01*
X148963686Y-100043059D01*
X148963686Y-100043061D01*
X148983704Y-100100267D01*
X148987266Y-100170046D01*
X148952538Y-100230673D01*
X148901598Y-100260199D01*
X148799949Y-100290045D01*
X148678872Y-100367857D01*
X148672172Y-100373663D01*
X148670880Y-100372172D01*
X148621689Y-100403779D01*
X148551819Y-100403771D01*
X148505565Y-100378512D01*
X148491605Y-100366416D01*
X148443373Y-100324623D01*
X148419598Y-100313765D01*
X148312456Y-100264834D01*
X148205792Y-100249499D01*
X148170000Y-100244353D01*
X148169998Y-100244353D01*
X147396234Y-100244353D01*
X147392877Y-100244262D01*
X147377970Y-100243453D01*
X147338917Y-100241336D01*
X147338912Y-100241336D01*
X147303110Y-100243277D01*
X147284943Y-100244262D01*
X147281590Y-100244353D01*
X146470000Y-100244353D01*
X146398039Y-100249499D01*
X146398034Y-100249500D01*
X146259949Y-100290045D01*
X146138872Y-100367857D01*
X146132172Y-100373663D01*
X146130880Y-100372172D01*
X146081689Y-100403779D01*
X146011819Y-100403771D01*
X145965565Y-100378512D01*
X145951605Y-100366416D01*
X145903373Y-100324623D01*
X145879598Y-100313765D01*
X145772456Y-100264834D01*
X145665792Y-100249499D01*
X145630000Y-100244353D01*
X145629998Y-100244353D01*
X144856234Y-100244353D01*
X144852877Y-100244262D01*
X144837970Y-100243453D01*
X144798917Y-100241336D01*
X144798912Y-100241336D01*
X144763110Y-100243277D01*
X144744943Y-100244262D01*
X144741590Y-100244353D01*
X143930000Y-100244353D01*
X143858039Y-100249499D01*
X143858034Y-100249500D01*
X143719949Y-100290045D01*
X143598872Y-100367857D01*
X143592172Y-100373663D01*
X143590880Y-100372172D01*
X143541689Y-100403779D01*
X143471819Y-100403771D01*
X143425565Y-100378512D01*
X143411605Y-100366416D01*
X143363373Y-100324623D01*
X143339598Y-100313765D01*
X143232456Y-100264834D01*
X143125792Y-100249499D01*
X143090000Y-100244353D01*
X143089998Y-100244353D01*
X142316234Y-100244353D01*
X142312877Y-100244262D01*
X142297970Y-100243453D01*
X142258917Y-100241336D01*
X142258912Y-100241336D01*
X142223110Y-100243277D01*
X142204943Y-100244262D01*
X142201590Y-100244353D01*
X141390000Y-100244353D01*
X141318039Y-100249499D01*
X141318034Y-100249500D01*
X141179949Y-100290045D01*
X141058872Y-100367857D01*
X141052172Y-100373663D01*
X141050880Y-100372172D01*
X141001689Y-100403779D01*
X140931819Y-100403771D01*
X140885565Y-100378512D01*
X140871605Y-100366416D01*
X140823373Y-100324623D01*
X140799598Y-100313765D01*
X140692456Y-100264834D01*
X140585792Y-100249499D01*
X140550000Y-100244353D01*
X140549998Y-100244353D01*
X139776234Y-100244353D01*
X139772877Y-100244262D01*
X139757970Y-100243453D01*
X139718917Y-100241336D01*
X139718912Y-100241336D01*
X139683110Y-100243277D01*
X139664943Y-100244262D01*
X139661590Y-100244353D01*
X139139264Y-100244353D01*
X139072225Y-100224668D01*
X139026470Y-100171864D01*
X139016526Y-100102706D01*
X139031877Y-100058353D01*
X139082046Y-99971456D01*
X139127179Y-99893284D01*
X139185674Y-99713256D01*
X139205460Y-99525000D01*
X139185674Y-99336744D01*
X139127179Y-99156716D01*
X139032533Y-98992784D01*
X138905871Y-98852112D01*
X138905870Y-98852111D01*
X138752734Y-98740851D01*
X138752729Y-98740848D01*
X138579807Y-98663857D01*
X138579802Y-98663855D01*
X138434000Y-98632865D01*
X138394646Y-98624500D01*
X138205354Y-98624500D01*
X138172897Y-98631398D01*
X138020197Y-98663855D01*
X138020192Y-98663857D01*
X137847270Y-98740848D01*
X137847265Y-98740851D01*
X137768489Y-98798086D01*
X137702683Y-98821566D01*
X137634629Y-98805740D01*
X137585934Y-98755635D01*
X137572059Y-98687157D01*
X137588217Y-98635768D01*
X137627179Y-98568284D01*
X137685674Y-98388256D01*
X137705460Y-98200000D01*
X137685674Y-98011744D01*
X137627179Y-97831716D01*
X137532533Y-97667784D01*
X137405871Y-97527112D01*
X137381443Y-97509364D01*
X137252734Y-97415851D01*
X137252729Y-97415848D01*
X137079807Y-97338857D01*
X137079802Y-97338855D01*
X136934001Y-97307865D01*
X136894646Y-97299500D01*
X136705354Y-97299500D01*
X136672897Y-97306398D01*
X136520197Y-97338855D01*
X136520192Y-97338857D01*
X136347270Y-97415848D01*
X136347265Y-97415851D01*
X136194129Y-97527111D01*
X136067466Y-97667785D01*
X135972821Y-97831715D01*
X135972818Y-97831722D01*
X135914327Y-98011740D01*
X135914326Y-98011744D01*
X135894540Y-98200000D01*
X135914326Y-98388256D01*
X135914327Y-98388259D01*
X135972818Y-98568277D01*
X135972821Y-98568284D01*
X136067467Y-98732216D01*
X136152911Y-98827111D01*
X136194129Y-98872888D01*
X136347265Y-98984148D01*
X136347270Y-98984151D01*
X136520192Y-99061142D01*
X136520197Y-99061144D01*
X136705354Y-99100500D01*
X136705355Y-99100500D01*
X136894644Y-99100500D01*
X136894646Y-99100500D01*
X137079803Y-99061144D01*
X137252730Y-98984151D01*
X137331512Y-98926912D01*
X137397314Y-98903433D01*
X137465369Y-98919258D01*
X137514064Y-98969363D01*
X137527940Y-99037841D01*
X137511783Y-99089229D01*
X137472822Y-99156713D01*
X137472818Y-99156722D01*
X137422450Y-99311740D01*
X137414326Y-99336744D01*
X137394540Y-99525000D01*
X137414326Y-99713256D01*
X137414327Y-99713259D01*
X137472818Y-99893277D01*
X137472821Y-99893284D01*
X137568123Y-100058353D01*
X137584596Y-100126254D01*
X137561743Y-100192280D01*
X137506822Y-100235471D01*
X137460736Y-100244353D01*
X137236234Y-100244353D01*
X137232877Y-100244262D01*
X137217970Y-100243453D01*
X137178917Y-100241336D01*
X137178912Y-100241336D01*
X137143110Y-100243277D01*
X137124943Y-100244262D01*
X137121590Y-100244353D01*
X136310000Y-100244353D01*
X136238039Y-100249499D01*
X136238034Y-100249500D01*
X136099949Y-100290045D01*
X135978873Y-100367856D01*
X135884623Y-100476626D01*
X135884622Y-100476628D01*
X135824834Y-100607543D01*
X135807002Y-100731573D01*
X135777977Y-100795129D01*
X135771945Y-100801607D01*
X135228949Y-101344602D01*
X135167626Y-101378087D01*
X135097934Y-101373103D01*
X135042001Y-101331231D01*
X135036953Y-101323961D01*
X135001761Y-101269202D01*
X134886398Y-101169241D01*
X134888708Y-101166574D01*
X134854005Y-101126528D01*
X134844058Y-101057370D01*
X134873080Y-100993813D01*
X134879116Y-100987330D01*
X135602533Y-100263913D01*
X135469998Y-100244858D01*
X134696270Y-100244858D01*
X134692913Y-100244767D01*
X134638946Y-100241841D01*
X134638940Y-100241841D01*
X134584975Y-100244767D01*
X134581618Y-100244858D01*
X133769999Y-100244858D01*
X133698109Y-100249999D01*
X133560158Y-100290505D01*
X133541536Y-100302473D01*
X133474496Y-100322156D01*
X133407457Y-100302470D01*
X133361703Y-100249665D01*
X133350499Y-100198159D01*
X133350499Y-96950000D01*
X139094540Y-96950000D01*
X139114326Y-97138256D01*
X139114327Y-97138259D01*
X139172818Y-97318277D01*
X139172821Y-97318284D01*
X139267467Y-97482216D01*
X139384911Y-97612650D01*
X139394129Y-97622888D01*
X139547265Y-97734148D01*
X139547270Y-97734151D01*
X139720191Y-97811142D01*
X139720193Y-97811142D01*
X139720197Y-97811144D01*
X139794210Y-97826875D01*
X139855689Y-97860067D01*
X139889466Y-97921229D01*
X139887218Y-97983728D01*
X139849532Y-98109608D01*
X139849530Y-98109616D01*
X139839393Y-98283659D01*
X139869449Y-98454115D01*
X139869668Y-98455354D01*
X139938721Y-98615438D01*
X139938722Y-98615440D01*
X139938724Y-98615443D01*
X140032086Y-98740849D01*
X140042832Y-98755283D01*
X140176386Y-98867349D01*
X140332185Y-98945594D01*
X140501829Y-98985800D01*
X140501831Y-98985800D01*
X140632429Y-98985800D01*
X140632436Y-98985800D01*
X140762164Y-98970637D01*
X140925993Y-98911008D01*
X141071654Y-98815205D01*
X141191296Y-98688393D01*
X141278467Y-98537407D01*
X141328469Y-98370388D01*
X141333521Y-98283659D01*
X141871393Y-98283659D01*
X141901449Y-98454115D01*
X141901668Y-98455354D01*
X141970721Y-98615438D01*
X141970722Y-98615440D01*
X141970724Y-98615443D01*
X142064086Y-98740849D01*
X142074832Y-98755283D01*
X142208386Y-98867349D01*
X142364185Y-98945594D01*
X142533829Y-98985800D01*
X142533831Y-98985800D01*
X142664429Y-98985800D01*
X142664436Y-98985800D01*
X142794164Y-98970637D01*
X142957993Y-98911008D01*
X143103654Y-98815205D01*
X143223296Y-98688393D01*
X143310467Y-98537407D01*
X143360469Y-98370388D01*
X143370607Y-98196340D01*
X143340332Y-98024646D01*
X143271279Y-97864562D01*
X143262281Y-97852476D01*
X143174189Y-97734148D01*
X143167168Y-97724717D01*
X143151066Y-97711206D01*
X143033614Y-97612651D01*
X143033612Y-97612650D01*
X142877818Y-97534407D01*
X142877816Y-97534406D01*
X142877815Y-97534406D01*
X142708171Y-97494200D01*
X142577564Y-97494200D01*
X142464052Y-97507467D01*
X142447835Y-97509363D01*
X142447832Y-97509364D01*
X142284008Y-97568991D01*
X142284004Y-97568993D01*
X142138348Y-97664792D01*
X142138347Y-97664793D01*
X142018706Y-97791603D01*
X142018703Y-97791609D01*
X141931534Y-97942590D01*
X141881531Y-98109610D01*
X141881530Y-98109616D01*
X141871393Y-98283659D01*
X141333521Y-98283659D01*
X141338607Y-98196340D01*
X141308332Y-98024646D01*
X141239279Y-97864562D01*
X141230281Y-97852476D01*
X141142189Y-97734148D01*
X141135168Y-97724717D01*
X141119066Y-97711206D01*
X141001614Y-97612651D01*
X141001612Y-97612650D01*
X140852089Y-97537556D01*
X140801015Y-97489878D01*
X140783825Y-97422156D01*
X140800353Y-97364747D01*
X140827179Y-97318284D01*
X140885674Y-97138256D01*
X140905460Y-96950000D01*
X140885674Y-96761744D01*
X140867638Y-96706235D01*
X147250984Y-96706235D01*
X147269918Y-96874289D01*
X147325778Y-97033927D01*
X147325780Y-97033930D01*
X147415751Y-97177117D01*
X147415756Y-97177123D01*
X147535342Y-97296709D01*
X147535348Y-97296714D01*
X147678535Y-97386685D01*
X147678538Y-97386687D01*
X147678542Y-97386688D01*
X147678543Y-97386689D01*
X147716584Y-97400000D01*
X147838176Y-97442547D01*
X148006230Y-97461482D01*
X148006233Y-97461482D01*
X148006236Y-97461482D01*
X148132277Y-97447280D01*
X148174292Y-97442546D01*
X148229877Y-97423095D01*
X148299655Y-97419533D01*
X148360282Y-97454261D01*
X148387873Y-97499182D01*
X148419542Y-97589686D01*
X148419547Y-97589697D01*
X148509518Y-97732884D01*
X148509523Y-97732890D01*
X148629109Y-97852476D01*
X148629115Y-97852481D01*
X148772302Y-97942452D01*
X148772305Y-97942454D01*
X148772309Y-97942455D01*
X148772310Y-97942456D01*
X148772702Y-97942593D01*
X148931943Y-97998314D01*
X149099997Y-98017249D01*
X149100000Y-98017249D01*
X149100003Y-98017249D01*
X149268056Y-97998314D01*
X149268059Y-97998313D01*
X149427690Y-97942456D01*
X149427692Y-97942454D01*
X149427694Y-97942454D01*
X149427697Y-97942452D01*
X149570884Y-97852481D01*
X149570885Y-97852480D01*
X149570890Y-97852477D01*
X149690477Y-97732890D01*
X149690481Y-97732884D01*
X149780452Y-97589697D01*
X149780454Y-97589694D01*
X149780454Y-97589692D01*
X149780456Y-97589690D01*
X149836313Y-97430059D01*
X149836313Y-97430058D01*
X149836314Y-97430056D01*
X149855249Y-97262002D01*
X149855249Y-97261997D01*
X149836314Y-97093943D01*
X149780454Y-96934305D01*
X149780452Y-96934302D01*
X149690481Y-96791115D01*
X149690476Y-96791109D01*
X149570890Y-96671523D01*
X149570884Y-96671518D01*
X149427697Y-96581547D01*
X149427694Y-96581545D01*
X149268056Y-96525685D01*
X149100003Y-96506751D01*
X149099997Y-96506751D01*
X148931942Y-96525686D01*
X148876354Y-96545137D01*
X148806575Y-96548698D01*
X148745948Y-96513969D01*
X148718358Y-96469049D01*
X148687358Y-96380456D01*
X148686689Y-96378543D01*
X148686686Y-96378538D01*
X148686685Y-96378535D01*
X148596714Y-96235348D01*
X148596709Y-96235342D01*
X148477123Y-96115756D01*
X148477117Y-96115751D01*
X148333930Y-96025780D01*
X148333927Y-96025778D01*
X148174289Y-95969918D01*
X148006236Y-95950984D01*
X148006230Y-95950984D01*
X147838176Y-95969918D01*
X147678538Y-96025778D01*
X147678535Y-96025780D01*
X147535348Y-96115751D01*
X147535342Y-96115756D01*
X147415756Y-96235342D01*
X147415751Y-96235348D01*
X147325780Y-96378535D01*
X147325778Y-96378538D01*
X147269918Y-96538176D01*
X147250984Y-96706230D01*
X147250984Y-96706235D01*
X140867638Y-96706235D01*
X140827179Y-96581716D01*
X140732533Y-96417784D01*
X140605871Y-96277112D01*
X140548381Y-96235343D01*
X140452734Y-96165851D01*
X140452729Y-96165848D01*
X140279807Y-96088857D01*
X140279802Y-96088855D01*
X140134000Y-96057865D01*
X140094646Y-96049500D01*
X139905354Y-96049500D01*
X139872897Y-96056398D01*
X139720197Y-96088855D01*
X139720192Y-96088857D01*
X139547270Y-96165848D01*
X139547265Y-96165851D01*
X139394129Y-96277111D01*
X139267466Y-96417785D01*
X139172821Y-96581715D01*
X139172818Y-96581722D01*
X139132362Y-96706235D01*
X139114326Y-96761744D01*
X139094540Y-96950000D01*
X133350499Y-96950000D01*
X133350499Y-95500000D01*
X136194540Y-95500000D01*
X136214326Y-95688256D01*
X136214327Y-95688259D01*
X136272818Y-95868277D01*
X136272821Y-95868284D01*
X136367467Y-96032216D01*
X136442687Y-96115756D01*
X136494129Y-96172888D01*
X136647265Y-96284148D01*
X136647270Y-96284151D01*
X136820192Y-96361142D01*
X136820197Y-96361144D01*
X137005354Y-96400500D01*
X137005355Y-96400500D01*
X137194644Y-96400500D01*
X137194646Y-96400500D01*
X137379803Y-96361144D01*
X137552730Y-96284151D01*
X137705871Y-96172888D01*
X137832533Y-96032216D01*
X137927179Y-95868284D01*
X137985674Y-95688256D01*
X138002840Y-95524924D01*
X138029423Y-95460313D01*
X138086720Y-95420328D01*
X138156539Y-95417668D01*
X138213841Y-95450208D01*
X138304109Y-95540476D01*
X138304115Y-95540481D01*
X138447302Y-95630452D01*
X138447305Y-95630454D01*
X138447309Y-95630455D01*
X138447310Y-95630456D01*
X138452340Y-95632216D01*
X138606943Y-95686314D01*
X138774997Y-95705249D01*
X138775000Y-95705249D01*
X138775003Y-95705249D01*
X138943056Y-95686314D01*
X138959809Y-95680452D01*
X139102690Y-95630456D01*
X139102692Y-95630454D01*
X139102694Y-95630454D01*
X139102697Y-95630452D01*
X139245884Y-95540481D01*
X139245885Y-95540480D01*
X139245890Y-95540477D01*
X139365477Y-95420890D01*
X139396007Y-95372302D01*
X139455452Y-95277697D01*
X139455454Y-95277694D01*
X139455454Y-95277692D01*
X139455456Y-95277690D01*
X139511313Y-95118059D01*
X139511313Y-95118058D01*
X139511314Y-95118056D01*
X139513348Y-95100000D01*
X144794540Y-95100000D01*
X144814326Y-95288256D01*
X144814327Y-95288258D01*
X144814327Y-95288259D01*
X144872818Y-95468277D01*
X144872821Y-95468284D01*
X144967467Y-95632216D01*
X145061197Y-95736313D01*
X145094129Y-95772888D01*
X145247265Y-95884148D01*
X145247270Y-95884151D01*
X145420192Y-95961142D01*
X145420197Y-95961144D01*
X145605354Y-96000500D01*
X145605355Y-96000500D01*
X145794644Y-96000500D01*
X145794646Y-96000500D01*
X145979803Y-95961144D01*
X146152730Y-95884151D01*
X146305871Y-95772888D01*
X146432533Y-95632216D01*
X146527179Y-95468284D01*
X146585674Y-95288256D01*
X146587771Y-95268300D01*
X146614353Y-95203689D01*
X146671650Y-95163703D01*
X146673631Y-95163162D01*
X146673628Y-95163150D01*
X146679799Y-95161144D01*
X146679803Y-95161144D01*
X146679806Y-95161142D01*
X146679808Y-95161142D01*
X146682373Y-95160000D01*
X150394540Y-95160000D01*
X150414326Y-95348256D01*
X150414327Y-95348259D01*
X150472818Y-95528277D01*
X150472821Y-95528284D01*
X150567467Y-95692216D01*
X150640105Y-95772888D01*
X150694129Y-95832888D01*
X150847265Y-95944148D01*
X150847270Y-95944151D01*
X151020192Y-96021142D01*
X151020197Y-96021144D01*
X151205354Y-96060500D01*
X151205355Y-96060500D01*
X151394644Y-96060500D01*
X151394646Y-96060500D01*
X151579803Y-96021144D01*
X151752730Y-95944151D01*
X151905871Y-95832888D01*
X152032533Y-95692216D01*
X152127179Y-95528284D01*
X152127181Y-95528277D01*
X152132069Y-95513235D01*
X152171506Y-95455560D01*
X152235865Y-95428361D01*
X152304711Y-95440275D01*
X152356187Y-95487520D01*
X152367931Y-95513235D01*
X152372818Y-95528278D01*
X152372821Y-95528284D01*
X152467467Y-95692216D01*
X152540105Y-95772888D01*
X152594129Y-95832888D01*
X152747265Y-95944148D01*
X152747270Y-95944151D01*
X152920192Y-96021142D01*
X152920197Y-96021144D01*
X153105354Y-96060500D01*
X153105355Y-96060500D01*
X153294644Y-96060500D01*
X153294646Y-96060500D01*
X153479803Y-96021144D01*
X153652730Y-95944151D01*
X153805871Y-95832888D01*
X153925522Y-95700002D01*
X158144751Y-95700002D01*
X158163685Y-95868056D01*
X158219545Y-96027694D01*
X158219547Y-96027697D01*
X158309518Y-96170884D01*
X158309523Y-96170890D01*
X158429109Y-96290476D01*
X158429115Y-96290481D01*
X158572302Y-96380452D01*
X158572305Y-96380454D01*
X158572309Y-96380455D01*
X158572310Y-96380456D01*
X158629593Y-96400500D01*
X158731943Y-96436314D01*
X158899997Y-96455249D01*
X158900000Y-96455249D01*
X158900003Y-96455249D01*
X159068056Y-96436314D01*
X159121009Y-96417785D01*
X159227690Y-96380456D01*
X159227692Y-96380454D01*
X159227694Y-96380454D01*
X159227697Y-96380452D01*
X159370884Y-96290481D01*
X159370885Y-96290480D01*
X159370890Y-96290477D01*
X159490477Y-96170890D01*
X159493643Y-96165851D01*
X159580452Y-96027697D01*
X159580454Y-96027694D01*
X159580454Y-96027692D01*
X159580456Y-96027690D01*
X159636313Y-95868059D01*
X159636313Y-95868058D01*
X159636314Y-95868056D01*
X159655249Y-95700002D01*
X159655249Y-95699997D01*
X159636314Y-95531943D01*
X159580454Y-95372305D01*
X159580452Y-95372302D01*
X159490481Y-95229115D01*
X159490476Y-95229109D01*
X159423493Y-95162126D01*
X159390008Y-95100803D01*
X159394992Y-95031111D01*
X159436864Y-94975178D01*
X159445177Y-94969467D01*
X159570890Y-94890477D01*
X159690477Y-94770890D01*
X159715092Y-94731716D01*
X159780452Y-94627697D01*
X159780454Y-94627694D01*
X159780454Y-94627692D01*
X159780456Y-94627690D01*
X159836313Y-94468059D01*
X159836313Y-94468058D01*
X159836314Y-94468056D01*
X159855249Y-94300002D01*
X159855249Y-94299997D01*
X159836314Y-94131943D01*
X159783306Y-93980455D01*
X159780456Y-93972310D01*
X159780455Y-93972309D01*
X159780454Y-93972305D01*
X159780452Y-93972302D01*
X159690481Y-93829115D01*
X159690476Y-93829109D01*
X159570890Y-93709523D01*
X159570884Y-93709518D01*
X159427697Y-93619547D01*
X159427694Y-93619545D01*
X159268056Y-93563685D01*
X159100003Y-93544751D01*
X159099997Y-93544751D01*
X158931943Y-93563685D01*
X158772305Y-93619545D01*
X158772302Y-93619547D01*
X158629115Y-93709518D01*
X158629109Y-93709523D01*
X158509523Y-93829109D01*
X158509518Y-93829115D01*
X158419547Y-93972302D01*
X158419545Y-93972305D01*
X158363685Y-94131943D01*
X158344751Y-94299997D01*
X158344751Y-94300002D01*
X158363685Y-94468056D01*
X158419545Y-94627694D01*
X158419547Y-94627697D01*
X158509518Y-94770884D01*
X158509523Y-94770890D01*
X158576506Y-94837873D01*
X158609991Y-94899196D01*
X158605007Y-94968888D01*
X158563135Y-95024821D01*
X158554798Y-95030547D01*
X158429111Y-95109521D01*
X158309523Y-95229109D01*
X158309518Y-95229115D01*
X158219547Y-95372302D01*
X158219545Y-95372305D01*
X158163685Y-95531943D01*
X158144751Y-95699997D01*
X158144751Y-95700002D01*
X153925522Y-95700002D01*
X153932533Y-95692216D01*
X154027179Y-95528284D01*
X154085674Y-95348256D01*
X154105460Y-95160000D01*
X154085674Y-94971744D01*
X154027179Y-94791716D01*
X153932533Y-94627784D01*
X153805871Y-94487112D01*
X153794864Y-94479115D01*
X153652734Y-94375851D01*
X153652731Y-94375850D01*
X153652730Y-94375849D01*
X153646957Y-94373279D01*
X153593721Y-94328031D01*
X153573399Y-94261182D01*
X153592443Y-94193958D01*
X153644809Y-94147702D01*
X153646920Y-94146737D01*
X153652730Y-94144151D01*
X153805871Y-94032888D01*
X153932533Y-93892216D01*
X154027179Y-93728284D01*
X154085674Y-93548256D01*
X154105460Y-93360000D01*
X154099154Y-93300002D01*
X162144751Y-93300002D01*
X162163685Y-93468056D01*
X162219545Y-93627694D01*
X162219547Y-93627697D01*
X162309518Y-93770884D01*
X162309523Y-93770890D01*
X162429109Y-93890476D01*
X162429115Y-93890481D01*
X162572302Y-93980452D01*
X162572305Y-93980454D01*
X162572309Y-93980455D01*
X162572310Y-93980456D01*
X162661958Y-94011825D01*
X162731944Y-94036314D01*
X162802887Y-94044306D01*
X162834886Y-94047912D01*
X162899300Y-94074978D01*
X162938855Y-94132572D01*
X162940994Y-94202409D01*
X162905036Y-94262316D01*
X162861959Y-94288173D01*
X162772311Y-94319543D01*
X162772302Y-94319547D01*
X162629115Y-94409518D01*
X162629109Y-94409523D01*
X162509523Y-94529109D01*
X162509518Y-94529115D01*
X162419547Y-94672302D01*
X162419545Y-94672305D01*
X162363685Y-94831943D01*
X162344751Y-94999997D01*
X162344751Y-95000002D01*
X162363685Y-95168056D01*
X162419545Y-95327694D01*
X162419547Y-95327697D01*
X162509518Y-95470884D01*
X162509523Y-95470890D01*
X162629109Y-95590476D01*
X162629115Y-95590481D01*
X162772302Y-95680452D01*
X162772305Y-95680454D01*
X162772309Y-95680455D01*
X162772310Y-95680456D01*
X162828155Y-95699997D01*
X162931943Y-95736314D01*
X163099997Y-95755249D01*
X163100000Y-95755249D01*
X163100003Y-95755249D01*
X163268056Y-95736314D01*
X163268059Y-95736313D01*
X163427690Y-95680456D01*
X163427692Y-95680454D01*
X163427694Y-95680454D01*
X163427697Y-95680452D01*
X163570884Y-95590481D01*
X163570885Y-95590480D01*
X163570890Y-95590477D01*
X163690477Y-95470890D01*
X163690481Y-95470884D01*
X163780452Y-95327697D01*
X163780454Y-95327694D01*
X163780454Y-95327692D01*
X163780456Y-95327690D01*
X163836313Y-95168059D01*
X163836313Y-95168058D01*
X163836314Y-95168056D01*
X163855249Y-95000002D01*
X163855249Y-94999997D01*
X163836314Y-94831943D01*
X163801243Y-94731715D01*
X163780456Y-94672310D01*
X163780455Y-94672309D01*
X163780454Y-94672305D01*
X163780452Y-94672302D01*
X163690481Y-94529115D01*
X163690476Y-94529109D01*
X163570890Y-94409523D01*
X163570884Y-94409518D01*
X163427697Y-94319547D01*
X163427694Y-94319545D01*
X163268056Y-94263685D01*
X163165112Y-94252087D01*
X163100698Y-94225021D01*
X163061143Y-94167426D01*
X163059006Y-94097589D01*
X163094964Y-94037682D01*
X163138042Y-94011825D01*
X163227690Y-93980456D01*
X163227693Y-93980453D01*
X163227697Y-93980452D01*
X163370884Y-93890481D01*
X163370885Y-93890480D01*
X163370890Y-93890477D01*
X163490477Y-93770890D01*
X163492429Y-93767784D01*
X163580452Y-93627697D01*
X163580454Y-93627694D01*
X163580454Y-93627692D01*
X163580456Y-93627690D01*
X163636313Y-93468059D01*
X163636313Y-93468058D01*
X163636314Y-93468056D01*
X163655249Y-93300002D01*
X163655249Y-93299997D01*
X163636314Y-93131943D01*
X163600506Y-93029610D01*
X163580456Y-92972310D01*
X163580455Y-92972309D01*
X163580454Y-92972305D01*
X163580452Y-92972302D01*
X163490481Y-92829115D01*
X163490476Y-92829109D01*
X163370890Y-92709523D01*
X163370884Y-92709518D01*
X163227697Y-92619547D01*
X163227694Y-92619545D01*
X163068056Y-92563685D01*
X162900003Y-92544751D01*
X162899997Y-92544751D01*
X162731943Y-92563685D01*
X162572305Y-92619545D01*
X162572302Y-92619547D01*
X162429115Y-92709518D01*
X162429109Y-92709523D01*
X162309523Y-92829109D01*
X162309518Y-92829115D01*
X162219547Y-92972302D01*
X162219545Y-92972305D01*
X162163685Y-93131943D01*
X162144751Y-93299997D01*
X162144751Y-93300002D01*
X154099154Y-93300002D01*
X154085674Y-93171744D01*
X154027179Y-92991716D01*
X153932533Y-92827784D01*
X153805871Y-92687112D01*
X153805870Y-92687111D01*
X153652734Y-92575851D01*
X153652729Y-92575848D01*
X153479807Y-92498857D01*
X153479802Y-92498855D01*
X153334001Y-92467865D01*
X153294646Y-92459500D01*
X153105354Y-92459500D01*
X153072897Y-92466398D01*
X152920197Y-92498855D01*
X152920192Y-92498857D01*
X152747270Y-92575848D01*
X152747265Y-92575851D01*
X152594129Y-92687111D01*
X152467466Y-92827785D01*
X152372821Y-92991715D01*
X152372820Y-92991717D01*
X152367931Y-93006766D01*
X152328492Y-93064440D01*
X152264133Y-93091638D01*
X152195287Y-93079723D01*
X152143812Y-93032478D01*
X152132069Y-93006766D01*
X152127179Y-92991717D01*
X152127178Y-92991715D01*
X152115970Y-92972302D01*
X152032533Y-92827784D01*
X151905871Y-92687112D01*
X151905870Y-92687111D01*
X151752734Y-92575851D01*
X151752729Y-92575848D01*
X151579807Y-92498857D01*
X151579802Y-92498855D01*
X151434001Y-92467865D01*
X151394646Y-92459500D01*
X151205354Y-92459500D01*
X151172897Y-92466398D01*
X151020197Y-92498855D01*
X151020192Y-92498857D01*
X150847270Y-92575848D01*
X150847265Y-92575851D01*
X150694129Y-92687111D01*
X150567466Y-92827785D01*
X150472821Y-92991715D01*
X150472818Y-92991722D01*
X150414327Y-93171740D01*
X150414326Y-93171744D01*
X150394540Y-93360000D01*
X150414326Y-93548256D01*
X150414327Y-93548259D01*
X150472818Y-93728277D01*
X150472821Y-93728284D01*
X150567467Y-93892216D01*
X150646917Y-93980454D01*
X150694129Y-94032888D01*
X150847265Y-94144148D01*
X150847267Y-94144149D01*
X150847270Y-94144151D01*
X150853043Y-94146721D01*
X150906280Y-94191972D01*
X150926600Y-94258822D01*
X150907554Y-94326045D01*
X150855187Y-94372300D01*
X150853072Y-94373265D01*
X150850151Y-94374566D01*
X150847267Y-94375850D01*
X150847265Y-94375851D01*
X150694129Y-94487111D01*
X150567466Y-94627785D01*
X150472821Y-94791715D01*
X150472818Y-94791722D01*
X150415612Y-94967785D01*
X150414326Y-94971744D01*
X150394540Y-95160000D01*
X146682373Y-95160000D01*
X146745885Y-95131722D01*
X146852730Y-95084151D01*
X147005871Y-94972888D01*
X147132533Y-94832216D01*
X147227179Y-94668284D01*
X147285674Y-94488256D01*
X147305460Y-94300000D01*
X147285674Y-94111744D01*
X147227179Y-93931716D01*
X147132533Y-93767784D01*
X147005871Y-93627112D01*
X146995456Y-93619545D01*
X146852734Y-93515851D01*
X146852731Y-93515849D01*
X146852730Y-93515849D01*
X146812534Y-93497952D01*
X146759298Y-93452703D01*
X146738977Y-93385854D01*
X146758022Y-93318630D01*
X146790085Y-93284357D01*
X146805871Y-93272888D01*
X146932533Y-93132216D01*
X147027179Y-92968284D01*
X147085674Y-92788256D01*
X147105460Y-92600000D01*
X147085674Y-92411744D01*
X147027179Y-92231716D01*
X146932533Y-92067784D01*
X146805871Y-91927112D01*
X146805870Y-91927111D01*
X146652734Y-91815851D01*
X146652729Y-91815848D01*
X146479807Y-91738857D01*
X146479802Y-91738855D01*
X146334000Y-91707865D01*
X146294646Y-91699500D01*
X146105354Y-91699500D01*
X146072897Y-91706398D01*
X145920197Y-91738855D01*
X145920192Y-91738857D01*
X145747270Y-91815848D01*
X145747265Y-91815851D01*
X145594129Y-91927111D01*
X145467466Y-92067785D01*
X145372821Y-92231715D01*
X145372818Y-92231722D01*
X145314327Y-92411740D01*
X145314326Y-92411744D01*
X145294540Y-92600000D01*
X145314326Y-92788256D01*
X145314327Y-92788259D01*
X145372818Y-92968277D01*
X145372821Y-92968284D01*
X145467467Y-93132216D01*
X145531795Y-93203659D01*
X145594129Y-93272888D01*
X145747265Y-93384148D01*
X145747267Y-93384149D01*
X145747270Y-93384151D01*
X145787466Y-93402047D01*
X145840700Y-93447295D01*
X145861022Y-93514144D01*
X145841977Y-93581368D01*
X145809917Y-93615641D01*
X145794127Y-93627113D01*
X145667466Y-93767785D01*
X145572821Y-93931715D01*
X145572818Y-93931722D01*
X145514327Y-94111739D01*
X145514325Y-94111750D01*
X145512228Y-94131700D01*
X145485643Y-94196314D01*
X145428345Y-94236298D01*
X145426372Y-94236836D01*
X145426376Y-94236848D01*
X145420194Y-94238856D01*
X145247270Y-94315848D01*
X145247265Y-94315851D01*
X145094129Y-94427111D01*
X144967466Y-94567785D01*
X144872821Y-94731715D01*
X144872818Y-94731722D01*
X144821236Y-94890476D01*
X144814326Y-94911744D01*
X144794540Y-95100000D01*
X139513348Y-95100000D01*
X139530249Y-94950002D01*
X139530249Y-94949997D01*
X139511314Y-94781943D01*
X139461246Y-94638857D01*
X139455456Y-94622310D01*
X139455455Y-94622309D01*
X139455454Y-94622305D01*
X139455452Y-94622302D01*
X139365481Y-94479115D01*
X139365476Y-94479109D01*
X139245890Y-94359523D01*
X139245884Y-94359518D01*
X139102697Y-94269547D01*
X139102694Y-94269545D01*
X138943056Y-94213685D01*
X138775003Y-94194751D01*
X138774997Y-94194751D01*
X138606943Y-94213685D01*
X138447305Y-94269545D01*
X138447302Y-94269547D01*
X138304115Y-94359518D01*
X138304109Y-94359523D01*
X138184523Y-94479109D01*
X138184518Y-94479115D01*
X138094547Y-94622302D01*
X138094545Y-94622305D01*
X138038685Y-94781944D01*
X138028019Y-94876613D01*
X138000952Y-94941027D01*
X137943357Y-94980582D01*
X137873520Y-94982719D01*
X137813614Y-94946761D01*
X137812649Y-94945701D01*
X137782070Y-94911740D01*
X137705871Y-94827112D01*
X137657161Y-94791722D01*
X137552734Y-94715851D01*
X137552729Y-94715848D01*
X137379807Y-94638857D01*
X137379802Y-94638855D01*
X137234000Y-94607865D01*
X137194646Y-94599500D01*
X137005354Y-94599500D01*
X136972897Y-94606398D01*
X136820197Y-94638855D01*
X136820192Y-94638857D01*
X136647270Y-94715848D01*
X136647265Y-94715851D01*
X136494129Y-94827111D01*
X136367466Y-94967785D01*
X136272821Y-95131715D01*
X136272818Y-95131722D01*
X136214327Y-95311740D01*
X136214326Y-95311744D01*
X136194540Y-95500000D01*
X133350499Y-95500000D01*
X133350499Y-93203660D01*
X140855393Y-93203660D01*
X140885668Y-93375354D01*
X140954721Y-93535438D01*
X140954722Y-93535440D01*
X140954724Y-93535443D01*
X141023400Y-93627690D01*
X141058832Y-93675283D01*
X141192386Y-93787349D01*
X141348185Y-93865594D01*
X141517829Y-93905800D01*
X141517831Y-93905800D01*
X141648429Y-93905800D01*
X141648436Y-93905800D01*
X141778164Y-93890637D01*
X141941993Y-93831008D01*
X142087654Y-93735205D01*
X142207296Y-93608393D01*
X142294467Y-93457407D01*
X142344469Y-93290388D01*
X142354607Y-93116340D01*
X142324332Y-92944646D01*
X142255279Y-92784562D01*
X142151168Y-92644717D01*
X142121169Y-92619545D01*
X142017614Y-92532651D01*
X142017612Y-92532650D01*
X141861818Y-92454407D01*
X141861816Y-92454406D01*
X141861815Y-92454406D01*
X141692171Y-92414200D01*
X141561564Y-92414200D01*
X141448052Y-92427467D01*
X141431835Y-92429363D01*
X141431832Y-92429364D01*
X141268008Y-92488991D01*
X141268004Y-92488993D01*
X141122348Y-92584792D01*
X141122347Y-92584793D01*
X141002706Y-92711603D01*
X141002703Y-92711609D01*
X140915534Y-92862590D01*
X140865531Y-93029610D01*
X140865530Y-93029616D01*
X140859554Y-93132216D01*
X140855393Y-93203660D01*
X133350499Y-93203660D01*
X133350499Y-92100000D01*
X136594540Y-92100000D01*
X136614326Y-92288256D01*
X136614327Y-92288259D01*
X136672818Y-92468277D01*
X136672821Y-92468284D01*
X136767467Y-92632216D01*
X136838953Y-92711609D01*
X136894129Y-92772888D01*
X137047265Y-92884148D01*
X137047270Y-92884151D01*
X137220192Y-92961142D01*
X137220197Y-92961144D01*
X137405354Y-93000500D01*
X137405355Y-93000500D01*
X137594644Y-93000500D01*
X137594646Y-93000500D01*
X137779803Y-92961144D01*
X137952730Y-92884151D01*
X138105871Y-92772888D01*
X138232533Y-92632216D01*
X138327179Y-92468284D01*
X138385674Y-92288256D01*
X138405460Y-92100000D01*
X138385674Y-91911744D01*
X138327179Y-91731716D01*
X138232533Y-91567784D01*
X138126481Y-91450002D01*
X141219751Y-91450002D01*
X141238685Y-91618056D01*
X141294545Y-91777694D01*
X141294547Y-91777697D01*
X141384518Y-91920884D01*
X141384523Y-91920890D01*
X141504109Y-92040476D01*
X141504115Y-92040481D01*
X141647302Y-92130452D01*
X141647305Y-92130454D01*
X141647309Y-92130455D01*
X141647310Y-92130456D01*
X141719913Y-92155860D01*
X141806943Y-92186314D01*
X141974997Y-92205249D01*
X141975000Y-92205249D01*
X141975003Y-92205249D01*
X142143056Y-92186314D01*
X142143059Y-92186313D01*
X142302690Y-92130456D01*
X142302692Y-92130454D01*
X142302694Y-92130454D01*
X142302697Y-92130452D01*
X142445884Y-92040481D01*
X142445885Y-92040480D01*
X142445890Y-92040477D01*
X142565477Y-91920890D01*
X142571224Y-91911744D01*
X142655452Y-91777697D01*
X142655454Y-91777694D01*
X142655454Y-91777692D01*
X142655456Y-91777690D01*
X142711313Y-91618059D01*
X142711313Y-91618058D01*
X142711314Y-91618056D01*
X142730249Y-91450002D01*
X142730249Y-91450000D01*
X154044540Y-91450000D01*
X154064326Y-91638256D01*
X154064327Y-91638259D01*
X154122818Y-91818277D01*
X154122821Y-91818284D01*
X154217467Y-91982216D01*
X154344128Y-92122887D01*
X154344129Y-92122888D01*
X154497265Y-92234148D01*
X154497270Y-92234151D01*
X154670192Y-92311142D01*
X154670197Y-92311144D01*
X154855354Y-92350500D01*
X154855355Y-92350500D01*
X155044644Y-92350500D01*
X155044646Y-92350500D01*
X155229803Y-92311144D01*
X155402730Y-92234151D01*
X155555871Y-92122888D01*
X155682533Y-91982216D01*
X155777179Y-91818284D01*
X155835674Y-91638256D01*
X155855460Y-91450000D01*
X155835674Y-91261744D01*
X155777179Y-91081716D01*
X155682533Y-90917784D01*
X155555871Y-90777112D01*
X155545456Y-90769545D01*
X155402734Y-90665851D01*
X155402729Y-90665848D01*
X155229807Y-90588857D01*
X155229802Y-90588855D01*
X155084001Y-90557865D01*
X155044646Y-90549500D01*
X154855354Y-90549500D01*
X154822897Y-90556398D01*
X154670197Y-90588855D01*
X154670192Y-90588857D01*
X154497270Y-90665848D01*
X154497265Y-90665851D01*
X154344129Y-90777111D01*
X154217466Y-90917785D01*
X154122821Y-91081715D01*
X154122818Y-91081722D01*
X154071762Y-91238857D01*
X154064326Y-91261744D01*
X154044540Y-91450000D01*
X142730249Y-91450000D01*
X142730249Y-91449997D01*
X142711314Y-91281943D01*
X142655454Y-91122305D01*
X142655452Y-91122302D01*
X142565481Y-90979115D01*
X142565476Y-90979109D01*
X142445890Y-90859523D01*
X142445884Y-90859518D01*
X142302697Y-90769547D01*
X142302694Y-90769545D01*
X142143056Y-90713685D01*
X141975003Y-90694751D01*
X141974997Y-90694751D01*
X141806943Y-90713685D01*
X141647305Y-90769545D01*
X141647302Y-90769547D01*
X141504115Y-90859518D01*
X141504109Y-90859523D01*
X141384523Y-90979109D01*
X141384518Y-90979115D01*
X141294547Y-91122302D01*
X141294545Y-91122305D01*
X141238685Y-91281943D01*
X141219751Y-91449997D01*
X141219751Y-91450002D01*
X138126481Y-91450002D01*
X138105871Y-91427112D01*
X138105870Y-91427111D01*
X137952734Y-91315851D01*
X137952729Y-91315848D01*
X137779807Y-91238857D01*
X137779802Y-91238855D01*
X137634001Y-91207865D01*
X137594646Y-91199500D01*
X137405354Y-91199500D01*
X137372897Y-91206398D01*
X137220197Y-91238855D01*
X137220192Y-91238857D01*
X137047270Y-91315848D01*
X137047265Y-91315851D01*
X136894129Y-91427111D01*
X136767466Y-91567785D01*
X136672821Y-91731715D01*
X136672818Y-91731722D01*
X136614327Y-91911740D01*
X136614326Y-91911744D01*
X136594540Y-92100000D01*
X133350499Y-92100000D01*
X133350499Y-90301586D01*
X133370183Y-90234551D01*
X133422987Y-90188796D01*
X133492145Y-90178852D01*
X133526010Y-90188796D01*
X133627543Y-90235165D01*
X133770000Y-90255647D01*
X134543766Y-90255647D01*
X134547122Y-90255737D01*
X134562029Y-90256546D01*
X134601083Y-90258664D01*
X134601085Y-90258664D01*
X134601088Y-90258664D01*
X134636889Y-90256722D01*
X134655056Y-90255737D01*
X134658410Y-90255647D01*
X135470000Y-90255647D01*
X135541961Y-90250500D01*
X135541963Y-90250499D01*
X135541965Y-90250499D01*
X135680050Y-90209954D01*
X135680050Y-90209953D01*
X135680053Y-90209953D01*
X135801128Y-90132143D01*
X135801131Y-90132140D01*
X135807833Y-90126334D01*
X135809127Y-90127827D01*
X135858285Y-90096228D01*
X135928155Y-90096220D01*
X135974434Y-90121486D01*
X136036627Y-90175377D01*
X136167543Y-90235165D01*
X136310000Y-90255647D01*
X137083766Y-90255647D01*
X137087122Y-90255737D01*
X137102029Y-90256546D01*
X137141083Y-90258664D01*
X137141085Y-90258664D01*
X137141088Y-90258664D01*
X137176889Y-90256722D01*
X137195056Y-90255737D01*
X137198410Y-90255647D01*
X138010000Y-90255647D01*
X138081961Y-90250500D01*
X138081963Y-90250499D01*
X138081965Y-90250499D01*
X138220050Y-90209954D01*
X138220050Y-90209953D01*
X138220053Y-90209953D01*
X138341128Y-90132143D01*
X138341131Y-90132140D01*
X138347833Y-90126334D01*
X138349127Y-90127827D01*
X138398285Y-90096228D01*
X138468155Y-90096220D01*
X138514434Y-90121486D01*
X138576627Y-90175377D01*
X138707543Y-90235165D01*
X138850000Y-90255647D01*
X139623766Y-90255647D01*
X139627122Y-90255737D01*
X139642029Y-90256546D01*
X139681083Y-90258664D01*
X139681085Y-90258664D01*
X139681088Y-90258664D01*
X139716889Y-90256722D01*
X139735056Y-90255737D01*
X139738410Y-90255647D01*
X140550000Y-90255647D01*
X140621961Y-90250500D01*
X140621963Y-90250499D01*
X140621965Y-90250499D01*
X140760050Y-90209954D01*
X140760050Y-90209953D01*
X140760053Y-90209953D01*
X140881128Y-90132143D01*
X140881131Y-90132140D01*
X140887833Y-90126334D01*
X140889127Y-90127827D01*
X140938285Y-90096228D01*
X141008155Y-90096220D01*
X141054434Y-90121486D01*
X141116627Y-90175377D01*
X141247543Y-90235165D01*
X141390000Y-90255647D01*
X142163766Y-90255647D01*
X142167122Y-90255737D01*
X142182029Y-90256546D01*
X142221083Y-90258664D01*
X142221085Y-90258664D01*
X142221088Y-90258664D01*
X142256889Y-90256722D01*
X142275056Y-90255737D01*
X142278410Y-90255647D01*
X143090000Y-90255647D01*
X143161961Y-90250500D01*
X143161963Y-90250499D01*
X143161965Y-90250499D01*
X143300050Y-90209954D01*
X143300050Y-90209953D01*
X143300053Y-90209953D01*
X143421128Y-90132143D01*
X143421131Y-90132140D01*
X143427833Y-90126334D01*
X143429127Y-90127827D01*
X143478285Y-90096228D01*
X143548155Y-90096220D01*
X143594434Y-90121486D01*
X143656627Y-90175377D01*
X143787543Y-90235165D01*
X143930000Y-90255647D01*
X144703766Y-90255647D01*
X144707122Y-90255737D01*
X144722029Y-90256546D01*
X144761083Y-90258664D01*
X144761085Y-90258664D01*
X144761088Y-90258664D01*
X144796889Y-90256722D01*
X144815056Y-90255737D01*
X144818410Y-90255647D01*
X145630000Y-90255647D01*
X145701961Y-90250500D01*
X145701963Y-90250499D01*
X145701965Y-90250499D01*
X145840050Y-90209954D01*
X145840050Y-90209953D01*
X145840053Y-90209953D01*
X145961128Y-90132143D01*
X145961131Y-90132140D01*
X145967833Y-90126334D01*
X145969127Y-90127827D01*
X146018285Y-90096228D01*
X146088155Y-90096220D01*
X146134434Y-90121486D01*
X146196627Y-90175377D01*
X146327543Y-90235165D01*
X146470000Y-90255647D01*
X147243766Y-90255647D01*
X147247122Y-90255737D01*
X147262029Y-90256546D01*
X147301083Y-90258664D01*
X147301085Y-90258664D01*
X147301088Y-90258664D01*
X147336889Y-90256722D01*
X147355056Y-90255737D01*
X147358410Y-90255647D01*
X148170000Y-90255647D01*
X148241961Y-90250500D01*
X148241963Y-90250499D01*
X148241965Y-90250499D01*
X148380050Y-90209954D01*
X148380050Y-90209953D01*
X148380053Y-90209953D01*
X148501128Y-90132143D01*
X148501131Y-90132140D01*
X148507833Y-90126334D01*
X148509127Y-90127827D01*
X148558285Y-90096228D01*
X148628155Y-90096220D01*
X148674434Y-90121486D01*
X148736627Y-90175377D01*
X148867543Y-90235165D01*
X149010000Y-90255647D01*
X149783766Y-90255647D01*
X149787122Y-90255737D01*
X149802029Y-90256546D01*
X149841083Y-90258664D01*
X149841085Y-90258664D01*
X149841088Y-90258664D01*
X149876889Y-90256722D01*
X149895056Y-90255737D01*
X149898410Y-90255647D01*
X150710000Y-90255647D01*
X150781961Y-90250500D01*
X150781963Y-90250499D01*
X150781965Y-90250499D01*
X150920050Y-90209954D01*
X150920050Y-90209953D01*
X150920053Y-90209953D01*
X151041128Y-90132143D01*
X151041131Y-90132140D01*
X151047833Y-90126334D01*
X151049127Y-90127827D01*
X151098285Y-90096228D01*
X151168155Y-90096220D01*
X151214434Y-90121486D01*
X151276627Y-90175377D01*
X151407543Y-90235165D01*
X151550000Y-90255647D01*
X152323766Y-90255647D01*
X152327122Y-90255737D01*
X152342029Y-90256546D01*
X152381083Y-90258664D01*
X152381085Y-90258664D01*
X152381088Y-90258664D01*
X152416889Y-90256722D01*
X152435056Y-90255737D01*
X152438410Y-90255647D01*
X153250000Y-90255647D01*
X153321961Y-90250500D01*
X153321963Y-90250499D01*
X153321965Y-90250499D01*
X153460050Y-90209954D01*
X153460050Y-90209953D01*
X153460053Y-90209953D01*
X153581128Y-90132143D01*
X153581131Y-90132140D01*
X153587833Y-90126334D01*
X153589127Y-90127827D01*
X153638285Y-90096228D01*
X153708155Y-90096220D01*
X153754434Y-90121486D01*
X153816627Y-90175377D01*
X153947543Y-90235165D01*
X154090000Y-90255647D01*
X154863766Y-90255647D01*
X154867122Y-90255737D01*
X154882029Y-90256546D01*
X154921083Y-90258664D01*
X154921085Y-90258664D01*
X154921088Y-90258664D01*
X154956889Y-90256722D01*
X154975056Y-90255737D01*
X154978410Y-90255647D01*
X155790000Y-90255647D01*
X155861961Y-90250500D01*
X155861963Y-90250499D01*
X155861965Y-90250499D01*
X156000050Y-90209954D01*
X156000050Y-90209953D01*
X156000053Y-90209953D01*
X156121128Y-90132143D01*
X156121131Y-90132140D01*
X156127833Y-90126334D01*
X156129127Y-90127827D01*
X156178285Y-90096228D01*
X156248155Y-90096220D01*
X156294434Y-90121486D01*
X156356627Y-90175377D01*
X156487543Y-90235165D01*
X156630000Y-90255647D01*
X157403766Y-90255647D01*
X157407122Y-90255737D01*
X157422029Y-90256546D01*
X157461083Y-90258664D01*
X157461085Y-90258664D01*
X157461088Y-90258664D01*
X157496889Y-90256722D01*
X157515056Y-90255737D01*
X157518410Y-90255647D01*
X158330000Y-90255647D01*
X158401961Y-90250500D01*
X158401963Y-90250499D01*
X158401965Y-90250499D01*
X158540050Y-90209954D01*
X158540050Y-90209953D01*
X158540053Y-90209953D01*
X158661128Y-90132143D01*
X158661131Y-90132140D01*
X158667833Y-90126334D01*
X158669127Y-90127827D01*
X158718285Y-90096228D01*
X158788155Y-90096220D01*
X158834434Y-90121486D01*
X158896627Y-90175377D01*
X159027543Y-90235165D01*
X159170000Y-90255647D01*
X159943766Y-90255647D01*
X159947122Y-90255737D01*
X159962029Y-90256546D01*
X160001083Y-90258664D01*
X160001085Y-90258664D01*
X160001088Y-90258664D01*
X160036889Y-90256722D01*
X160055056Y-90255737D01*
X160058410Y-90255647D01*
X160870000Y-90255647D01*
X160941961Y-90250500D01*
X160941963Y-90250499D01*
X160941965Y-90250499D01*
X161080050Y-90209954D01*
X161080050Y-90209953D01*
X161080053Y-90209953D01*
X161201128Y-90132143D01*
X161201131Y-90132140D01*
X161207833Y-90126334D01*
X161209127Y-90127827D01*
X161258285Y-90096228D01*
X161328155Y-90096220D01*
X161374434Y-90121486D01*
X161436627Y-90175377D01*
X161567543Y-90235165D01*
X161710000Y-90255647D01*
X162483766Y-90255647D01*
X162487122Y-90255737D01*
X162502029Y-90256546D01*
X162541083Y-90258664D01*
X162541085Y-90258664D01*
X162541088Y-90258664D01*
X162576889Y-90256722D01*
X162595056Y-90255737D01*
X162598410Y-90255647D01*
X163410000Y-90255647D01*
X163481961Y-90250500D01*
X163481963Y-90250499D01*
X163481965Y-90250499D01*
X163620050Y-90209954D01*
X163620050Y-90209953D01*
X163620053Y-90209953D01*
X163741128Y-90132143D01*
X163741131Y-90132140D01*
X163747833Y-90126334D01*
X163749127Y-90127827D01*
X163798285Y-90096228D01*
X163868155Y-90096220D01*
X163914434Y-90121486D01*
X163976627Y-90175377D01*
X164107543Y-90235165D01*
X164250000Y-90255647D01*
X165023766Y-90255647D01*
X165027122Y-90255737D01*
X165042029Y-90256546D01*
X165081083Y-90258664D01*
X165081085Y-90258664D01*
X165081088Y-90258664D01*
X165116889Y-90256722D01*
X165135056Y-90255737D01*
X165138410Y-90255647D01*
X165950000Y-90255647D01*
X166021961Y-90250500D01*
X166021963Y-90250499D01*
X166021965Y-90250499D01*
X166160050Y-90209954D01*
X166160050Y-90209953D01*
X166160053Y-90209953D01*
X166281128Y-90132143D01*
X166281131Y-90132140D01*
X166287833Y-90126334D01*
X166289127Y-90127827D01*
X166338285Y-90096228D01*
X166408155Y-90096220D01*
X166454434Y-90121486D01*
G37*
%TD.AperFunction*%
%TD*%
M02*
