%TF.GenerationSoftware,KiCad,Pcbnew,7.0.7*%
%TF.CreationDate,2024-01-24T12:14:41-08:00*%
%TF.ProjectId,Waffle_Mini_v0,57616666-6c65-45f4-9d69-6e695f76302e,rev?*%
%TF.SameCoordinates,Original*%
%TF.FileFunction,Paste,Top*%
%TF.FilePolarity,Positive*%
%FSLAX46Y46*%
G04 Gerber Fmt 4.6, Leading zero omitted, Abs format (unit mm)*
G04 Created by KiCad (PCBNEW 7.0.7) date 2024-01-24 12:14:41*
%MOMM*%
%LPD*%
G01*
G04 APERTURE LIST*
G04 Aperture macros list*
%AMRoundRect*
0 Rectangle with rounded corners*
0 $1 Rounding radius*
0 $2 $3 $4 $5 $6 $7 $8 $9 X,Y pos of 4 corners*
0 Add a 4 corners polygon primitive as box body*
4,1,4,$2,$3,$4,$5,$6,$7,$8,$9,$2,$3,0*
0 Add four circle primitives for the rounded corners*
1,1,$1+$1,$2,$3*
1,1,$1+$1,$4,$5*
1,1,$1+$1,$6,$7*
1,1,$1+$1,$8,$9*
0 Add four rect primitives between the rounded corners*
20,1,$1+$1,$2,$3,$4,$5,0*
20,1,$1+$1,$4,$5,$6,$7,0*
20,1,$1+$1,$6,$7,$8,$9,0*
20,1,$1+$1,$8,$9,$2,$3,0*%
G04 Aperture macros list end*
%ADD10RoundRect,0.225000X-0.250000X0.225000X-0.250000X-0.225000X0.250000X-0.225000X0.250000X0.225000X0*%
%ADD11RoundRect,0.250000X-0.385000X0.385000X-0.385000X-0.385000X0.385000X-0.385000X0.385000X0.385000X0*%
%ADD12RoundRect,0.062500X-0.062500X0.375000X-0.062500X-0.375000X0.062500X-0.375000X0.062500X0.375000X0*%
%ADD13RoundRect,0.062500X-0.375000X0.062500X-0.375000X-0.062500X0.375000X-0.062500X0.375000X0.062500X0*%
%ADD14RoundRect,0.200000X-0.275000X0.200000X-0.275000X-0.200000X0.275000X-0.200000X0.275000X0.200000X0*%
%ADD15RoundRect,0.125000X-0.125000X0.537500X-0.125000X-0.537500X0.125000X-0.537500X0.125000X0.537500X0*%
%ADD16RoundRect,0.250000X-0.475000X0.250000X-0.475000X-0.250000X0.475000X-0.250000X0.475000X0.250000X0*%
%ADD17RoundRect,0.250000X0.262500X0.450000X-0.262500X0.450000X-0.262500X-0.450000X0.262500X-0.450000X0*%
%ADD18RoundRect,0.200000X0.200000X0.275000X-0.200000X0.275000X-0.200000X-0.275000X0.200000X-0.275000X0*%
%ADD19RoundRect,0.250000X0.250000X0.475000X-0.250000X0.475000X-0.250000X-0.475000X0.250000X-0.475000X0*%
%ADD20R,1.100000X0.900000*%
%ADD21RoundRect,0.200000X0.275000X-0.200000X0.275000X0.200000X-0.275000X0.200000X-0.275000X-0.200000X0*%
%ADD22RoundRect,0.250000X-0.325000X-1.100000X0.325000X-1.100000X0.325000X1.100000X-0.325000X1.100000X0*%
%ADD23RoundRect,0.225000X-0.225000X-0.250000X0.225000X-0.250000X0.225000X0.250000X-0.225000X0.250000X0*%
%ADD24RoundRect,0.150000X-0.512500X-0.150000X0.512500X-0.150000X0.512500X0.150000X-0.512500X0.150000X0*%
%ADD25RoundRect,0.250000X-0.250000X-0.475000X0.250000X-0.475000X0.250000X0.475000X-0.250000X0.475000X0*%
G04 APERTURE END LIST*
D10*
%TO.C,C3*%
X155306250Y-98125000D03*
X155306250Y-99675000D03*
%TD*%
D11*
%TO.C,U1*%
X153040000Y-93460000D03*
X151460000Y-93460000D03*
X153040000Y-95040000D03*
X151460000Y-95040000D03*
D12*
X154000000Y-91812500D03*
X153500000Y-91812500D03*
X153000000Y-91812500D03*
X152500000Y-91812500D03*
X152000000Y-91812500D03*
X151500000Y-91812500D03*
X151000000Y-91812500D03*
X150500000Y-91812500D03*
D13*
X149812500Y-92500000D03*
X149812500Y-93000000D03*
X149812500Y-93500000D03*
X149812500Y-94000000D03*
X149812500Y-94500000D03*
X149812500Y-95000000D03*
X149812500Y-95500000D03*
X149812500Y-96000000D03*
D12*
X150500000Y-96687500D03*
X151000000Y-96687500D03*
X151500000Y-96687500D03*
X152000000Y-96687500D03*
X152500000Y-96687500D03*
X153000000Y-96687500D03*
X153500000Y-96687500D03*
X154000000Y-96687500D03*
D13*
X154687500Y-96000000D03*
X154687500Y-95500000D03*
X154687500Y-95000000D03*
X154687500Y-94500000D03*
X154687500Y-94000000D03*
X154687500Y-93500000D03*
X154687500Y-93000000D03*
X154687500Y-92500000D03*
%TD*%
D14*
%TO.C,R6*%
X164100000Y-97275000D03*
X164100000Y-98925000D03*
%TD*%
D15*
%TO.C,U3*%
X162275000Y-95062500D03*
X161625000Y-95062500D03*
X160975000Y-95062500D03*
X160325000Y-95062500D03*
X160325000Y-97337500D03*
X160975000Y-97337500D03*
X161625000Y-97337500D03*
X162275000Y-97337500D03*
%TD*%
D14*
%TO.C,R2*%
X144500000Y-92800000D03*
X144500000Y-94450000D03*
%TD*%
D16*
%TO.C,C5*%
X157106250Y-97550000D03*
X157106250Y-99450000D03*
%TD*%
D10*
%TO.C,C9*%
X138300000Y-97950000D03*
X138300000Y-99500000D03*
%TD*%
D17*
%TO.C,R5*%
X162212500Y-99300000D03*
X160387500Y-99300000D03*
%TD*%
D18*
%TO.C,R4*%
X157925000Y-91550000D03*
X156275000Y-91550000D03*
%TD*%
D19*
%TO.C,C6*%
X148050000Y-92900000D03*
X146150000Y-92900000D03*
%TD*%
D20*
%TO.C,X2*%
X151350000Y-99550000D03*
X153050000Y-99550000D03*
X153050000Y-98250000D03*
X151350000Y-98250000D03*
%TD*%
D21*
%TO.C,R3*%
X144500000Y-97450000D03*
X144500000Y-95800000D03*
%TD*%
D22*
%TO.C,C10*%
X134525000Y-92100000D03*
X137475000Y-92100000D03*
%TD*%
D10*
%TO.C,C4*%
X149700000Y-98325000D03*
X149700000Y-99875000D03*
%TD*%
D23*
%TO.C,C7*%
X161325000Y-93300000D03*
X162875000Y-93300000D03*
%TD*%
D24*
%TO.C,U2*%
X134825000Y-94550000D03*
X134825000Y-96450000D03*
X137100000Y-95500000D03*
%TD*%
D25*
%TO.C,C2*%
X134850000Y-98200000D03*
X136750000Y-98200000D03*
%TD*%
D10*
%TO.C,C11*%
X138800000Y-94950000D03*
X138800000Y-96500000D03*
%TD*%
M02*
