%TF.GenerationSoftware,KiCad,Pcbnew,7.0.7*%
%TF.CreationDate,2024-01-12T14:51:29-08:00*%
%TF.ProjectId,Waffle_Mini_v0,57616666-6c65-45f4-9d69-6e695f76302e,rev?*%
%TF.SameCoordinates,Original*%
%TF.FileFunction,Copper,L1,Top*%
%TF.FilePolarity,Positive*%
%FSLAX46Y46*%
G04 Gerber Fmt 4.6, Leading zero omitted, Abs format (unit mm)*
G04 Created by KiCad (PCBNEW 7.0.7) date 2024-01-12 14:51:29*
%MOMM*%
%LPD*%
G01*
G04 APERTURE LIST*
G04 Aperture macros list*
%AMRoundRect*
0 Rectangle with rounded corners*
0 $1 Rounding radius*
0 $2 $3 $4 $5 $6 $7 $8 $9 X,Y pos of 4 corners*
0 Add a 4 corners polygon primitive as box body*
4,1,4,$2,$3,$4,$5,$6,$7,$8,$9,$2,$3,0*
0 Add four circle primitives for the rounded corners*
1,1,$1+$1,$2,$3*
1,1,$1+$1,$4,$5*
1,1,$1+$1,$6,$7*
1,1,$1+$1,$8,$9*
0 Add four rect primitives between the rounded corners*
20,1,$1+$1,$2,$3,$4,$5,0*
20,1,$1+$1,$4,$5,$6,$7,0*
20,1,$1+$1,$6,$7,$8,$9,0*
20,1,$1+$1,$8,$9,$2,$3,0*%
%AMFreePoly0*
4,1,6,1.000000,0.000000,0.500000,-0.750000,-0.500000,-0.750000,-0.500000,0.750000,0.500000,0.750000,1.000000,0.000000,1.000000,0.000000,$1*%
%AMFreePoly1*
4,1,6,0.500000,-0.750000,-0.650000,-0.750000,-0.150000,0.000000,-0.650000,0.750000,0.500000,0.750000,0.500000,-0.750000,0.500000,-0.750000,$1*%
%AMFreePoly2*
4,1,19,0.850000,-2.000000,0.845017,-2.091901,0.805505,-2.271406,0.728329,-2.438221,0.617096,-2.584545,0.477009,-2.703536,0.314617,-2.789630,0.137515,-2.838803,-0.046018,-2.848753,-0.227399,-2.819017,-0.398147,-2.750985,-0.550278,-2.647838,-0.676679,-2.514398,-0.771439,-2.356906,-0.830127,-2.182725,-0.850000,-2.000000,-0.850000,0.850000,0.850000,0.850000,0.850000,-2.000000,0.850000,-2.000000,
$1*%
G04 Aperture macros list end*
%TA.AperFunction,SMDPad,CuDef*%
%ADD10RoundRect,0.200000X-0.275000X0.200000X-0.275000X-0.200000X0.275000X-0.200000X0.275000X0.200000X0*%
%TD*%
%TA.AperFunction,SMDPad,CuDef*%
%ADD11RoundRect,0.125000X-0.125000X0.537500X-0.125000X-0.537500X0.125000X-0.537500X0.125000X0.537500X0*%
%TD*%
%TA.AperFunction,SMDPad,CuDef*%
%ADD12RoundRect,0.250000X0.262500X0.450000X-0.262500X0.450000X-0.262500X-0.450000X0.262500X-0.450000X0*%
%TD*%
%TA.AperFunction,SMDPad,CuDef*%
%ADD13RoundRect,0.225000X-0.225000X-0.250000X0.225000X-0.250000X0.225000X0.250000X-0.225000X0.250000X0*%
%TD*%
%TA.AperFunction,SMDPad,CuDef*%
%ADD14R,1.100000X0.900000*%
%TD*%
%TA.AperFunction,SMDPad,CuDef*%
%ADD15RoundRect,0.225000X-0.250000X0.225000X-0.250000X-0.225000X0.250000X-0.225000X0.250000X0.225000X0*%
%TD*%
%TA.AperFunction,SMDPad,CuDef*%
%ADD16FreePoly0,180.000000*%
%TD*%
%TA.AperFunction,SMDPad,CuDef*%
%ADD17FreePoly1,180.000000*%
%TD*%
%TA.AperFunction,CastellatedPad*%
%ADD18FreePoly2,0.000000*%
%TD*%
%TA.AperFunction,CastellatedPad*%
%ADD19RoundRect,0.425000X-0.425000X-0.425000X0.425000X-0.425000X0.425000X0.425000X-0.425000X0.425000X0*%
%TD*%
%TA.AperFunction,CastellatedPad*%
%ADD20FreePoly2,180.000000*%
%TD*%
%TA.AperFunction,CastellatedPad*%
%ADD21RoundRect,0.425000X0.425000X0.425000X-0.425000X0.425000X-0.425000X-0.425000X0.425000X-0.425000X0*%
%TD*%
%TA.AperFunction,SMDPad,CuDef*%
%ADD22RoundRect,0.062500X-0.062500X0.375000X-0.062500X-0.375000X0.062500X-0.375000X0.062500X0.375000X0*%
%TD*%
%TA.AperFunction,SMDPad,CuDef*%
%ADD23RoundRect,0.062500X-0.375000X0.062500X-0.375000X-0.062500X0.375000X-0.062500X0.375000X0.062500X0*%
%TD*%
%TA.AperFunction,SMDPad,CuDef*%
%ADD24R,3.150000X3.150000*%
%TD*%
%TA.AperFunction,SMDPad,CuDef*%
%ADD25RoundRect,0.250000X-0.475000X0.250000X-0.475000X-0.250000X0.475000X-0.250000X0.475000X0.250000X0*%
%TD*%
%TA.AperFunction,SMDPad,CuDef*%
%ADD26RoundRect,0.200000X0.200000X0.275000X-0.200000X0.275000X-0.200000X-0.275000X0.200000X-0.275000X0*%
%TD*%
%TA.AperFunction,SMDPad,CuDef*%
%ADD27RoundRect,0.250000X0.250000X0.475000X-0.250000X0.475000X-0.250000X-0.475000X0.250000X-0.475000X0*%
%TD*%
%TA.AperFunction,ConnectorPad*%
%ADD28C,0.787400*%
%TD*%
%TA.AperFunction,SMDPad,CuDef*%
%ADD29RoundRect,0.200000X0.275000X-0.200000X0.275000X0.200000X-0.275000X0.200000X-0.275000X-0.200000X0*%
%TD*%
%TA.AperFunction,SMDPad,CuDef*%
%ADD30RoundRect,0.250000X-0.325000X-1.100000X0.325000X-1.100000X0.325000X1.100000X-0.325000X1.100000X0*%
%TD*%
%TA.AperFunction,SMDPad,CuDef*%
%ADD31RoundRect,0.150000X-0.512500X-0.150000X0.512500X-0.150000X0.512500X0.150000X-0.512500X0.150000X0*%
%TD*%
%TA.AperFunction,SMDPad,CuDef*%
%ADD32RoundRect,0.250000X-0.250000X-0.475000X0.250000X-0.475000X0.250000X0.475000X-0.250000X0.475000X0*%
%TD*%
%TA.AperFunction,ViaPad*%
%ADD33C,0.500000*%
%TD*%
%TA.AperFunction,ViaPad*%
%ADD34C,0.800000*%
%TD*%
%TA.AperFunction,Conductor*%
%ADD35C,0.250000*%
%TD*%
%TA.AperFunction,Conductor*%
%ADD36C,0.350000*%
%TD*%
%TA.AperFunction,Conductor*%
%ADD37C,0.200000*%
%TD*%
%TA.AperFunction,Conductor*%
%ADD38C,0.500000*%
%TD*%
G04 APERTURE END LIST*
D10*
%TO.P,R6,1*%
%TO.N,Net-(U3-S)*%
X164100000Y-97275000D03*
%TO.P,R6,2*%
%TO.N,GND*%
X164100000Y-98925000D03*
%TD*%
D11*
%TO.P,U3,1,TXD*%
%TO.N,/CANTX*%
X162275000Y-95062500D03*
%TO.P,U3,2,GND*%
%TO.N,GND*%
X161625000Y-95062500D03*
%TO.P,U3,3,VCC*%
%TO.N,+3.3V*%
X160975000Y-95062500D03*
%TO.P,U3,4,RXD*%
%TO.N,/CANRX*%
X160325000Y-95062500D03*
%TO.P,U3,5,FAULT*%
%TO.N,/CAN_FAULT*%
X160325000Y-97337500D03*
%TO.P,U3,6,CANL*%
%TO.N,/CANL*%
X160975000Y-97337500D03*
%TO.P,U3,7,CANH*%
%TO.N,/CANH*%
X161625000Y-97337500D03*
%TO.P,U3,8,S*%
%TO.N,Net-(U3-S)*%
X162275000Y-97337500D03*
%TD*%
D12*
%TO.P,R5,1*%
%TO.N,/CANH*%
X162212500Y-99300000D03*
%TO.P,R5,2*%
%TO.N,/CANL*%
X160387500Y-99300000D03*
%TD*%
D13*
%TO.P,C7,1*%
%TO.N,+3.3V*%
X161325000Y-93300000D03*
%TO.P,C7,2*%
%TO.N,GND*%
X162875000Y-93300000D03*
%TD*%
D14*
%TO.P,X2,1,~{ST}*%
%TO.N,unconnected-(X2-~{ST}-Pad1)*%
X151350000Y-99550000D03*
%TO.P,X2,2,GND*%
%TO.N,GND*%
X153050000Y-99550000D03*
%TO.P,X2,3,OUT*%
%TO.N,/XTAL_1*%
X153050000Y-98250000D03*
%TO.P,X2,4,Vcc*%
%TO.N,+3.3V*%
X151350000Y-98250000D03*
%TD*%
D15*
%TO.P,C4,1*%
%TO.N,+3.3V*%
X149700000Y-98325000D03*
%TO.P,C4,2*%
%TO.N,GND*%
X149700000Y-99875000D03*
%TD*%
D16*
%TO.P,JP1,1,A*%
%TO.N,/XRSn*%
X140725000Y-91325000D03*
D17*
%TO.P,JP1,2,B*%
%TO.N,Net-(J1-~{RESET})*%
X139275000Y-91325000D03*
%TD*%
D18*
%TO.P,J15,1,Pin_1*%
%TO.N,GND*%
X152400000Y-101600000D03*
D19*
X152400000Y-104140000D03*
%TD*%
D20*
%TO.P,J7,1,Pin_1*%
%TO.N,Net-(J7-Pin_1)*%
X144780000Y-88900000D03*
D21*
X144780000Y-86360000D03*
%TD*%
D18*
%TO.P,J25,1,Pin_1*%
%TO.N,+3.3V*%
X134620000Y-101600000D03*
D19*
X134620000Y-104140000D03*
%TD*%
D15*
%TO.P,C3,1*%
%TO.N,+3.3V*%
X155306250Y-98125000D03*
%TO.P,C3,2*%
%TO.N,GND*%
X155306250Y-99675000D03*
%TD*%
D22*
%TO.P,U1,1,XRSn*%
%TO.N,/XRSn*%
X154000000Y-91812500D03*
%TO.P,U1,2,GPIO226_228_A6/C6*%
%TO.N,Net-(J2-Pin_1)*%
X153500000Y-91812500D03*
%TO.P,U1,3,GPIO242_A3/C5*%
%TO.N,Net-(J3-Pin_1)*%
X153000000Y-91812500D03*
%TO.P,U1,4,GPIO224_A2/C9*%
%TO.N,Net-(J4-Pin_1)*%
X152500000Y-91812500D03*
%TO.P,U1,5,A15/C7_C4/A14*%
%TO.N,Net-(J5-Pin_1)*%
X152000000Y-91812500D03*
%TO.P,U1,6,A11/C0_A5/C2*%
%TO.N,Net-(J6-Pin_1)*%
X151500000Y-91812500D03*
%TO.P,U1,7,A0/C15/CMP1_DACL_A1*%
%TO.N,Net-(J7-Pin_1)*%
X151000000Y-91812500D03*
%TO.P,U1,8,A12/C1_A7/C3*%
%TO.N,Net-(J8-Pin_1)*%
X150500000Y-91812500D03*
D23*
%TO.P,U1,9,A8/C11*%
%TO.N,Net-(J9-Pin_1)*%
X149812500Y-92500000D03*
%TO.P,U1,10,VSSA*%
%TO.N,GND*%
X149812500Y-93000000D03*
%TO.P,U1,11,VDDA*%
%TO.N,+3.3V*%
X149812500Y-93500000D03*
%TO.P,U1,12,A4/C14*%
%TO.N,Net-(J10-Pin_1)*%
X149812500Y-94000000D03*
%TO.P,U1,13,A10/C10_C8/A9_GPIO227_230*%
%TO.N,Net-(J11-Pin_1)*%
X149812500Y-94500000D03*
%TO.P,U1,14,GPIO11*%
%TO.N,Net-(J12-Pin_1)*%
X149812500Y-95000000D03*
%TO.P,U1,15,GPIO24*%
%TO.N,Net-(J13-Pin_1)*%
X149812500Y-95500000D03*
%TO.P,U1,16,TCK*%
%TO.N,/JTAG_TCK*%
X149812500Y-96000000D03*
D22*
%TO.P,U1,17,GPIO37_TDO*%
%TO.N,Net-(J14-Pin_1)*%
X150500000Y-96687500D03*
%TO.P,U1,18,TMS*%
%TO.N,/JTAG_TMS*%
X151000000Y-96687500D03*
%TO.P,U1,19,GPIO35_TDI*%
%TO.N,unconnected-(U1B-GPIO35_TDI-Pad19)*%
X151500000Y-96687500D03*
%TO.P,U1,20,GPIO32*%
%TO.N,unconnected-(U1B-GPIO32-Pad20)*%
X152000000Y-96687500D03*
%TO.P,U1,21,GPIO18_X2*%
%TO.N,/XTAL_2*%
X152500000Y-96687500D03*
%TO.P,U1,22,GPIO19_X1*%
%TO.N,/XTAL_1*%
X153000000Y-96687500D03*
%TO.P,U1,23,VDDIO*%
%TO.N,+3.3V*%
X153500000Y-96687500D03*
%TO.P,U1,24,VDD*%
%TO.N,Net-(U1A-VDD)*%
X154000000Y-96687500D03*
D23*
%TO.P,U1,25,VREGENZ*%
%TO.N,GND*%
X154687500Y-96000000D03*
%TO.P,U1,26,GPIO3*%
%TO.N,/CAN_FAULT*%
X154687500Y-95500000D03*
%TO.P,U1,27,GPIO1*%
%TO.N,/CANTX*%
X154687500Y-95000000D03*
%TO.P,U1,28,GPIO0*%
%TO.N,/CANRX*%
X154687500Y-94500000D03*
%TO.P,U1,29,GPIO7*%
%TO.N,Net-(J20-Pin_1)*%
X154687500Y-94000000D03*
%TO.P,U1,30,GPIO5*%
%TO.N,Net-(J21-Pin_1)*%
X154687500Y-93500000D03*
%TO.P,U1,31,GPIO29*%
%TO.N,Net-(J22-Pin_1)*%
X154687500Y-93000000D03*
%TO.P,U1,32,A16/C16_GPIO28*%
%TO.N,Net-(J23-Pin_1)*%
X154687500Y-92500000D03*
D24*
%TO.P,U1,33,EP_VSS*%
%TO.N,GND*%
X152250000Y-94250000D03*
%TD*%
D20*
%TO.P,J21,1,Pin_1*%
%TO.N,Net-(J21-Pin_1)*%
X165100000Y-88900000D03*
D21*
X165100000Y-86360000D03*
%TD*%
D20*
%TO.P,J9,1,Pin_1*%
%TO.N,Net-(J9-Pin_1)*%
X139700000Y-88900000D03*
D21*
X139700000Y-86360000D03*
%TD*%
D18*
%TO.P,J18,1,Pin_1*%
%TO.N,/CANL*%
X160020000Y-101600000D03*
D19*
X160020000Y-104140000D03*
%TD*%
D20*
%TO.P,J23,1,Pin_1*%
%TO.N,Net-(J23-Pin_1)*%
X160020000Y-88900000D03*
D21*
X160020000Y-86360000D03*
%TD*%
D18*
%TO.P,J12,1,Pin_1*%
%TO.N,Net-(J12-Pin_1)*%
X144780000Y-101600000D03*
D19*
X144780000Y-104140000D03*
%TD*%
D10*
%TO.P,R2,2*%
%TO.N,/JTAG_TMS*%
X144500000Y-94450000D03*
%TO.P,R2,1*%
%TO.N,+3.3V*%
X144500000Y-92800000D03*
%TD*%
D18*
%TO.P,J27,1,Pin_1*%
%TO.N,GND*%
X137160000Y-101600000D03*
D19*
X137160000Y-104140000D03*
%TD*%
D25*
%TO.P,C5,1*%
%TO.N,Net-(U1A-VDD)*%
X157106250Y-97550000D03*
%TO.P,C5,2*%
%TO.N,GND*%
X157106250Y-99450000D03*
%TD*%
D15*
%TO.P,C9,1*%
%TO.N,+3.3V*%
X138300000Y-97950000D03*
%TO.P,C9,2*%
%TO.N,GND*%
X138300000Y-99500000D03*
%TD*%
D20*
%TO.P,J4,1,Pin_1*%
%TO.N,Net-(J4-Pin_1)*%
X152400000Y-88900000D03*
D21*
X152400000Y-86360000D03*
%TD*%
D20*
%TO.P,J29,1,Pin_1*%
%TO.N,GND*%
X167640000Y-88900000D03*
D21*
X167640000Y-86360000D03*
%TD*%
D20*
%TO.P,J6,1,Pin_1*%
%TO.N,Net-(J6-Pin_1)*%
X147320000Y-88900000D03*
D21*
X147320000Y-86360000D03*
%TD*%
D20*
%TO.P,J22,1,Pin_1*%
%TO.N,Net-(J22-Pin_1)*%
X162560000Y-88900000D03*
D21*
X162560000Y-86360000D03*
%TD*%
D20*
%TO.P,J26,1,Pin_1*%
%TO.N,GND*%
X137160000Y-88900000D03*
D21*
X137160000Y-86360000D03*
%TD*%
D26*
%TO.P,R4,1*%
%TO.N,+3.3V*%
X157925000Y-91550000D03*
%TO.P,R4,2*%
%TO.N,/XRSn*%
X156275000Y-91550000D03*
%TD*%
D27*
%TO.P,C6,1*%
%TO.N,+3.3V*%
X148050000Y-92900000D03*
%TO.P,C6,2*%
%TO.N,GND*%
X146150000Y-92900000D03*
%TD*%
D20*
%TO.P,J8,1,Pin_1*%
%TO.N,Net-(J8-Pin_1)*%
X142240000Y-88900000D03*
D21*
X142240000Y-86360000D03*
%TD*%
D20*
%TO.P,J2,1,Pin_1*%
%TO.N,Net-(J2-Pin_1)*%
X157480000Y-88900000D03*
D21*
X157480000Y-86360000D03*
%TD*%
D18*
%TO.P,J13,1,Pin_1*%
%TO.N,Net-(J13-Pin_1)*%
X147320000Y-101600000D03*
D19*
X147320000Y-104140000D03*
%TD*%
D20*
%TO.P,J24,1,Pin_1*%
%TO.N,+VSW*%
X134620000Y-88900000D03*
D21*
X134620000Y-86360000D03*
%TD*%
D28*
%TO.P,J1,1,VCC*%
%TO.N,+3.3V*%
X140970000Y-94430000D03*
%TO.P,J1,2,SWDIO*%
%TO.N,/JTAG_TMS*%
X142240000Y-94430000D03*
%TO.P,J1,3,~{RESET}*%
%TO.N,Net-(J1-~{RESET})*%
X140970000Y-95700000D03*
%TO.P,J1,4,SWCLK*%
%TO.N,/JTAG_TCK*%
X142240000Y-95700000D03*
%TO.P,J1,5,GND*%
%TO.N,GND*%
X140970000Y-96970000D03*
%TO.P,J1,6,SWO*%
%TO.N,unconnected-(J1-SWO-Pad6)*%
X142240000Y-96970000D03*
%TD*%
D18*
%TO.P,J11,1,Pin_1*%
%TO.N,Net-(J11-Pin_1)*%
X142240000Y-101600000D03*
D19*
X142240000Y-104140000D03*
%TD*%
D18*
%TO.P,J28,1,Pin_1*%
%TO.N,GND*%
X167640000Y-101600000D03*
D19*
X167640000Y-104140000D03*
%TD*%
D29*
%TO.P,R3,2*%
%TO.N,/JTAG_TCK*%
X144500000Y-95800000D03*
%TO.P,R3,1*%
%TO.N,+3.3V*%
X144500000Y-97450000D03*
%TD*%
D18*
%TO.P,J14,1,Pin_1*%
%TO.N,Net-(J14-Pin_1)*%
X149860000Y-101600000D03*
D19*
X149860000Y-104140000D03*
%TD*%
D30*
%TO.P,C10,1*%
%TO.N,+VSW*%
X134525000Y-92100000D03*
%TO.P,C10,2*%
%TO.N,GND*%
X137475000Y-92100000D03*
%TD*%
D31*
%TO.P,U2,1,VIN*%
%TO.N,+VSW*%
X134825000Y-94550000D03*
%TO.P,U2,2,VOUT*%
%TO.N,+3.3V*%
X134825000Y-96450000D03*
%TO.P,U2,3,GND*%
%TO.N,GND*%
X137100000Y-95500000D03*
%TD*%
D20*
%TO.P,J5,1,Pin_1*%
%TO.N,Net-(J5-Pin_1)*%
X149860000Y-88900000D03*
D21*
X149860000Y-86360000D03*
%TD*%
D32*
%TO.P,C2,1*%
%TO.N,+3.3V*%
X134850000Y-98200000D03*
%TO.P,C2,2*%
%TO.N,GND*%
X136750000Y-98200000D03*
%TD*%
D20*
%TO.P,J3,1,Pin_1*%
%TO.N,Net-(J3-Pin_1)*%
X154940000Y-88900000D03*
D21*
X154940000Y-86360000D03*
%TD*%
D18*
%TO.P,J16,1,Pin_1*%
%TO.N,GND*%
X154940000Y-101600000D03*
D19*
X154940000Y-104140000D03*
%TD*%
D18*
%TO.P,J20,1,Pin_1*%
%TO.N,Net-(J20-Pin_1)*%
X165100000Y-101600000D03*
D19*
X165100000Y-104140000D03*
%TD*%
D18*
%TO.P,J17,1,Pin_1*%
%TO.N,GND*%
X157480000Y-101600000D03*
D19*
X157480000Y-104140000D03*
%TD*%
D18*
%TO.P,J19,1,Pin_1*%
%TO.N,/CANH*%
X162560000Y-101600000D03*
D19*
X162560000Y-104140000D03*
%TD*%
D15*
%TO.P,C11,2*%
%TO.N,GND*%
X138800000Y-96500000D03*
%TO.P,C11,1*%
%TO.N,/XRSn*%
X138800000Y-94950000D03*
%TD*%
D18*
%TO.P,J10,1,Pin_1*%
%TO.N,Net-(J10-Pin_1)*%
X139700000Y-101600000D03*
D19*
X139700000Y-104140000D03*
%TD*%
D33*
%TO.N,GND*%
X164100000Y-98925000D03*
X162900000Y-93300000D03*
%TO.N,+3.3V*%
X161300000Y-93300000D03*
%TO.N,/CANTX*%
X163100000Y-95000000D03*
X158900000Y-95700000D03*
%TO.N,Net-(J20-Pin_1)*%
X159100000Y-94300000D03*
%TO.N,+3.3V*%
X149700000Y-98325000D03*
%TO.N,GND*%
X153050000Y-99550000D03*
X149700000Y-99875000D03*
%TO.N,/JTAG_TCK*%
X148006233Y-96706233D03*
%TO.N,/JTAG_TMS*%
X149100000Y-97262000D03*
%TO.N,/XRSn*%
X138775000Y-94950000D03*
X141975000Y-91450000D03*
D34*
%TO.N,+3.3V*%
X144500000Y-97425000D03*
%TO.N,/JTAG_TCK*%
X145700000Y-95100000D03*
%TO.N,/JTAG_TMS*%
X146400000Y-94300000D03*
%TO.N,+3.3V*%
X144500000Y-92725000D03*
%TO.N,GND*%
X136800000Y-98200000D03*
X140000000Y-96950000D03*
X138300000Y-99525000D03*
X152300000Y-94260000D03*
X137500000Y-92100000D03*
X137100000Y-95500000D03*
X146200000Y-92600000D03*
X157056250Y-99500000D03*
X155306250Y-99500000D03*
X153200000Y-95160000D03*
X151300000Y-93360000D03*
X153200000Y-93360000D03*
X151300000Y-95160000D03*
%TO.N,+3.3V*%
X134800000Y-98200000D03*
X138300000Y-97925000D03*
X134800000Y-96600000D03*
X140195000Y-93655000D03*
X155306250Y-98100000D03*
X148100000Y-92600000D03*
X157900000Y-91550000D03*
%TO.N,/XRSn*%
X154950000Y-91450000D03*
%TD*%
D35*
%TO.N,/CAN_FAULT*%
X154687500Y-95500000D02*
X157800000Y-95500000D01*
X157800000Y-95500000D02*
X159637500Y-97337500D01*
X159637500Y-97337500D02*
X160325000Y-97337500D01*
D36*
%TO.N,Net-(U3-S)*%
X162275000Y-97337500D02*
X164037500Y-97337500D01*
X164037500Y-97337500D02*
X164100000Y-97275000D01*
%TO.N,GND*%
X162900000Y-93300000D02*
X162875000Y-93300000D01*
%TO.N,+3.3V*%
X161325000Y-93300000D02*
X161325000Y-93300000D01*
X161300000Y-93300000D02*
X161325000Y-93300000D01*
X161300000Y-93325000D02*
X161300000Y-93300000D01*
%TO.N,GND*%
X161625000Y-95062500D02*
X161625000Y-94342893D01*
X161625000Y-94342893D02*
X162667893Y-93300000D01*
X162667893Y-93300000D02*
X162900000Y-93300000D01*
%TO.N,+3.3V*%
X160975000Y-95062500D02*
X160975000Y-93650000D01*
X160975000Y-93650000D02*
X161300000Y-93325000D01*
%TO.N,/CANL*%
X160387500Y-99300000D02*
X160387500Y-101232500D01*
X160387500Y-101232500D02*
X160020000Y-101600000D01*
%TO.N,/CANH*%
X162212500Y-99300000D02*
X162212500Y-101252500D01*
X162212500Y-101252500D02*
X162560000Y-101600000D01*
X161625000Y-97337500D02*
X161625000Y-98712500D01*
X161625000Y-98712500D02*
X162212500Y-99300000D01*
%TO.N,/CANL*%
X160975000Y-97337500D02*
X160975000Y-98712500D01*
X160975000Y-98712500D02*
X160387500Y-99300000D01*
D37*
%TO.N,/CANTX*%
X163100000Y-95000000D02*
X162337500Y-95000000D01*
X162337500Y-95000000D02*
X162275000Y-95062500D01*
X154687500Y-95000000D02*
X158134314Y-95000000D01*
X158134314Y-95000000D02*
X158834314Y-95700000D01*
X158834314Y-95700000D02*
X158900000Y-95700000D01*
%TO.N,/CANRX*%
X154687500Y-94500000D02*
X158200000Y-94500000D01*
X158200000Y-94500000D02*
X158762500Y-95062500D01*
X158762500Y-95062500D02*
X160325000Y-95062500D01*
D35*
%TO.N,Net-(J20-Pin_1)*%
X159100000Y-94300000D02*
X158800000Y-94000000D01*
X158800000Y-94000000D02*
X154687500Y-94000000D01*
%TO.N,Net-(J21-Pin_1)*%
X154687500Y-93500000D02*
X159400000Y-93500000D01*
X159400000Y-93500000D02*
X162350000Y-90550000D01*
X162350000Y-90550000D02*
X163450000Y-90550000D01*
X163450000Y-90550000D02*
X165100000Y-88900000D01*
%TO.N,Net-(J22-Pin_1)*%
X154687500Y-93000000D02*
X158800000Y-93000000D01*
X158800000Y-93000000D02*
X162560000Y-89240000D01*
X162560000Y-89240000D02*
X162560000Y-88900000D01*
%TO.N,Net-(J23-Pin_1)*%
X154687500Y-92500000D02*
X158400000Y-92500000D01*
X158400000Y-92500000D02*
X160020000Y-90880000D01*
X160020000Y-90880000D02*
X160020000Y-88900000D01*
D36*
%TO.N,+3.3V*%
X149700000Y-98325000D02*
X151275000Y-98325000D01*
X151275000Y-98325000D02*
X151350000Y-98250000D01*
D35*
%TO.N,/JTAG_TMS*%
X149100000Y-97262000D02*
X149338000Y-97500000D01*
X149338000Y-97500000D02*
X150673008Y-97500000D01*
X150673008Y-97500000D02*
X151000000Y-97173008D01*
X151000000Y-97173008D02*
X151000000Y-96687500D01*
%TO.N,Net-(J14-Pin_1)*%
X150500000Y-96687500D02*
X148838139Y-96687500D01*
X148838139Y-96687500D02*
X147900000Y-97625639D01*
X147900000Y-99640000D02*
X149860000Y-101600000D01*
X147900000Y-97625639D02*
X147900000Y-99640000D01*
%TO.N,/JTAG_TCK*%
X148006233Y-96706233D02*
X148712466Y-96000000D01*
X148712466Y-96000000D02*
X149812500Y-96000000D01*
%TO.N,/XTAL_1*%
X153000000Y-96687500D02*
X153000000Y-98200000D01*
X153000000Y-98200000D02*
X153050000Y-98250000D01*
D36*
%TO.N,GND*%
X152750000Y-101250000D02*
X152400000Y-101600000D01*
D38*
%TO.N,+3.3V*%
X154400000Y-97686504D02*
X154867754Y-97686504D01*
X154867754Y-97686504D02*
X155306250Y-98125000D01*
%TO.N,Net-(U1A-VDD)*%
X157106250Y-97550000D02*
X156243750Y-96687500D01*
X156243750Y-96687500D02*
X155500000Y-96687500D01*
D35*
%TO.N,GND*%
X154687500Y-96000000D02*
X157350000Y-96000000D01*
X158350000Y-99100000D02*
X157950000Y-99500000D01*
X157400000Y-96000000D02*
X158350000Y-96950000D01*
X157950000Y-99500000D02*
X157050000Y-99500000D01*
X158350000Y-96950000D02*
X158350000Y-99100000D01*
D36*
%TO.N,/JTAG_TMS*%
X144500000Y-94450000D02*
X142260000Y-94450000D01*
X142260000Y-94450000D02*
X142240000Y-94430000D01*
%TO.N,/JTAG_TCK*%
X144500000Y-95800000D02*
X142340000Y-95800000D01*
X142340000Y-95800000D02*
X142240000Y-95700000D01*
X145700000Y-95100000D02*
X145200000Y-95100000D01*
X145200000Y-95100000D02*
X144500000Y-95800000D01*
%TO.N,/JTAG_TMS*%
X146400000Y-94300000D02*
X144650000Y-94300000D01*
X144650000Y-94300000D02*
X144500000Y-94450000D01*
%TO.N,Net-(U1A-VDD)*%
X154000000Y-96687500D02*
X155500000Y-96687500D01*
%TO.N,/XRSn*%
X154950000Y-91450000D02*
X156175000Y-91450000D01*
X156175000Y-91450000D02*
X156275000Y-91550000D01*
X154000000Y-91812500D02*
X154587500Y-91812500D01*
X154587500Y-91812500D02*
X154950000Y-91450000D01*
X140725000Y-91325000D02*
X141850000Y-91325000D01*
X141850000Y-91325000D02*
X141975000Y-91450000D01*
%TO.N,Net-(J1-~{RESET})*%
X139275000Y-93900000D02*
X139275000Y-91325000D01*
D35*
X139275000Y-92350000D02*
X139275000Y-93900000D01*
D36*
X139987500Y-95325000D02*
X139987500Y-94612500D01*
X139987500Y-94612500D02*
X139275000Y-93900000D01*
X140970000Y-95700000D02*
X140362500Y-95700000D01*
X140362500Y-95700000D02*
X139987500Y-95325000D01*
D35*
X139275000Y-91325000D02*
X139275000Y-92350000D01*
%TO.N,Net-(J9-Pin_1)*%
X139700000Y-88900000D02*
X141000000Y-90200000D01*
X141000000Y-90200000D02*
X142600000Y-90200000D01*
X143800000Y-91400000D02*
X147300000Y-91400000D01*
X142600000Y-90200000D02*
X143800000Y-91400000D01*
X147300000Y-91400000D02*
X147700000Y-91800000D01*
X147700000Y-91800000D02*
X148700000Y-91800000D01*
X148700000Y-91800000D02*
X149400000Y-92500000D01*
X149400000Y-92500000D02*
X149812500Y-92500000D01*
%TO.N,Net-(J10-Pin_1)*%
X149812500Y-94000000D02*
X147900000Y-94000000D01*
X147900000Y-94000000D02*
X145350000Y-96550000D01*
X145350000Y-96550000D02*
X145350000Y-98407208D01*
X145350000Y-98407208D02*
X144216104Y-99541104D01*
X144216104Y-99541104D02*
X140658896Y-99541104D01*
X140658896Y-99541104D02*
X139700000Y-100500000D01*
X139700000Y-100500000D02*
X139700000Y-101600000D01*
%TO.N,Net-(J11-Pin_1)*%
X149812500Y-94500000D02*
X148100000Y-94500000D01*
X145800000Y-96800000D02*
X145800000Y-98593604D01*
X148100000Y-94500000D02*
X145800000Y-96800000D01*
X145800000Y-98593604D02*
X144321802Y-100071802D01*
X144321802Y-100071802D02*
X142728198Y-100071802D01*
X142728198Y-100071802D02*
X142240000Y-100560000D01*
X142240000Y-100560000D02*
X142240000Y-101600000D01*
%TO.N,Net-(J12-Pin_1)*%
X149812500Y-95000000D02*
X148263604Y-95000000D01*
X148263604Y-95000000D02*
X146250000Y-97013604D01*
X146250000Y-97013604D02*
X146250000Y-98780000D01*
X146250000Y-98780000D02*
X144780000Y-100250000D01*
X144780000Y-100250000D02*
X144780000Y-101600000D01*
%TO.N,Net-(J13-Pin_1)*%
X147320000Y-101600000D02*
X147320000Y-96580000D01*
X147320000Y-96580000D02*
X148400000Y-95500000D01*
%TO.N,/JTAG_TCK*%
X145550000Y-95250000D02*
X145700000Y-95100000D01*
%TO.N,GND*%
X139300000Y-97000000D02*
X138800000Y-96500000D01*
D36*
X140970000Y-96970000D02*
X140020000Y-96970000D01*
D35*
X155175000Y-99500000D02*
X155200000Y-99500000D01*
X155200000Y-99500000D02*
X155200000Y-99475000D01*
D37*
X149812500Y-93000000D02*
X150940000Y-93000000D01*
D38*
X137475000Y-89215000D02*
X137160000Y-88900000D01*
D37*
X152300000Y-94940000D02*
X152300000Y-94900000D01*
D38*
X137500000Y-92100000D02*
X137475000Y-89215000D01*
D37*
X153950000Y-95950000D02*
X153260000Y-95260000D01*
D35*
X155306250Y-99475000D02*
X157081250Y-99475000D01*
X154950000Y-99725000D02*
X155175000Y-99500000D01*
X156975000Y-99475000D02*
X157000000Y-99450000D01*
D37*
X153200000Y-95200000D02*
X152300000Y-94300000D01*
X152260000Y-94900000D02*
X152250000Y-94890000D01*
D38*
X137475000Y-92100000D02*
X137500000Y-92100000D01*
D35*
X152300000Y-101600000D02*
X152400000Y-101600000D01*
D37*
X152300000Y-94900000D02*
X152260000Y-94900000D01*
X150940000Y-93000000D02*
X151300000Y-93360000D01*
D35*
X139300000Y-97000000D02*
X139950000Y-97000000D01*
X155200000Y-99475000D02*
X155200000Y-99475000D01*
D37*
X154637500Y-95950000D02*
X153950000Y-95950000D01*
D35*
%TO.N,+3.3V*%
X153500000Y-97173008D02*
X154013496Y-97686504D01*
D38*
X155200000Y-98100000D02*
X155175000Y-98100000D01*
D36*
X140195000Y-93655000D02*
X140970000Y-94430000D01*
D35*
X153500000Y-96687500D02*
X153500000Y-97173008D01*
D38*
X134800000Y-98250000D02*
X134800000Y-98300000D01*
X155200000Y-98125000D02*
X155200000Y-98125000D01*
D35*
X149812500Y-93500000D02*
X148650000Y-93500000D01*
X148650000Y-93500000D02*
X148050000Y-92900000D01*
X148100000Y-92600000D02*
X148050000Y-92900000D01*
X154400000Y-97686504D02*
X154013496Y-97686504D01*
D38*
X155200000Y-98125000D02*
X155200000Y-98100000D01*
X134850000Y-98300000D02*
X134850000Y-98300000D01*
X134800000Y-96600000D02*
X134800000Y-98250000D01*
X134800000Y-98250000D02*
X134800000Y-98250000D01*
X134800000Y-98300000D02*
X134850000Y-98300000D01*
D35*
%TO.N,Net-(U1A-VDD)*%
X156922500Y-97327500D02*
X157000000Y-97250000D01*
D38*
%TO.N,+VSW*%
X134620000Y-88900000D02*
X134620000Y-92005000D01*
X134620000Y-92005000D02*
X134525000Y-92100000D01*
X134525000Y-92100000D02*
X134525000Y-94350000D01*
D35*
%TO.N,/XRSn*%
X154587500Y-91812500D02*
X155000000Y-91400000D01*
%TO.N,Net-(J2-Pin_1)*%
X155000000Y-90650000D02*
X154452195Y-90650000D01*
X157480000Y-89720000D02*
X157480000Y-88900000D01*
X153500000Y-91812500D02*
X153500000Y-91326992D01*
X153500000Y-91326992D02*
X154176992Y-90650000D01*
X156550000Y-90650000D02*
X157480000Y-89720000D01*
X154176992Y-90650000D02*
X155000000Y-90650000D01*
X156550000Y-90650000D02*
X155000000Y-90650000D01*
%TO.N,Net-(J3-Pin_1)*%
X153000000Y-91000000D02*
X154940000Y-89060000D01*
X153000000Y-91812500D02*
X153000000Y-91000000D01*
X154940000Y-89460000D02*
X154940000Y-88900000D01*
X154940000Y-89060000D02*
X154940000Y-88900000D01*
%TO.N,Net-(J4-Pin_1)*%
X152500000Y-91812500D02*
X152500000Y-89000000D01*
X152500000Y-89000000D02*
X152400000Y-88900000D01*
%TO.N,Net-(J5-Pin_1)*%
X152000000Y-91040000D02*
X149860000Y-88900000D01*
X152000000Y-91812500D02*
X152000000Y-91040000D01*
X149860000Y-89060000D02*
X149860000Y-88900000D01*
%TO.N,Net-(J6-Pin_1)*%
X151500000Y-91812500D02*
X151500000Y-91176396D01*
X148620000Y-90200000D02*
X147320000Y-88900000D01*
X151500000Y-91176396D02*
X150523604Y-90200000D01*
X150523604Y-90200000D02*
X148620000Y-90200000D01*
%TO.N,Net-(J7-Pin_1)*%
X147900000Y-90400000D02*
X148300000Y-90800000D01*
X150487208Y-90800000D02*
X151000000Y-91312792D01*
X144780000Y-88900000D02*
X144800000Y-88900000D01*
X144800000Y-88900000D02*
X146300000Y-90400000D01*
X146300000Y-90400000D02*
X147900000Y-90400000D01*
X151000000Y-91312792D02*
X151000000Y-91812500D01*
X148300000Y-90800000D02*
X150487208Y-90800000D01*
%TO.N,Net-(J8-Pin_1)*%
X150112500Y-91812500D02*
X149600000Y-91300000D01*
X148000000Y-91300000D02*
X147600000Y-90900000D01*
X144120000Y-90780000D02*
X142240000Y-88900000D01*
X147600000Y-90900000D02*
X144240000Y-90900000D01*
X149600000Y-91300000D02*
X148000000Y-91300000D01*
X144240000Y-90900000D02*
X144120000Y-90780000D01*
X150500000Y-91812500D02*
X150112500Y-91812500D01*
%TO.N,Net-(J13-Pin_1)*%
X148400000Y-95500000D02*
X149812500Y-95500000D01*
%TO.N,GND*%
X157480000Y-101520000D02*
X157480000Y-101600000D01*
%TD*%
M02*
